%TF.GenerationSoftware,KiCad,Pcbnew,9.0.2*%
%TF.CreationDate,2025-11-09T22:55:19+01:00*%
%TF.ProjectId,rev_main_A,7265765f-6d61-4696-9e5f-412e6b696361,A.1.0*%
%TF.SameCoordinates,Original*%
%TF.FileFunction,Glue,Bot*%
%TF.FilePolarity,Positive*%
%FSLAX46Y46*%
G04 Gerber Fmt 4.6, Leading zero omitted, Abs format (unit mm)*
G04 Created by KiCad (PCBNEW 9.0.2) date 2025-11-09 22:55:19*
%MOMM*%
%LPD*%
G01*
G04 APERTURE LIST*
%ADD10C,0.100000*%
%ADD11C,0.150000*%
%ADD12C,0.300000*%
%ADD13C,0.400000*%
G04 APERTURE END LIST*
D10*
D11*
X299989000Y-253002200D02*
X407989000Y-253002200D01*
X407989000Y-285002200D01*
X299989000Y-285002200D01*
X299989000Y-253002200D01*
D10*
D11*
X10000000Y-10000000D02*
X409989000Y-10000000D01*
X409989000Y-287002200D01*
X10000000Y-287002200D01*
X10000000Y-10000000D01*
D10*
D11*
X12000000Y-12000000D02*
X407989000Y-12000000D01*
X407989000Y-285002200D01*
X12000000Y-285002200D01*
X12000000Y-12000000D01*
D10*
D11*
X60000000Y-12000000D02*
X60000000Y-10000000D01*
D10*
D11*
X110000000Y-12000000D02*
X110000000Y-10000000D01*
D10*
D11*
X160000000Y-12000000D02*
X160000000Y-10000000D01*
D10*
D11*
X210000000Y-12000000D02*
X210000000Y-10000000D01*
D10*
D11*
X260000000Y-12000000D02*
X260000000Y-10000000D01*
D10*
D11*
X310000000Y-12000000D02*
X310000000Y-10000000D01*
D10*
D11*
X360000000Y-12000000D02*
X360000000Y-10000000D01*
D10*
D11*
X36089160Y-11593604D02*
X35346303Y-11593604D01*
X35717731Y-11593604D02*
X35717731Y-10293604D01*
X35717731Y-10293604D02*
X35593922Y-10479319D01*
X35593922Y-10479319D02*
X35470112Y-10603128D01*
X35470112Y-10603128D02*
X35346303Y-10665033D01*
D10*
D11*
X85346303Y-10417414D02*
X85408207Y-10355509D01*
X85408207Y-10355509D02*
X85532017Y-10293604D01*
X85532017Y-10293604D02*
X85841541Y-10293604D01*
X85841541Y-10293604D02*
X85965350Y-10355509D01*
X85965350Y-10355509D02*
X86027255Y-10417414D01*
X86027255Y-10417414D02*
X86089160Y-10541223D01*
X86089160Y-10541223D02*
X86089160Y-10665033D01*
X86089160Y-10665033D02*
X86027255Y-10850747D01*
X86027255Y-10850747D02*
X85284398Y-11593604D01*
X85284398Y-11593604D02*
X86089160Y-11593604D01*
D10*
D11*
X135284398Y-10293604D02*
X136089160Y-10293604D01*
X136089160Y-10293604D02*
X135655826Y-10788842D01*
X135655826Y-10788842D02*
X135841541Y-10788842D01*
X135841541Y-10788842D02*
X135965350Y-10850747D01*
X135965350Y-10850747D02*
X136027255Y-10912652D01*
X136027255Y-10912652D02*
X136089160Y-11036461D01*
X136089160Y-11036461D02*
X136089160Y-11345985D01*
X136089160Y-11345985D02*
X136027255Y-11469795D01*
X136027255Y-11469795D02*
X135965350Y-11531700D01*
X135965350Y-11531700D02*
X135841541Y-11593604D01*
X135841541Y-11593604D02*
X135470112Y-11593604D01*
X135470112Y-11593604D02*
X135346303Y-11531700D01*
X135346303Y-11531700D02*
X135284398Y-11469795D01*
D10*
D11*
X185965350Y-10726938D02*
X185965350Y-11593604D01*
X185655826Y-10231700D02*
X185346303Y-11160271D01*
X185346303Y-11160271D02*
X186151064Y-11160271D01*
D10*
D11*
X236027255Y-10293604D02*
X235408207Y-10293604D01*
X235408207Y-10293604D02*
X235346303Y-10912652D01*
X235346303Y-10912652D02*
X235408207Y-10850747D01*
X235408207Y-10850747D02*
X235532017Y-10788842D01*
X235532017Y-10788842D02*
X235841541Y-10788842D01*
X235841541Y-10788842D02*
X235965350Y-10850747D01*
X235965350Y-10850747D02*
X236027255Y-10912652D01*
X236027255Y-10912652D02*
X236089160Y-11036461D01*
X236089160Y-11036461D02*
X236089160Y-11345985D01*
X236089160Y-11345985D02*
X236027255Y-11469795D01*
X236027255Y-11469795D02*
X235965350Y-11531700D01*
X235965350Y-11531700D02*
X235841541Y-11593604D01*
X235841541Y-11593604D02*
X235532017Y-11593604D01*
X235532017Y-11593604D02*
X235408207Y-11531700D01*
X235408207Y-11531700D02*
X235346303Y-11469795D01*
D10*
D11*
X285965350Y-10293604D02*
X285717731Y-10293604D01*
X285717731Y-10293604D02*
X285593922Y-10355509D01*
X285593922Y-10355509D02*
X285532017Y-10417414D01*
X285532017Y-10417414D02*
X285408207Y-10603128D01*
X285408207Y-10603128D02*
X285346303Y-10850747D01*
X285346303Y-10850747D02*
X285346303Y-11345985D01*
X285346303Y-11345985D02*
X285408207Y-11469795D01*
X285408207Y-11469795D02*
X285470112Y-11531700D01*
X285470112Y-11531700D02*
X285593922Y-11593604D01*
X285593922Y-11593604D02*
X285841541Y-11593604D01*
X285841541Y-11593604D02*
X285965350Y-11531700D01*
X285965350Y-11531700D02*
X286027255Y-11469795D01*
X286027255Y-11469795D02*
X286089160Y-11345985D01*
X286089160Y-11345985D02*
X286089160Y-11036461D01*
X286089160Y-11036461D02*
X286027255Y-10912652D01*
X286027255Y-10912652D02*
X285965350Y-10850747D01*
X285965350Y-10850747D02*
X285841541Y-10788842D01*
X285841541Y-10788842D02*
X285593922Y-10788842D01*
X285593922Y-10788842D02*
X285470112Y-10850747D01*
X285470112Y-10850747D02*
X285408207Y-10912652D01*
X285408207Y-10912652D02*
X285346303Y-11036461D01*
D10*
D11*
X335284398Y-10293604D02*
X336151064Y-10293604D01*
X336151064Y-10293604D02*
X335593922Y-11593604D01*
D10*
D11*
X385593922Y-10850747D02*
X385470112Y-10788842D01*
X385470112Y-10788842D02*
X385408207Y-10726938D01*
X385408207Y-10726938D02*
X385346303Y-10603128D01*
X385346303Y-10603128D02*
X385346303Y-10541223D01*
X385346303Y-10541223D02*
X385408207Y-10417414D01*
X385408207Y-10417414D02*
X385470112Y-10355509D01*
X385470112Y-10355509D02*
X385593922Y-10293604D01*
X385593922Y-10293604D02*
X385841541Y-10293604D01*
X385841541Y-10293604D02*
X385965350Y-10355509D01*
X385965350Y-10355509D02*
X386027255Y-10417414D01*
X386027255Y-10417414D02*
X386089160Y-10541223D01*
X386089160Y-10541223D02*
X386089160Y-10603128D01*
X386089160Y-10603128D02*
X386027255Y-10726938D01*
X386027255Y-10726938D02*
X385965350Y-10788842D01*
X385965350Y-10788842D02*
X385841541Y-10850747D01*
X385841541Y-10850747D02*
X385593922Y-10850747D01*
X385593922Y-10850747D02*
X385470112Y-10912652D01*
X385470112Y-10912652D02*
X385408207Y-10974557D01*
X385408207Y-10974557D02*
X385346303Y-11098366D01*
X385346303Y-11098366D02*
X385346303Y-11345985D01*
X385346303Y-11345985D02*
X385408207Y-11469795D01*
X385408207Y-11469795D02*
X385470112Y-11531700D01*
X385470112Y-11531700D02*
X385593922Y-11593604D01*
X385593922Y-11593604D02*
X385841541Y-11593604D01*
X385841541Y-11593604D02*
X385965350Y-11531700D01*
X385965350Y-11531700D02*
X386027255Y-11469795D01*
X386027255Y-11469795D02*
X386089160Y-11345985D01*
X386089160Y-11345985D02*
X386089160Y-11098366D01*
X386089160Y-11098366D02*
X386027255Y-10974557D01*
X386027255Y-10974557D02*
X385965350Y-10912652D01*
X385965350Y-10912652D02*
X385841541Y-10850747D01*
D10*
D11*
X60000000Y-285002200D02*
X60000000Y-287002200D01*
D10*
D11*
X110000000Y-285002200D02*
X110000000Y-287002200D01*
D10*
D11*
X160000000Y-285002200D02*
X160000000Y-287002200D01*
D10*
D11*
X210000000Y-285002200D02*
X210000000Y-287002200D01*
D10*
D11*
X260000000Y-285002200D02*
X260000000Y-287002200D01*
D10*
D11*
X310000000Y-285002200D02*
X310000000Y-287002200D01*
D10*
D11*
X360000000Y-285002200D02*
X360000000Y-287002200D01*
D10*
D11*
X36089160Y-286595804D02*
X35346303Y-286595804D01*
X35717731Y-286595804D02*
X35717731Y-285295804D01*
X35717731Y-285295804D02*
X35593922Y-285481519D01*
X35593922Y-285481519D02*
X35470112Y-285605328D01*
X35470112Y-285605328D02*
X35346303Y-285667233D01*
D10*
D11*
X85346303Y-285419614D02*
X85408207Y-285357709D01*
X85408207Y-285357709D02*
X85532017Y-285295804D01*
X85532017Y-285295804D02*
X85841541Y-285295804D01*
X85841541Y-285295804D02*
X85965350Y-285357709D01*
X85965350Y-285357709D02*
X86027255Y-285419614D01*
X86027255Y-285419614D02*
X86089160Y-285543423D01*
X86089160Y-285543423D02*
X86089160Y-285667233D01*
X86089160Y-285667233D02*
X86027255Y-285852947D01*
X86027255Y-285852947D02*
X85284398Y-286595804D01*
X85284398Y-286595804D02*
X86089160Y-286595804D01*
D10*
D11*
X135284398Y-285295804D02*
X136089160Y-285295804D01*
X136089160Y-285295804D02*
X135655826Y-285791042D01*
X135655826Y-285791042D02*
X135841541Y-285791042D01*
X135841541Y-285791042D02*
X135965350Y-285852947D01*
X135965350Y-285852947D02*
X136027255Y-285914852D01*
X136027255Y-285914852D02*
X136089160Y-286038661D01*
X136089160Y-286038661D02*
X136089160Y-286348185D01*
X136089160Y-286348185D02*
X136027255Y-286471995D01*
X136027255Y-286471995D02*
X135965350Y-286533900D01*
X135965350Y-286533900D02*
X135841541Y-286595804D01*
X135841541Y-286595804D02*
X135470112Y-286595804D01*
X135470112Y-286595804D02*
X135346303Y-286533900D01*
X135346303Y-286533900D02*
X135284398Y-286471995D01*
D10*
D11*
X185965350Y-285729138D02*
X185965350Y-286595804D01*
X185655826Y-285233900D02*
X185346303Y-286162471D01*
X185346303Y-286162471D02*
X186151064Y-286162471D01*
D10*
D11*
X236027255Y-285295804D02*
X235408207Y-285295804D01*
X235408207Y-285295804D02*
X235346303Y-285914852D01*
X235346303Y-285914852D02*
X235408207Y-285852947D01*
X235408207Y-285852947D02*
X235532017Y-285791042D01*
X235532017Y-285791042D02*
X235841541Y-285791042D01*
X235841541Y-285791042D02*
X235965350Y-285852947D01*
X235965350Y-285852947D02*
X236027255Y-285914852D01*
X236027255Y-285914852D02*
X236089160Y-286038661D01*
X236089160Y-286038661D02*
X236089160Y-286348185D01*
X236089160Y-286348185D02*
X236027255Y-286471995D01*
X236027255Y-286471995D02*
X235965350Y-286533900D01*
X235965350Y-286533900D02*
X235841541Y-286595804D01*
X235841541Y-286595804D02*
X235532017Y-286595804D01*
X235532017Y-286595804D02*
X235408207Y-286533900D01*
X235408207Y-286533900D02*
X235346303Y-286471995D01*
D10*
D11*
X285965350Y-285295804D02*
X285717731Y-285295804D01*
X285717731Y-285295804D02*
X285593922Y-285357709D01*
X285593922Y-285357709D02*
X285532017Y-285419614D01*
X285532017Y-285419614D02*
X285408207Y-285605328D01*
X285408207Y-285605328D02*
X285346303Y-285852947D01*
X285346303Y-285852947D02*
X285346303Y-286348185D01*
X285346303Y-286348185D02*
X285408207Y-286471995D01*
X285408207Y-286471995D02*
X285470112Y-286533900D01*
X285470112Y-286533900D02*
X285593922Y-286595804D01*
X285593922Y-286595804D02*
X285841541Y-286595804D01*
X285841541Y-286595804D02*
X285965350Y-286533900D01*
X285965350Y-286533900D02*
X286027255Y-286471995D01*
X286027255Y-286471995D02*
X286089160Y-286348185D01*
X286089160Y-286348185D02*
X286089160Y-286038661D01*
X286089160Y-286038661D02*
X286027255Y-285914852D01*
X286027255Y-285914852D02*
X285965350Y-285852947D01*
X285965350Y-285852947D02*
X285841541Y-285791042D01*
X285841541Y-285791042D02*
X285593922Y-285791042D01*
X285593922Y-285791042D02*
X285470112Y-285852947D01*
X285470112Y-285852947D02*
X285408207Y-285914852D01*
X285408207Y-285914852D02*
X285346303Y-286038661D01*
D10*
D11*
X335284398Y-285295804D02*
X336151064Y-285295804D01*
X336151064Y-285295804D02*
X335593922Y-286595804D01*
D10*
D11*
X385593922Y-285852947D02*
X385470112Y-285791042D01*
X385470112Y-285791042D02*
X385408207Y-285729138D01*
X385408207Y-285729138D02*
X385346303Y-285605328D01*
X385346303Y-285605328D02*
X385346303Y-285543423D01*
X385346303Y-285543423D02*
X385408207Y-285419614D01*
X385408207Y-285419614D02*
X385470112Y-285357709D01*
X385470112Y-285357709D02*
X385593922Y-285295804D01*
X385593922Y-285295804D02*
X385841541Y-285295804D01*
X385841541Y-285295804D02*
X385965350Y-285357709D01*
X385965350Y-285357709D02*
X386027255Y-285419614D01*
X386027255Y-285419614D02*
X386089160Y-285543423D01*
X386089160Y-285543423D02*
X386089160Y-285605328D01*
X386089160Y-285605328D02*
X386027255Y-285729138D01*
X386027255Y-285729138D02*
X385965350Y-285791042D01*
X385965350Y-285791042D02*
X385841541Y-285852947D01*
X385841541Y-285852947D02*
X385593922Y-285852947D01*
X385593922Y-285852947D02*
X385470112Y-285914852D01*
X385470112Y-285914852D02*
X385408207Y-285976757D01*
X385408207Y-285976757D02*
X385346303Y-286100566D01*
X385346303Y-286100566D02*
X385346303Y-286348185D01*
X385346303Y-286348185D02*
X385408207Y-286471995D01*
X385408207Y-286471995D02*
X385470112Y-286533900D01*
X385470112Y-286533900D02*
X385593922Y-286595804D01*
X385593922Y-286595804D02*
X385841541Y-286595804D01*
X385841541Y-286595804D02*
X385965350Y-286533900D01*
X385965350Y-286533900D02*
X386027255Y-286471995D01*
X386027255Y-286471995D02*
X386089160Y-286348185D01*
X386089160Y-286348185D02*
X386089160Y-286100566D01*
X386089160Y-286100566D02*
X386027255Y-285976757D01*
X386027255Y-285976757D02*
X385965350Y-285914852D01*
X385965350Y-285914852D02*
X385841541Y-285852947D01*
D10*
D11*
X10000000Y-60000000D02*
X12000000Y-60000000D01*
D10*
D11*
X10000000Y-110000000D02*
X12000000Y-110000000D01*
D10*
D11*
X10000000Y-160000000D02*
X12000000Y-160000000D01*
D10*
D11*
X10000000Y-210000000D02*
X12000000Y-210000000D01*
D10*
D11*
X10000000Y-260000000D02*
X12000000Y-260000000D01*
D10*
D11*
X10690476Y-35222176D02*
X11309523Y-35222176D01*
X10566666Y-35593604D02*
X10999999Y-34293604D01*
X10999999Y-34293604D02*
X11433333Y-35593604D01*
D10*
D11*
X11092857Y-84912652D02*
X11278571Y-84974557D01*
X11278571Y-84974557D02*
X11340476Y-85036461D01*
X11340476Y-85036461D02*
X11402380Y-85160271D01*
X11402380Y-85160271D02*
X11402380Y-85345985D01*
X11402380Y-85345985D02*
X11340476Y-85469795D01*
X11340476Y-85469795D02*
X11278571Y-85531700D01*
X11278571Y-85531700D02*
X11154761Y-85593604D01*
X11154761Y-85593604D02*
X10659523Y-85593604D01*
X10659523Y-85593604D02*
X10659523Y-84293604D01*
X10659523Y-84293604D02*
X11092857Y-84293604D01*
X11092857Y-84293604D02*
X11216666Y-84355509D01*
X11216666Y-84355509D02*
X11278571Y-84417414D01*
X11278571Y-84417414D02*
X11340476Y-84541223D01*
X11340476Y-84541223D02*
X11340476Y-84665033D01*
X11340476Y-84665033D02*
X11278571Y-84788842D01*
X11278571Y-84788842D02*
X11216666Y-84850747D01*
X11216666Y-84850747D02*
X11092857Y-84912652D01*
X11092857Y-84912652D02*
X10659523Y-84912652D01*
D10*
D11*
X11402380Y-135469795D02*
X11340476Y-135531700D01*
X11340476Y-135531700D02*
X11154761Y-135593604D01*
X11154761Y-135593604D02*
X11030952Y-135593604D01*
X11030952Y-135593604D02*
X10845238Y-135531700D01*
X10845238Y-135531700D02*
X10721428Y-135407890D01*
X10721428Y-135407890D02*
X10659523Y-135284080D01*
X10659523Y-135284080D02*
X10597619Y-135036461D01*
X10597619Y-135036461D02*
X10597619Y-134850747D01*
X10597619Y-134850747D02*
X10659523Y-134603128D01*
X10659523Y-134603128D02*
X10721428Y-134479319D01*
X10721428Y-134479319D02*
X10845238Y-134355509D01*
X10845238Y-134355509D02*
X11030952Y-134293604D01*
X11030952Y-134293604D02*
X11154761Y-134293604D01*
X11154761Y-134293604D02*
X11340476Y-134355509D01*
X11340476Y-134355509D02*
X11402380Y-134417414D01*
D10*
D11*
X10659523Y-185593604D02*
X10659523Y-184293604D01*
X10659523Y-184293604D02*
X10969047Y-184293604D01*
X10969047Y-184293604D02*
X11154761Y-184355509D01*
X11154761Y-184355509D02*
X11278571Y-184479319D01*
X11278571Y-184479319D02*
X11340476Y-184603128D01*
X11340476Y-184603128D02*
X11402380Y-184850747D01*
X11402380Y-184850747D02*
X11402380Y-185036461D01*
X11402380Y-185036461D02*
X11340476Y-185284080D01*
X11340476Y-185284080D02*
X11278571Y-185407890D01*
X11278571Y-185407890D02*
X11154761Y-185531700D01*
X11154761Y-185531700D02*
X10969047Y-185593604D01*
X10969047Y-185593604D02*
X10659523Y-185593604D01*
D10*
D11*
X10721428Y-234912652D02*
X11154762Y-234912652D01*
X11340476Y-235593604D02*
X10721428Y-235593604D01*
X10721428Y-235593604D02*
X10721428Y-234293604D01*
X10721428Y-234293604D02*
X11340476Y-234293604D01*
D10*
D11*
X11185714Y-284912652D02*
X10752380Y-284912652D01*
X10752380Y-285593604D02*
X10752380Y-284293604D01*
X10752380Y-284293604D02*
X11371428Y-284293604D01*
D10*
D11*
X409989000Y-60000000D02*
X407989000Y-60000000D01*
D10*
D11*
X409989000Y-110000000D02*
X407989000Y-110000000D01*
D10*
D11*
X409989000Y-160000000D02*
X407989000Y-160000000D01*
D10*
D11*
X409989000Y-210000000D02*
X407989000Y-210000000D01*
D10*
D11*
X409989000Y-260000000D02*
X407989000Y-260000000D01*
D10*
D11*
X408679476Y-35222176D02*
X409298523Y-35222176D01*
X408555666Y-35593604D02*
X408988999Y-34293604D01*
X408988999Y-34293604D02*
X409422333Y-35593604D01*
D10*
D11*
X409081857Y-84912652D02*
X409267571Y-84974557D01*
X409267571Y-84974557D02*
X409329476Y-85036461D01*
X409329476Y-85036461D02*
X409391380Y-85160271D01*
X409391380Y-85160271D02*
X409391380Y-85345985D01*
X409391380Y-85345985D02*
X409329476Y-85469795D01*
X409329476Y-85469795D02*
X409267571Y-85531700D01*
X409267571Y-85531700D02*
X409143761Y-85593604D01*
X409143761Y-85593604D02*
X408648523Y-85593604D01*
X408648523Y-85593604D02*
X408648523Y-84293604D01*
X408648523Y-84293604D02*
X409081857Y-84293604D01*
X409081857Y-84293604D02*
X409205666Y-84355509D01*
X409205666Y-84355509D02*
X409267571Y-84417414D01*
X409267571Y-84417414D02*
X409329476Y-84541223D01*
X409329476Y-84541223D02*
X409329476Y-84665033D01*
X409329476Y-84665033D02*
X409267571Y-84788842D01*
X409267571Y-84788842D02*
X409205666Y-84850747D01*
X409205666Y-84850747D02*
X409081857Y-84912652D01*
X409081857Y-84912652D02*
X408648523Y-84912652D01*
D10*
D11*
X409391380Y-135469795D02*
X409329476Y-135531700D01*
X409329476Y-135531700D02*
X409143761Y-135593604D01*
X409143761Y-135593604D02*
X409019952Y-135593604D01*
X409019952Y-135593604D02*
X408834238Y-135531700D01*
X408834238Y-135531700D02*
X408710428Y-135407890D01*
X408710428Y-135407890D02*
X408648523Y-135284080D01*
X408648523Y-135284080D02*
X408586619Y-135036461D01*
X408586619Y-135036461D02*
X408586619Y-134850747D01*
X408586619Y-134850747D02*
X408648523Y-134603128D01*
X408648523Y-134603128D02*
X408710428Y-134479319D01*
X408710428Y-134479319D02*
X408834238Y-134355509D01*
X408834238Y-134355509D02*
X409019952Y-134293604D01*
X409019952Y-134293604D02*
X409143761Y-134293604D01*
X409143761Y-134293604D02*
X409329476Y-134355509D01*
X409329476Y-134355509D02*
X409391380Y-134417414D01*
D10*
D11*
X408648523Y-185593604D02*
X408648523Y-184293604D01*
X408648523Y-184293604D02*
X408958047Y-184293604D01*
X408958047Y-184293604D02*
X409143761Y-184355509D01*
X409143761Y-184355509D02*
X409267571Y-184479319D01*
X409267571Y-184479319D02*
X409329476Y-184603128D01*
X409329476Y-184603128D02*
X409391380Y-184850747D01*
X409391380Y-184850747D02*
X409391380Y-185036461D01*
X409391380Y-185036461D02*
X409329476Y-185284080D01*
X409329476Y-185284080D02*
X409267571Y-185407890D01*
X409267571Y-185407890D02*
X409143761Y-185531700D01*
X409143761Y-185531700D02*
X408958047Y-185593604D01*
X408958047Y-185593604D02*
X408648523Y-185593604D01*
D10*
D11*
X408710428Y-234912652D02*
X409143762Y-234912652D01*
X409329476Y-235593604D02*
X408710428Y-235593604D01*
X408710428Y-235593604D02*
X408710428Y-234293604D01*
X408710428Y-234293604D02*
X409329476Y-234293604D01*
D10*
D11*
X409174714Y-284912652D02*
X408741380Y-284912652D01*
X408741380Y-285593604D02*
X408741380Y-284293604D01*
X408741380Y-284293604D02*
X409360428Y-284293604D01*
D10*
D11*
X323444826Y-280788328D02*
X323444826Y-279288328D01*
X323444826Y-279288328D02*
X323801969Y-279288328D01*
X323801969Y-279288328D02*
X324016255Y-279359757D01*
X324016255Y-279359757D02*
X324159112Y-279502614D01*
X324159112Y-279502614D02*
X324230541Y-279645471D01*
X324230541Y-279645471D02*
X324301969Y-279931185D01*
X324301969Y-279931185D02*
X324301969Y-280145471D01*
X324301969Y-280145471D02*
X324230541Y-280431185D01*
X324230541Y-280431185D02*
X324159112Y-280574042D01*
X324159112Y-280574042D02*
X324016255Y-280716900D01*
X324016255Y-280716900D02*
X323801969Y-280788328D01*
X323801969Y-280788328D02*
X323444826Y-280788328D01*
X325587684Y-280788328D02*
X325587684Y-280002614D01*
X325587684Y-280002614D02*
X325516255Y-279859757D01*
X325516255Y-279859757D02*
X325373398Y-279788328D01*
X325373398Y-279788328D02*
X325087684Y-279788328D01*
X325087684Y-279788328D02*
X324944826Y-279859757D01*
X325587684Y-280716900D02*
X325444826Y-280788328D01*
X325444826Y-280788328D02*
X325087684Y-280788328D01*
X325087684Y-280788328D02*
X324944826Y-280716900D01*
X324944826Y-280716900D02*
X324873398Y-280574042D01*
X324873398Y-280574042D02*
X324873398Y-280431185D01*
X324873398Y-280431185D02*
X324944826Y-280288328D01*
X324944826Y-280288328D02*
X325087684Y-280216900D01*
X325087684Y-280216900D02*
X325444826Y-280216900D01*
X325444826Y-280216900D02*
X325587684Y-280145471D01*
X326087684Y-279788328D02*
X326659112Y-279788328D01*
X326301969Y-279288328D02*
X326301969Y-280574042D01*
X326301969Y-280574042D02*
X326373398Y-280716900D01*
X326373398Y-280716900D02*
X326516255Y-280788328D01*
X326516255Y-280788328D02*
X326659112Y-280788328D01*
X327730541Y-280716900D02*
X327587684Y-280788328D01*
X327587684Y-280788328D02*
X327301970Y-280788328D01*
X327301970Y-280788328D02*
X327159112Y-280716900D01*
X327159112Y-280716900D02*
X327087684Y-280574042D01*
X327087684Y-280574042D02*
X327087684Y-280002614D01*
X327087684Y-280002614D02*
X327159112Y-279859757D01*
X327159112Y-279859757D02*
X327301970Y-279788328D01*
X327301970Y-279788328D02*
X327587684Y-279788328D01*
X327587684Y-279788328D02*
X327730541Y-279859757D01*
X327730541Y-279859757D02*
X327801970Y-280002614D01*
X327801970Y-280002614D02*
X327801970Y-280145471D01*
X327801970Y-280145471D02*
X327087684Y-280288328D01*
X328444826Y-280645471D02*
X328516255Y-280716900D01*
X328516255Y-280716900D02*
X328444826Y-280788328D01*
X328444826Y-280788328D02*
X328373398Y-280716900D01*
X328373398Y-280716900D02*
X328444826Y-280645471D01*
X328444826Y-280645471D02*
X328444826Y-280788328D01*
X328444826Y-279859757D02*
X328516255Y-279931185D01*
X328516255Y-279931185D02*
X328444826Y-280002614D01*
X328444826Y-280002614D02*
X328373398Y-279931185D01*
X328373398Y-279931185D02*
X328444826Y-279859757D01*
X328444826Y-279859757D02*
X328444826Y-280002614D01*
X330230541Y-279431185D02*
X330301969Y-279359757D01*
X330301969Y-279359757D02*
X330444827Y-279288328D01*
X330444827Y-279288328D02*
X330801969Y-279288328D01*
X330801969Y-279288328D02*
X330944827Y-279359757D01*
X330944827Y-279359757D02*
X331016255Y-279431185D01*
X331016255Y-279431185D02*
X331087684Y-279574042D01*
X331087684Y-279574042D02*
X331087684Y-279716900D01*
X331087684Y-279716900D02*
X331016255Y-279931185D01*
X331016255Y-279931185D02*
X330159112Y-280788328D01*
X330159112Y-280788328D02*
X331087684Y-280788328D01*
X332016255Y-279288328D02*
X332159112Y-279288328D01*
X332159112Y-279288328D02*
X332301969Y-279359757D01*
X332301969Y-279359757D02*
X332373398Y-279431185D01*
X332373398Y-279431185D02*
X332444826Y-279574042D01*
X332444826Y-279574042D02*
X332516255Y-279859757D01*
X332516255Y-279859757D02*
X332516255Y-280216900D01*
X332516255Y-280216900D02*
X332444826Y-280502614D01*
X332444826Y-280502614D02*
X332373398Y-280645471D01*
X332373398Y-280645471D02*
X332301969Y-280716900D01*
X332301969Y-280716900D02*
X332159112Y-280788328D01*
X332159112Y-280788328D02*
X332016255Y-280788328D01*
X332016255Y-280788328D02*
X331873398Y-280716900D01*
X331873398Y-280716900D02*
X331801969Y-280645471D01*
X331801969Y-280645471D02*
X331730540Y-280502614D01*
X331730540Y-280502614D02*
X331659112Y-280216900D01*
X331659112Y-280216900D02*
X331659112Y-279859757D01*
X331659112Y-279859757D02*
X331730540Y-279574042D01*
X331730540Y-279574042D02*
X331801969Y-279431185D01*
X331801969Y-279431185D02*
X331873398Y-279359757D01*
X331873398Y-279359757D02*
X332016255Y-279288328D01*
X334230540Y-279216900D02*
X332944826Y-281145471D01*
X335016255Y-279288328D02*
X335159112Y-279288328D01*
X335159112Y-279288328D02*
X335301969Y-279359757D01*
X335301969Y-279359757D02*
X335373398Y-279431185D01*
X335373398Y-279431185D02*
X335444826Y-279574042D01*
X335444826Y-279574042D02*
X335516255Y-279859757D01*
X335516255Y-279859757D02*
X335516255Y-280216900D01*
X335516255Y-280216900D02*
X335444826Y-280502614D01*
X335444826Y-280502614D02*
X335373398Y-280645471D01*
X335373398Y-280645471D02*
X335301969Y-280716900D01*
X335301969Y-280716900D02*
X335159112Y-280788328D01*
X335159112Y-280788328D02*
X335016255Y-280788328D01*
X335016255Y-280788328D02*
X334873398Y-280716900D01*
X334873398Y-280716900D02*
X334801969Y-280645471D01*
X334801969Y-280645471D02*
X334730540Y-280502614D01*
X334730540Y-280502614D02*
X334659112Y-280216900D01*
X334659112Y-280216900D02*
X334659112Y-279859757D01*
X334659112Y-279859757D02*
X334730540Y-279574042D01*
X334730540Y-279574042D02*
X334801969Y-279431185D01*
X334801969Y-279431185D02*
X334873398Y-279359757D01*
X334873398Y-279359757D02*
X335016255Y-279288328D01*
X336016254Y-279288328D02*
X336944826Y-279288328D01*
X336944826Y-279288328D02*
X336444826Y-279859757D01*
X336444826Y-279859757D02*
X336659111Y-279859757D01*
X336659111Y-279859757D02*
X336801969Y-279931185D01*
X336801969Y-279931185D02*
X336873397Y-280002614D01*
X336873397Y-280002614D02*
X336944826Y-280145471D01*
X336944826Y-280145471D02*
X336944826Y-280502614D01*
X336944826Y-280502614D02*
X336873397Y-280645471D01*
X336873397Y-280645471D02*
X336801969Y-280716900D01*
X336801969Y-280716900D02*
X336659111Y-280788328D01*
X336659111Y-280788328D02*
X336230540Y-280788328D01*
X336230540Y-280788328D02*
X336087683Y-280716900D01*
X336087683Y-280716900D02*
X336016254Y-280645471D01*
X338659111Y-279216900D02*
X337373397Y-281145471D01*
X339087683Y-279431185D02*
X339159111Y-279359757D01*
X339159111Y-279359757D02*
X339301969Y-279288328D01*
X339301969Y-279288328D02*
X339659111Y-279288328D01*
X339659111Y-279288328D02*
X339801969Y-279359757D01*
X339801969Y-279359757D02*
X339873397Y-279431185D01*
X339873397Y-279431185D02*
X339944826Y-279574042D01*
X339944826Y-279574042D02*
X339944826Y-279716900D01*
X339944826Y-279716900D02*
X339873397Y-279931185D01*
X339873397Y-279931185D02*
X339016254Y-280788328D01*
X339016254Y-280788328D02*
X339944826Y-280788328D01*
X340873397Y-279288328D02*
X341016254Y-279288328D01*
X341016254Y-279288328D02*
X341159111Y-279359757D01*
X341159111Y-279359757D02*
X341230540Y-279431185D01*
X341230540Y-279431185D02*
X341301968Y-279574042D01*
X341301968Y-279574042D02*
X341373397Y-279859757D01*
X341373397Y-279859757D02*
X341373397Y-280216900D01*
X341373397Y-280216900D02*
X341301968Y-280502614D01*
X341301968Y-280502614D02*
X341230540Y-280645471D01*
X341230540Y-280645471D02*
X341159111Y-280716900D01*
X341159111Y-280716900D02*
X341016254Y-280788328D01*
X341016254Y-280788328D02*
X340873397Y-280788328D01*
X340873397Y-280788328D02*
X340730540Y-280716900D01*
X340730540Y-280716900D02*
X340659111Y-280645471D01*
X340659111Y-280645471D02*
X340587682Y-280502614D01*
X340587682Y-280502614D02*
X340516254Y-280216900D01*
X340516254Y-280216900D02*
X340516254Y-279859757D01*
X340516254Y-279859757D02*
X340587682Y-279574042D01*
X340587682Y-279574042D02*
X340659111Y-279431185D01*
X340659111Y-279431185D02*
X340730540Y-279359757D01*
X340730540Y-279359757D02*
X340873397Y-279288328D01*
X341944825Y-279431185D02*
X342016253Y-279359757D01*
X342016253Y-279359757D02*
X342159111Y-279288328D01*
X342159111Y-279288328D02*
X342516253Y-279288328D01*
X342516253Y-279288328D02*
X342659111Y-279359757D01*
X342659111Y-279359757D02*
X342730539Y-279431185D01*
X342730539Y-279431185D02*
X342801968Y-279574042D01*
X342801968Y-279574042D02*
X342801968Y-279716900D01*
X342801968Y-279716900D02*
X342730539Y-279931185D01*
X342730539Y-279931185D02*
X341873396Y-280788328D01*
X341873396Y-280788328D02*
X342801968Y-280788328D01*
X344159110Y-279288328D02*
X343444824Y-279288328D01*
X343444824Y-279288328D02*
X343373396Y-280002614D01*
X343373396Y-280002614D02*
X343444824Y-279931185D01*
X343444824Y-279931185D02*
X343587682Y-279859757D01*
X343587682Y-279859757D02*
X343944824Y-279859757D01*
X343944824Y-279859757D02*
X344087682Y-279931185D01*
X344087682Y-279931185D02*
X344159110Y-280002614D01*
X344159110Y-280002614D02*
X344230539Y-280145471D01*
X344230539Y-280145471D02*
X344230539Y-280502614D01*
X344230539Y-280502614D02*
X344159110Y-280645471D01*
X344159110Y-280645471D02*
X344087682Y-280716900D01*
X344087682Y-280716900D02*
X343944824Y-280788328D01*
X343944824Y-280788328D02*
X343587682Y-280788328D01*
X343587682Y-280788328D02*
X343444824Y-280716900D01*
X343444824Y-280716900D02*
X343373396Y-280645471D01*
D10*
D11*
X299989000Y-281502200D02*
X407989000Y-281502200D01*
D10*
D11*
X301444826Y-283588328D02*
X301444826Y-282088328D01*
X302301969Y-283588328D02*
X301659112Y-282731185D01*
X302301969Y-282088328D02*
X301444826Y-282945471D01*
X302944826Y-283588328D02*
X302944826Y-282588328D01*
X302944826Y-282088328D02*
X302873398Y-282159757D01*
X302873398Y-282159757D02*
X302944826Y-282231185D01*
X302944826Y-282231185D02*
X303016255Y-282159757D01*
X303016255Y-282159757D02*
X302944826Y-282088328D01*
X302944826Y-282088328D02*
X302944826Y-282231185D01*
X304516255Y-283445471D02*
X304444827Y-283516900D01*
X304444827Y-283516900D02*
X304230541Y-283588328D01*
X304230541Y-283588328D02*
X304087684Y-283588328D01*
X304087684Y-283588328D02*
X303873398Y-283516900D01*
X303873398Y-283516900D02*
X303730541Y-283374042D01*
X303730541Y-283374042D02*
X303659112Y-283231185D01*
X303659112Y-283231185D02*
X303587684Y-282945471D01*
X303587684Y-282945471D02*
X303587684Y-282731185D01*
X303587684Y-282731185D02*
X303659112Y-282445471D01*
X303659112Y-282445471D02*
X303730541Y-282302614D01*
X303730541Y-282302614D02*
X303873398Y-282159757D01*
X303873398Y-282159757D02*
X304087684Y-282088328D01*
X304087684Y-282088328D02*
X304230541Y-282088328D01*
X304230541Y-282088328D02*
X304444827Y-282159757D01*
X304444827Y-282159757D02*
X304516255Y-282231185D01*
X305801970Y-283588328D02*
X305801970Y-282802614D01*
X305801970Y-282802614D02*
X305730541Y-282659757D01*
X305730541Y-282659757D02*
X305587684Y-282588328D01*
X305587684Y-282588328D02*
X305301970Y-282588328D01*
X305301970Y-282588328D02*
X305159112Y-282659757D01*
X305801970Y-283516900D02*
X305659112Y-283588328D01*
X305659112Y-283588328D02*
X305301970Y-283588328D01*
X305301970Y-283588328D02*
X305159112Y-283516900D01*
X305159112Y-283516900D02*
X305087684Y-283374042D01*
X305087684Y-283374042D02*
X305087684Y-283231185D01*
X305087684Y-283231185D02*
X305159112Y-283088328D01*
X305159112Y-283088328D02*
X305301970Y-283016900D01*
X305301970Y-283016900D02*
X305659112Y-283016900D01*
X305659112Y-283016900D02*
X305801970Y-282945471D01*
X307159113Y-283588328D02*
X307159113Y-282088328D01*
X307159113Y-283516900D02*
X307016255Y-283588328D01*
X307016255Y-283588328D02*
X306730541Y-283588328D01*
X306730541Y-283588328D02*
X306587684Y-283516900D01*
X306587684Y-283516900D02*
X306516255Y-283445471D01*
X306516255Y-283445471D02*
X306444827Y-283302614D01*
X306444827Y-283302614D02*
X306444827Y-282874042D01*
X306444827Y-282874042D02*
X306516255Y-282731185D01*
X306516255Y-282731185D02*
X306587684Y-282659757D01*
X306587684Y-282659757D02*
X306730541Y-282588328D01*
X306730541Y-282588328D02*
X307016255Y-282588328D01*
X307016255Y-282588328D02*
X307159113Y-282659757D01*
X309016255Y-282802614D02*
X309516255Y-282802614D01*
X309730541Y-283588328D02*
X309016255Y-283588328D01*
X309016255Y-283588328D02*
X309016255Y-282088328D01*
X309016255Y-282088328D02*
X309730541Y-282088328D01*
X310373398Y-283445471D02*
X310444827Y-283516900D01*
X310444827Y-283516900D02*
X310373398Y-283588328D01*
X310373398Y-283588328D02*
X310301970Y-283516900D01*
X310301970Y-283516900D02*
X310373398Y-283445471D01*
X310373398Y-283445471D02*
X310373398Y-283588328D01*
X311087684Y-283588328D02*
X311087684Y-282088328D01*
X311087684Y-282088328D02*
X311444827Y-282088328D01*
X311444827Y-282088328D02*
X311659113Y-282159757D01*
X311659113Y-282159757D02*
X311801970Y-282302614D01*
X311801970Y-282302614D02*
X311873399Y-282445471D01*
X311873399Y-282445471D02*
X311944827Y-282731185D01*
X311944827Y-282731185D02*
X311944827Y-282945471D01*
X311944827Y-282945471D02*
X311873399Y-283231185D01*
X311873399Y-283231185D02*
X311801970Y-283374042D01*
X311801970Y-283374042D02*
X311659113Y-283516900D01*
X311659113Y-283516900D02*
X311444827Y-283588328D01*
X311444827Y-283588328D02*
X311087684Y-283588328D01*
X312587684Y-283445471D02*
X312659113Y-283516900D01*
X312659113Y-283516900D02*
X312587684Y-283588328D01*
X312587684Y-283588328D02*
X312516256Y-283516900D01*
X312516256Y-283516900D02*
X312587684Y-283445471D01*
X312587684Y-283445471D02*
X312587684Y-283588328D01*
X313230542Y-283159757D02*
X313944828Y-283159757D01*
X313087685Y-283588328D02*
X313587685Y-282088328D01*
X313587685Y-282088328D02*
X314087685Y-283588328D01*
X314587684Y-283445471D02*
X314659113Y-283516900D01*
X314659113Y-283516900D02*
X314587684Y-283588328D01*
X314587684Y-283588328D02*
X314516256Y-283516900D01*
X314516256Y-283516900D02*
X314587684Y-283445471D01*
X314587684Y-283445471D02*
X314587684Y-283588328D01*
X316516256Y-283588328D02*
X316801970Y-283588328D01*
X316801970Y-283588328D02*
X316944827Y-283516900D01*
X316944827Y-283516900D02*
X317016256Y-283445471D01*
X317016256Y-283445471D02*
X317159113Y-283231185D01*
X317159113Y-283231185D02*
X317230542Y-282945471D01*
X317230542Y-282945471D02*
X317230542Y-282374042D01*
X317230542Y-282374042D02*
X317159113Y-282231185D01*
X317159113Y-282231185D02*
X317087685Y-282159757D01*
X317087685Y-282159757D02*
X316944827Y-282088328D01*
X316944827Y-282088328D02*
X316659113Y-282088328D01*
X316659113Y-282088328D02*
X316516256Y-282159757D01*
X316516256Y-282159757D02*
X316444827Y-282231185D01*
X316444827Y-282231185D02*
X316373399Y-282374042D01*
X316373399Y-282374042D02*
X316373399Y-282731185D01*
X316373399Y-282731185D02*
X316444827Y-282874042D01*
X316444827Y-282874042D02*
X316516256Y-282945471D01*
X316516256Y-282945471D02*
X316659113Y-283016900D01*
X316659113Y-283016900D02*
X316944827Y-283016900D01*
X316944827Y-283016900D02*
X317087685Y-282945471D01*
X317087685Y-282945471D02*
X317159113Y-282874042D01*
X317159113Y-282874042D02*
X317230542Y-282731185D01*
X317873398Y-283445471D02*
X317944827Y-283516900D01*
X317944827Y-283516900D02*
X317873398Y-283588328D01*
X317873398Y-283588328D02*
X317801970Y-283516900D01*
X317801970Y-283516900D02*
X317873398Y-283445471D01*
X317873398Y-283445471D02*
X317873398Y-283588328D01*
X318873399Y-282088328D02*
X319016256Y-282088328D01*
X319016256Y-282088328D02*
X319159113Y-282159757D01*
X319159113Y-282159757D02*
X319230542Y-282231185D01*
X319230542Y-282231185D02*
X319301970Y-282374042D01*
X319301970Y-282374042D02*
X319373399Y-282659757D01*
X319373399Y-282659757D02*
X319373399Y-283016900D01*
X319373399Y-283016900D02*
X319301970Y-283302614D01*
X319301970Y-283302614D02*
X319230542Y-283445471D01*
X319230542Y-283445471D02*
X319159113Y-283516900D01*
X319159113Y-283516900D02*
X319016256Y-283588328D01*
X319016256Y-283588328D02*
X318873399Y-283588328D01*
X318873399Y-283588328D02*
X318730542Y-283516900D01*
X318730542Y-283516900D02*
X318659113Y-283445471D01*
X318659113Y-283445471D02*
X318587684Y-283302614D01*
X318587684Y-283302614D02*
X318516256Y-283016900D01*
X318516256Y-283016900D02*
X318516256Y-282659757D01*
X318516256Y-282659757D02*
X318587684Y-282374042D01*
X318587684Y-282374042D02*
X318659113Y-282231185D01*
X318659113Y-282231185D02*
X318730542Y-282159757D01*
X318730542Y-282159757D02*
X318873399Y-282088328D01*
X320016255Y-283445471D02*
X320087684Y-283516900D01*
X320087684Y-283516900D02*
X320016255Y-283588328D01*
X320016255Y-283588328D02*
X319944827Y-283516900D01*
X319944827Y-283516900D02*
X320016255Y-283445471D01*
X320016255Y-283445471D02*
X320016255Y-283588328D01*
X320659113Y-282231185D02*
X320730541Y-282159757D01*
X320730541Y-282159757D02*
X320873399Y-282088328D01*
X320873399Y-282088328D02*
X321230541Y-282088328D01*
X321230541Y-282088328D02*
X321373399Y-282159757D01*
X321373399Y-282159757D02*
X321444827Y-282231185D01*
X321444827Y-282231185D02*
X321516256Y-282374042D01*
X321516256Y-282374042D02*
X321516256Y-282516900D01*
X321516256Y-282516900D02*
X321444827Y-282731185D01*
X321444827Y-282731185D02*
X320587684Y-283588328D01*
X320587684Y-283588328D02*
X321516256Y-283588328D01*
D10*
D11*
X299989000Y-278502200D02*
X407989000Y-278502200D01*
D10*
D12*
X387400653Y-280780528D02*
X386900653Y-280066242D01*
X386543510Y-280780528D02*
X386543510Y-279280528D01*
X386543510Y-279280528D02*
X387114939Y-279280528D01*
X387114939Y-279280528D02*
X387257796Y-279351957D01*
X387257796Y-279351957D02*
X387329225Y-279423385D01*
X387329225Y-279423385D02*
X387400653Y-279566242D01*
X387400653Y-279566242D02*
X387400653Y-279780528D01*
X387400653Y-279780528D02*
X387329225Y-279923385D01*
X387329225Y-279923385D02*
X387257796Y-279994814D01*
X387257796Y-279994814D02*
X387114939Y-280066242D01*
X387114939Y-280066242D02*
X386543510Y-280066242D01*
X388614939Y-280709100D02*
X388472082Y-280780528D01*
X388472082Y-280780528D02*
X388186368Y-280780528D01*
X388186368Y-280780528D02*
X388043510Y-280709100D01*
X388043510Y-280709100D02*
X387972082Y-280566242D01*
X387972082Y-280566242D02*
X387972082Y-279994814D01*
X387972082Y-279994814D02*
X388043510Y-279851957D01*
X388043510Y-279851957D02*
X388186368Y-279780528D01*
X388186368Y-279780528D02*
X388472082Y-279780528D01*
X388472082Y-279780528D02*
X388614939Y-279851957D01*
X388614939Y-279851957D02*
X388686368Y-279994814D01*
X388686368Y-279994814D02*
X388686368Y-280137671D01*
X388686368Y-280137671D02*
X387972082Y-280280528D01*
X389186367Y-279780528D02*
X389543510Y-280780528D01*
X389543510Y-280780528D02*
X389900653Y-279780528D01*
X390472081Y-280637671D02*
X390543510Y-280709100D01*
X390543510Y-280709100D02*
X390472081Y-280780528D01*
X390472081Y-280780528D02*
X390400653Y-280709100D01*
X390400653Y-280709100D02*
X390472081Y-280637671D01*
X390472081Y-280637671D02*
X390472081Y-280780528D01*
X390472081Y-279851957D02*
X390543510Y-279923385D01*
X390543510Y-279923385D02*
X390472081Y-279994814D01*
X390472081Y-279994814D02*
X390400653Y-279923385D01*
X390400653Y-279923385D02*
X390472081Y-279851957D01*
X390472081Y-279851957D02*
X390472081Y-279994814D01*
X392257796Y-280351957D02*
X392972082Y-280351957D01*
X392114939Y-280780528D02*
X392614939Y-279280528D01*
X392614939Y-279280528D02*
X393114939Y-280780528D01*
X393614938Y-280637671D02*
X393686367Y-280709100D01*
X393686367Y-280709100D02*
X393614938Y-280780528D01*
X393614938Y-280780528D02*
X393543510Y-280709100D01*
X393543510Y-280709100D02*
X393614938Y-280637671D01*
X393614938Y-280637671D02*
X393614938Y-280780528D01*
X395114939Y-280780528D02*
X394257796Y-280780528D01*
X394686367Y-280780528D02*
X394686367Y-279280528D01*
X394686367Y-279280528D02*
X394543510Y-279494814D01*
X394543510Y-279494814D02*
X394400653Y-279637671D01*
X394400653Y-279637671D02*
X394257796Y-279709100D01*
X395757795Y-280637671D02*
X395829224Y-280709100D01*
X395829224Y-280709100D02*
X395757795Y-280780528D01*
X395757795Y-280780528D02*
X395686367Y-280709100D01*
X395686367Y-280709100D02*
X395757795Y-280637671D01*
X395757795Y-280637671D02*
X395757795Y-280780528D01*
X396757796Y-279280528D02*
X396900653Y-279280528D01*
X396900653Y-279280528D02*
X397043510Y-279351957D01*
X397043510Y-279351957D02*
X397114939Y-279423385D01*
X397114939Y-279423385D02*
X397186367Y-279566242D01*
X397186367Y-279566242D02*
X397257796Y-279851957D01*
X397257796Y-279851957D02*
X397257796Y-280209100D01*
X397257796Y-280209100D02*
X397186367Y-280494814D01*
X397186367Y-280494814D02*
X397114939Y-280637671D01*
X397114939Y-280637671D02*
X397043510Y-280709100D01*
X397043510Y-280709100D02*
X396900653Y-280780528D01*
X396900653Y-280780528D02*
X396757796Y-280780528D01*
X396757796Y-280780528D02*
X396614939Y-280709100D01*
X396614939Y-280709100D02*
X396543510Y-280637671D01*
X396543510Y-280637671D02*
X396472081Y-280494814D01*
X396472081Y-280494814D02*
X396400653Y-280209100D01*
X396400653Y-280209100D02*
X396400653Y-279851957D01*
X396400653Y-279851957D02*
X396472081Y-279566242D01*
X396472081Y-279566242D02*
X396543510Y-279423385D01*
X396543510Y-279423385D02*
X396614939Y-279351957D01*
X396614939Y-279351957D02*
X396757796Y-279280528D01*
D10*
D11*
X301373398Y-280716900D02*
X301587684Y-280788328D01*
X301587684Y-280788328D02*
X301944826Y-280788328D01*
X301944826Y-280788328D02*
X302087684Y-280716900D01*
X302087684Y-280716900D02*
X302159112Y-280645471D01*
X302159112Y-280645471D02*
X302230541Y-280502614D01*
X302230541Y-280502614D02*
X302230541Y-280359757D01*
X302230541Y-280359757D02*
X302159112Y-280216900D01*
X302159112Y-280216900D02*
X302087684Y-280145471D01*
X302087684Y-280145471D02*
X301944826Y-280074042D01*
X301944826Y-280074042D02*
X301659112Y-280002614D01*
X301659112Y-280002614D02*
X301516255Y-279931185D01*
X301516255Y-279931185D02*
X301444826Y-279859757D01*
X301444826Y-279859757D02*
X301373398Y-279716900D01*
X301373398Y-279716900D02*
X301373398Y-279574042D01*
X301373398Y-279574042D02*
X301444826Y-279431185D01*
X301444826Y-279431185D02*
X301516255Y-279359757D01*
X301516255Y-279359757D02*
X301659112Y-279288328D01*
X301659112Y-279288328D02*
X302016255Y-279288328D01*
X302016255Y-279288328D02*
X302230541Y-279359757D01*
X302873397Y-280788328D02*
X302873397Y-279788328D01*
X302873397Y-279288328D02*
X302801969Y-279359757D01*
X302801969Y-279359757D02*
X302873397Y-279431185D01*
X302873397Y-279431185D02*
X302944826Y-279359757D01*
X302944826Y-279359757D02*
X302873397Y-279288328D01*
X302873397Y-279288328D02*
X302873397Y-279431185D01*
X303444826Y-279788328D02*
X304230541Y-279788328D01*
X304230541Y-279788328D02*
X303444826Y-280788328D01*
X303444826Y-280788328D02*
X304230541Y-280788328D01*
X305373398Y-280716900D02*
X305230541Y-280788328D01*
X305230541Y-280788328D02*
X304944827Y-280788328D01*
X304944827Y-280788328D02*
X304801969Y-280716900D01*
X304801969Y-280716900D02*
X304730541Y-280574042D01*
X304730541Y-280574042D02*
X304730541Y-280002614D01*
X304730541Y-280002614D02*
X304801969Y-279859757D01*
X304801969Y-279859757D02*
X304944827Y-279788328D01*
X304944827Y-279788328D02*
X305230541Y-279788328D01*
X305230541Y-279788328D02*
X305373398Y-279859757D01*
X305373398Y-279859757D02*
X305444827Y-280002614D01*
X305444827Y-280002614D02*
X305444827Y-280145471D01*
X305444827Y-280145471D02*
X304730541Y-280288328D01*
X306087683Y-280645471D02*
X306159112Y-280716900D01*
X306159112Y-280716900D02*
X306087683Y-280788328D01*
X306087683Y-280788328D02*
X306016255Y-280716900D01*
X306016255Y-280716900D02*
X306087683Y-280645471D01*
X306087683Y-280645471D02*
X306087683Y-280788328D01*
X306087683Y-279859757D02*
X306159112Y-279931185D01*
X306159112Y-279931185D02*
X306087683Y-280002614D01*
X306087683Y-280002614D02*
X306016255Y-279931185D01*
X306016255Y-279931185D02*
X306087683Y-279859757D01*
X306087683Y-279859757D02*
X306087683Y-280002614D01*
X307873398Y-280359757D02*
X308587684Y-280359757D01*
X307730541Y-280788328D02*
X308230541Y-279288328D01*
X308230541Y-279288328D02*
X308730541Y-280788328D01*
X309087683Y-279288328D02*
X310016255Y-279288328D01*
X310016255Y-279288328D02*
X309516255Y-279859757D01*
X309516255Y-279859757D02*
X309730540Y-279859757D01*
X309730540Y-279859757D02*
X309873398Y-279931185D01*
X309873398Y-279931185D02*
X309944826Y-280002614D01*
X309944826Y-280002614D02*
X310016255Y-280145471D01*
X310016255Y-280145471D02*
X310016255Y-280502614D01*
X310016255Y-280502614D02*
X309944826Y-280645471D01*
X309944826Y-280645471D02*
X309873398Y-280716900D01*
X309873398Y-280716900D02*
X309730540Y-280788328D01*
X309730540Y-280788328D02*
X309301969Y-280788328D01*
X309301969Y-280788328D02*
X309159112Y-280716900D01*
X309159112Y-280716900D02*
X309087683Y-280645471D01*
D10*
D11*
X386444826Y-283588328D02*
X386444826Y-282088328D01*
X387801970Y-283588328D02*
X387801970Y-282088328D01*
X387801970Y-283516900D02*
X387659112Y-283588328D01*
X387659112Y-283588328D02*
X387373398Y-283588328D01*
X387373398Y-283588328D02*
X387230541Y-283516900D01*
X387230541Y-283516900D02*
X387159112Y-283445471D01*
X387159112Y-283445471D02*
X387087684Y-283302614D01*
X387087684Y-283302614D02*
X387087684Y-282874042D01*
X387087684Y-282874042D02*
X387159112Y-282731185D01*
X387159112Y-282731185D02*
X387230541Y-282659757D01*
X387230541Y-282659757D02*
X387373398Y-282588328D01*
X387373398Y-282588328D02*
X387659112Y-282588328D01*
X387659112Y-282588328D02*
X387801970Y-282659757D01*
X388516255Y-283445471D02*
X388587684Y-283516900D01*
X388587684Y-283516900D02*
X388516255Y-283588328D01*
X388516255Y-283588328D02*
X388444827Y-283516900D01*
X388444827Y-283516900D02*
X388516255Y-283445471D01*
X388516255Y-283445471D02*
X388516255Y-283588328D01*
X388516255Y-282659757D02*
X388587684Y-282731185D01*
X388587684Y-282731185D02*
X388516255Y-282802614D01*
X388516255Y-282802614D02*
X388444827Y-282731185D01*
X388444827Y-282731185D02*
X388516255Y-282659757D01*
X388516255Y-282659757D02*
X388516255Y-282802614D01*
X391016256Y-282088328D02*
X390730541Y-282088328D01*
X390730541Y-282088328D02*
X390587684Y-282159757D01*
X390587684Y-282159757D02*
X390516256Y-282231185D01*
X390516256Y-282231185D02*
X390373398Y-282445471D01*
X390373398Y-282445471D02*
X390301970Y-282731185D01*
X390301970Y-282731185D02*
X390301970Y-283302614D01*
X390301970Y-283302614D02*
X390373398Y-283445471D01*
X390373398Y-283445471D02*
X390444827Y-283516900D01*
X390444827Y-283516900D02*
X390587684Y-283588328D01*
X390587684Y-283588328D02*
X390873398Y-283588328D01*
X390873398Y-283588328D02*
X391016256Y-283516900D01*
X391016256Y-283516900D02*
X391087684Y-283445471D01*
X391087684Y-283445471D02*
X391159113Y-283302614D01*
X391159113Y-283302614D02*
X391159113Y-282945471D01*
X391159113Y-282945471D02*
X391087684Y-282802614D01*
X391087684Y-282802614D02*
X391016256Y-282731185D01*
X391016256Y-282731185D02*
X390873398Y-282659757D01*
X390873398Y-282659757D02*
X390587684Y-282659757D01*
X390587684Y-282659757D02*
X390444827Y-282731185D01*
X390444827Y-282731185D02*
X390373398Y-282802614D01*
X390373398Y-282802614D02*
X390301970Y-282945471D01*
X392873398Y-282016900D02*
X391587684Y-283945471D01*
X394159113Y-283588328D02*
X393301970Y-283588328D01*
X393730541Y-283588328D02*
X393730541Y-282088328D01*
X393730541Y-282088328D02*
X393587684Y-282302614D01*
X393587684Y-282302614D02*
X393444827Y-282445471D01*
X393444827Y-282445471D02*
X393301970Y-282516900D01*
X395516255Y-282088328D02*
X394801969Y-282088328D01*
X394801969Y-282088328D02*
X394730541Y-282802614D01*
X394730541Y-282802614D02*
X394801969Y-282731185D01*
X394801969Y-282731185D02*
X394944827Y-282659757D01*
X394944827Y-282659757D02*
X395301969Y-282659757D01*
X395301969Y-282659757D02*
X395444827Y-282731185D01*
X395444827Y-282731185D02*
X395516255Y-282802614D01*
X395516255Y-282802614D02*
X395587684Y-282945471D01*
X395587684Y-282945471D02*
X395587684Y-283302614D01*
X395587684Y-283302614D02*
X395516255Y-283445471D01*
X395516255Y-283445471D02*
X395444827Y-283516900D01*
X395444827Y-283516900D02*
X395301969Y-283588328D01*
X395301969Y-283588328D02*
X394944827Y-283588328D01*
X394944827Y-283588328D02*
X394801969Y-283516900D01*
X394801969Y-283516900D02*
X394730541Y-283445471D01*
D10*
D11*
X299989000Y-274502200D02*
X407989000Y-274502200D01*
D10*
D13*
X301680728Y-275206638D02*
X302823585Y-275206638D01*
X302002157Y-277206638D02*
X302252157Y-275206638D01*
X303240252Y-277206638D02*
X303406919Y-275873304D01*
X303490252Y-275206638D02*
X303383109Y-275301876D01*
X303383109Y-275301876D02*
X303466443Y-275397114D01*
X303466443Y-275397114D02*
X303573586Y-275301876D01*
X303573586Y-275301876D02*
X303490252Y-275206638D01*
X303490252Y-275206638D02*
X303466443Y-275397114D01*
X304073586Y-275873304D02*
X304835490Y-275873304D01*
X304442633Y-275206638D02*
X304228348Y-276920923D01*
X304228348Y-276920923D02*
X304299776Y-277111400D01*
X304299776Y-277111400D02*
X304478348Y-277206638D01*
X304478348Y-277206638D02*
X304668824Y-277206638D01*
X305621205Y-277206638D02*
X305442633Y-277111400D01*
X305442633Y-277111400D02*
X305371205Y-276920923D01*
X305371205Y-276920923D02*
X305585490Y-275206638D01*
X307156919Y-277111400D02*
X306954538Y-277206638D01*
X306954538Y-277206638D02*
X306573585Y-277206638D01*
X306573585Y-277206638D02*
X306395014Y-277111400D01*
X306395014Y-277111400D02*
X306323585Y-276920923D01*
X306323585Y-276920923D02*
X306418824Y-276159019D01*
X306418824Y-276159019D02*
X306537871Y-275968542D01*
X306537871Y-275968542D02*
X306740252Y-275873304D01*
X306740252Y-275873304D02*
X307121204Y-275873304D01*
X307121204Y-275873304D02*
X307299776Y-275968542D01*
X307299776Y-275968542D02*
X307371204Y-276159019D01*
X307371204Y-276159019D02*
X307347395Y-276349495D01*
X307347395Y-276349495D02*
X306371204Y-276539971D01*
X308121205Y-277016161D02*
X308204538Y-277111400D01*
X308204538Y-277111400D02*
X308097395Y-277206638D01*
X308097395Y-277206638D02*
X308014062Y-277111400D01*
X308014062Y-277111400D02*
X308121205Y-277016161D01*
X308121205Y-277016161D02*
X308097395Y-277206638D01*
X308252157Y-275968542D02*
X308335490Y-276063780D01*
X308335490Y-276063780D02*
X308228348Y-276159019D01*
X308228348Y-276159019D02*
X308145014Y-276063780D01*
X308145014Y-276063780D02*
X308252157Y-275968542D01*
X308252157Y-275968542D02*
X308228348Y-276159019D01*
X310573586Y-277206638D02*
X310823586Y-275206638D01*
X311692634Y-275873304D02*
X311525967Y-277206638D01*
X311668824Y-276063780D02*
X311775967Y-275968542D01*
X311775967Y-275968542D02*
X311978348Y-275873304D01*
X311978348Y-275873304D02*
X312264062Y-275873304D01*
X312264062Y-275873304D02*
X312442634Y-275968542D01*
X312442634Y-275968542D02*
X312514062Y-276159019D01*
X312514062Y-276159019D02*
X312383110Y-277206638D01*
X313252158Y-277111400D02*
X313430729Y-277206638D01*
X313430729Y-277206638D02*
X313811682Y-277206638D01*
X313811682Y-277206638D02*
X314014063Y-277111400D01*
X314014063Y-277111400D02*
X314133110Y-276920923D01*
X314133110Y-276920923D02*
X314145015Y-276825685D01*
X314145015Y-276825685D02*
X314073586Y-276635209D01*
X314073586Y-276635209D02*
X313895015Y-276539971D01*
X313895015Y-276539971D02*
X313609301Y-276539971D01*
X313609301Y-276539971D02*
X313430729Y-276444733D01*
X313430729Y-276444733D02*
X313359301Y-276254257D01*
X313359301Y-276254257D02*
X313371206Y-276159019D01*
X313371206Y-276159019D02*
X313490253Y-275968542D01*
X313490253Y-275968542D02*
X313692634Y-275873304D01*
X313692634Y-275873304D02*
X313978348Y-275873304D01*
X313978348Y-275873304D02*
X314156920Y-275968542D01*
X314835492Y-275873304D02*
X315597396Y-275873304D01*
X315204539Y-275206638D02*
X314990254Y-276920923D01*
X314990254Y-276920923D02*
X315061682Y-277111400D01*
X315061682Y-277111400D02*
X315240254Y-277206638D01*
X315240254Y-277206638D02*
X315430730Y-277206638D01*
X316097396Y-277206638D02*
X316264063Y-275873304D01*
X316216444Y-276254257D02*
X316335491Y-276063780D01*
X316335491Y-276063780D02*
X316442634Y-275968542D01*
X316442634Y-275968542D02*
X316645015Y-275873304D01*
X316645015Y-275873304D02*
X316835491Y-275873304D01*
X318359301Y-275873304D02*
X318192634Y-277206638D01*
X317502158Y-275873304D02*
X317371206Y-276920923D01*
X317371206Y-276920923D02*
X317442634Y-277111400D01*
X317442634Y-277111400D02*
X317621206Y-277206638D01*
X317621206Y-277206638D02*
X317906920Y-277206638D01*
X317906920Y-277206638D02*
X318109301Y-277111400D01*
X318109301Y-277111400D02*
X318216444Y-277016161D01*
X319145015Y-277206638D02*
X319311682Y-275873304D01*
X319287872Y-276063780D02*
X319395015Y-275968542D01*
X319395015Y-275968542D02*
X319597396Y-275873304D01*
X319597396Y-275873304D02*
X319883110Y-275873304D01*
X319883110Y-275873304D02*
X320061682Y-275968542D01*
X320061682Y-275968542D02*
X320133110Y-276159019D01*
X320133110Y-276159019D02*
X320002158Y-277206638D01*
X320133110Y-276159019D02*
X320252158Y-275968542D01*
X320252158Y-275968542D02*
X320454539Y-275873304D01*
X320454539Y-275873304D02*
X320740253Y-275873304D01*
X320740253Y-275873304D02*
X320918825Y-275968542D01*
X320918825Y-275968542D02*
X320990253Y-276159019D01*
X320990253Y-276159019D02*
X320859301Y-277206638D01*
X322585492Y-277111400D02*
X322383111Y-277206638D01*
X322383111Y-277206638D02*
X322002158Y-277206638D01*
X322002158Y-277206638D02*
X321823587Y-277111400D01*
X321823587Y-277111400D02*
X321752158Y-276920923D01*
X321752158Y-276920923D02*
X321847397Y-276159019D01*
X321847397Y-276159019D02*
X321966444Y-275968542D01*
X321966444Y-275968542D02*
X322168825Y-275873304D01*
X322168825Y-275873304D02*
X322549777Y-275873304D01*
X322549777Y-275873304D02*
X322728349Y-275968542D01*
X322728349Y-275968542D02*
X322799777Y-276159019D01*
X322799777Y-276159019D02*
X322775968Y-276349495D01*
X322775968Y-276349495D02*
X321799777Y-276539971D01*
X323692635Y-275873304D02*
X323525968Y-277206638D01*
X323668825Y-276063780D02*
X323775968Y-275968542D01*
X323775968Y-275968542D02*
X323978349Y-275873304D01*
X323978349Y-275873304D02*
X324264063Y-275873304D01*
X324264063Y-275873304D02*
X324442635Y-275968542D01*
X324442635Y-275968542D02*
X324514063Y-276159019D01*
X324514063Y-276159019D02*
X324383111Y-277206638D01*
X325216445Y-275873304D02*
X325978349Y-275873304D01*
X325585492Y-275206638D02*
X325371207Y-276920923D01*
X325371207Y-276920923D02*
X325442635Y-277111400D01*
X325442635Y-277111400D02*
X325621207Y-277206638D01*
X325621207Y-277206638D02*
X325811683Y-277206638D01*
X326764064Y-277206638D02*
X326585492Y-277111400D01*
X326585492Y-277111400D02*
X326502159Y-277016161D01*
X326502159Y-277016161D02*
X326430730Y-276825685D01*
X326430730Y-276825685D02*
X326502159Y-276254257D01*
X326502159Y-276254257D02*
X326621206Y-276063780D01*
X326621206Y-276063780D02*
X326728349Y-275968542D01*
X326728349Y-275968542D02*
X326930730Y-275873304D01*
X326930730Y-275873304D02*
X327216444Y-275873304D01*
X327216444Y-275873304D02*
X327395016Y-275968542D01*
X327395016Y-275968542D02*
X327478349Y-276063780D01*
X327478349Y-276063780D02*
X327549778Y-276254257D01*
X327549778Y-276254257D02*
X327478349Y-276825685D01*
X327478349Y-276825685D02*
X327359302Y-277016161D01*
X327359302Y-277016161D02*
X327252159Y-277111400D01*
X327252159Y-277111400D02*
X327049778Y-277206638D01*
X327049778Y-277206638D02*
X326764064Y-277206638D01*
X330668826Y-277206638D02*
X330918826Y-275206638D01*
X330680731Y-277111400D02*
X330478350Y-277206638D01*
X330478350Y-277206638D02*
X330097398Y-277206638D01*
X330097398Y-277206638D02*
X329918826Y-277111400D01*
X329918826Y-277111400D02*
X329835493Y-277016161D01*
X329835493Y-277016161D02*
X329764064Y-276825685D01*
X329764064Y-276825685D02*
X329835493Y-276254257D01*
X329835493Y-276254257D02*
X329954540Y-276063780D01*
X329954540Y-276063780D02*
X330061683Y-275968542D01*
X330061683Y-275968542D02*
X330264064Y-275873304D01*
X330264064Y-275873304D02*
X330645017Y-275873304D01*
X330645017Y-275873304D02*
X330823588Y-275968542D01*
X332395017Y-277111400D02*
X332192636Y-277206638D01*
X332192636Y-277206638D02*
X331811683Y-277206638D01*
X331811683Y-277206638D02*
X331633112Y-277111400D01*
X331633112Y-277111400D02*
X331561683Y-276920923D01*
X331561683Y-276920923D02*
X331656922Y-276159019D01*
X331656922Y-276159019D02*
X331775969Y-275968542D01*
X331775969Y-275968542D02*
X331978350Y-275873304D01*
X331978350Y-275873304D02*
X332359302Y-275873304D01*
X332359302Y-275873304D02*
X332537874Y-275968542D01*
X332537874Y-275968542D02*
X332609302Y-276159019D01*
X332609302Y-276159019D02*
X332585493Y-276349495D01*
X332585493Y-276349495D02*
X331609302Y-276539971D01*
X334859303Y-277206638D02*
X335109303Y-275206638D01*
X335109303Y-275206638D02*
X335597398Y-276635209D01*
X335597398Y-276635209D02*
X336442637Y-275206638D01*
X336442637Y-275206638D02*
X336192637Y-277206638D01*
X337918827Y-277111400D02*
X337716446Y-277206638D01*
X337716446Y-277206638D02*
X337335493Y-277206638D01*
X337335493Y-277206638D02*
X337156922Y-277111400D01*
X337156922Y-277111400D02*
X337085493Y-276920923D01*
X337085493Y-276920923D02*
X337180732Y-276159019D01*
X337180732Y-276159019D02*
X337299779Y-275968542D01*
X337299779Y-275968542D02*
X337502160Y-275873304D01*
X337502160Y-275873304D02*
X337883112Y-275873304D01*
X337883112Y-275873304D02*
X338061684Y-275968542D01*
X338061684Y-275968542D02*
X338133112Y-276159019D01*
X338133112Y-276159019D02*
X338109303Y-276349495D01*
X338109303Y-276349495D02*
X337133112Y-276539971D01*
X339716446Y-277206638D02*
X339966446Y-275206638D01*
X339728351Y-277111400D02*
X339525970Y-277206638D01*
X339525970Y-277206638D02*
X339145018Y-277206638D01*
X339145018Y-277206638D02*
X338966446Y-277111400D01*
X338966446Y-277111400D02*
X338883113Y-277016161D01*
X338883113Y-277016161D02*
X338811684Y-276825685D01*
X338811684Y-276825685D02*
X338883113Y-276254257D01*
X338883113Y-276254257D02*
X339002160Y-276063780D01*
X339002160Y-276063780D02*
X339109303Y-275968542D01*
X339109303Y-275968542D02*
X339311684Y-275873304D01*
X339311684Y-275873304D02*
X339692637Y-275873304D01*
X339692637Y-275873304D02*
X339871208Y-275968542D01*
X340668827Y-277206638D02*
X340835494Y-275873304D01*
X340918827Y-275206638D02*
X340811684Y-275301876D01*
X340811684Y-275301876D02*
X340895018Y-275397114D01*
X340895018Y-275397114D02*
X341002161Y-275301876D01*
X341002161Y-275301876D02*
X340918827Y-275206638D01*
X340918827Y-275206638D02*
X340895018Y-275397114D01*
X342490256Y-277111400D02*
X342287875Y-277206638D01*
X342287875Y-277206638D02*
X341906923Y-277206638D01*
X341906923Y-277206638D02*
X341728351Y-277111400D01*
X341728351Y-277111400D02*
X341645018Y-277016161D01*
X341645018Y-277016161D02*
X341573589Y-276825685D01*
X341573589Y-276825685D02*
X341645018Y-276254257D01*
X341645018Y-276254257D02*
X341764065Y-276063780D01*
X341764065Y-276063780D02*
X341871208Y-275968542D01*
X341871208Y-275968542D02*
X342073589Y-275873304D01*
X342073589Y-275873304D02*
X342454542Y-275873304D01*
X342454542Y-275873304D02*
X342633113Y-275968542D01*
X343335494Y-277206638D02*
X343502161Y-275873304D01*
X343585494Y-275206638D02*
X343478351Y-275301876D01*
X343478351Y-275301876D02*
X343561685Y-275397114D01*
X343561685Y-275397114D02*
X343668828Y-275301876D01*
X343668828Y-275301876D02*
X343585494Y-275206638D01*
X343585494Y-275206638D02*
X343561685Y-275397114D01*
X344573590Y-277206638D02*
X344395018Y-277111400D01*
X344395018Y-277111400D02*
X344311685Y-277016161D01*
X344311685Y-277016161D02*
X344240256Y-276825685D01*
X344240256Y-276825685D02*
X344311685Y-276254257D01*
X344311685Y-276254257D02*
X344430732Y-276063780D01*
X344430732Y-276063780D02*
X344537875Y-275968542D01*
X344537875Y-275968542D02*
X344740256Y-275873304D01*
X344740256Y-275873304D02*
X345025970Y-275873304D01*
X345025970Y-275873304D02*
X345204542Y-275968542D01*
X345204542Y-275968542D02*
X345287875Y-276063780D01*
X345287875Y-276063780D02*
X345359304Y-276254257D01*
X345359304Y-276254257D02*
X345287875Y-276825685D01*
X345287875Y-276825685D02*
X345168828Y-277016161D01*
X345168828Y-277016161D02*
X345061685Y-277111400D01*
X345061685Y-277111400D02*
X344859304Y-277206638D01*
X344859304Y-277206638D02*
X344573590Y-277206638D01*
X345216447Y-275111400D02*
X344895018Y-275397114D01*
X346264066Y-275873304D02*
X346097399Y-277206638D01*
X346240256Y-276063780D02*
X346347399Y-275968542D01*
X346347399Y-275968542D02*
X346549780Y-275873304D01*
X346549780Y-275873304D02*
X346835494Y-275873304D01*
X346835494Y-275873304D02*
X347014066Y-275968542D01*
X347014066Y-275968542D02*
X347085494Y-276159019D01*
X347085494Y-276159019D02*
X346954542Y-277206638D01*
X350287876Y-277206638D02*
X350537876Y-275206638D01*
X350299781Y-277111400D02*
X350097400Y-277206638D01*
X350097400Y-277206638D02*
X349716448Y-277206638D01*
X349716448Y-277206638D02*
X349537876Y-277111400D01*
X349537876Y-277111400D02*
X349454543Y-277016161D01*
X349454543Y-277016161D02*
X349383114Y-276825685D01*
X349383114Y-276825685D02*
X349454543Y-276254257D01*
X349454543Y-276254257D02*
X349573590Y-276063780D01*
X349573590Y-276063780D02*
X349680733Y-275968542D01*
X349680733Y-275968542D02*
X349883114Y-275873304D01*
X349883114Y-275873304D02*
X350264067Y-275873304D01*
X350264067Y-275873304D02*
X350442638Y-275968542D01*
X352014067Y-277111400D02*
X351811686Y-277206638D01*
X351811686Y-277206638D02*
X351430733Y-277206638D01*
X351430733Y-277206638D02*
X351252162Y-277111400D01*
X351252162Y-277111400D02*
X351180733Y-276920923D01*
X351180733Y-276920923D02*
X351275972Y-276159019D01*
X351275972Y-276159019D02*
X351395019Y-275968542D01*
X351395019Y-275968542D02*
X351597400Y-275873304D01*
X351597400Y-275873304D02*
X351978352Y-275873304D01*
X351978352Y-275873304D02*
X352156924Y-275968542D01*
X352156924Y-275968542D02*
X352228352Y-276159019D01*
X352228352Y-276159019D02*
X352204543Y-276349495D01*
X352204543Y-276349495D02*
X351228352Y-276539971D01*
X355645020Y-277016161D02*
X355537877Y-277111400D01*
X355537877Y-277111400D02*
X355240258Y-277206638D01*
X355240258Y-277206638D02*
X355049782Y-277206638D01*
X355049782Y-277206638D02*
X354775972Y-277111400D01*
X354775972Y-277111400D02*
X354609306Y-276920923D01*
X354609306Y-276920923D02*
X354537877Y-276730447D01*
X354537877Y-276730447D02*
X354490258Y-276349495D01*
X354490258Y-276349495D02*
X354525972Y-276063780D01*
X354525972Y-276063780D02*
X354668829Y-275682828D01*
X354668829Y-275682828D02*
X354787877Y-275492352D01*
X354787877Y-275492352D02*
X355002163Y-275301876D01*
X355002163Y-275301876D02*
X355299782Y-275206638D01*
X355299782Y-275206638D02*
X355490258Y-275206638D01*
X355490258Y-275206638D02*
X355764068Y-275301876D01*
X355764068Y-275301876D02*
X355847401Y-275397114D01*
X356764068Y-277206638D02*
X356585496Y-277111400D01*
X356585496Y-277111400D02*
X356502163Y-277016161D01*
X356502163Y-277016161D02*
X356430734Y-276825685D01*
X356430734Y-276825685D02*
X356502163Y-276254257D01*
X356502163Y-276254257D02*
X356621210Y-276063780D01*
X356621210Y-276063780D02*
X356728353Y-275968542D01*
X356728353Y-275968542D02*
X356930734Y-275873304D01*
X356930734Y-275873304D02*
X357216448Y-275873304D01*
X357216448Y-275873304D02*
X357395020Y-275968542D01*
X357395020Y-275968542D02*
X357478353Y-276063780D01*
X357478353Y-276063780D02*
X357549782Y-276254257D01*
X357549782Y-276254257D02*
X357478353Y-276825685D01*
X357478353Y-276825685D02*
X357359306Y-277016161D01*
X357359306Y-277016161D02*
X357252163Y-277111400D01*
X357252163Y-277111400D02*
X357049782Y-277206638D01*
X357049782Y-277206638D02*
X356764068Y-277206638D01*
X358454544Y-275873304D02*
X358287877Y-277206638D01*
X358430734Y-276063780D02*
X358537877Y-275968542D01*
X358537877Y-275968542D02*
X358740258Y-275873304D01*
X358740258Y-275873304D02*
X359025972Y-275873304D01*
X359025972Y-275873304D02*
X359204544Y-275968542D01*
X359204544Y-275968542D02*
X359275972Y-276159019D01*
X359275972Y-276159019D02*
X359145020Y-277206638D01*
X360014068Y-277111400D02*
X360192639Y-277206638D01*
X360192639Y-277206638D02*
X360573592Y-277206638D01*
X360573592Y-277206638D02*
X360775973Y-277111400D01*
X360775973Y-277111400D02*
X360895020Y-276920923D01*
X360895020Y-276920923D02*
X360906925Y-276825685D01*
X360906925Y-276825685D02*
X360835496Y-276635209D01*
X360835496Y-276635209D02*
X360656925Y-276539971D01*
X360656925Y-276539971D02*
X360371211Y-276539971D01*
X360371211Y-276539971D02*
X360192639Y-276444733D01*
X360192639Y-276444733D02*
X360121211Y-276254257D01*
X360121211Y-276254257D02*
X360133116Y-276159019D01*
X360133116Y-276159019D02*
X360252163Y-275968542D01*
X360252163Y-275968542D02*
X360454544Y-275873304D01*
X360454544Y-275873304D02*
X360740258Y-275873304D01*
X360740258Y-275873304D02*
X360918830Y-275968542D01*
X362740259Y-275873304D02*
X362573592Y-277206638D01*
X361883116Y-275873304D02*
X361752164Y-276920923D01*
X361752164Y-276920923D02*
X361823592Y-277111400D01*
X361823592Y-277111400D02*
X362002164Y-277206638D01*
X362002164Y-277206638D02*
X362287878Y-277206638D01*
X362287878Y-277206638D02*
X362490259Y-277111400D01*
X362490259Y-277111400D02*
X362597402Y-277016161D01*
X363525973Y-277206638D02*
X363692640Y-275873304D01*
X363668830Y-276063780D02*
X363775973Y-275968542D01*
X363775973Y-275968542D02*
X363978354Y-275873304D01*
X363978354Y-275873304D02*
X364264068Y-275873304D01*
X364264068Y-275873304D02*
X364442640Y-275968542D01*
X364442640Y-275968542D02*
X364514068Y-276159019D01*
X364514068Y-276159019D02*
X364383116Y-277206638D01*
X364514068Y-276159019D02*
X364633116Y-275968542D01*
X364633116Y-275968542D02*
X364835497Y-275873304D01*
X364835497Y-275873304D02*
X365121211Y-275873304D01*
X365121211Y-275873304D02*
X365299783Y-275968542D01*
X365299783Y-275968542D02*
X365371211Y-276159019D01*
X365371211Y-276159019D02*
X365240259Y-277206638D01*
X366478355Y-277206638D02*
X366299783Y-277111400D01*
X366299783Y-277111400D02*
X366216450Y-277016161D01*
X366216450Y-277016161D02*
X366145021Y-276825685D01*
X366145021Y-276825685D02*
X366216450Y-276254257D01*
X366216450Y-276254257D02*
X366335497Y-276063780D01*
X366335497Y-276063780D02*
X366442640Y-275968542D01*
X366442640Y-275968542D02*
X366645021Y-275873304D01*
X366645021Y-275873304D02*
X366930735Y-275873304D01*
X366930735Y-275873304D02*
X367109307Y-275968542D01*
X367109307Y-275968542D02*
X367192640Y-276063780D01*
X367192640Y-276063780D02*
X367264069Y-276254257D01*
X367264069Y-276254257D02*
X367192640Y-276825685D01*
X367192640Y-276825685D02*
X367073593Y-277016161D01*
X367073593Y-277016161D02*
X366966450Y-277111400D01*
X366966450Y-277111400D02*
X366764069Y-277206638D01*
X366764069Y-277206638D02*
X366478355Y-277206638D01*
X368025974Y-277016161D02*
X368109307Y-277111400D01*
X368109307Y-277111400D02*
X368002164Y-277206638D01*
X368002164Y-277206638D02*
X367918831Y-277111400D01*
X367918831Y-277111400D02*
X368025974Y-277016161D01*
X368025974Y-277016161D02*
X368002164Y-277206638D01*
X368156926Y-275968542D02*
X368240259Y-276063780D01*
X368240259Y-276063780D02*
X368133117Y-276159019D01*
X368133117Y-276159019D02*
X368049783Y-276063780D01*
X368049783Y-276063780D02*
X368156926Y-275968542D01*
X368156926Y-275968542D02*
X368133117Y-276159019D01*
X370478355Y-277206638D02*
X370728355Y-275206638D01*
X370728355Y-275206638D02*
X371216450Y-276635209D01*
X371216450Y-276635209D02*
X372061689Y-275206638D01*
X372061689Y-275206638D02*
X371811689Y-277206638D01*
X373049784Y-277206638D02*
X372871212Y-277111400D01*
X372871212Y-277111400D02*
X372787879Y-277016161D01*
X372787879Y-277016161D02*
X372716450Y-276825685D01*
X372716450Y-276825685D02*
X372787879Y-276254257D01*
X372787879Y-276254257D02*
X372906926Y-276063780D01*
X372906926Y-276063780D02*
X373014069Y-275968542D01*
X373014069Y-275968542D02*
X373216450Y-275873304D01*
X373216450Y-275873304D02*
X373502164Y-275873304D01*
X373502164Y-275873304D02*
X373680736Y-275968542D01*
X373680736Y-275968542D02*
X373764069Y-276063780D01*
X373764069Y-276063780D02*
X373835498Y-276254257D01*
X373835498Y-276254257D02*
X373764069Y-276825685D01*
X373764069Y-276825685D02*
X373645022Y-277016161D01*
X373645022Y-277016161D02*
X373537879Y-277111400D01*
X373537879Y-277111400D02*
X373335498Y-277206638D01*
X373335498Y-277206638D02*
X373049784Y-277206638D01*
X373692641Y-275111400D02*
X373371212Y-275397114D01*
X375430736Y-277206638D02*
X375680736Y-275206638D01*
X375442641Y-277111400D02*
X375240260Y-277206638D01*
X375240260Y-277206638D02*
X374859308Y-277206638D01*
X374859308Y-277206638D02*
X374680736Y-277111400D01*
X374680736Y-277111400D02*
X374597403Y-277016161D01*
X374597403Y-277016161D02*
X374525974Y-276825685D01*
X374525974Y-276825685D02*
X374597403Y-276254257D01*
X374597403Y-276254257D02*
X374716450Y-276063780D01*
X374716450Y-276063780D02*
X374823593Y-275968542D01*
X374823593Y-275968542D02*
X375025974Y-275873304D01*
X375025974Y-275873304D02*
X375406927Y-275873304D01*
X375406927Y-275873304D02*
X375585498Y-275968542D01*
X377406927Y-275873304D02*
X377240260Y-277206638D01*
X376549784Y-275873304D02*
X376418832Y-276920923D01*
X376418832Y-276920923D02*
X376490260Y-277111400D01*
X376490260Y-277111400D02*
X376668832Y-277206638D01*
X376668832Y-277206638D02*
X376954546Y-277206638D01*
X376954546Y-277206638D02*
X377156927Y-277111400D01*
X377156927Y-277111400D02*
X377264070Y-277016161D01*
X378478356Y-277206638D02*
X378299784Y-277111400D01*
X378299784Y-277111400D02*
X378228356Y-276920923D01*
X378228356Y-276920923D02*
X378442641Y-275206638D01*
X379525975Y-277206638D02*
X379347403Y-277111400D01*
X379347403Y-277111400D02*
X379264070Y-277016161D01*
X379264070Y-277016161D02*
X379192641Y-276825685D01*
X379192641Y-276825685D02*
X379264070Y-276254257D01*
X379264070Y-276254257D02*
X379383117Y-276063780D01*
X379383117Y-276063780D02*
X379490260Y-275968542D01*
X379490260Y-275968542D02*
X379692641Y-275873304D01*
X379692641Y-275873304D02*
X379978355Y-275873304D01*
X379978355Y-275873304D02*
X380156927Y-275968542D01*
X380156927Y-275968542D02*
X380240260Y-276063780D01*
X380240260Y-276063780D02*
X380311689Y-276254257D01*
X380311689Y-276254257D02*
X380240260Y-276825685D01*
X380240260Y-276825685D02*
X380121213Y-277016161D01*
X380121213Y-277016161D02*
X380014070Y-277111400D01*
X380014070Y-277111400D02*
X379811689Y-277206638D01*
X379811689Y-277206638D02*
X379525975Y-277206638D01*
X382573594Y-277206638D02*
X382823594Y-275206638D01*
X382823594Y-275206638D02*
X383585499Y-275206638D01*
X383585499Y-275206638D02*
X383764070Y-275301876D01*
X383764070Y-275301876D02*
X383847404Y-275397114D01*
X383847404Y-275397114D02*
X383918832Y-275587590D01*
X383918832Y-275587590D02*
X383883118Y-275873304D01*
X383883118Y-275873304D02*
X383764070Y-276063780D01*
X383764070Y-276063780D02*
X383656928Y-276159019D01*
X383656928Y-276159019D02*
X383454547Y-276254257D01*
X383454547Y-276254257D02*
X382692642Y-276254257D01*
X384573594Y-277206638D02*
X384740261Y-275873304D01*
X384692642Y-276254257D02*
X384811689Y-276063780D01*
X384811689Y-276063780D02*
X384918832Y-275968542D01*
X384918832Y-275968542D02*
X385121213Y-275873304D01*
X385121213Y-275873304D02*
X385311689Y-275873304D01*
X385811689Y-277206638D02*
X385978356Y-275873304D01*
X386061689Y-275206638D02*
X385954546Y-275301876D01*
X385954546Y-275301876D02*
X386037880Y-275397114D01*
X386037880Y-275397114D02*
X386145023Y-275301876D01*
X386145023Y-275301876D02*
X386061689Y-275206638D01*
X386061689Y-275206638D02*
X386037880Y-275397114D01*
X386930737Y-275873304D02*
X386764070Y-277206638D01*
X386906927Y-276063780D02*
X387014070Y-275968542D01*
X387014070Y-275968542D02*
X387216451Y-275873304D01*
X387216451Y-275873304D02*
X387502165Y-275873304D01*
X387502165Y-275873304D02*
X387680737Y-275968542D01*
X387680737Y-275968542D02*
X387752165Y-276159019D01*
X387752165Y-276159019D02*
X387621213Y-277206638D01*
X389442642Y-277111400D02*
X389240261Y-277206638D01*
X389240261Y-277206638D02*
X388859309Y-277206638D01*
X388859309Y-277206638D02*
X388680737Y-277111400D01*
X388680737Y-277111400D02*
X388597404Y-277016161D01*
X388597404Y-277016161D02*
X388525975Y-276825685D01*
X388525975Y-276825685D02*
X388597404Y-276254257D01*
X388597404Y-276254257D02*
X388716451Y-276063780D01*
X388716451Y-276063780D02*
X388823594Y-275968542D01*
X388823594Y-275968542D02*
X389025975Y-275873304D01*
X389025975Y-275873304D02*
X389406928Y-275873304D01*
X389406928Y-275873304D02*
X389585499Y-275968542D01*
X390287880Y-277206638D02*
X390454547Y-275873304D01*
X390537880Y-275206638D02*
X390430737Y-275301876D01*
X390430737Y-275301876D02*
X390514071Y-275397114D01*
X390514071Y-275397114D02*
X390621214Y-275301876D01*
X390621214Y-275301876D02*
X390537880Y-275206638D01*
X390537880Y-275206638D02*
X390514071Y-275397114D01*
X391406928Y-275873304D02*
X391156928Y-277873304D01*
X391395023Y-275968542D02*
X391597404Y-275873304D01*
X391597404Y-275873304D02*
X391978356Y-275873304D01*
X391978356Y-275873304D02*
X392156928Y-275968542D01*
X392156928Y-275968542D02*
X392240261Y-276063780D01*
X392240261Y-276063780D02*
X392311690Y-276254257D01*
X392311690Y-276254257D02*
X392240261Y-276825685D01*
X392240261Y-276825685D02*
X392121214Y-277016161D01*
X392121214Y-277016161D02*
X392014071Y-277111400D01*
X392014071Y-277111400D02*
X391811690Y-277206638D01*
X391811690Y-277206638D02*
X391430737Y-277206638D01*
X391430737Y-277206638D02*
X391252166Y-277111400D01*
X393906928Y-277206638D02*
X394037880Y-276159019D01*
X394037880Y-276159019D02*
X393966452Y-275968542D01*
X393966452Y-275968542D02*
X393787880Y-275873304D01*
X393787880Y-275873304D02*
X393406928Y-275873304D01*
X393406928Y-275873304D02*
X393204547Y-275968542D01*
X393918833Y-277111400D02*
X393716452Y-277206638D01*
X393716452Y-277206638D02*
X393240261Y-277206638D01*
X393240261Y-277206638D02*
X393061690Y-277111400D01*
X393061690Y-277111400D02*
X392990261Y-276920923D01*
X392990261Y-276920923D02*
X393014071Y-276730447D01*
X393014071Y-276730447D02*
X393133119Y-276539971D01*
X393133119Y-276539971D02*
X393335500Y-276444733D01*
X393335500Y-276444733D02*
X393811690Y-276444733D01*
X393811690Y-276444733D02*
X394014071Y-276349495D01*
X395145024Y-277206638D02*
X394966452Y-277111400D01*
X394966452Y-277111400D02*
X394895024Y-276920923D01*
X394895024Y-276920923D02*
X395109309Y-275206638D01*
X398287881Y-277206638D02*
X398537881Y-275206638D01*
X398299786Y-277111400D02*
X398097405Y-277206638D01*
X398097405Y-277206638D02*
X397716453Y-277206638D01*
X397716453Y-277206638D02*
X397537881Y-277111400D01*
X397537881Y-277111400D02*
X397454548Y-277016161D01*
X397454548Y-277016161D02*
X397383119Y-276825685D01*
X397383119Y-276825685D02*
X397454548Y-276254257D01*
X397454548Y-276254257D02*
X397573595Y-276063780D01*
X397573595Y-276063780D02*
X397680738Y-275968542D01*
X397680738Y-275968542D02*
X397883119Y-275873304D01*
X397883119Y-275873304D02*
X398264072Y-275873304D01*
X398264072Y-275873304D02*
X398442643Y-275968542D01*
X400014072Y-277111400D02*
X399811691Y-277206638D01*
X399811691Y-277206638D02*
X399430738Y-277206638D01*
X399430738Y-277206638D02*
X399252167Y-277111400D01*
X399252167Y-277111400D02*
X399180738Y-276920923D01*
X399180738Y-276920923D02*
X399275977Y-276159019D01*
X399275977Y-276159019D02*
X399395024Y-275968542D01*
X399395024Y-275968542D02*
X399597405Y-275873304D01*
X399597405Y-275873304D02*
X399978357Y-275873304D01*
X399978357Y-275873304D02*
X400156929Y-275968542D01*
X400156929Y-275968542D02*
X400228357Y-276159019D01*
X400228357Y-276159019D02*
X400204548Y-276349495D01*
X400204548Y-276349495D02*
X399228357Y-276539971D01*
X402478358Y-277206638D02*
X402728358Y-275206638D01*
X402728358Y-275206638D02*
X403216453Y-276635209D01*
X403216453Y-276635209D02*
X404061692Y-275206638D01*
X404061692Y-275206638D02*
X403811692Y-277206638D01*
X405537882Y-277111400D02*
X405335501Y-277206638D01*
X405335501Y-277206638D02*
X404954548Y-277206638D01*
X404954548Y-277206638D02*
X404775977Y-277111400D01*
X404775977Y-277111400D02*
X404704548Y-276920923D01*
X404704548Y-276920923D02*
X404799787Y-276159019D01*
X404799787Y-276159019D02*
X404918834Y-275968542D01*
X404918834Y-275968542D02*
X405121215Y-275873304D01*
X405121215Y-275873304D02*
X405502167Y-275873304D01*
X405502167Y-275873304D02*
X405680739Y-275968542D01*
X405680739Y-275968542D02*
X405752167Y-276159019D01*
X405752167Y-276159019D02*
X405728358Y-276349495D01*
X405728358Y-276349495D02*
X404752167Y-276539971D01*
X407335501Y-277206638D02*
X407585501Y-275206638D01*
X407347406Y-277111400D02*
X407145025Y-277206638D01*
X407145025Y-277206638D02*
X406764073Y-277206638D01*
X406764073Y-277206638D02*
X406585501Y-277111400D01*
X406585501Y-277111400D02*
X406502168Y-277016161D01*
X406502168Y-277016161D02*
X406430739Y-276825685D01*
X406430739Y-276825685D02*
X406502168Y-276254257D01*
X406502168Y-276254257D02*
X406621215Y-276063780D01*
X406621215Y-276063780D02*
X406728358Y-275968542D01*
X406728358Y-275968542D02*
X406930739Y-275873304D01*
X406930739Y-275873304D02*
X407311692Y-275873304D01*
X407311692Y-275873304D02*
X407490263Y-275968542D01*
X408287882Y-277206638D02*
X408454549Y-275873304D01*
X408537882Y-275206638D02*
X408430739Y-275301876D01*
X408430739Y-275301876D02*
X408514073Y-275397114D01*
X408514073Y-275397114D02*
X408621216Y-275301876D01*
X408621216Y-275301876D02*
X408537882Y-275206638D01*
X408537882Y-275206638D02*
X408514073Y-275397114D01*
X410109311Y-277111400D02*
X409906930Y-277206638D01*
X409906930Y-277206638D02*
X409525978Y-277206638D01*
X409525978Y-277206638D02*
X409347406Y-277111400D01*
X409347406Y-277111400D02*
X409264073Y-277016161D01*
X409264073Y-277016161D02*
X409192644Y-276825685D01*
X409192644Y-276825685D02*
X409264073Y-276254257D01*
X409264073Y-276254257D02*
X409383120Y-276063780D01*
X409383120Y-276063780D02*
X409490263Y-275968542D01*
X409490263Y-275968542D02*
X409692644Y-275873304D01*
X409692644Y-275873304D02*
X410073597Y-275873304D01*
X410073597Y-275873304D02*
X410252168Y-275968542D01*
X410954549Y-277206638D02*
X411121216Y-275873304D01*
X411204549Y-275206638D02*
X411097406Y-275301876D01*
X411097406Y-275301876D02*
X411180740Y-275397114D01*
X411180740Y-275397114D02*
X411287883Y-275301876D01*
X411287883Y-275301876D02*
X411204549Y-275206638D01*
X411204549Y-275206638D02*
X411180740Y-275397114D01*
X412192645Y-277206638D02*
X412014073Y-277111400D01*
X412014073Y-277111400D02*
X411930740Y-277016161D01*
X411930740Y-277016161D02*
X411859311Y-276825685D01*
X411859311Y-276825685D02*
X411930740Y-276254257D01*
X411930740Y-276254257D02*
X412049787Y-276063780D01*
X412049787Y-276063780D02*
X412156930Y-275968542D01*
X412156930Y-275968542D02*
X412359311Y-275873304D01*
X412359311Y-275873304D02*
X412645025Y-275873304D01*
X412645025Y-275873304D02*
X412823597Y-275968542D01*
X412823597Y-275968542D02*
X412906930Y-276063780D01*
X412906930Y-276063780D02*
X412978359Y-276254257D01*
X412978359Y-276254257D02*
X412906930Y-276825685D01*
X412906930Y-276825685D02*
X412787883Y-277016161D01*
X412787883Y-277016161D02*
X412680740Y-277111400D01*
X412680740Y-277111400D02*
X412478359Y-277206638D01*
X412478359Y-277206638D02*
X412192645Y-277206638D01*
X412835502Y-275111400D02*
X412514073Y-275397114D01*
X413883121Y-275873304D02*
X413716454Y-277206638D01*
X413859311Y-276063780D02*
X413966454Y-275968542D01*
X413966454Y-275968542D02*
X414168835Y-275873304D01*
X414168835Y-275873304D02*
X414454549Y-275873304D01*
X414454549Y-275873304D02*
X414633121Y-275968542D01*
X414633121Y-275968542D02*
X414704549Y-276159019D01*
X414704549Y-276159019D02*
X414573597Y-277206638D01*
D10*
D11*
X301944826Y-272602614D02*
X301444826Y-272602614D01*
X301444826Y-273388328D02*
X301444826Y-271888328D01*
X301444826Y-271888328D02*
X302159112Y-271888328D01*
X302730540Y-273388328D02*
X302730540Y-272388328D01*
X302730540Y-271888328D02*
X302659112Y-271959757D01*
X302659112Y-271959757D02*
X302730540Y-272031185D01*
X302730540Y-272031185D02*
X302801969Y-271959757D01*
X302801969Y-271959757D02*
X302730540Y-271888328D01*
X302730540Y-271888328D02*
X302730540Y-272031185D01*
X303659112Y-273388328D02*
X303516255Y-273316900D01*
X303516255Y-273316900D02*
X303444826Y-273174042D01*
X303444826Y-273174042D02*
X303444826Y-271888328D01*
X304801969Y-273316900D02*
X304659112Y-273388328D01*
X304659112Y-273388328D02*
X304373398Y-273388328D01*
X304373398Y-273388328D02*
X304230540Y-273316900D01*
X304230540Y-273316900D02*
X304159112Y-273174042D01*
X304159112Y-273174042D02*
X304159112Y-272602614D01*
X304159112Y-272602614D02*
X304230540Y-272459757D01*
X304230540Y-272459757D02*
X304373398Y-272388328D01*
X304373398Y-272388328D02*
X304659112Y-272388328D01*
X304659112Y-272388328D02*
X304801969Y-272459757D01*
X304801969Y-272459757D02*
X304873398Y-272602614D01*
X304873398Y-272602614D02*
X304873398Y-272745471D01*
X304873398Y-272745471D02*
X304159112Y-272888328D01*
X305516254Y-273245471D02*
X305587683Y-273316900D01*
X305587683Y-273316900D02*
X305516254Y-273388328D01*
X305516254Y-273388328D02*
X305444826Y-273316900D01*
X305444826Y-273316900D02*
X305516254Y-273245471D01*
X305516254Y-273245471D02*
X305516254Y-273388328D01*
X305516254Y-272459757D02*
X305587683Y-272531185D01*
X305587683Y-272531185D02*
X305516254Y-272602614D01*
X305516254Y-272602614D02*
X305444826Y-272531185D01*
X305444826Y-272531185D02*
X305516254Y-272459757D01*
X305516254Y-272459757D02*
X305516254Y-272602614D01*
X307373397Y-273388328D02*
X307373397Y-272388328D01*
X307373397Y-272674042D02*
X307444826Y-272531185D01*
X307444826Y-272531185D02*
X307516255Y-272459757D01*
X307516255Y-272459757D02*
X307659112Y-272388328D01*
X307659112Y-272388328D02*
X307801969Y-272388328D01*
X308873397Y-273316900D02*
X308730540Y-273388328D01*
X308730540Y-273388328D02*
X308444826Y-273388328D01*
X308444826Y-273388328D02*
X308301968Y-273316900D01*
X308301968Y-273316900D02*
X308230540Y-273174042D01*
X308230540Y-273174042D02*
X308230540Y-272602614D01*
X308230540Y-272602614D02*
X308301968Y-272459757D01*
X308301968Y-272459757D02*
X308444826Y-272388328D01*
X308444826Y-272388328D02*
X308730540Y-272388328D01*
X308730540Y-272388328D02*
X308873397Y-272459757D01*
X308873397Y-272459757D02*
X308944826Y-272602614D01*
X308944826Y-272602614D02*
X308944826Y-272745471D01*
X308944826Y-272745471D02*
X308230540Y-272888328D01*
X309444825Y-272388328D02*
X309801968Y-273388328D01*
X309801968Y-273388328D02*
X310159111Y-272388328D01*
X310373397Y-273531185D02*
X311516254Y-273531185D01*
X311873396Y-273388328D02*
X311873396Y-272388328D01*
X311873396Y-272531185D02*
X311944825Y-272459757D01*
X311944825Y-272459757D02*
X312087682Y-272388328D01*
X312087682Y-272388328D02*
X312301968Y-272388328D01*
X312301968Y-272388328D02*
X312444825Y-272459757D01*
X312444825Y-272459757D02*
X312516254Y-272602614D01*
X312516254Y-272602614D02*
X312516254Y-273388328D01*
X312516254Y-272602614D02*
X312587682Y-272459757D01*
X312587682Y-272459757D02*
X312730539Y-272388328D01*
X312730539Y-272388328D02*
X312944825Y-272388328D01*
X312944825Y-272388328D02*
X313087682Y-272459757D01*
X313087682Y-272459757D02*
X313159111Y-272602614D01*
X313159111Y-272602614D02*
X313159111Y-273388328D01*
X314516254Y-273388328D02*
X314516254Y-272602614D01*
X314516254Y-272602614D02*
X314444825Y-272459757D01*
X314444825Y-272459757D02*
X314301968Y-272388328D01*
X314301968Y-272388328D02*
X314016254Y-272388328D01*
X314016254Y-272388328D02*
X313873396Y-272459757D01*
X314516254Y-273316900D02*
X314373396Y-273388328D01*
X314373396Y-273388328D02*
X314016254Y-273388328D01*
X314016254Y-273388328D02*
X313873396Y-273316900D01*
X313873396Y-273316900D02*
X313801968Y-273174042D01*
X313801968Y-273174042D02*
X313801968Y-273031185D01*
X313801968Y-273031185D02*
X313873396Y-272888328D01*
X313873396Y-272888328D02*
X314016254Y-272816900D01*
X314016254Y-272816900D02*
X314373396Y-272816900D01*
X314373396Y-272816900D02*
X314516254Y-272745471D01*
X315230539Y-273388328D02*
X315230539Y-272388328D01*
X315230539Y-271888328D02*
X315159111Y-271959757D01*
X315159111Y-271959757D02*
X315230539Y-272031185D01*
X315230539Y-272031185D02*
X315301968Y-271959757D01*
X315301968Y-271959757D02*
X315230539Y-271888328D01*
X315230539Y-271888328D02*
X315230539Y-272031185D01*
X315944825Y-272388328D02*
X315944825Y-273388328D01*
X315944825Y-272531185D02*
X316016254Y-272459757D01*
X316016254Y-272459757D02*
X316159111Y-272388328D01*
X316159111Y-272388328D02*
X316373397Y-272388328D01*
X316373397Y-272388328D02*
X316516254Y-272459757D01*
X316516254Y-272459757D02*
X316587683Y-272602614D01*
X316587683Y-272602614D02*
X316587683Y-273388328D01*
X316944826Y-273531185D02*
X318087683Y-273531185D01*
X318373397Y-272959757D02*
X319087683Y-272959757D01*
X318230540Y-273388328D02*
X318730540Y-271888328D01*
X318730540Y-271888328D02*
X319230540Y-273388328D01*
X319730539Y-273245471D02*
X319801968Y-273316900D01*
X319801968Y-273316900D02*
X319730539Y-273388328D01*
X319730539Y-273388328D02*
X319659111Y-273316900D01*
X319659111Y-273316900D02*
X319730539Y-273245471D01*
X319730539Y-273245471D02*
X319730539Y-273388328D01*
X320444825Y-273388328D02*
X320444825Y-271888328D01*
X320587683Y-272816900D02*
X321016254Y-273388328D01*
X321016254Y-272388328D02*
X320444825Y-272959757D01*
X321659111Y-273388328D02*
X321659111Y-272388328D01*
X321659111Y-271888328D02*
X321587683Y-271959757D01*
X321587683Y-271959757D02*
X321659111Y-272031185D01*
X321659111Y-272031185D02*
X321730540Y-271959757D01*
X321730540Y-271959757D02*
X321659111Y-271888328D01*
X321659111Y-271888328D02*
X321659111Y-272031185D01*
X323016255Y-273316900D02*
X322873397Y-273388328D01*
X322873397Y-273388328D02*
X322587683Y-273388328D01*
X322587683Y-273388328D02*
X322444826Y-273316900D01*
X322444826Y-273316900D02*
X322373397Y-273245471D01*
X322373397Y-273245471D02*
X322301969Y-273102614D01*
X322301969Y-273102614D02*
X322301969Y-272674042D01*
X322301969Y-272674042D02*
X322373397Y-272531185D01*
X322373397Y-272531185D02*
X322444826Y-272459757D01*
X322444826Y-272459757D02*
X322587683Y-272388328D01*
X322587683Y-272388328D02*
X322873397Y-272388328D01*
X322873397Y-272388328D02*
X323016255Y-272459757D01*
X324301969Y-273388328D02*
X324301969Y-272602614D01*
X324301969Y-272602614D02*
X324230540Y-272459757D01*
X324230540Y-272459757D02*
X324087683Y-272388328D01*
X324087683Y-272388328D02*
X323801969Y-272388328D01*
X323801969Y-272388328D02*
X323659111Y-272459757D01*
X324301969Y-273316900D02*
X324159111Y-273388328D01*
X324159111Y-273388328D02*
X323801969Y-273388328D01*
X323801969Y-273388328D02*
X323659111Y-273316900D01*
X323659111Y-273316900D02*
X323587683Y-273174042D01*
X323587683Y-273174042D02*
X323587683Y-273031185D01*
X323587683Y-273031185D02*
X323659111Y-272888328D01*
X323659111Y-272888328D02*
X323801969Y-272816900D01*
X323801969Y-272816900D02*
X324159111Y-272816900D01*
X324159111Y-272816900D02*
X324301969Y-272745471D01*
X325659112Y-273388328D02*
X325659112Y-271888328D01*
X325659112Y-273316900D02*
X325516254Y-273388328D01*
X325516254Y-273388328D02*
X325230540Y-273388328D01*
X325230540Y-273388328D02*
X325087683Y-273316900D01*
X325087683Y-273316900D02*
X325016254Y-273245471D01*
X325016254Y-273245471D02*
X324944826Y-273102614D01*
X324944826Y-273102614D02*
X324944826Y-272674042D01*
X324944826Y-272674042D02*
X325016254Y-272531185D01*
X325016254Y-272531185D02*
X325087683Y-272459757D01*
X325087683Y-272459757D02*
X325230540Y-272388328D01*
X325230540Y-272388328D02*
X325516254Y-272388328D01*
X325516254Y-272388328D02*
X325659112Y-272459757D01*
X326016255Y-273531185D02*
X327159112Y-273531185D01*
X327516254Y-272388328D02*
X327516254Y-273888328D01*
X327516254Y-272459757D02*
X327659112Y-272388328D01*
X327659112Y-272388328D02*
X327944826Y-272388328D01*
X327944826Y-272388328D02*
X328087683Y-272459757D01*
X328087683Y-272459757D02*
X328159112Y-272531185D01*
X328159112Y-272531185D02*
X328230540Y-272674042D01*
X328230540Y-272674042D02*
X328230540Y-273102614D01*
X328230540Y-273102614D02*
X328159112Y-273245471D01*
X328159112Y-273245471D02*
X328087683Y-273316900D01*
X328087683Y-273316900D02*
X327944826Y-273388328D01*
X327944826Y-273388328D02*
X327659112Y-273388328D01*
X327659112Y-273388328D02*
X327516254Y-273316900D01*
X329516255Y-273316900D02*
X329373397Y-273388328D01*
X329373397Y-273388328D02*
X329087683Y-273388328D01*
X329087683Y-273388328D02*
X328944826Y-273316900D01*
X328944826Y-273316900D02*
X328873397Y-273245471D01*
X328873397Y-273245471D02*
X328801969Y-273102614D01*
X328801969Y-273102614D02*
X328801969Y-272674042D01*
X328801969Y-272674042D02*
X328873397Y-272531185D01*
X328873397Y-272531185D02*
X328944826Y-272459757D01*
X328944826Y-272459757D02*
X329087683Y-272388328D01*
X329087683Y-272388328D02*
X329373397Y-272388328D01*
X329373397Y-272388328D02*
X329516255Y-272459757D01*
X330159111Y-273388328D02*
X330159111Y-271888328D01*
X330159111Y-272459757D02*
X330301969Y-272388328D01*
X330301969Y-272388328D02*
X330587683Y-272388328D01*
X330587683Y-272388328D02*
X330730540Y-272459757D01*
X330730540Y-272459757D02*
X330801969Y-272531185D01*
X330801969Y-272531185D02*
X330873397Y-272674042D01*
X330873397Y-272674042D02*
X330873397Y-273102614D01*
X330873397Y-273102614D02*
X330801969Y-273245471D01*
X330801969Y-273245471D02*
X330730540Y-273316900D01*
X330730540Y-273316900D02*
X330587683Y-273388328D01*
X330587683Y-273388328D02*
X330301969Y-273388328D01*
X330301969Y-273388328D02*
X330159111Y-273316900D01*
D10*
D11*
X299989000Y-268502200D02*
X407989000Y-268502200D01*
D10*
D11*
X301373398Y-270616900D02*
X301587684Y-270688328D01*
X301587684Y-270688328D02*
X301944826Y-270688328D01*
X301944826Y-270688328D02*
X302087684Y-270616900D01*
X302087684Y-270616900D02*
X302159112Y-270545471D01*
X302159112Y-270545471D02*
X302230541Y-270402614D01*
X302230541Y-270402614D02*
X302230541Y-270259757D01*
X302230541Y-270259757D02*
X302159112Y-270116900D01*
X302159112Y-270116900D02*
X302087684Y-270045471D01*
X302087684Y-270045471D02*
X301944826Y-269974042D01*
X301944826Y-269974042D02*
X301659112Y-269902614D01*
X301659112Y-269902614D02*
X301516255Y-269831185D01*
X301516255Y-269831185D02*
X301444826Y-269759757D01*
X301444826Y-269759757D02*
X301373398Y-269616900D01*
X301373398Y-269616900D02*
X301373398Y-269474042D01*
X301373398Y-269474042D02*
X301444826Y-269331185D01*
X301444826Y-269331185D02*
X301516255Y-269259757D01*
X301516255Y-269259757D02*
X301659112Y-269188328D01*
X301659112Y-269188328D02*
X302016255Y-269188328D01*
X302016255Y-269188328D02*
X302230541Y-269259757D01*
X302873397Y-270688328D02*
X302873397Y-269188328D01*
X303516255Y-270688328D02*
X303516255Y-269902614D01*
X303516255Y-269902614D02*
X303444826Y-269759757D01*
X303444826Y-269759757D02*
X303301969Y-269688328D01*
X303301969Y-269688328D02*
X303087683Y-269688328D01*
X303087683Y-269688328D02*
X302944826Y-269759757D01*
X302944826Y-269759757D02*
X302873397Y-269831185D01*
X304801969Y-270616900D02*
X304659112Y-270688328D01*
X304659112Y-270688328D02*
X304373398Y-270688328D01*
X304373398Y-270688328D02*
X304230540Y-270616900D01*
X304230540Y-270616900D02*
X304159112Y-270474042D01*
X304159112Y-270474042D02*
X304159112Y-269902614D01*
X304159112Y-269902614D02*
X304230540Y-269759757D01*
X304230540Y-269759757D02*
X304373398Y-269688328D01*
X304373398Y-269688328D02*
X304659112Y-269688328D01*
X304659112Y-269688328D02*
X304801969Y-269759757D01*
X304801969Y-269759757D02*
X304873398Y-269902614D01*
X304873398Y-269902614D02*
X304873398Y-270045471D01*
X304873398Y-270045471D02*
X304159112Y-270188328D01*
X306087683Y-270616900D02*
X305944826Y-270688328D01*
X305944826Y-270688328D02*
X305659112Y-270688328D01*
X305659112Y-270688328D02*
X305516254Y-270616900D01*
X305516254Y-270616900D02*
X305444826Y-270474042D01*
X305444826Y-270474042D02*
X305444826Y-269902614D01*
X305444826Y-269902614D02*
X305516254Y-269759757D01*
X305516254Y-269759757D02*
X305659112Y-269688328D01*
X305659112Y-269688328D02*
X305944826Y-269688328D01*
X305944826Y-269688328D02*
X306087683Y-269759757D01*
X306087683Y-269759757D02*
X306159112Y-269902614D01*
X306159112Y-269902614D02*
X306159112Y-270045471D01*
X306159112Y-270045471D02*
X305444826Y-270188328D01*
X306587683Y-269688328D02*
X307159111Y-269688328D01*
X306801968Y-269188328D02*
X306801968Y-270474042D01*
X306801968Y-270474042D02*
X306873397Y-270616900D01*
X306873397Y-270616900D02*
X307016254Y-270688328D01*
X307016254Y-270688328D02*
X307159111Y-270688328D01*
X307659111Y-270545471D02*
X307730540Y-270616900D01*
X307730540Y-270616900D02*
X307659111Y-270688328D01*
X307659111Y-270688328D02*
X307587683Y-270616900D01*
X307587683Y-270616900D02*
X307659111Y-270545471D01*
X307659111Y-270545471D02*
X307659111Y-270688328D01*
X307659111Y-269759757D02*
X307730540Y-269831185D01*
X307730540Y-269831185D02*
X307659111Y-269902614D01*
X307659111Y-269902614D02*
X307587683Y-269831185D01*
X307587683Y-269831185D02*
X307659111Y-269759757D01*
X307659111Y-269759757D02*
X307659111Y-269902614D01*
D10*
D12*
X301543510Y-266894814D02*
X302043510Y-266894814D01*
X302257796Y-267680528D02*
X301543510Y-267680528D01*
X301543510Y-267680528D02*
X301543510Y-266180528D01*
X301543510Y-266180528D02*
X302257796Y-266180528D01*
X302829225Y-267609100D02*
X302972082Y-267680528D01*
X302972082Y-267680528D02*
X303257796Y-267680528D01*
X303257796Y-267680528D02*
X303400653Y-267609100D01*
X303400653Y-267609100D02*
X303472082Y-267466242D01*
X303472082Y-267466242D02*
X303472082Y-267394814D01*
X303472082Y-267394814D02*
X303400653Y-267251957D01*
X303400653Y-267251957D02*
X303257796Y-267180528D01*
X303257796Y-267180528D02*
X303043511Y-267180528D01*
X303043511Y-267180528D02*
X302900653Y-267109100D01*
X302900653Y-267109100D02*
X302829225Y-266966242D01*
X302829225Y-266966242D02*
X302829225Y-266894814D01*
X302829225Y-266894814D02*
X302900653Y-266751957D01*
X302900653Y-266751957D02*
X303043511Y-266680528D01*
X303043511Y-266680528D02*
X303257796Y-266680528D01*
X303257796Y-266680528D02*
X303400653Y-266751957D01*
X304757797Y-267609100D02*
X304614939Y-267680528D01*
X304614939Y-267680528D02*
X304329225Y-267680528D01*
X304329225Y-267680528D02*
X304186368Y-267609100D01*
X304186368Y-267609100D02*
X304114939Y-267537671D01*
X304114939Y-267537671D02*
X304043511Y-267394814D01*
X304043511Y-267394814D02*
X304043511Y-266966242D01*
X304043511Y-266966242D02*
X304114939Y-266823385D01*
X304114939Y-266823385D02*
X304186368Y-266751957D01*
X304186368Y-266751957D02*
X304329225Y-266680528D01*
X304329225Y-266680528D02*
X304614939Y-266680528D01*
X304614939Y-266680528D02*
X304757797Y-266751957D01*
X306043511Y-266680528D02*
X306043511Y-267680528D01*
X305400653Y-266680528D02*
X305400653Y-267466242D01*
X305400653Y-267466242D02*
X305472082Y-267609100D01*
X305472082Y-267609100D02*
X305614939Y-267680528D01*
X305614939Y-267680528D02*
X305829225Y-267680528D01*
X305829225Y-267680528D02*
X305972082Y-267609100D01*
X305972082Y-267609100D02*
X306043511Y-267537671D01*
X307329225Y-267609100D02*
X307186368Y-267680528D01*
X307186368Y-267680528D02*
X306900654Y-267680528D01*
X306900654Y-267680528D02*
X306757796Y-267609100D01*
X306757796Y-267609100D02*
X306686368Y-267466242D01*
X306686368Y-267466242D02*
X306686368Y-266894814D01*
X306686368Y-266894814D02*
X306757796Y-266751957D01*
X306757796Y-266751957D02*
X306900654Y-266680528D01*
X306900654Y-266680528D02*
X307186368Y-266680528D01*
X307186368Y-266680528D02*
X307329225Y-266751957D01*
X307329225Y-266751957D02*
X307400654Y-266894814D01*
X307400654Y-266894814D02*
X307400654Y-267037671D01*
X307400654Y-267037671D02*
X306686368Y-267180528D01*
X308257796Y-267680528D02*
X308114939Y-267609100D01*
X308114939Y-267609100D02*
X308043510Y-267466242D01*
X308043510Y-267466242D02*
X308043510Y-266180528D01*
X309472082Y-267680528D02*
X309472082Y-266894814D01*
X309472082Y-266894814D02*
X309400653Y-266751957D01*
X309400653Y-266751957D02*
X309257796Y-266680528D01*
X309257796Y-266680528D02*
X308972082Y-266680528D01*
X308972082Y-266680528D02*
X308829224Y-266751957D01*
X309472082Y-267609100D02*
X309329224Y-267680528D01*
X309329224Y-267680528D02*
X308972082Y-267680528D01*
X308972082Y-267680528D02*
X308829224Y-267609100D01*
X308829224Y-267609100D02*
X308757796Y-267466242D01*
X308757796Y-267466242D02*
X308757796Y-267323385D01*
X308757796Y-267323385D02*
X308829224Y-267180528D01*
X308829224Y-267180528D02*
X308972082Y-267109100D01*
X308972082Y-267109100D02*
X309329224Y-267109100D01*
X309329224Y-267109100D02*
X309472082Y-267037671D01*
X311257796Y-267609100D02*
X311472082Y-267680528D01*
X311472082Y-267680528D02*
X311829224Y-267680528D01*
X311829224Y-267680528D02*
X311972082Y-267609100D01*
X311972082Y-267609100D02*
X312043510Y-267537671D01*
X312043510Y-267537671D02*
X312114939Y-267394814D01*
X312114939Y-267394814D02*
X312114939Y-267251957D01*
X312114939Y-267251957D02*
X312043510Y-267109100D01*
X312043510Y-267109100D02*
X311972082Y-267037671D01*
X311972082Y-267037671D02*
X311829224Y-266966242D01*
X311829224Y-266966242D02*
X311543510Y-266894814D01*
X311543510Y-266894814D02*
X311400653Y-266823385D01*
X311400653Y-266823385D02*
X311329224Y-266751957D01*
X311329224Y-266751957D02*
X311257796Y-266609100D01*
X311257796Y-266609100D02*
X311257796Y-266466242D01*
X311257796Y-266466242D02*
X311329224Y-266323385D01*
X311329224Y-266323385D02*
X311400653Y-266251957D01*
X311400653Y-266251957D02*
X311543510Y-266180528D01*
X311543510Y-266180528D02*
X311900653Y-266180528D01*
X311900653Y-266180528D02*
X312114939Y-266251957D01*
X313400653Y-266680528D02*
X313400653Y-267680528D01*
X312757795Y-266680528D02*
X312757795Y-267466242D01*
X312757795Y-267466242D02*
X312829224Y-267609100D01*
X312829224Y-267609100D02*
X312972081Y-267680528D01*
X312972081Y-267680528D02*
X313186367Y-267680528D01*
X313186367Y-267680528D02*
X313329224Y-267609100D01*
X313329224Y-267609100D02*
X313400653Y-267537671D01*
X314114938Y-266680528D02*
X314114938Y-268180528D01*
X314114938Y-266751957D02*
X314257796Y-266680528D01*
X314257796Y-266680528D02*
X314543510Y-266680528D01*
X314543510Y-266680528D02*
X314686367Y-266751957D01*
X314686367Y-266751957D02*
X314757796Y-266823385D01*
X314757796Y-266823385D02*
X314829224Y-266966242D01*
X314829224Y-266966242D02*
X314829224Y-267394814D01*
X314829224Y-267394814D02*
X314757796Y-267537671D01*
X314757796Y-267537671D02*
X314686367Y-267609100D01*
X314686367Y-267609100D02*
X314543510Y-267680528D01*
X314543510Y-267680528D02*
X314257796Y-267680528D01*
X314257796Y-267680528D02*
X314114938Y-267609100D01*
X316043510Y-267609100D02*
X315900653Y-267680528D01*
X315900653Y-267680528D02*
X315614939Y-267680528D01*
X315614939Y-267680528D02*
X315472081Y-267609100D01*
X315472081Y-267609100D02*
X315400653Y-267466242D01*
X315400653Y-267466242D02*
X315400653Y-266894814D01*
X315400653Y-266894814D02*
X315472081Y-266751957D01*
X315472081Y-266751957D02*
X315614939Y-266680528D01*
X315614939Y-266680528D02*
X315900653Y-266680528D01*
X315900653Y-266680528D02*
X316043510Y-266751957D01*
X316043510Y-266751957D02*
X316114939Y-266894814D01*
X316114939Y-266894814D02*
X316114939Y-267037671D01*
X316114939Y-267037671D02*
X315400653Y-267180528D01*
X316757795Y-267680528D02*
X316757795Y-266680528D01*
X316757795Y-266966242D02*
X316829224Y-266823385D01*
X316829224Y-266823385D02*
X316900653Y-266751957D01*
X316900653Y-266751957D02*
X317043510Y-266680528D01*
X317043510Y-266680528D02*
X317186367Y-266680528D01*
X317686366Y-267680528D02*
X317686366Y-266680528D01*
X317686366Y-266180528D02*
X317614938Y-266251957D01*
X317614938Y-266251957D02*
X317686366Y-266323385D01*
X317686366Y-266323385D02*
X317757795Y-266251957D01*
X317757795Y-266251957D02*
X317686366Y-266180528D01*
X317686366Y-266180528D02*
X317686366Y-266323385D01*
X318614938Y-267680528D02*
X318472081Y-267609100D01*
X318472081Y-267609100D02*
X318400652Y-267537671D01*
X318400652Y-267537671D02*
X318329224Y-267394814D01*
X318329224Y-267394814D02*
X318329224Y-266966242D01*
X318329224Y-266966242D02*
X318400652Y-266823385D01*
X318400652Y-266823385D02*
X318472081Y-266751957D01*
X318472081Y-266751957D02*
X318614938Y-266680528D01*
X318614938Y-266680528D02*
X318829224Y-266680528D01*
X318829224Y-266680528D02*
X318972081Y-266751957D01*
X318972081Y-266751957D02*
X319043510Y-266823385D01*
X319043510Y-266823385D02*
X319114938Y-266966242D01*
X319114938Y-266966242D02*
X319114938Y-267394814D01*
X319114938Y-267394814D02*
X319043510Y-267537671D01*
X319043510Y-267537671D02*
X318972081Y-267609100D01*
X318972081Y-267609100D02*
X318829224Y-267680528D01*
X318829224Y-267680528D02*
X318614938Y-267680528D01*
X319757795Y-267680528D02*
X319757795Y-266680528D01*
X319757795Y-266966242D02*
X319829224Y-266823385D01*
X319829224Y-266823385D02*
X319900653Y-266751957D01*
X319900653Y-266751957D02*
X320043510Y-266680528D01*
X320043510Y-266680528D02*
X320186367Y-266680528D01*
X322472081Y-267680528D02*
X322472081Y-266180528D01*
X322472081Y-267609100D02*
X322329223Y-267680528D01*
X322329223Y-267680528D02*
X322043509Y-267680528D01*
X322043509Y-267680528D02*
X321900652Y-267609100D01*
X321900652Y-267609100D02*
X321829223Y-267537671D01*
X321829223Y-267537671D02*
X321757795Y-267394814D01*
X321757795Y-267394814D02*
X321757795Y-266966242D01*
X321757795Y-266966242D02*
X321829223Y-266823385D01*
X321829223Y-266823385D02*
X321900652Y-266751957D01*
X321900652Y-266751957D02*
X322043509Y-266680528D01*
X322043509Y-266680528D02*
X322329223Y-266680528D01*
X322329223Y-266680528D02*
X322472081Y-266751957D01*
X323757795Y-267609100D02*
X323614938Y-267680528D01*
X323614938Y-267680528D02*
X323329224Y-267680528D01*
X323329224Y-267680528D02*
X323186366Y-267609100D01*
X323186366Y-267609100D02*
X323114938Y-267466242D01*
X323114938Y-267466242D02*
X323114938Y-266894814D01*
X323114938Y-266894814D02*
X323186366Y-266751957D01*
X323186366Y-266751957D02*
X323329224Y-266680528D01*
X323329224Y-266680528D02*
X323614938Y-266680528D01*
X323614938Y-266680528D02*
X323757795Y-266751957D01*
X323757795Y-266751957D02*
X323829224Y-266894814D01*
X323829224Y-266894814D02*
X323829224Y-267037671D01*
X323829224Y-267037671D02*
X323114938Y-267180528D01*
X325614937Y-267680528D02*
X325614937Y-266180528D01*
X326329223Y-266680528D02*
X326329223Y-267680528D01*
X326329223Y-266823385D02*
X326400652Y-266751957D01*
X326400652Y-266751957D02*
X326543509Y-266680528D01*
X326543509Y-266680528D02*
X326757795Y-266680528D01*
X326757795Y-266680528D02*
X326900652Y-266751957D01*
X326900652Y-266751957D02*
X326972081Y-266894814D01*
X326972081Y-266894814D02*
X326972081Y-267680528D01*
X328329224Y-266680528D02*
X328329224Y-267894814D01*
X328329224Y-267894814D02*
X328257795Y-268037671D01*
X328257795Y-268037671D02*
X328186366Y-268109100D01*
X328186366Y-268109100D02*
X328043509Y-268180528D01*
X328043509Y-268180528D02*
X327829224Y-268180528D01*
X327829224Y-268180528D02*
X327686366Y-268109100D01*
X328329224Y-267609100D02*
X328186366Y-267680528D01*
X328186366Y-267680528D02*
X327900652Y-267680528D01*
X327900652Y-267680528D02*
X327757795Y-267609100D01*
X327757795Y-267609100D02*
X327686366Y-267537671D01*
X327686366Y-267537671D02*
X327614938Y-267394814D01*
X327614938Y-267394814D02*
X327614938Y-266966242D01*
X327614938Y-266966242D02*
X327686366Y-266823385D01*
X327686366Y-266823385D02*
X327757795Y-266751957D01*
X327757795Y-266751957D02*
X327900652Y-266680528D01*
X327900652Y-266680528D02*
X328186366Y-266680528D01*
X328186366Y-266680528D02*
X328329224Y-266751957D01*
X329614938Y-267609100D02*
X329472081Y-267680528D01*
X329472081Y-267680528D02*
X329186367Y-267680528D01*
X329186367Y-267680528D02*
X329043509Y-267609100D01*
X329043509Y-267609100D02*
X328972081Y-267466242D01*
X328972081Y-267466242D02*
X328972081Y-266894814D01*
X328972081Y-266894814D02*
X329043509Y-266751957D01*
X329043509Y-266751957D02*
X329186367Y-266680528D01*
X329186367Y-266680528D02*
X329472081Y-266680528D01*
X329472081Y-266680528D02*
X329614938Y-266751957D01*
X329614938Y-266751957D02*
X329686367Y-266894814D01*
X329686367Y-266894814D02*
X329686367Y-267037671D01*
X329686367Y-267037671D02*
X328972081Y-267180528D01*
X330329223Y-266680528D02*
X330329223Y-267680528D01*
X330329223Y-266823385D02*
X330400652Y-266751957D01*
X330400652Y-266751957D02*
X330543509Y-266680528D01*
X330543509Y-266680528D02*
X330757795Y-266680528D01*
X330757795Y-266680528D02*
X330900652Y-266751957D01*
X330900652Y-266751957D02*
X330972081Y-266894814D01*
X330972081Y-266894814D02*
X330972081Y-267680528D01*
X331686366Y-267680528D02*
X331686366Y-266680528D01*
X331686366Y-266180528D02*
X331614938Y-266251957D01*
X331614938Y-266251957D02*
X331686366Y-266323385D01*
X331686366Y-266323385D02*
X331757795Y-266251957D01*
X331757795Y-266251957D02*
X331686366Y-266180528D01*
X331686366Y-266180528D02*
X331686366Y-266323385D01*
X332972081Y-267609100D02*
X332829224Y-267680528D01*
X332829224Y-267680528D02*
X332543510Y-267680528D01*
X332543510Y-267680528D02*
X332400652Y-267609100D01*
X332400652Y-267609100D02*
X332329224Y-267466242D01*
X332329224Y-267466242D02*
X332329224Y-266894814D01*
X332329224Y-266894814D02*
X332400652Y-266751957D01*
X332400652Y-266751957D02*
X332543510Y-266680528D01*
X332543510Y-266680528D02*
X332829224Y-266680528D01*
X332829224Y-266680528D02*
X332972081Y-266751957D01*
X332972081Y-266751957D02*
X333043510Y-266894814D01*
X333043510Y-266894814D02*
X333043510Y-267037671D01*
X333043510Y-267037671D02*
X332329224Y-267180528D01*
X333686366Y-267680528D02*
X333686366Y-266680528D01*
X333686366Y-266966242D02*
X333757795Y-266823385D01*
X333757795Y-266823385D02*
X333829224Y-266751957D01*
X333829224Y-266751957D02*
X333972081Y-266680528D01*
X333972081Y-266680528D02*
X334114938Y-266680528D01*
X334614937Y-267680528D02*
X334614937Y-266680528D01*
X334757795Y-266109100D02*
X334543509Y-266323385D01*
X335972081Y-267680528D02*
X335972081Y-266894814D01*
X335972081Y-266894814D02*
X335900652Y-266751957D01*
X335900652Y-266751957D02*
X335757795Y-266680528D01*
X335757795Y-266680528D02*
X335472081Y-266680528D01*
X335472081Y-266680528D02*
X335329223Y-266751957D01*
X335972081Y-267609100D02*
X335829223Y-267680528D01*
X335829223Y-267680528D02*
X335472081Y-267680528D01*
X335472081Y-267680528D02*
X335329223Y-267609100D01*
X335329223Y-267609100D02*
X335257795Y-267466242D01*
X335257795Y-267466242D02*
X335257795Y-267323385D01*
X335257795Y-267323385D02*
X335329223Y-267180528D01*
X335329223Y-267180528D02*
X335472081Y-267109100D01*
X335472081Y-267109100D02*
X335829223Y-267109100D01*
X335829223Y-267109100D02*
X335972081Y-267037671D01*
X338257795Y-268251957D02*
X338186366Y-268180528D01*
X338186366Y-268180528D02*
X338043509Y-267966242D01*
X338043509Y-267966242D02*
X337972081Y-267823385D01*
X337972081Y-267823385D02*
X337900652Y-267609100D01*
X337900652Y-267609100D02*
X337829223Y-267251957D01*
X337829223Y-267251957D02*
X337829223Y-266966242D01*
X337829223Y-266966242D02*
X337900652Y-266609100D01*
X337900652Y-266609100D02*
X337972081Y-266394814D01*
X337972081Y-266394814D02*
X338043509Y-266251957D01*
X338043509Y-266251957D02*
X338186366Y-266037671D01*
X338186366Y-266037671D02*
X338257795Y-265966242D01*
X338829223Y-266180528D02*
X338829223Y-267394814D01*
X338829223Y-267394814D02*
X338900652Y-267537671D01*
X338900652Y-267537671D02*
X338972081Y-267609100D01*
X338972081Y-267609100D02*
X339114938Y-267680528D01*
X339114938Y-267680528D02*
X339400652Y-267680528D01*
X339400652Y-267680528D02*
X339543509Y-267609100D01*
X339543509Y-267609100D02*
X339614938Y-267537671D01*
X339614938Y-267537671D02*
X339686366Y-267394814D01*
X339686366Y-267394814D02*
X339686366Y-266180528D01*
X340400652Y-266680528D02*
X340400652Y-267680528D01*
X340400652Y-266823385D02*
X340472081Y-266751957D01*
X340472081Y-266751957D02*
X340614938Y-266680528D01*
X340614938Y-266680528D02*
X340829224Y-266680528D01*
X340829224Y-266680528D02*
X340972081Y-266751957D01*
X340972081Y-266751957D02*
X341043510Y-266894814D01*
X341043510Y-266894814D02*
X341043510Y-267680528D01*
X341757795Y-267680528D02*
X341757795Y-266680528D01*
X341757795Y-266180528D02*
X341686367Y-266251957D01*
X341686367Y-266251957D02*
X341757795Y-266323385D01*
X341757795Y-266323385D02*
X341829224Y-266251957D01*
X341829224Y-266251957D02*
X341757795Y-266180528D01*
X341757795Y-266180528D02*
X341757795Y-266323385D01*
X342329224Y-266680528D02*
X342686367Y-267680528D01*
X342686367Y-267680528D02*
X343043510Y-266680528D01*
X344186367Y-267609100D02*
X344043510Y-267680528D01*
X344043510Y-267680528D02*
X343757796Y-267680528D01*
X343757796Y-267680528D02*
X343614938Y-267609100D01*
X343614938Y-267609100D02*
X343543510Y-267466242D01*
X343543510Y-267466242D02*
X343543510Y-266894814D01*
X343543510Y-266894814D02*
X343614938Y-266751957D01*
X343614938Y-266751957D02*
X343757796Y-266680528D01*
X343757796Y-266680528D02*
X344043510Y-266680528D01*
X344043510Y-266680528D02*
X344186367Y-266751957D01*
X344186367Y-266751957D02*
X344257796Y-266894814D01*
X344257796Y-266894814D02*
X344257796Y-267037671D01*
X344257796Y-267037671D02*
X343543510Y-267180528D01*
X344900652Y-267680528D02*
X344900652Y-266680528D01*
X344900652Y-266966242D02*
X344972081Y-266823385D01*
X344972081Y-266823385D02*
X345043510Y-266751957D01*
X345043510Y-266751957D02*
X345186367Y-266680528D01*
X345186367Y-266680528D02*
X345329224Y-266680528D01*
X345757795Y-267609100D02*
X345900652Y-267680528D01*
X345900652Y-267680528D02*
X346186366Y-267680528D01*
X346186366Y-267680528D02*
X346329223Y-267609100D01*
X346329223Y-267609100D02*
X346400652Y-267466242D01*
X346400652Y-267466242D02*
X346400652Y-267394814D01*
X346400652Y-267394814D02*
X346329223Y-267251957D01*
X346329223Y-267251957D02*
X346186366Y-267180528D01*
X346186366Y-267180528D02*
X345972081Y-267180528D01*
X345972081Y-267180528D02*
X345829223Y-267109100D01*
X345829223Y-267109100D02*
X345757795Y-266966242D01*
X345757795Y-266966242D02*
X345757795Y-266894814D01*
X345757795Y-266894814D02*
X345829223Y-266751957D01*
X345829223Y-266751957D02*
X345972081Y-266680528D01*
X345972081Y-266680528D02*
X346186366Y-266680528D01*
X346186366Y-266680528D02*
X346329223Y-266751957D01*
X347043509Y-267680528D02*
X347043509Y-266680528D01*
X347043509Y-266180528D02*
X346972081Y-266251957D01*
X346972081Y-266251957D02*
X347043509Y-266323385D01*
X347043509Y-266323385D02*
X347114938Y-266251957D01*
X347114938Y-266251957D02*
X347043509Y-266180528D01*
X347043509Y-266180528D02*
X347043509Y-266323385D01*
X348400653Y-267680528D02*
X348400653Y-266180528D01*
X348400653Y-267609100D02*
X348257795Y-267680528D01*
X348257795Y-267680528D02*
X347972081Y-267680528D01*
X347972081Y-267680528D02*
X347829224Y-267609100D01*
X347829224Y-267609100D02*
X347757795Y-267537671D01*
X347757795Y-267537671D02*
X347686367Y-267394814D01*
X347686367Y-267394814D02*
X347686367Y-266966242D01*
X347686367Y-266966242D02*
X347757795Y-266823385D01*
X347757795Y-266823385D02*
X347829224Y-266751957D01*
X347829224Y-266751957D02*
X347972081Y-266680528D01*
X347972081Y-266680528D02*
X348257795Y-266680528D01*
X348257795Y-266680528D02*
X348400653Y-266751957D01*
X349757796Y-267680528D02*
X349757796Y-266894814D01*
X349757796Y-266894814D02*
X349686367Y-266751957D01*
X349686367Y-266751957D02*
X349543510Y-266680528D01*
X349543510Y-266680528D02*
X349257796Y-266680528D01*
X349257796Y-266680528D02*
X349114938Y-266751957D01*
X349757796Y-267609100D02*
X349614938Y-267680528D01*
X349614938Y-267680528D02*
X349257796Y-267680528D01*
X349257796Y-267680528D02*
X349114938Y-267609100D01*
X349114938Y-267609100D02*
X349043510Y-267466242D01*
X349043510Y-267466242D02*
X349043510Y-267323385D01*
X349043510Y-267323385D02*
X349114938Y-267180528D01*
X349114938Y-267180528D02*
X349257796Y-267109100D01*
X349257796Y-267109100D02*
X349614938Y-267109100D01*
X349614938Y-267109100D02*
X349757796Y-267037671D01*
X351114939Y-267680528D02*
X351114939Y-266180528D01*
X351114939Y-267609100D02*
X350972081Y-267680528D01*
X350972081Y-267680528D02*
X350686367Y-267680528D01*
X350686367Y-267680528D02*
X350543510Y-267609100D01*
X350543510Y-267609100D02*
X350472081Y-267537671D01*
X350472081Y-267537671D02*
X350400653Y-267394814D01*
X350400653Y-267394814D02*
X350400653Y-266966242D01*
X350400653Y-266966242D02*
X350472081Y-266823385D01*
X350472081Y-266823385D02*
X350543510Y-266751957D01*
X350543510Y-266751957D02*
X350686367Y-266680528D01*
X350686367Y-266680528D02*
X350972081Y-266680528D01*
X350972081Y-266680528D02*
X351114939Y-266751957D01*
X353614939Y-267680528D02*
X353614939Y-266180528D01*
X353614939Y-267609100D02*
X353472081Y-267680528D01*
X353472081Y-267680528D02*
X353186367Y-267680528D01*
X353186367Y-267680528D02*
X353043510Y-267609100D01*
X353043510Y-267609100D02*
X352972081Y-267537671D01*
X352972081Y-267537671D02*
X352900653Y-267394814D01*
X352900653Y-267394814D02*
X352900653Y-266966242D01*
X352900653Y-266966242D02*
X352972081Y-266823385D01*
X352972081Y-266823385D02*
X353043510Y-266751957D01*
X353043510Y-266751957D02*
X353186367Y-266680528D01*
X353186367Y-266680528D02*
X353472081Y-266680528D01*
X353472081Y-266680528D02*
X353614939Y-266751957D01*
X354900653Y-267609100D02*
X354757796Y-267680528D01*
X354757796Y-267680528D02*
X354472082Y-267680528D01*
X354472082Y-267680528D02*
X354329224Y-267609100D01*
X354329224Y-267609100D02*
X354257796Y-267466242D01*
X354257796Y-267466242D02*
X354257796Y-266894814D01*
X354257796Y-266894814D02*
X354329224Y-266751957D01*
X354329224Y-266751957D02*
X354472082Y-266680528D01*
X354472082Y-266680528D02*
X354757796Y-266680528D01*
X354757796Y-266680528D02*
X354900653Y-266751957D01*
X354900653Y-266751957D02*
X354972082Y-266894814D01*
X354972082Y-266894814D02*
X354972082Y-267037671D01*
X354972082Y-267037671D02*
X354257796Y-267180528D01*
X357614938Y-267537671D02*
X357543510Y-267609100D01*
X357543510Y-267609100D02*
X357329224Y-267680528D01*
X357329224Y-267680528D02*
X357186367Y-267680528D01*
X357186367Y-267680528D02*
X356972081Y-267609100D01*
X356972081Y-267609100D02*
X356829224Y-267466242D01*
X356829224Y-267466242D02*
X356757795Y-267323385D01*
X356757795Y-267323385D02*
X356686367Y-267037671D01*
X356686367Y-267037671D02*
X356686367Y-266823385D01*
X356686367Y-266823385D02*
X356757795Y-266537671D01*
X356757795Y-266537671D02*
X356829224Y-266394814D01*
X356829224Y-266394814D02*
X356972081Y-266251957D01*
X356972081Y-266251957D02*
X357186367Y-266180528D01*
X357186367Y-266180528D02*
X357329224Y-266180528D01*
X357329224Y-266180528D02*
X357543510Y-266251957D01*
X357543510Y-266251957D02*
X357614938Y-266323385D01*
X358900653Y-267680528D02*
X358900653Y-266894814D01*
X358900653Y-266894814D02*
X358829224Y-266751957D01*
X358829224Y-266751957D02*
X358686367Y-266680528D01*
X358686367Y-266680528D02*
X358400653Y-266680528D01*
X358400653Y-266680528D02*
X358257795Y-266751957D01*
X358900653Y-267609100D02*
X358757795Y-267680528D01*
X358757795Y-267680528D02*
X358400653Y-267680528D01*
X358400653Y-267680528D02*
X358257795Y-267609100D01*
X358257795Y-267609100D02*
X358186367Y-267466242D01*
X358186367Y-267466242D02*
X358186367Y-267323385D01*
X358186367Y-267323385D02*
X358257795Y-267180528D01*
X358257795Y-267180528D02*
X358400653Y-267109100D01*
X358400653Y-267109100D02*
X358757795Y-267109100D01*
X358757795Y-267109100D02*
X358900653Y-267037671D01*
X358686367Y-266109100D02*
X358472081Y-266323385D01*
X360257796Y-267680528D02*
X360257796Y-266180528D01*
X360257796Y-267609100D02*
X360114938Y-267680528D01*
X360114938Y-267680528D02*
X359829224Y-267680528D01*
X359829224Y-267680528D02*
X359686367Y-267609100D01*
X359686367Y-267609100D02*
X359614938Y-267537671D01*
X359614938Y-267537671D02*
X359543510Y-267394814D01*
X359543510Y-267394814D02*
X359543510Y-266966242D01*
X359543510Y-266966242D02*
X359614938Y-266823385D01*
X359614938Y-266823385D02*
X359686367Y-266751957D01*
X359686367Y-266751957D02*
X359829224Y-266680528D01*
X359829224Y-266680528D02*
X360114938Y-266680528D01*
X360114938Y-266680528D02*
X360257796Y-266751957D01*
X360972081Y-267680528D02*
X360972081Y-266680528D01*
X360972081Y-266180528D02*
X360900653Y-266251957D01*
X360900653Y-266251957D02*
X360972081Y-266323385D01*
X360972081Y-266323385D02*
X361043510Y-266251957D01*
X361043510Y-266251957D02*
X360972081Y-266180528D01*
X360972081Y-266180528D02*
X360972081Y-266323385D01*
X361543510Y-266680528D02*
X362329225Y-266680528D01*
X362329225Y-266680528D02*
X361543510Y-267680528D01*
X361543510Y-267680528D02*
X362329225Y-267680528D01*
X362757796Y-268251957D02*
X362829225Y-268180528D01*
X362829225Y-268180528D02*
X362972082Y-267966242D01*
X362972082Y-267966242D02*
X363043511Y-267823385D01*
X363043511Y-267823385D02*
X363114939Y-267609100D01*
X363114939Y-267609100D02*
X363186368Y-267251957D01*
X363186368Y-267251957D02*
X363186368Y-266966242D01*
X363186368Y-266966242D02*
X363114939Y-266609100D01*
X363114939Y-266609100D02*
X363043511Y-266394814D01*
X363043511Y-266394814D02*
X362972082Y-266251957D01*
X362972082Y-266251957D02*
X362829225Y-266037671D01*
X362829225Y-266037671D02*
X362757796Y-265966242D01*
X365043510Y-267109100D02*
X366186368Y-267109100D01*
X368829225Y-266251957D02*
X368686368Y-266180528D01*
X368686368Y-266180528D02*
X368472082Y-266180528D01*
X368472082Y-266180528D02*
X368257796Y-266251957D01*
X368257796Y-266251957D02*
X368114939Y-266394814D01*
X368114939Y-266394814D02*
X368043510Y-266537671D01*
X368043510Y-266537671D02*
X367972082Y-266823385D01*
X367972082Y-266823385D02*
X367972082Y-267037671D01*
X367972082Y-267037671D02*
X368043510Y-267323385D01*
X368043510Y-267323385D02*
X368114939Y-267466242D01*
X368114939Y-267466242D02*
X368257796Y-267609100D01*
X368257796Y-267609100D02*
X368472082Y-267680528D01*
X368472082Y-267680528D02*
X368614939Y-267680528D01*
X368614939Y-267680528D02*
X368829225Y-267609100D01*
X368829225Y-267609100D02*
X368900653Y-267537671D01*
X368900653Y-267537671D02*
X368900653Y-267037671D01*
X368900653Y-267037671D02*
X368614939Y-267037671D01*
X369543510Y-267680528D02*
X369543510Y-266680528D01*
X369543510Y-266966242D02*
X369614939Y-266823385D01*
X369614939Y-266823385D02*
X369686368Y-266751957D01*
X369686368Y-266751957D02*
X369829225Y-266680528D01*
X369829225Y-266680528D02*
X369972082Y-266680528D01*
X371114939Y-267680528D02*
X371114939Y-266894814D01*
X371114939Y-266894814D02*
X371043510Y-266751957D01*
X371043510Y-266751957D02*
X370900653Y-266680528D01*
X370900653Y-266680528D02*
X370614939Y-266680528D01*
X370614939Y-266680528D02*
X370472081Y-266751957D01*
X371114939Y-267609100D02*
X370972081Y-267680528D01*
X370972081Y-267680528D02*
X370614939Y-267680528D01*
X370614939Y-267680528D02*
X370472081Y-267609100D01*
X370472081Y-267609100D02*
X370400653Y-267466242D01*
X370400653Y-267466242D02*
X370400653Y-267323385D01*
X370400653Y-267323385D02*
X370472081Y-267180528D01*
X370472081Y-267180528D02*
X370614939Y-267109100D01*
X370614939Y-267109100D02*
X370972081Y-267109100D01*
X370972081Y-267109100D02*
X371114939Y-267037671D01*
X371829224Y-266680528D02*
X371829224Y-268180528D01*
X371829224Y-266751957D02*
X371972082Y-266680528D01*
X371972082Y-266680528D02*
X372257796Y-266680528D01*
X372257796Y-266680528D02*
X372400653Y-266751957D01*
X372400653Y-266751957D02*
X372472082Y-266823385D01*
X372472082Y-266823385D02*
X372543510Y-266966242D01*
X372543510Y-266966242D02*
X372543510Y-267394814D01*
X372543510Y-267394814D02*
X372472082Y-267537671D01*
X372472082Y-267537671D02*
X372400653Y-267609100D01*
X372400653Y-267609100D02*
X372257796Y-267680528D01*
X372257796Y-267680528D02*
X371972082Y-267680528D01*
X371972082Y-267680528D02*
X371829224Y-267609100D01*
X373186367Y-267680528D02*
X373186367Y-266180528D01*
X373829225Y-267680528D02*
X373829225Y-266894814D01*
X373829225Y-266894814D02*
X373757796Y-266751957D01*
X373757796Y-266751957D02*
X373614939Y-266680528D01*
X373614939Y-266680528D02*
X373400653Y-266680528D01*
X373400653Y-266680528D02*
X373257796Y-266751957D01*
X373257796Y-266751957D02*
X373186367Y-266823385D01*
X374543510Y-267680528D02*
X374543510Y-266680528D01*
X374543510Y-266180528D02*
X374472082Y-266251957D01*
X374472082Y-266251957D02*
X374543510Y-266323385D01*
X374543510Y-266323385D02*
X374614939Y-266251957D01*
X374614939Y-266251957D02*
X374543510Y-266180528D01*
X374543510Y-266180528D02*
X374543510Y-266323385D01*
X375900654Y-267609100D02*
X375757796Y-267680528D01*
X375757796Y-267680528D02*
X375472082Y-267680528D01*
X375472082Y-267680528D02*
X375329225Y-267609100D01*
X375329225Y-267609100D02*
X375257796Y-267537671D01*
X375257796Y-267537671D02*
X375186368Y-267394814D01*
X375186368Y-267394814D02*
X375186368Y-266966242D01*
X375186368Y-266966242D02*
X375257796Y-266823385D01*
X375257796Y-266823385D02*
X375329225Y-266751957D01*
X375329225Y-266751957D02*
X375472082Y-266680528D01*
X375472082Y-266680528D02*
X375757796Y-266680528D01*
X375757796Y-266680528D02*
X375900654Y-266751957D01*
X377186368Y-267680528D02*
X377186368Y-266894814D01*
X377186368Y-266894814D02*
X377114939Y-266751957D01*
X377114939Y-266751957D02*
X376972082Y-266680528D01*
X376972082Y-266680528D02*
X376686368Y-266680528D01*
X376686368Y-266680528D02*
X376543510Y-266751957D01*
X377186368Y-267609100D02*
X377043510Y-267680528D01*
X377043510Y-267680528D02*
X376686368Y-267680528D01*
X376686368Y-267680528D02*
X376543510Y-267609100D01*
X376543510Y-267609100D02*
X376472082Y-267466242D01*
X376472082Y-267466242D02*
X376472082Y-267323385D01*
X376472082Y-267323385D02*
X376543510Y-267180528D01*
X376543510Y-267180528D02*
X376686368Y-267109100D01*
X376686368Y-267109100D02*
X377043510Y-267109100D01*
X377043510Y-267109100D02*
X377186368Y-267037671D01*
X378114939Y-267680528D02*
X377972082Y-267609100D01*
X377972082Y-267609100D02*
X377900653Y-267466242D01*
X377900653Y-267466242D02*
X377900653Y-266180528D01*
X379829224Y-267680528D02*
X379829224Y-266180528D01*
X379829224Y-266180528D02*
X380329224Y-267251957D01*
X380329224Y-267251957D02*
X380829224Y-266180528D01*
X380829224Y-266180528D02*
X380829224Y-267680528D01*
X382114939Y-267609100D02*
X381972082Y-267680528D01*
X381972082Y-267680528D02*
X381686368Y-267680528D01*
X381686368Y-267680528D02*
X381543510Y-267609100D01*
X381543510Y-267609100D02*
X381472082Y-267466242D01*
X381472082Y-267466242D02*
X381472082Y-266894814D01*
X381472082Y-266894814D02*
X381543510Y-266751957D01*
X381543510Y-266751957D02*
X381686368Y-266680528D01*
X381686368Y-266680528D02*
X381972082Y-266680528D01*
X381972082Y-266680528D02*
X382114939Y-266751957D01*
X382114939Y-266751957D02*
X382186368Y-266894814D01*
X382186368Y-266894814D02*
X382186368Y-267037671D01*
X382186368Y-267037671D02*
X381472082Y-267180528D01*
X382614939Y-266680528D02*
X383186367Y-266680528D01*
X382829224Y-266180528D02*
X382829224Y-267466242D01*
X382829224Y-267466242D02*
X382900653Y-267609100D01*
X382900653Y-267609100D02*
X383043510Y-267680528D01*
X383043510Y-267680528D02*
X383186367Y-267680528D01*
X383686367Y-267680528D02*
X383686367Y-266180528D01*
X384329225Y-267680528D02*
X384329225Y-266894814D01*
X384329225Y-266894814D02*
X384257796Y-266751957D01*
X384257796Y-266751957D02*
X384114939Y-266680528D01*
X384114939Y-266680528D02*
X383900653Y-266680528D01*
X383900653Y-266680528D02*
X383757796Y-266751957D01*
X383757796Y-266751957D02*
X383686367Y-266823385D01*
X385257796Y-267680528D02*
X385114939Y-267609100D01*
X385114939Y-267609100D02*
X385043510Y-267537671D01*
X385043510Y-267537671D02*
X384972082Y-267394814D01*
X384972082Y-267394814D02*
X384972082Y-266966242D01*
X384972082Y-266966242D02*
X385043510Y-266823385D01*
X385043510Y-266823385D02*
X385114939Y-266751957D01*
X385114939Y-266751957D02*
X385257796Y-266680528D01*
X385257796Y-266680528D02*
X385472082Y-266680528D01*
X385472082Y-266680528D02*
X385614939Y-266751957D01*
X385614939Y-266751957D02*
X385686368Y-266823385D01*
X385686368Y-266823385D02*
X385757796Y-266966242D01*
X385757796Y-266966242D02*
X385757796Y-267394814D01*
X385757796Y-267394814D02*
X385686368Y-267537671D01*
X385686368Y-267537671D02*
X385614939Y-267609100D01*
X385614939Y-267609100D02*
X385472082Y-267680528D01*
X385472082Y-267680528D02*
X385257796Y-267680528D01*
X387043511Y-267680528D02*
X387043511Y-266180528D01*
X387043511Y-267609100D02*
X386900653Y-267680528D01*
X386900653Y-267680528D02*
X386614939Y-267680528D01*
X386614939Y-267680528D02*
X386472082Y-267609100D01*
X386472082Y-267609100D02*
X386400653Y-267537671D01*
X386400653Y-267537671D02*
X386329225Y-267394814D01*
X386329225Y-267394814D02*
X386329225Y-266966242D01*
X386329225Y-266966242D02*
X386400653Y-266823385D01*
X386400653Y-266823385D02*
X386472082Y-266751957D01*
X386472082Y-266751957D02*
X386614939Y-266680528D01*
X386614939Y-266680528D02*
X386900653Y-266680528D01*
X386900653Y-266680528D02*
X387043511Y-266751957D01*
X387686368Y-267609100D02*
X387829225Y-267680528D01*
X387829225Y-267680528D02*
X388114939Y-267680528D01*
X388114939Y-267680528D02*
X388257796Y-267609100D01*
X388257796Y-267609100D02*
X388329225Y-267466242D01*
X388329225Y-267466242D02*
X388329225Y-267394814D01*
X388329225Y-267394814D02*
X388257796Y-267251957D01*
X388257796Y-267251957D02*
X388114939Y-267180528D01*
X388114939Y-267180528D02*
X387900654Y-267180528D01*
X387900654Y-267180528D02*
X387757796Y-267109100D01*
X387757796Y-267109100D02*
X387686368Y-266966242D01*
X387686368Y-266966242D02*
X387686368Y-266894814D01*
X387686368Y-266894814D02*
X387757796Y-266751957D01*
X387757796Y-266751957D02*
X387900654Y-266680528D01*
X387900654Y-266680528D02*
X388114939Y-266680528D01*
X388114939Y-266680528D02*
X388257796Y-266751957D01*
X389043511Y-267609100D02*
X389043511Y-267680528D01*
X389043511Y-267680528D02*
X388972082Y-267823385D01*
X388972082Y-267823385D02*
X388900654Y-267894814D01*
X391114940Y-266180528D02*
X391400654Y-266180528D01*
X391400654Y-266180528D02*
X391543511Y-266251957D01*
X391543511Y-266251957D02*
X391686368Y-266394814D01*
X391686368Y-266394814D02*
X391757797Y-266680528D01*
X391757797Y-266680528D02*
X391757797Y-267180528D01*
X391757797Y-267180528D02*
X391686368Y-267466242D01*
X391686368Y-267466242D02*
X391543511Y-267609100D01*
X391543511Y-267609100D02*
X391400654Y-267680528D01*
X391400654Y-267680528D02*
X391114940Y-267680528D01*
X391114940Y-267680528D02*
X390972083Y-267609100D01*
X390972083Y-267609100D02*
X390829225Y-267466242D01*
X390829225Y-267466242D02*
X390757797Y-267180528D01*
X390757797Y-267180528D02*
X390757797Y-266680528D01*
X390757797Y-266680528D02*
X390829225Y-266394814D01*
X390829225Y-266394814D02*
X390972083Y-266251957D01*
X390972083Y-266251957D02*
X391114940Y-266180528D01*
X392400654Y-266680528D02*
X392400654Y-268180528D01*
X392400654Y-266751957D02*
X392543512Y-266680528D01*
X392543512Y-266680528D02*
X392829226Y-266680528D01*
X392829226Y-266680528D02*
X392972083Y-266751957D01*
X392972083Y-266751957D02*
X393043512Y-266823385D01*
X393043512Y-266823385D02*
X393114940Y-266966242D01*
X393114940Y-266966242D02*
X393114940Y-267394814D01*
X393114940Y-267394814D02*
X393043512Y-267537671D01*
X393043512Y-267537671D02*
X392972083Y-267609100D01*
X392972083Y-267609100D02*
X392829226Y-267680528D01*
X392829226Y-267680528D02*
X392543512Y-267680528D01*
X392543512Y-267680528D02*
X392400654Y-267609100D01*
X393543512Y-266680528D02*
X394114940Y-266680528D01*
X393757797Y-266180528D02*
X393757797Y-267466242D01*
X393757797Y-267466242D02*
X393829226Y-267609100D01*
X393829226Y-267609100D02*
X393972083Y-267680528D01*
X393972083Y-267680528D02*
X394114940Y-267680528D01*
X394614940Y-267680528D02*
X394614940Y-266680528D01*
X394614940Y-266180528D02*
X394543512Y-266251957D01*
X394543512Y-266251957D02*
X394614940Y-266323385D01*
X394614940Y-266323385D02*
X394686369Y-266251957D01*
X394686369Y-266251957D02*
X394614940Y-266180528D01*
X394614940Y-266180528D02*
X394614940Y-266323385D01*
X395329226Y-267680528D02*
X395329226Y-266680528D01*
X395329226Y-266823385D02*
X395400655Y-266751957D01*
X395400655Y-266751957D02*
X395543512Y-266680528D01*
X395543512Y-266680528D02*
X395757798Y-266680528D01*
X395757798Y-266680528D02*
X395900655Y-266751957D01*
X395900655Y-266751957D02*
X395972084Y-266894814D01*
X395972084Y-266894814D02*
X395972084Y-267680528D01*
X395972084Y-266894814D02*
X396043512Y-266751957D01*
X396043512Y-266751957D02*
X396186369Y-266680528D01*
X396186369Y-266680528D02*
X396400655Y-266680528D01*
X396400655Y-266680528D02*
X396543512Y-266751957D01*
X396543512Y-266751957D02*
X396614941Y-266894814D01*
X396614941Y-266894814D02*
X396614941Y-267680528D01*
X397329226Y-267680528D02*
X397329226Y-266680528D01*
X397329226Y-266180528D02*
X397257798Y-266251957D01*
X397257798Y-266251957D02*
X397329226Y-266323385D01*
X397329226Y-266323385D02*
X397400655Y-266251957D01*
X397400655Y-266251957D02*
X397329226Y-266180528D01*
X397329226Y-266180528D02*
X397329226Y-266323385D01*
X397900655Y-266680528D02*
X398686370Y-266680528D01*
X398686370Y-266680528D02*
X397900655Y-267680528D01*
X397900655Y-267680528D02*
X398686370Y-267680528D01*
X399900656Y-267680528D02*
X399900656Y-266894814D01*
X399900656Y-266894814D02*
X399829227Y-266751957D01*
X399829227Y-266751957D02*
X399686370Y-266680528D01*
X399686370Y-266680528D02*
X399400656Y-266680528D01*
X399400656Y-266680528D02*
X399257798Y-266751957D01*
X399900656Y-267609100D02*
X399757798Y-267680528D01*
X399757798Y-267680528D02*
X399400656Y-267680528D01*
X399400656Y-267680528D02*
X399257798Y-267609100D01*
X399257798Y-267609100D02*
X399186370Y-267466242D01*
X399186370Y-267466242D02*
X399186370Y-267323385D01*
X399186370Y-267323385D02*
X399257798Y-267180528D01*
X399257798Y-267180528D02*
X399400656Y-267109100D01*
X399400656Y-267109100D02*
X399757798Y-267109100D01*
X399757798Y-267109100D02*
X399900656Y-267037671D01*
X400400656Y-266680528D02*
X400972084Y-266680528D01*
X400614941Y-266180528D02*
X400614941Y-267466242D01*
X400614941Y-267466242D02*
X400686370Y-267609100D01*
X400686370Y-267609100D02*
X400829227Y-267680528D01*
X400829227Y-267680528D02*
X400972084Y-267680528D01*
X401472084Y-267680528D02*
X401472084Y-266680528D01*
X401472084Y-266180528D02*
X401400656Y-266251957D01*
X401400656Y-266251957D02*
X401472084Y-266323385D01*
X401472084Y-266323385D02*
X401543513Y-266251957D01*
X401543513Y-266251957D02*
X401472084Y-266180528D01*
X401472084Y-266180528D02*
X401472084Y-266323385D01*
X402400656Y-267680528D02*
X402257799Y-267609100D01*
X402257799Y-267609100D02*
X402186370Y-267537671D01*
X402186370Y-267537671D02*
X402114942Y-267394814D01*
X402114942Y-267394814D02*
X402114942Y-266966242D01*
X402114942Y-266966242D02*
X402186370Y-266823385D01*
X402186370Y-266823385D02*
X402257799Y-266751957D01*
X402257799Y-266751957D02*
X402400656Y-266680528D01*
X402400656Y-266680528D02*
X402614942Y-266680528D01*
X402614942Y-266680528D02*
X402757799Y-266751957D01*
X402757799Y-266751957D02*
X402829228Y-266823385D01*
X402829228Y-266823385D02*
X402900656Y-266966242D01*
X402900656Y-266966242D02*
X402900656Y-267394814D01*
X402900656Y-267394814D02*
X402829228Y-267537671D01*
X402829228Y-267537671D02*
X402757799Y-267609100D01*
X402757799Y-267609100D02*
X402614942Y-267680528D01*
X402614942Y-267680528D02*
X402400656Y-267680528D01*
X403543513Y-266680528D02*
X403543513Y-267680528D01*
X403543513Y-266823385D02*
X403614942Y-266751957D01*
X403614942Y-266751957D02*
X403757799Y-266680528D01*
X403757799Y-266680528D02*
X403972085Y-266680528D01*
X403972085Y-266680528D02*
X404114942Y-266751957D01*
X404114942Y-266751957D02*
X404186371Y-266894814D01*
X404186371Y-266894814D02*
X404186371Y-267680528D01*
X406686371Y-267680528D02*
X406686371Y-266894814D01*
X406686371Y-266894814D02*
X406614942Y-266751957D01*
X406614942Y-266751957D02*
X406472085Y-266680528D01*
X406472085Y-266680528D02*
X406186371Y-266680528D01*
X406186371Y-266680528D02*
X406043513Y-266751957D01*
X406686371Y-267609100D02*
X406543513Y-267680528D01*
X406543513Y-267680528D02*
X406186371Y-267680528D01*
X406186371Y-267680528D02*
X406043513Y-267609100D01*
X406043513Y-267609100D02*
X405972085Y-267466242D01*
X405972085Y-267466242D02*
X405972085Y-267323385D01*
X405972085Y-267323385D02*
X406043513Y-267180528D01*
X406043513Y-267180528D02*
X406186371Y-267109100D01*
X406186371Y-267109100D02*
X406543513Y-267109100D01*
X406543513Y-267109100D02*
X406686371Y-267037671D01*
X407400656Y-266680528D02*
X407400656Y-267680528D01*
X407400656Y-266823385D02*
X407472085Y-266751957D01*
X407472085Y-266751957D02*
X407614942Y-266680528D01*
X407614942Y-266680528D02*
X407829228Y-266680528D01*
X407829228Y-266680528D02*
X407972085Y-266751957D01*
X407972085Y-266751957D02*
X408043514Y-266894814D01*
X408043514Y-266894814D02*
X408043514Y-267680528D01*
X409400657Y-267680528D02*
X409400657Y-266180528D01*
X409400657Y-267609100D02*
X409257799Y-267680528D01*
X409257799Y-267680528D02*
X408972085Y-267680528D01*
X408972085Y-267680528D02*
X408829228Y-267609100D01*
X408829228Y-267609100D02*
X408757799Y-267537671D01*
X408757799Y-267537671D02*
X408686371Y-267394814D01*
X408686371Y-267394814D02*
X408686371Y-266966242D01*
X408686371Y-266966242D02*
X408757799Y-266823385D01*
X408757799Y-266823385D02*
X408829228Y-266751957D01*
X408829228Y-266751957D02*
X408972085Y-266680528D01*
X408972085Y-266680528D02*
X409257799Y-266680528D01*
X409257799Y-266680528D02*
X409400657Y-266751957D01*
X411972085Y-267680528D02*
X411257799Y-267680528D01*
X411257799Y-267680528D02*
X411257799Y-266180528D01*
X413043514Y-267609100D02*
X412900657Y-267680528D01*
X412900657Y-267680528D02*
X412614943Y-267680528D01*
X412614943Y-267680528D02*
X412472085Y-267609100D01*
X412472085Y-267609100D02*
X412400657Y-267466242D01*
X412400657Y-267466242D02*
X412400657Y-266894814D01*
X412400657Y-266894814D02*
X412472085Y-266751957D01*
X412472085Y-266751957D02*
X412614943Y-266680528D01*
X412614943Y-266680528D02*
X412900657Y-266680528D01*
X412900657Y-266680528D02*
X413043514Y-266751957D01*
X413043514Y-266751957D02*
X413114943Y-266894814D01*
X413114943Y-266894814D02*
X413114943Y-267037671D01*
X413114943Y-267037671D02*
X412400657Y-267180528D01*
X414400657Y-267680528D02*
X414400657Y-266894814D01*
X414400657Y-266894814D02*
X414329228Y-266751957D01*
X414329228Y-266751957D02*
X414186371Y-266680528D01*
X414186371Y-266680528D02*
X413900657Y-266680528D01*
X413900657Y-266680528D02*
X413757799Y-266751957D01*
X414400657Y-267609100D02*
X414257799Y-267680528D01*
X414257799Y-267680528D02*
X413900657Y-267680528D01*
X413900657Y-267680528D02*
X413757799Y-267609100D01*
X413757799Y-267609100D02*
X413686371Y-267466242D01*
X413686371Y-267466242D02*
X413686371Y-267323385D01*
X413686371Y-267323385D02*
X413757799Y-267180528D01*
X413757799Y-267180528D02*
X413900657Y-267109100D01*
X413900657Y-267109100D02*
X414257799Y-267109100D01*
X414257799Y-267109100D02*
X414400657Y-267037671D01*
X415114942Y-267680528D02*
X415114942Y-266680528D01*
X415114942Y-266966242D02*
X415186371Y-266823385D01*
X415186371Y-266823385D02*
X415257800Y-266751957D01*
X415257800Y-266751957D02*
X415400657Y-266680528D01*
X415400657Y-266680528D02*
X415543514Y-266680528D01*
X416043513Y-266680528D02*
X416043513Y-267680528D01*
X416043513Y-266823385D02*
X416114942Y-266751957D01*
X416114942Y-266751957D02*
X416257799Y-266680528D01*
X416257799Y-266680528D02*
X416472085Y-266680528D01*
X416472085Y-266680528D02*
X416614942Y-266751957D01*
X416614942Y-266751957D02*
X416686371Y-266894814D01*
X416686371Y-266894814D02*
X416686371Y-267680528D01*
X417400656Y-267680528D02*
X417400656Y-266680528D01*
X417400656Y-266180528D02*
X417329228Y-266251957D01*
X417329228Y-266251957D02*
X417400656Y-266323385D01*
X417400656Y-266323385D02*
X417472085Y-266251957D01*
X417472085Y-266251957D02*
X417400656Y-266180528D01*
X417400656Y-266180528D02*
X417400656Y-266323385D01*
X418114942Y-266680528D02*
X418114942Y-267680528D01*
X418114942Y-266823385D02*
X418186371Y-266751957D01*
X418186371Y-266751957D02*
X418329228Y-266680528D01*
X418329228Y-266680528D02*
X418543514Y-266680528D01*
X418543514Y-266680528D02*
X418686371Y-266751957D01*
X418686371Y-266751957D02*
X418757800Y-266894814D01*
X418757800Y-266894814D02*
X418757800Y-267680528D01*
X420114943Y-266680528D02*
X420114943Y-267894814D01*
X420114943Y-267894814D02*
X420043514Y-268037671D01*
X420043514Y-268037671D02*
X419972085Y-268109100D01*
X419972085Y-268109100D02*
X419829228Y-268180528D01*
X419829228Y-268180528D02*
X419614943Y-268180528D01*
X419614943Y-268180528D02*
X419472085Y-268109100D01*
X420114943Y-267609100D02*
X419972085Y-267680528D01*
X419972085Y-267680528D02*
X419686371Y-267680528D01*
X419686371Y-267680528D02*
X419543514Y-267609100D01*
X419543514Y-267609100D02*
X419472085Y-267537671D01*
X419472085Y-267537671D02*
X419400657Y-267394814D01*
X419400657Y-267394814D02*
X419400657Y-266966242D01*
X419400657Y-266966242D02*
X419472085Y-266823385D01*
X419472085Y-266823385D02*
X419543514Y-266751957D01*
X419543514Y-266751957D02*
X419686371Y-266680528D01*
X419686371Y-266680528D02*
X419972085Y-266680528D01*
X419972085Y-266680528D02*
X420114943Y-266751957D01*
X422829228Y-267680528D02*
X422329228Y-266966242D01*
X421972085Y-267680528D02*
X421972085Y-266180528D01*
X421972085Y-266180528D02*
X422543514Y-266180528D01*
X422543514Y-266180528D02*
X422686371Y-266251957D01*
X422686371Y-266251957D02*
X422757800Y-266323385D01*
X422757800Y-266323385D02*
X422829228Y-266466242D01*
X422829228Y-266466242D02*
X422829228Y-266680528D01*
X422829228Y-266680528D02*
X422757800Y-266823385D01*
X422757800Y-266823385D02*
X422686371Y-266894814D01*
X422686371Y-266894814D02*
X422543514Y-266966242D01*
X422543514Y-266966242D02*
X421972085Y-266966242D01*
X424043514Y-267609100D02*
X423900657Y-267680528D01*
X423900657Y-267680528D02*
X423614943Y-267680528D01*
X423614943Y-267680528D02*
X423472085Y-267609100D01*
X423472085Y-267609100D02*
X423400657Y-267466242D01*
X423400657Y-267466242D02*
X423400657Y-266894814D01*
X423400657Y-266894814D02*
X423472085Y-266751957D01*
X423472085Y-266751957D02*
X423614943Y-266680528D01*
X423614943Y-266680528D02*
X423900657Y-266680528D01*
X423900657Y-266680528D02*
X424043514Y-266751957D01*
X424043514Y-266751957D02*
X424114943Y-266894814D01*
X424114943Y-266894814D02*
X424114943Y-267037671D01*
X424114943Y-267037671D02*
X423400657Y-267180528D01*
X424686371Y-267609100D02*
X424829228Y-267680528D01*
X424829228Y-267680528D02*
X425114942Y-267680528D01*
X425114942Y-267680528D02*
X425257799Y-267609100D01*
X425257799Y-267609100D02*
X425329228Y-267466242D01*
X425329228Y-267466242D02*
X425329228Y-267394814D01*
X425329228Y-267394814D02*
X425257799Y-267251957D01*
X425257799Y-267251957D02*
X425114942Y-267180528D01*
X425114942Y-267180528D02*
X424900657Y-267180528D01*
X424900657Y-267180528D02*
X424757799Y-267109100D01*
X424757799Y-267109100D02*
X424686371Y-266966242D01*
X424686371Y-266966242D02*
X424686371Y-266894814D01*
X424686371Y-266894814D02*
X424757799Y-266751957D01*
X424757799Y-266751957D02*
X424900657Y-266680528D01*
X424900657Y-266680528D02*
X425114942Y-266680528D01*
X425114942Y-266680528D02*
X425257799Y-266751957D01*
X426543514Y-267609100D02*
X426400657Y-267680528D01*
X426400657Y-267680528D02*
X426114943Y-267680528D01*
X426114943Y-267680528D02*
X425972085Y-267609100D01*
X425972085Y-267609100D02*
X425900657Y-267466242D01*
X425900657Y-267466242D02*
X425900657Y-266894814D01*
X425900657Y-266894814D02*
X425972085Y-266751957D01*
X425972085Y-266751957D02*
X426114943Y-266680528D01*
X426114943Y-266680528D02*
X426400657Y-266680528D01*
X426400657Y-266680528D02*
X426543514Y-266751957D01*
X426543514Y-266751957D02*
X426614943Y-266894814D01*
X426614943Y-266894814D02*
X426614943Y-267037671D01*
X426614943Y-267037671D02*
X425900657Y-267180528D01*
X427900657Y-267680528D02*
X427900657Y-266894814D01*
X427900657Y-266894814D02*
X427829228Y-266751957D01*
X427829228Y-266751957D02*
X427686371Y-266680528D01*
X427686371Y-266680528D02*
X427400657Y-266680528D01*
X427400657Y-266680528D02*
X427257799Y-266751957D01*
X427900657Y-267609100D02*
X427757799Y-267680528D01*
X427757799Y-267680528D02*
X427400657Y-267680528D01*
X427400657Y-267680528D02*
X427257799Y-267609100D01*
X427257799Y-267609100D02*
X427186371Y-267466242D01*
X427186371Y-267466242D02*
X427186371Y-267323385D01*
X427186371Y-267323385D02*
X427257799Y-267180528D01*
X427257799Y-267180528D02*
X427400657Y-267109100D01*
X427400657Y-267109100D02*
X427757799Y-267109100D01*
X427757799Y-267109100D02*
X427900657Y-267037671D01*
X428614942Y-267680528D02*
X428614942Y-266680528D01*
X428614942Y-266966242D02*
X428686371Y-266823385D01*
X428686371Y-266823385D02*
X428757800Y-266751957D01*
X428757800Y-266751957D02*
X428900657Y-266680528D01*
X428900657Y-266680528D02*
X429043514Y-266680528D01*
X430186371Y-267609100D02*
X430043513Y-267680528D01*
X430043513Y-267680528D02*
X429757799Y-267680528D01*
X429757799Y-267680528D02*
X429614942Y-267609100D01*
X429614942Y-267609100D02*
X429543513Y-267537671D01*
X429543513Y-267537671D02*
X429472085Y-267394814D01*
X429472085Y-267394814D02*
X429472085Y-266966242D01*
X429472085Y-266966242D02*
X429543513Y-266823385D01*
X429543513Y-266823385D02*
X429614942Y-266751957D01*
X429614942Y-266751957D02*
X429757799Y-266680528D01*
X429757799Y-266680528D02*
X430043513Y-266680528D01*
X430043513Y-266680528D02*
X430186371Y-266751957D01*
X430829227Y-267680528D02*
X430829227Y-266180528D01*
X431472085Y-267680528D02*
X431472085Y-266894814D01*
X431472085Y-266894814D02*
X431400656Y-266751957D01*
X431400656Y-266751957D02*
X431257799Y-266680528D01*
X431257799Y-266680528D02*
X431043513Y-266680528D01*
X431043513Y-266680528D02*
X430900656Y-266751957D01*
X430900656Y-266751957D02*
X430829227Y-266823385D01*
X434114942Y-266251957D02*
X433972085Y-266180528D01*
X433972085Y-266180528D02*
X433757799Y-266180528D01*
X433757799Y-266180528D02*
X433543513Y-266251957D01*
X433543513Y-266251957D02*
X433400656Y-266394814D01*
X433400656Y-266394814D02*
X433329227Y-266537671D01*
X433329227Y-266537671D02*
X433257799Y-266823385D01*
X433257799Y-266823385D02*
X433257799Y-267037671D01*
X433257799Y-267037671D02*
X433329227Y-267323385D01*
X433329227Y-267323385D02*
X433400656Y-267466242D01*
X433400656Y-267466242D02*
X433543513Y-267609100D01*
X433543513Y-267609100D02*
X433757799Y-267680528D01*
X433757799Y-267680528D02*
X433900656Y-267680528D01*
X433900656Y-267680528D02*
X434114942Y-267609100D01*
X434114942Y-267609100D02*
X434186370Y-267537671D01*
X434186370Y-267537671D02*
X434186370Y-267037671D01*
X434186370Y-267037671D02*
X433900656Y-267037671D01*
X434829227Y-267680528D02*
X434829227Y-266680528D01*
X434829227Y-266966242D02*
X434900656Y-266823385D01*
X434900656Y-266823385D02*
X434972085Y-266751957D01*
X434972085Y-266751957D02*
X435114942Y-266680528D01*
X435114942Y-266680528D02*
X435257799Y-266680528D01*
X435972084Y-267680528D02*
X435829227Y-267609100D01*
X435829227Y-267609100D02*
X435757798Y-267537671D01*
X435757798Y-267537671D02*
X435686370Y-267394814D01*
X435686370Y-267394814D02*
X435686370Y-266966242D01*
X435686370Y-266966242D02*
X435757798Y-266823385D01*
X435757798Y-266823385D02*
X435829227Y-266751957D01*
X435829227Y-266751957D02*
X435972084Y-266680528D01*
X435972084Y-266680528D02*
X436186370Y-266680528D01*
X436186370Y-266680528D02*
X436329227Y-266751957D01*
X436329227Y-266751957D02*
X436400656Y-266823385D01*
X436400656Y-266823385D02*
X436472084Y-266966242D01*
X436472084Y-266966242D02*
X436472084Y-267394814D01*
X436472084Y-267394814D02*
X436400656Y-267537671D01*
X436400656Y-267537671D02*
X436329227Y-267609100D01*
X436329227Y-267609100D02*
X436186370Y-267680528D01*
X436186370Y-267680528D02*
X435972084Y-267680528D01*
X437757799Y-266680528D02*
X437757799Y-267680528D01*
X437114941Y-266680528D02*
X437114941Y-267466242D01*
X437114941Y-267466242D02*
X437186370Y-267609100D01*
X437186370Y-267609100D02*
X437329227Y-267680528D01*
X437329227Y-267680528D02*
X437543513Y-267680528D01*
X437543513Y-267680528D02*
X437686370Y-267609100D01*
X437686370Y-267609100D02*
X437757799Y-267537671D01*
X438472084Y-266680528D02*
X438472084Y-268180528D01*
X438472084Y-266751957D02*
X438614942Y-266680528D01*
X438614942Y-266680528D02*
X438900656Y-266680528D01*
X438900656Y-266680528D02*
X439043513Y-266751957D01*
X439043513Y-266751957D02*
X439114942Y-266823385D01*
X439114942Y-266823385D02*
X439186370Y-266966242D01*
X439186370Y-266966242D02*
X439186370Y-267394814D01*
X439186370Y-267394814D02*
X439114942Y-267537671D01*
X439114942Y-267537671D02*
X439043513Y-267609100D01*
X439043513Y-267609100D02*
X438900656Y-267680528D01*
X438900656Y-267680528D02*
X438614942Y-267680528D01*
X438614942Y-267680528D02*
X438472084Y-267609100D01*
X441400656Y-268251957D02*
X441329227Y-268180528D01*
X441329227Y-268180528D02*
X441186370Y-267966242D01*
X441186370Y-267966242D02*
X441114942Y-267823385D01*
X441114942Y-267823385D02*
X441043513Y-267609100D01*
X441043513Y-267609100D02*
X440972084Y-267251957D01*
X440972084Y-267251957D02*
X440972084Y-266966242D01*
X440972084Y-266966242D02*
X441043513Y-266609100D01*
X441043513Y-266609100D02*
X441114942Y-266394814D01*
X441114942Y-266394814D02*
X441186370Y-266251957D01*
X441186370Y-266251957D02*
X441329227Y-266037671D01*
X441329227Y-266037671D02*
X441400656Y-265966242D01*
X442757799Y-266251957D02*
X442614942Y-266180528D01*
X442614942Y-266180528D02*
X442400656Y-266180528D01*
X442400656Y-266180528D02*
X442186370Y-266251957D01*
X442186370Y-266251957D02*
X442043513Y-266394814D01*
X442043513Y-266394814D02*
X441972084Y-266537671D01*
X441972084Y-266537671D02*
X441900656Y-266823385D01*
X441900656Y-266823385D02*
X441900656Y-267037671D01*
X441900656Y-267037671D02*
X441972084Y-267323385D01*
X441972084Y-267323385D02*
X442043513Y-267466242D01*
X442043513Y-267466242D02*
X442186370Y-267609100D01*
X442186370Y-267609100D02*
X442400656Y-267680528D01*
X442400656Y-267680528D02*
X442543513Y-267680528D01*
X442543513Y-267680528D02*
X442757799Y-267609100D01*
X442757799Y-267609100D02*
X442829227Y-267537671D01*
X442829227Y-267537671D02*
X442829227Y-267037671D01*
X442829227Y-267037671D02*
X442543513Y-267037671D01*
X443757799Y-266180528D02*
X444043513Y-266180528D01*
X444043513Y-266180528D02*
X444186370Y-266251957D01*
X444186370Y-266251957D02*
X444329227Y-266394814D01*
X444329227Y-266394814D02*
X444400656Y-266680528D01*
X444400656Y-266680528D02*
X444400656Y-267180528D01*
X444400656Y-267180528D02*
X444329227Y-267466242D01*
X444329227Y-267466242D02*
X444186370Y-267609100D01*
X444186370Y-267609100D02*
X444043513Y-267680528D01*
X444043513Y-267680528D02*
X443757799Y-267680528D01*
X443757799Y-267680528D02*
X443614942Y-267609100D01*
X443614942Y-267609100D02*
X443472084Y-267466242D01*
X443472084Y-267466242D02*
X443400656Y-267180528D01*
X443400656Y-267180528D02*
X443400656Y-266680528D01*
X443400656Y-266680528D02*
X443472084Y-266394814D01*
X443472084Y-266394814D02*
X443614942Y-266251957D01*
X443614942Y-266251957D02*
X443757799Y-266180528D01*
X444972085Y-267251957D02*
X445686371Y-267251957D01*
X444829228Y-267680528D02*
X445329228Y-266180528D01*
X445329228Y-266180528D02*
X445829228Y-267680528D01*
X447043513Y-267680528D02*
X446329227Y-267680528D01*
X446329227Y-267680528D02*
X446329227Y-266180528D01*
X447400656Y-268251957D02*
X447472085Y-268180528D01*
X447472085Y-268180528D02*
X447614942Y-267966242D01*
X447614942Y-267966242D02*
X447686371Y-267823385D01*
X447686371Y-267823385D02*
X447757799Y-267609100D01*
X447757799Y-267609100D02*
X447829228Y-267251957D01*
X447829228Y-267251957D02*
X447829228Y-266966242D01*
X447829228Y-266966242D02*
X447757799Y-266609100D01*
X447757799Y-266609100D02*
X447686371Y-266394814D01*
X447686371Y-266394814D02*
X447614942Y-266251957D01*
X447614942Y-266251957D02*
X447472085Y-266037671D01*
X447472085Y-266037671D02*
X447400656Y-265966242D01*
D10*
D11*
X301373398Y-264616900D02*
X301587684Y-264688328D01*
X301587684Y-264688328D02*
X301944826Y-264688328D01*
X301944826Y-264688328D02*
X302087684Y-264616900D01*
X302087684Y-264616900D02*
X302159112Y-264545471D01*
X302159112Y-264545471D02*
X302230541Y-264402614D01*
X302230541Y-264402614D02*
X302230541Y-264259757D01*
X302230541Y-264259757D02*
X302159112Y-264116900D01*
X302159112Y-264116900D02*
X302087684Y-264045471D01*
X302087684Y-264045471D02*
X301944826Y-263974042D01*
X301944826Y-263974042D02*
X301659112Y-263902614D01*
X301659112Y-263902614D02*
X301516255Y-263831185D01*
X301516255Y-263831185D02*
X301444826Y-263759757D01*
X301444826Y-263759757D02*
X301373398Y-263616900D01*
X301373398Y-263616900D02*
X301373398Y-263474042D01*
X301373398Y-263474042D02*
X301444826Y-263331185D01*
X301444826Y-263331185D02*
X301516255Y-263259757D01*
X301516255Y-263259757D02*
X301659112Y-263188328D01*
X301659112Y-263188328D02*
X302016255Y-263188328D01*
X302016255Y-263188328D02*
X302230541Y-263259757D01*
X303444826Y-264616900D02*
X303301969Y-264688328D01*
X303301969Y-264688328D02*
X303016255Y-264688328D01*
X303016255Y-264688328D02*
X302873397Y-264616900D01*
X302873397Y-264616900D02*
X302801969Y-264474042D01*
X302801969Y-264474042D02*
X302801969Y-263902614D01*
X302801969Y-263902614D02*
X302873397Y-263759757D01*
X302873397Y-263759757D02*
X303016255Y-263688328D01*
X303016255Y-263688328D02*
X303301969Y-263688328D01*
X303301969Y-263688328D02*
X303444826Y-263759757D01*
X303444826Y-263759757D02*
X303516255Y-263902614D01*
X303516255Y-263902614D02*
X303516255Y-264045471D01*
X303516255Y-264045471D02*
X302801969Y-264188328D01*
X304159111Y-264688328D02*
X304159111Y-263188328D01*
X304159111Y-263759757D02*
X304301969Y-263688328D01*
X304301969Y-263688328D02*
X304587683Y-263688328D01*
X304587683Y-263688328D02*
X304730540Y-263759757D01*
X304730540Y-263759757D02*
X304801969Y-263831185D01*
X304801969Y-263831185D02*
X304873397Y-263974042D01*
X304873397Y-263974042D02*
X304873397Y-264402614D01*
X304873397Y-264402614D02*
X304801969Y-264545471D01*
X304801969Y-264545471D02*
X304730540Y-264616900D01*
X304730540Y-264616900D02*
X304587683Y-264688328D01*
X304587683Y-264688328D02*
X304301969Y-264688328D01*
X304301969Y-264688328D02*
X304159111Y-264616900D01*
X306159112Y-264688328D02*
X306159112Y-263902614D01*
X306159112Y-263902614D02*
X306087683Y-263759757D01*
X306087683Y-263759757D02*
X305944826Y-263688328D01*
X305944826Y-263688328D02*
X305659112Y-263688328D01*
X305659112Y-263688328D02*
X305516254Y-263759757D01*
X306159112Y-264616900D02*
X306016254Y-264688328D01*
X306016254Y-264688328D02*
X305659112Y-264688328D01*
X305659112Y-264688328D02*
X305516254Y-264616900D01*
X305516254Y-264616900D02*
X305444826Y-264474042D01*
X305444826Y-264474042D02*
X305444826Y-264331185D01*
X305444826Y-264331185D02*
X305516254Y-264188328D01*
X305516254Y-264188328D02*
X305659112Y-264116900D01*
X305659112Y-264116900D02*
X306016254Y-264116900D01*
X306016254Y-264116900D02*
X306159112Y-264045471D01*
X306801969Y-264616900D02*
X306944826Y-264688328D01*
X306944826Y-264688328D02*
X307230540Y-264688328D01*
X307230540Y-264688328D02*
X307373397Y-264616900D01*
X307373397Y-264616900D02*
X307444826Y-264474042D01*
X307444826Y-264474042D02*
X307444826Y-264402614D01*
X307444826Y-264402614D02*
X307373397Y-264259757D01*
X307373397Y-264259757D02*
X307230540Y-264188328D01*
X307230540Y-264188328D02*
X307016255Y-264188328D01*
X307016255Y-264188328D02*
X306873397Y-264116900D01*
X306873397Y-264116900D02*
X306801969Y-263974042D01*
X306801969Y-263974042D02*
X306801969Y-263902614D01*
X306801969Y-263902614D02*
X306873397Y-263759757D01*
X306873397Y-263759757D02*
X307016255Y-263688328D01*
X307016255Y-263688328D02*
X307230540Y-263688328D01*
X307230540Y-263688328D02*
X307373397Y-263759757D01*
X307873398Y-263688328D02*
X308444826Y-263688328D01*
X308087683Y-263188328D02*
X308087683Y-264474042D01*
X308087683Y-264474042D02*
X308159112Y-264616900D01*
X308159112Y-264616900D02*
X308301969Y-264688328D01*
X308301969Y-264688328D02*
X308444826Y-264688328D01*
X308944826Y-264688328D02*
X308944826Y-263688328D01*
X308944826Y-263188328D02*
X308873398Y-263259757D01*
X308873398Y-263259757D02*
X308944826Y-263331185D01*
X308944826Y-263331185D02*
X309016255Y-263259757D01*
X309016255Y-263259757D02*
X308944826Y-263188328D01*
X308944826Y-263188328D02*
X308944826Y-263331185D01*
X310301970Y-264688328D02*
X310301970Y-263902614D01*
X310301970Y-263902614D02*
X310230541Y-263759757D01*
X310230541Y-263759757D02*
X310087684Y-263688328D01*
X310087684Y-263688328D02*
X309801970Y-263688328D01*
X309801970Y-263688328D02*
X309659112Y-263759757D01*
X310301970Y-264616900D02*
X310159112Y-264688328D01*
X310159112Y-264688328D02*
X309801970Y-264688328D01*
X309801970Y-264688328D02*
X309659112Y-264616900D01*
X309659112Y-264616900D02*
X309587684Y-264474042D01*
X309587684Y-264474042D02*
X309587684Y-264331185D01*
X309587684Y-264331185D02*
X309659112Y-264188328D01*
X309659112Y-264188328D02*
X309801970Y-264116900D01*
X309801970Y-264116900D02*
X310159112Y-264116900D01*
X310159112Y-264116900D02*
X310301970Y-264045471D01*
X310087684Y-263116900D02*
X309873398Y-263331185D01*
X311016255Y-263688328D02*
X311016255Y-264688328D01*
X311016255Y-263831185D02*
X311087684Y-263759757D01*
X311087684Y-263759757D02*
X311230541Y-263688328D01*
X311230541Y-263688328D02*
X311444827Y-263688328D01*
X311444827Y-263688328D02*
X311587684Y-263759757D01*
X311587684Y-263759757D02*
X311659113Y-263902614D01*
X311659113Y-263902614D02*
X311659113Y-264688328D01*
X313944827Y-263188328D02*
X313944827Y-264259757D01*
X313944827Y-264259757D02*
X313873398Y-264474042D01*
X313873398Y-264474042D02*
X313730541Y-264616900D01*
X313730541Y-264616900D02*
X313516255Y-264688328D01*
X313516255Y-264688328D02*
X313373398Y-264688328D01*
X315230541Y-264616900D02*
X315087684Y-264688328D01*
X315087684Y-264688328D02*
X314801970Y-264688328D01*
X314801970Y-264688328D02*
X314659112Y-264616900D01*
X314659112Y-264616900D02*
X314587684Y-264474042D01*
X314587684Y-264474042D02*
X314587684Y-263902614D01*
X314587684Y-263902614D02*
X314659112Y-263759757D01*
X314659112Y-263759757D02*
X314801970Y-263688328D01*
X314801970Y-263688328D02*
X315087684Y-263688328D01*
X315087684Y-263688328D02*
X315230541Y-263759757D01*
X315230541Y-263759757D02*
X315301970Y-263902614D01*
X315301970Y-263902614D02*
X315301970Y-264045471D01*
X315301970Y-264045471D02*
X314587684Y-264188328D01*
X315873398Y-264616900D02*
X316016255Y-264688328D01*
X316016255Y-264688328D02*
X316301969Y-264688328D01*
X316301969Y-264688328D02*
X316444826Y-264616900D01*
X316444826Y-264616900D02*
X316516255Y-264474042D01*
X316516255Y-264474042D02*
X316516255Y-264402614D01*
X316516255Y-264402614D02*
X316444826Y-264259757D01*
X316444826Y-264259757D02*
X316301969Y-264188328D01*
X316301969Y-264188328D02*
X316087684Y-264188328D01*
X316087684Y-264188328D02*
X315944826Y-264116900D01*
X315944826Y-264116900D02*
X315873398Y-263974042D01*
X315873398Y-263974042D02*
X315873398Y-263902614D01*
X315873398Y-263902614D02*
X315944826Y-263759757D01*
X315944826Y-263759757D02*
X316087684Y-263688328D01*
X316087684Y-263688328D02*
X316301969Y-263688328D01*
X316301969Y-263688328D02*
X316444826Y-263759757D01*
X317801970Y-263688328D02*
X317801970Y-264688328D01*
X317159112Y-263688328D02*
X317159112Y-264474042D01*
X317159112Y-264474042D02*
X317230541Y-264616900D01*
X317230541Y-264616900D02*
X317373398Y-264688328D01*
X317373398Y-264688328D02*
X317587684Y-264688328D01*
X317587684Y-264688328D02*
X317730541Y-264616900D01*
X317730541Y-264616900D02*
X317801970Y-264545471D01*
X317659112Y-263116900D02*
X317444827Y-263331185D01*
X318444827Y-264616900D02*
X318587684Y-264688328D01*
X318587684Y-264688328D02*
X318873398Y-264688328D01*
X318873398Y-264688328D02*
X319016255Y-264616900D01*
X319016255Y-264616900D02*
X319087684Y-264474042D01*
X319087684Y-264474042D02*
X319087684Y-264402614D01*
X319087684Y-264402614D02*
X319016255Y-264259757D01*
X319016255Y-264259757D02*
X318873398Y-264188328D01*
X318873398Y-264188328D02*
X318659113Y-264188328D01*
X318659113Y-264188328D02*
X318516255Y-264116900D01*
X318516255Y-264116900D02*
X318444827Y-263974042D01*
X318444827Y-263974042D02*
X318444827Y-263902614D01*
X318444827Y-263902614D02*
X318516255Y-263759757D01*
X318516255Y-263759757D02*
X318659113Y-263688328D01*
X318659113Y-263688328D02*
X318873398Y-263688328D01*
X318873398Y-263688328D02*
X319016255Y-263759757D01*
X321301970Y-263188328D02*
X321301970Y-264259757D01*
X321301970Y-264259757D02*
X321230541Y-264474042D01*
X321230541Y-264474042D02*
X321087684Y-264616900D01*
X321087684Y-264616900D02*
X320873398Y-264688328D01*
X320873398Y-264688328D02*
X320730541Y-264688328D01*
X322016255Y-264688328D02*
X322016255Y-263688328D01*
X322016255Y-263188328D02*
X321944827Y-263259757D01*
X321944827Y-263259757D02*
X322016255Y-263331185D01*
X322016255Y-263331185D02*
X322087684Y-263259757D01*
X322087684Y-263259757D02*
X322016255Y-263188328D01*
X322016255Y-263188328D02*
X322016255Y-263331185D01*
X322730541Y-264688328D02*
X322730541Y-263688328D01*
X322730541Y-263831185D02*
X322801970Y-263759757D01*
X322801970Y-263759757D02*
X322944827Y-263688328D01*
X322944827Y-263688328D02*
X323159113Y-263688328D01*
X323159113Y-263688328D02*
X323301970Y-263759757D01*
X323301970Y-263759757D02*
X323373399Y-263902614D01*
X323373399Y-263902614D02*
X323373399Y-264688328D01*
X323373399Y-263902614D02*
X323444827Y-263759757D01*
X323444827Y-263759757D02*
X323587684Y-263688328D01*
X323587684Y-263688328D02*
X323801970Y-263688328D01*
X323801970Y-263688328D02*
X323944827Y-263759757D01*
X323944827Y-263759757D02*
X324016256Y-263902614D01*
X324016256Y-263902614D02*
X324016256Y-264688328D01*
X325301970Y-264616900D02*
X325159113Y-264688328D01*
X325159113Y-264688328D02*
X324873399Y-264688328D01*
X324873399Y-264688328D02*
X324730541Y-264616900D01*
X324730541Y-264616900D02*
X324659113Y-264474042D01*
X324659113Y-264474042D02*
X324659113Y-263902614D01*
X324659113Y-263902614D02*
X324730541Y-263759757D01*
X324730541Y-263759757D02*
X324873399Y-263688328D01*
X324873399Y-263688328D02*
X325159113Y-263688328D01*
X325159113Y-263688328D02*
X325301970Y-263759757D01*
X325301970Y-263759757D02*
X325373399Y-263902614D01*
X325373399Y-263902614D02*
X325373399Y-264045471D01*
X325373399Y-264045471D02*
X324659113Y-264188328D01*
X325159113Y-263116900D02*
X324944827Y-263331185D01*
X326016255Y-263688328D02*
X326016255Y-264688328D01*
X326016255Y-263831185D02*
X326087684Y-263759757D01*
X326087684Y-263759757D02*
X326230541Y-263688328D01*
X326230541Y-263688328D02*
X326444827Y-263688328D01*
X326444827Y-263688328D02*
X326587684Y-263759757D01*
X326587684Y-263759757D02*
X326659113Y-263902614D01*
X326659113Y-263902614D02*
X326659113Y-264688328D01*
X327944827Y-264616900D02*
X327801970Y-264688328D01*
X327801970Y-264688328D02*
X327516256Y-264688328D01*
X327516256Y-264688328D02*
X327373398Y-264616900D01*
X327373398Y-264616900D02*
X327301970Y-264474042D01*
X327301970Y-264474042D02*
X327301970Y-263902614D01*
X327301970Y-263902614D02*
X327373398Y-263759757D01*
X327373398Y-263759757D02*
X327516256Y-263688328D01*
X327516256Y-263688328D02*
X327801970Y-263688328D01*
X327801970Y-263688328D02*
X327944827Y-263759757D01*
X327944827Y-263759757D02*
X328016256Y-263902614D01*
X328016256Y-263902614D02*
X328016256Y-264045471D01*
X328016256Y-264045471D02*
X327301970Y-264188328D01*
X328516255Y-263688328D02*
X329301970Y-263688328D01*
X329301970Y-263688328D02*
X328516255Y-264688328D01*
X328516255Y-264688328D02*
X329301970Y-264688328D01*
X330801970Y-263188328D02*
X331301970Y-264688328D01*
X331301970Y-264688328D02*
X331801970Y-263188328D01*
X332944827Y-264688328D02*
X332944827Y-263902614D01*
X332944827Y-263902614D02*
X332873398Y-263759757D01*
X332873398Y-263759757D02*
X332730541Y-263688328D01*
X332730541Y-263688328D02*
X332444827Y-263688328D01*
X332444827Y-263688328D02*
X332301969Y-263759757D01*
X332944827Y-264616900D02*
X332801969Y-264688328D01*
X332801969Y-264688328D02*
X332444827Y-264688328D01*
X332444827Y-264688328D02*
X332301969Y-264616900D01*
X332301969Y-264616900D02*
X332230541Y-264474042D01*
X332230541Y-264474042D02*
X332230541Y-264331185D01*
X332230541Y-264331185D02*
X332301969Y-264188328D01*
X332301969Y-264188328D02*
X332444827Y-264116900D01*
X332444827Y-264116900D02*
X332801969Y-264116900D01*
X332801969Y-264116900D02*
X332944827Y-264045471D01*
X332730541Y-263116900D02*
X332516255Y-263331185D01*
X333516255Y-263688328D02*
X334301970Y-263688328D01*
X334301970Y-263688328D02*
X333516255Y-264688328D01*
X333516255Y-264688328D02*
X334301970Y-264688328D01*
X335516256Y-263688328D02*
X335516256Y-265188328D01*
X335516256Y-264616900D02*
X335373398Y-264688328D01*
X335373398Y-264688328D02*
X335087684Y-264688328D01*
X335087684Y-264688328D02*
X334944827Y-264616900D01*
X334944827Y-264616900D02*
X334873398Y-264545471D01*
X334873398Y-264545471D02*
X334801970Y-264402614D01*
X334801970Y-264402614D02*
X334801970Y-263974042D01*
X334801970Y-263974042D02*
X334873398Y-263831185D01*
X334873398Y-263831185D02*
X334944827Y-263759757D01*
X334944827Y-263759757D02*
X335087684Y-263688328D01*
X335087684Y-263688328D02*
X335373398Y-263688328D01*
X335373398Y-263688328D02*
X335516256Y-263759757D01*
X336873399Y-263688328D02*
X336873399Y-264688328D01*
X336230541Y-263688328D02*
X336230541Y-264474042D01*
X336230541Y-264474042D02*
X336301970Y-264616900D01*
X336301970Y-264616900D02*
X336444827Y-264688328D01*
X336444827Y-264688328D02*
X336659113Y-264688328D01*
X336659113Y-264688328D02*
X336801970Y-264616900D01*
X336801970Y-264616900D02*
X336873399Y-264545471D01*
X338159113Y-264616900D02*
X338016256Y-264688328D01*
X338016256Y-264688328D02*
X337730542Y-264688328D01*
X337730542Y-264688328D02*
X337587684Y-264616900D01*
X337587684Y-264616900D02*
X337516256Y-264474042D01*
X337516256Y-264474042D02*
X337516256Y-263902614D01*
X337516256Y-263902614D02*
X337587684Y-263759757D01*
X337587684Y-263759757D02*
X337730542Y-263688328D01*
X337730542Y-263688328D02*
X338016256Y-263688328D01*
X338016256Y-263688328D02*
X338159113Y-263759757D01*
X338159113Y-263759757D02*
X338230542Y-263902614D01*
X338230542Y-263902614D02*
X338230542Y-264045471D01*
X338230542Y-264045471D02*
X337516256Y-264188328D01*
X338730541Y-263688328D02*
X339516256Y-263688328D01*
X339516256Y-263688328D02*
X338730541Y-264688328D01*
X338730541Y-264688328D02*
X339516256Y-264688328D01*
D10*
D11*
X301444826Y-261688328D02*
X301444826Y-260188328D01*
X301444826Y-260188328D02*
X302016255Y-260188328D01*
X302016255Y-260188328D02*
X302159112Y-260259757D01*
X302159112Y-260259757D02*
X302230541Y-260331185D01*
X302230541Y-260331185D02*
X302301969Y-260474042D01*
X302301969Y-260474042D02*
X302301969Y-260688328D01*
X302301969Y-260688328D02*
X302230541Y-260831185D01*
X302230541Y-260831185D02*
X302159112Y-260902614D01*
X302159112Y-260902614D02*
X302016255Y-260974042D01*
X302016255Y-260974042D02*
X301444826Y-260974042D01*
X303587684Y-261688328D02*
X303587684Y-260902614D01*
X303587684Y-260902614D02*
X303516255Y-260759757D01*
X303516255Y-260759757D02*
X303373398Y-260688328D01*
X303373398Y-260688328D02*
X303087684Y-260688328D01*
X303087684Y-260688328D02*
X302944826Y-260759757D01*
X303587684Y-261616900D02*
X303444826Y-261688328D01*
X303444826Y-261688328D02*
X303087684Y-261688328D01*
X303087684Y-261688328D02*
X302944826Y-261616900D01*
X302944826Y-261616900D02*
X302873398Y-261474042D01*
X302873398Y-261474042D02*
X302873398Y-261331185D01*
X302873398Y-261331185D02*
X302944826Y-261188328D01*
X302944826Y-261188328D02*
X303087684Y-261116900D01*
X303087684Y-261116900D02*
X303444826Y-261116900D01*
X303444826Y-261116900D02*
X303587684Y-261045471D01*
X304087684Y-260688328D02*
X304659112Y-260688328D01*
X304301969Y-260188328D02*
X304301969Y-261474042D01*
X304301969Y-261474042D02*
X304373398Y-261616900D01*
X304373398Y-261616900D02*
X304516255Y-261688328D01*
X304516255Y-261688328D02*
X304659112Y-261688328D01*
X305159112Y-261688328D02*
X305159112Y-260688328D01*
X305159112Y-260974042D02*
X305230541Y-260831185D01*
X305230541Y-260831185D02*
X305301970Y-260759757D01*
X305301970Y-260759757D02*
X305444827Y-260688328D01*
X305444827Y-260688328D02*
X305587684Y-260688328D01*
X306087683Y-261688328D02*
X306087683Y-260688328D01*
X306087683Y-260188328D02*
X306016255Y-260259757D01*
X306016255Y-260259757D02*
X306087683Y-260331185D01*
X306087683Y-260331185D02*
X306159112Y-260259757D01*
X306159112Y-260259757D02*
X306087683Y-260188328D01*
X306087683Y-260188328D02*
X306087683Y-260331185D01*
X307444827Y-261616900D02*
X307301969Y-261688328D01*
X307301969Y-261688328D02*
X307016255Y-261688328D01*
X307016255Y-261688328D02*
X306873398Y-261616900D01*
X306873398Y-261616900D02*
X306801969Y-261545471D01*
X306801969Y-261545471D02*
X306730541Y-261402614D01*
X306730541Y-261402614D02*
X306730541Y-260974042D01*
X306730541Y-260974042D02*
X306801969Y-260831185D01*
X306801969Y-260831185D02*
X306873398Y-260759757D01*
X306873398Y-260759757D02*
X307016255Y-260688328D01*
X307016255Y-260688328D02*
X307301969Y-260688328D01*
X307301969Y-260688328D02*
X307444827Y-260759757D01*
X308087683Y-261688328D02*
X308087683Y-260688328D01*
X308087683Y-260188328D02*
X308016255Y-260259757D01*
X308016255Y-260259757D02*
X308087683Y-260331185D01*
X308087683Y-260331185D02*
X308159112Y-260259757D01*
X308159112Y-260259757D02*
X308087683Y-260188328D01*
X308087683Y-260188328D02*
X308087683Y-260331185D01*
X309444827Y-261688328D02*
X309444827Y-260902614D01*
X309444827Y-260902614D02*
X309373398Y-260759757D01*
X309373398Y-260759757D02*
X309230541Y-260688328D01*
X309230541Y-260688328D02*
X308944827Y-260688328D01*
X308944827Y-260688328D02*
X308801969Y-260759757D01*
X309444827Y-261616900D02*
X309301969Y-261688328D01*
X309301969Y-261688328D02*
X308944827Y-261688328D01*
X308944827Y-261688328D02*
X308801969Y-261616900D01*
X308801969Y-261616900D02*
X308730541Y-261474042D01*
X308730541Y-261474042D02*
X308730541Y-261331185D01*
X308730541Y-261331185D02*
X308801969Y-261188328D01*
X308801969Y-261188328D02*
X308944827Y-261116900D01*
X308944827Y-261116900D02*
X309301969Y-261116900D01*
X309301969Y-261116900D02*
X309444827Y-261045471D01*
X312159112Y-261688328D02*
X311659112Y-260974042D01*
X311301969Y-261688328D02*
X311301969Y-260188328D01*
X311301969Y-260188328D02*
X311873398Y-260188328D01*
X311873398Y-260188328D02*
X312016255Y-260259757D01*
X312016255Y-260259757D02*
X312087684Y-260331185D01*
X312087684Y-260331185D02*
X312159112Y-260474042D01*
X312159112Y-260474042D02*
X312159112Y-260688328D01*
X312159112Y-260688328D02*
X312087684Y-260831185D01*
X312087684Y-260831185D02*
X312016255Y-260902614D01*
X312016255Y-260902614D02*
X311873398Y-260974042D01*
X311873398Y-260974042D02*
X311301969Y-260974042D01*
X313444827Y-260688328D02*
X313444827Y-261688328D01*
X312801969Y-260688328D02*
X312801969Y-261474042D01*
X312801969Y-261474042D02*
X312873398Y-261616900D01*
X312873398Y-261616900D02*
X313016255Y-261688328D01*
X313016255Y-261688328D02*
X313230541Y-261688328D01*
X313230541Y-261688328D02*
X313373398Y-261616900D01*
X313373398Y-261616900D02*
X313444827Y-261545471D01*
X314159112Y-261688328D02*
X314159112Y-260688328D01*
X314159112Y-260188328D02*
X314087684Y-260259757D01*
X314087684Y-260259757D02*
X314159112Y-260331185D01*
X314159112Y-260331185D02*
X314230541Y-260259757D01*
X314230541Y-260259757D02*
X314159112Y-260188328D01*
X314159112Y-260188328D02*
X314159112Y-260331185D01*
X314730541Y-260688328D02*
X315516256Y-260688328D01*
X315516256Y-260688328D02*
X314730541Y-261688328D01*
X314730541Y-261688328D02*
X315516256Y-261688328D01*
X317087684Y-260688328D02*
X317444827Y-261688328D01*
X317801970Y-260688328D02*
X317444827Y-261688328D01*
X317444827Y-261688328D02*
X317301970Y-262045471D01*
X317301970Y-262045471D02*
X317230541Y-262116900D01*
X317230541Y-262116900D02*
X317087684Y-262188328D01*
X319444827Y-261259757D02*
X320159113Y-261259757D01*
X319301970Y-261688328D02*
X319801970Y-260188328D01*
X319801970Y-260188328D02*
X320301970Y-261688328D01*
X320801969Y-261688328D02*
X320801969Y-260688328D01*
X320801969Y-260974042D02*
X320873398Y-260831185D01*
X320873398Y-260831185D02*
X320944827Y-260759757D01*
X320944827Y-260759757D02*
X321087684Y-260688328D01*
X321087684Y-260688328D02*
X321230541Y-260688328D01*
X321516255Y-260688328D02*
X322087683Y-260688328D01*
X321730540Y-260188328D02*
X321730540Y-261474042D01*
X321730540Y-261474042D02*
X321801969Y-261616900D01*
X321801969Y-261616900D02*
X321944826Y-261688328D01*
X321944826Y-261688328D02*
X322087683Y-261688328D01*
X323230541Y-260688328D02*
X323230541Y-261688328D01*
X322587683Y-260688328D02*
X322587683Y-261474042D01*
X322587683Y-261474042D02*
X322659112Y-261616900D01*
X322659112Y-261616900D02*
X322801969Y-261688328D01*
X322801969Y-261688328D02*
X323016255Y-261688328D01*
X323016255Y-261688328D02*
X323159112Y-261616900D01*
X323159112Y-261616900D02*
X323230541Y-261545471D01*
X323944826Y-261688328D02*
X323944826Y-260688328D01*
X323944826Y-260974042D02*
X324016255Y-260831185D01*
X324016255Y-260831185D02*
X324087684Y-260759757D01*
X324087684Y-260759757D02*
X324230541Y-260688328D01*
X324230541Y-260688328D02*
X324373398Y-260688328D01*
X325087683Y-261688328D02*
X324944826Y-261616900D01*
X324944826Y-261616900D02*
X324873397Y-261545471D01*
X324873397Y-261545471D02*
X324801969Y-261402614D01*
X324801969Y-261402614D02*
X324801969Y-260974042D01*
X324801969Y-260974042D02*
X324873397Y-260831185D01*
X324873397Y-260831185D02*
X324944826Y-260759757D01*
X324944826Y-260759757D02*
X325087683Y-260688328D01*
X325087683Y-260688328D02*
X325301969Y-260688328D01*
X325301969Y-260688328D02*
X325444826Y-260759757D01*
X325444826Y-260759757D02*
X325516255Y-260831185D01*
X325516255Y-260831185D02*
X325587683Y-260974042D01*
X325587683Y-260974042D02*
X325587683Y-261402614D01*
X325587683Y-261402614D02*
X325516255Y-261545471D01*
X325516255Y-261545471D02*
X325444826Y-261616900D01*
X325444826Y-261616900D02*
X325301969Y-261688328D01*
X325301969Y-261688328D02*
X325087683Y-261688328D01*
X327373397Y-261688328D02*
X327373397Y-260188328D01*
X327373397Y-260188328D02*
X327873397Y-261259757D01*
X327873397Y-261259757D02*
X328373397Y-260188328D01*
X328373397Y-260188328D02*
X328373397Y-261688328D01*
X329301969Y-261688328D02*
X329159112Y-261616900D01*
X329159112Y-261616900D02*
X329087683Y-261545471D01*
X329087683Y-261545471D02*
X329016255Y-261402614D01*
X329016255Y-261402614D02*
X329016255Y-260974042D01*
X329016255Y-260974042D02*
X329087683Y-260831185D01*
X329087683Y-260831185D02*
X329159112Y-260759757D01*
X329159112Y-260759757D02*
X329301969Y-260688328D01*
X329301969Y-260688328D02*
X329516255Y-260688328D01*
X329516255Y-260688328D02*
X329659112Y-260759757D01*
X329659112Y-260759757D02*
X329730541Y-260831185D01*
X329730541Y-260831185D02*
X329801969Y-260974042D01*
X329801969Y-260974042D02*
X329801969Y-261402614D01*
X329801969Y-261402614D02*
X329730541Y-261545471D01*
X329730541Y-261545471D02*
X329659112Y-261616900D01*
X329659112Y-261616900D02*
X329516255Y-261688328D01*
X329516255Y-261688328D02*
X329301969Y-261688328D01*
X330444826Y-261688328D02*
X330444826Y-260688328D01*
X330444826Y-260974042D02*
X330516255Y-260831185D01*
X330516255Y-260831185D02*
X330587684Y-260759757D01*
X330587684Y-260759757D02*
X330730541Y-260688328D01*
X330730541Y-260688328D02*
X330873398Y-260688328D01*
X332016255Y-260688328D02*
X332016255Y-261902614D01*
X332016255Y-261902614D02*
X331944826Y-262045471D01*
X331944826Y-262045471D02*
X331873397Y-262116900D01*
X331873397Y-262116900D02*
X331730540Y-262188328D01*
X331730540Y-262188328D02*
X331516255Y-262188328D01*
X331516255Y-262188328D02*
X331373397Y-262116900D01*
X332016255Y-261616900D02*
X331873397Y-261688328D01*
X331873397Y-261688328D02*
X331587683Y-261688328D01*
X331587683Y-261688328D02*
X331444826Y-261616900D01*
X331444826Y-261616900D02*
X331373397Y-261545471D01*
X331373397Y-261545471D02*
X331301969Y-261402614D01*
X331301969Y-261402614D02*
X331301969Y-260974042D01*
X331301969Y-260974042D02*
X331373397Y-260831185D01*
X331373397Y-260831185D02*
X331444826Y-260759757D01*
X331444826Y-260759757D02*
X331587683Y-260688328D01*
X331587683Y-260688328D02*
X331873397Y-260688328D01*
X331873397Y-260688328D02*
X332016255Y-260759757D01*
X333373398Y-261688328D02*
X333373398Y-260902614D01*
X333373398Y-260902614D02*
X333301969Y-260759757D01*
X333301969Y-260759757D02*
X333159112Y-260688328D01*
X333159112Y-260688328D02*
X332873398Y-260688328D01*
X332873398Y-260688328D02*
X332730540Y-260759757D01*
X333373398Y-261616900D02*
X333230540Y-261688328D01*
X333230540Y-261688328D02*
X332873398Y-261688328D01*
X332873398Y-261688328D02*
X332730540Y-261616900D01*
X332730540Y-261616900D02*
X332659112Y-261474042D01*
X332659112Y-261474042D02*
X332659112Y-261331185D01*
X332659112Y-261331185D02*
X332730540Y-261188328D01*
X332730540Y-261188328D02*
X332873398Y-261116900D01*
X332873398Y-261116900D02*
X333230540Y-261116900D01*
X333230540Y-261116900D02*
X333373398Y-261045471D01*
X334730541Y-261688328D02*
X334730541Y-260188328D01*
X334730541Y-261616900D02*
X334587683Y-261688328D01*
X334587683Y-261688328D02*
X334301969Y-261688328D01*
X334301969Y-261688328D02*
X334159112Y-261616900D01*
X334159112Y-261616900D02*
X334087683Y-261545471D01*
X334087683Y-261545471D02*
X334016255Y-261402614D01*
X334016255Y-261402614D02*
X334016255Y-260974042D01*
X334016255Y-260974042D02*
X334087683Y-260831185D01*
X334087683Y-260831185D02*
X334159112Y-260759757D01*
X334159112Y-260759757D02*
X334301969Y-260688328D01*
X334301969Y-260688328D02*
X334587683Y-260688328D01*
X334587683Y-260688328D02*
X334730541Y-260759757D01*
X335659112Y-261688328D02*
X335516255Y-261616900D01*
X335516255Y-261616900D02*
X335444826Y-261545471D01*
X335444826Y-261545471D02*
X335373398Y-261402614D01*
X335373398Y-261402614D02*
X335373398Y-260974042D01*
X335373398Y-260974042D02*
X335444826Y-260831185D01*
X335444826Y-260831185D02*
X335516255Y-260759757D01*
X335516255Y-260759757D02*
X335659112Y-260688328D01*
X335659112Y-260688328D02*
X335873398Y-260688328D01*
X335873398Y-260688328D02*
X336016255Y-260759757D01*
X336016255Y-260759757D02*
X336087684Y-260831185D01*
X336087684Y-260831185D02*
X336159112Y-260974042D01*
X336159112Y-260974042D02*
X336159112Y-261402614D01*
X336159112Y-261402614D02*
X336087684Y-261545471D01*
X336087684Y-261545471D02*
X336016255Y-261616900D01*
X336016255Y-261616900D02*
X335873398Y-261688328D01*
X335873398Y-261688328D02*
X335659112Y-261688328D01*
D10*
D11*
X301373398Y-258616900D02*
X301587684Y-258688328D01*
X301587684Y-258688328D02*
X301944826Y-258688328D01*
X301944826Y-258688328D02*
X302087684Y-258616900D01*
X302087684Y-258616900D02*
X302159112Y-258545471D01*
X302159112Y-258545471D02*
X302230541Y-258402614D01*
X302230541Y-258402614D02*
X302230541Y-258259757D01*
X302230541Y-258259757D02*
X302159112Y-258116900D01*
X302159112Y-258116900D02*
X302087684Y-258045471D01*
X302087684Y-258045471D02*
X301944826Y-257974042D01*
X301944826Y-257974042D02*
X301659112Y-257902614D01*
X301659112Y-257902614D02*
X301516255Y-257831185D01*
X301516255Y-257831185D02*
X301444826Y-257759757D01*
X301444826Y-257759757D02*
X301373398Y-257616900D01*
X301373398Y-257616900D02*
X301373398Y-257474042D01*
X301373398Y-257474042D02*
X301444826Y-257331185D01*
X301444826Y-257331185D02*
X301516255Y-257259757D01*
X301516255Y-257259757D02*
X301659112Y-257188328D01*
X301659112Y-257188328D02*
X302016255Y-257188328D01*
X302016255Y-257188328D02*
X302230541Y-257259757D01*
X303444826Y-258616900D02*
X303301969Y-258688328D01*
X303301969Y-258688328D02*
X303016255Y-258688328D01*
X303016255Y-258688328D02*
X302873397Y-258616900D01*
X302873397Y-258616900D02*
X302801969Y-258474042D01*
X302801969Y-258474042D02*
X302801969Y-257902614D01*
X302801969Y-257902614D02*
X302873397Y-257759757D01*
X302873397Y-257759757D02*
X303016255Y-257688328D01*
X303016255Y-257688328D02*
X303301969Y-257688328D01*
X303301969Y-257688328D02*
X303444826Y-257759757D01*
X303444826Y-257759757D02*
X303516255Y-257902614D01*
X303516255Y-257902614D02*
X303516255Y-258045471D01*
X303516255Y-258045471D02*
X302801969Y-258188328D01*
X304159111Y-258688328D02*
X304159111Y-257188328D01*
X304159111Y-257759757D02*
X304301969Y-257688328D01*
X304301969Y-257688328D02*
X304587683Y-257688328D01*
X304587683Y-257688328D02*
X304730540Y-257759757D01*
X304730540Y-257759757D02*
X304801969Y-257831185D01*
X304801969Y-257831185D02*
X304873397Y-257974042D01*
X304873397Y-257974042D02*
X304873397Y-258402614D01*
X304873397Y-258402614D02*
X304801969Y-258545471D01*
X304801969Y-258545471D02*
X304730540Y-258616900D01*
X304730540Y-258616900D02*
X304587683Y-258688328D01*
X304587683Y-258688328D02*
X304301969Y-258688328D01*
X304301969Y-258688328D02*
X304159111Y-258616900D01*
X306159112Y-258688328D02*
X306159112Y-257902614D01*
X306159112Y-257902614D02*
X306087683Y-257759757D01*
X306087683Y-257759757D02*
X305944826Y-257688328D01*
X305944826Y-257688328D02*
X305659112Y-257688328D01*
X305659112Y-257688328D02*
X305516254Y-257759757D01*
X306159112Y-258616900D02*
X306016254Y-258688328D01*
X306016254Y-258688328D02*
X305659112Y-258688328D01*
X305659112Y-258688328D02*
X305516254Y-258616900D01*
X305516254Y-258616900D02*
X305444826Y-258474042D01*
X305444826Y-258474042D02*
X305444826Y-258331185D01*
X305444826Y-258331185D02*
X305516254Y-258188328D01*
X305516254Y-258188328D02*
X305659112Y-258116900D01*
X305659112Y-258116900D02*
X306016254Y-258116900D01*
X306016254Y-258116900D02*
X306159112Y-258045471D01*
X306801969Y-258616900D02*
X306944826Y-258688328D01*
X306944826Y-258688328D02*
X307230540Y-258688328D01*
X307230540Y-258688328D02*
X307373397Y-258616900D01*
X307373397Y-258616900D02*
X307444826Y-258474042D01*
X307444826Y-258474042D02*
X307444826Y-258402614D01*
X307444826Y-258402614D02*
X307373397Y-258259757D01*
X307373397Y-258259757D02*
X307230540Y-258188328D01*
X307230540Y-258188328D02*
X307016255Y-258188328D01*
X307016255Y-258188328D02*
X306873397Y-258116900D01*
X306873397Y-258116900D02*
X306801969Y-257974042D01*
X306801969Y-257974042D02*
X306801969Y-257902614D01*
X306801969Y-257902614D02*
X306873397Y-257759757D01*
X306873397Y-257759757D02*
X307016255Y-257688328D01*
X307016255Y-257688328D02*
X307230540Y-257688328D01*
X307230540Y-257688328D02*
X307373397Y-257759757D01*
X307873398Y-257688328D02*
X308444826Y-257688328D01*
X308087683Y-257188328D02*
X308087683Y-258474042D01*
X308087683Y-258474042D02*
X308159112Y-258616900D01*
X308159112Y-258616900D02*
X308301969Y-258688328D01*
X308301969Y-258688328D02*
X308444826Y-258688328D01*
X308944826Y-258688328D02*
X308944826Y-257688328D01*
X308944826Y-257188328D02*
X308873398Y-257259757D01*
X308873398Y-257259757D02*
X308944826Y-257331185D01*
X308944826Y-257331185D02*
X309016255Y-257259757D01*
X309016255Y-257259757D02*
X308944826Y-257188328D01*
X308944826Y-257188328D02*
X308944826Y-257331185D01*
X310301970Y-258688328D02*
X310301970Y-257902614D01*
X310301970Y-257902614D02*
X310230541Y-257759757D01*
X310230541Y-257759757D02*
X310087684Y-257688328D01*
X310087684Y-257688328D02*
X309801970Y-257688328D01*
X309801970Y-257688328D02*
X309659112Y-257759757D01*
X310301970Y-258616900D02*
X310159112Y-258688328D01*
X310159112Y-258688328D02*
X309801970Y-258688328D01*
X309801970Y-258688328D02*
X309659112Y-258616900D01*
X309659112Y-258616900D02*
X309587684Y-258474042D01*
X309587684Y-258474042D02*
X309587684Y-258331185D01*
X309587684Y-258331185D02*
X309659112Y-258188328D01*
X309659112Y-258188328D02*
X309801970Y-258116900D01*
X309801970Y-258116900D02*
X310159112Y-258116900D01*
X310159112Y-258116900D02*
X310301970Y-258045471D01*
X310087684Y-257116900D02*
X309873398Y-257331185D01*
X311016255Y-257688328D02*
X311016255Y-258688328D01*
X311016255Y-257831185D02*
X311087684Y-257759757D01*
X311087684Y-257759757D02*
X311230541Y-257688328D01*
X311230541Y-257688328D02*
X311444827Y-257688328D01*
X311444827Y-257688328D02*
X311587684Y-257759757D01*
X311587684Y-257759757D02*
X311659113Y-257902614D01*
X311659113Y-257902614D02*
X311659113Y-258688328D01*
X313944827Y-257188328D02*
X313944827Y-258259757D01*
X313944827Y-258259757D02*
X313873398Y-258474042D01*
X313873398Y-258474042D02*
X313730541Y-258616900D01*
X313730541Y-258616900D02*
X313516255Y-258688328D01*
X313516255Y-258688328D02*
X313373398Y-258688328D01*
X315230541Y-258616900D02*
X315087684Y-258688328D01*
X315087684Y-258688328D02*
X314801970Y-258688328D01*
X314801970Y-258688328D02*
X314659112Y-258616900D01*
X314659112Y-258616900D02*
X314587684Y-258474042D01*
X314587684Y-258474042D02*
X314587684Y-257902614D01*
X314587684Y-257902614D02*
X314659112Y-257759757D01*
X314659112Y-257759757D02*
X314801970Y-257688328D01*
X314801970Y-257688328D02*
X315087684Y-257688328D01*
X315087684Y-257688328D02*
X315230541Y-257759757D01*
X315230541Y-257759757D02*
X315301970Y-257902614D01*
X315301970Y-257902614D02*
X315301970Y-258045471D01*
X315301970Y-258045471D02*
X314587684Y-258188328D01*
X315873398Y-258616900D02*
X316016255Y-258688328D01*
X316016255Y-258688328D02*
X316301969Y-258688328D01*
X316301969Y-258688328D02*
X316444826Y-258616900D01*
X316444826Y-258616900D02*
X316516255Y-258474042D01*
X316516255Y-258474042D02*
X316516255Y-258402614D01*
X316516255Y-258402614D02*
X316444826Y-258259757D01*
X316444826Y-258259757D02*
X316301969Y-258188328D01*
X316301969Y-258188328D02*
X316087684Y-258188328D01*
X316087684Y-258188328D02*
X315944826Y-258116900D01*
X315944826Y-258116900D02*
X315873398Y-257974042D01*
X315873398Y-257974042D02*
X315873398Y-257902614D01*
X315873398Y-257902614D02*
X315944826Y-257759757D01*
X315944826Y-257759757D02*
X316087684Y-257688328D01*
X316087684Y-257688328D02*
X316301969Y-257688328D01*
X316301969Y-257688328D02*
X316444826Y-257759757D01*
X317801970Y-257688328D02*
X317801970Y-258688328D01*
X317159112Y-257688328D02*
X317159112Y-258474042D01*
X317159112Y-258474042D02*
X317230541Y-258616900D01*
X317230541Y-258616900D02*
X317373398Y-258688328D01*
X317373398Y-258688328D02*
X317587684Y-258688328D01*
X317587684Y-258688328D02*
X317730541Y-258616900D01*
X317730541Y-258616900D02*
X317801970Y-258545471D01*
X317659112Y-257116900D02*
X317444827Y-257331185D01*
X318444827Y-258616900D02*
X318587684Y-258688328D01*
X318587684Y-258688328D02*
X318873398Y-258688328D01*
X318873398Y-258688328D02*
X319016255Y-258616900D01*
X319016255Y-258616900D02*
X319087684Y-258474042D01*
X319087684Y-258474042D02*
X319087684Y-258402614D01*
X319087684Y-258402614D02*
X319016255Y-258259757D01*
X319016255Y-258259757D02*
X318873398Y-258188328D01*
X318873398Y-258188328D02*
X318659113Y-258188328D01*
X318659113Y-258188328D02*
X318516255Y-258116900D01*
X318516255Y-258116900D02*
X318444827Y-257974042D01*
X318444827Y-257974042D02*
X318444827Y-257902614D01*
X318444827Y-257902614D02*
X318516255Y-257759757D01*
X318516255Y-257759757D02*
X318659113Y-257688328D01*
X318659113Y-257688328D02*
X318873398Y-257688328D01*
X318873398Y-257688328D02*
X319016255Y-257759757D01*
X321301970Y-257188328D02*
X321301970Y-258259757D01*
X321301970Y-258259757D02*
X321230541Y-258474042D01*
X321230541Y-258474042D02*
X321087684Y-258616900D01*
X321087684Y-258616900D02*
X320873398Y-258688328D01*
X320873398Y-258688328D02*
X320730541Y-258688328D01*
X322016255Y-258688328D02*
X322016255Y-257688328D01*
X322016255Y-257188328D02*
X321944827Y-257259757D01*
X321944827Y-257259757D02*
X322016255Y-257331185D01*
X322016255Y-257331185D02*
X322087684Y-257259757D01*
X322087684Y-257259757D02*
X322016255Y-257188328D01*
X322016255Y-257188328D02*
X322016255Y-257331185D01*
X322730541Y-258688328D02*
X322730541Y-257688328D01*
X322730541Y-257831185D02*
X322801970Y-257759757D01*
X322801970Y-257759757D02*
X322944827Y-257688328D01*
X322944827Y-257688328D02*
X323159113Y-257688328D01*
X323159113Y-257688328D02*
X323301970Y-257759757D01*
X323301970Y-257759757D02*
X323373399Y-257902614D01*
X323373399Y-257902614D02*
X323373399Y-258688328D01*
X323373399Y-257902614D02*
X323444827Y-257759757D01*
X323444827Y-257759757D02*
X323587684Y-257688328D01*
X323587684Y-257688328D02*
X323801970Y-257688328D01*
X323801970Y-257688328D02*
X323944827Y-257759757D01*
X323944827Y-257759757D02*
X324016256Y-257902614D01*
X324016256Y-257902614D02*
X324016256Y-258688328D01*
X325301970Y-258616900D02*
X325159113Y-258688328D01*
X325159113Y-258688328D02*
X324873399Y-258688328D01*
X324873399Y-258688328D02*
X324730541Y-258616900D01*
X324730541Y-258616900D02*
X324659113Y-258474042D01*
X324659113Y-258474042D02*
X324659113Y-257902614D01*
X324659113Y-257902614D02*
X324730541Y-257759757D01*
X324730541Y-257759757D02*
X324873399Y-257688328D01*
X324873399Y-257688328D02*
X325159113Y-257688328D01*
X325159113Y-257688328D02*
X325301970Y-257759757D01*
X325301970Y-257759757D02*
X325373399Y-257902614D01*
X325373399Y-257902614D02*
X325373399Y-258045471D01*
X325373399Y-258045471D02*
X324659113Y-258188328D01*
X325159113Y-257116900D02*
X324944827Y-257331185D01*
X326016255Y-257688328D02*
X326016255Y-258688328D01*
X326016255Y-257831185D02*
X326087684Y-257759757D01*
X326087684Y-257759757D02*
X326230541Y-257688328D01*
X326230541Y-257688328D02*
X326444827Y-257688328D01*
X326444827Y-257688328D02*
X326587684Y-257759757D01*
X326587684Y-257759757D02*
X326659113Y-257902614D01*
X326659113Y-257902614D02*
X326659113Y-258688328D01*
X327944827Y-258616900D02*
X327801970Y-258688328D01*
X327801970Y-258688328D02*
X327516256Y-258688328D01*
X327516256Y-258688328D02*
X327373398Y-258616900D01*
X327373398Y-258616900D02*
X327301970Y-258474042D01*
X327301970Y-258474042D02*
X327301970Y-257902614D01*
X327301970Y-257902614D02*
X327373398Y-257759757D01*
X327373398Y-257759757D02*
X327516256Y-257688328D01*
X327516256Y-257688328D02*
X327801970Y-257688328D01*
X327801970Y-257688328D02*
X327944827Y-257759757D01*
X327944827Y-257759757D02*
X328016256Y-257902614D01*
X328016256Y-257902614D02*
X328016256Y-258045471D01*
X328016256Y-258045471D02*
X327301970Y-258188328D01*
X328516255Y-257688328D02*
X329301970Y-257688328D01*
X329301970Y-257688328D02*
X328516255Y-258688328D01*
X328516255Y-258688328D02*
X329301970Y-258688328D01*
X330801970Y-257188328D02*
X331301970Y-258688328D01*
X331301970Y-258688328D02*
X331801970Y-257188328D01*
X332944827Y-258688328D02*
X332944827Y-257902614D01*
X332944827Y-257902614D02*
X332873398Y-257759757D01*
X332873398Y-257759757D02*
X332730541Y-257688328D01*
X332730541Y-257688328D02*
X332444827Y-257688328D01*
X332444827Y-257688328D02*
X332301969Y-257759757D01*
X332944827Y-258616900D02*
X332801969Y-258688328D01*
X332801969Y-258688328D02*
X332444827Y-258688328D01*
X332444827Y-258688328D02*
X332301969Y-258616900D01*
X332301969Y-258616900D02*
X332230541Y-258474042D01*
X332230541Y-258474042D02*
X332230541Y-258331185D01*
X332230541Y-258331185D02*
X332301969Y-258188328D01*
X332301969Y-258188328D02*
X332444827Y-258116900D01*
X332444827Y-258116900D02*
X332801969Y-258116900D01*
X332801969Y-258116900D02*
X332944827Y-258045471D01*
X332730541Y-257116900D02*
X332516255Y-257331185D01*
X333516255Y-257688328D02*
X334301970Y-257688328D01*
X334301970Y-257688328D02*
X333516255Y-258688328D01*
X333516255Y-258688328D02*
X334301970Y-258688328D01*
X335516256Y-257688328D02*
X335516256Y-259188328D01*
X335516256Y-258616900D02*
X335373398Y-258688328D01*
X335373398Y-258688328D02*
X335087684Y-258688328D01*
X335087684Y-258688328D02*
X334944827Y-258616900D01*
X334944827Y-258616900D02*
X334873398Y-258545471D01*
X334873398Y-258545471D02*
X334801970Y-258402614D01*
X334801970Y-258402614D02*
X334801970Y-257974042D01*
X334801970Y-257974042D02*
X334873398Y-257831185D01*
X334873398Y-257831185D02*
X334944827Y-257759757D01*
X334944827Y-257759757D02*
X335087684Y-257688328D01*
X335087684Y-257688328D02*
X335373398Y-257688328D01*
X335373398Y-257688328D02*
X335516256Y-257759757D01*
X336873399Y-257688328D02*
X336873399Y-258688328D01*
X336230541Y-257688328D02*
X336230541Y-258474042D01*
X336230541Y-258474042D02*
X336301970Y-258616900D01*
X336301970Y-258616900D02*
X336444827Y-258688328D01*
X336444827Y-258688328D02*
X336659113Y-258688328D01*
X336659113Y-258688328D02*
X336801970Y-258616900D01*
X336801970Y-258616900D02*
X336873399Y-258545471D01*
X338159113Y-258616900D02*
X338016256Y-258688328D01*
X338016256Y-258688328D02*
X337730542Y-258688328D01*
X337730542Y-258688328D02*
X337587684Y-258616900D01*
X337587684Y-258616900D02*
X337516256Y-258474042D01*
X337516256Y-258474042D02*
X337516256Y-257902614D01*
X337516256Y-257902614D02*
X337587684Y-257759757D01*
X337587684Y-257759757D02*
X337730542Y-257688328D01*
X337730542Y-257688328D02*
X338016256Y-257688328D01*
X338016256Y-257688328D02*
X338159113Y-257759757D01*
X338159113Y-257759757D02*
X338230542Y-257902614D01*
X338230542Y-257902614D02*
X338230542Y-258045471D01*
X338230542Y-258045471D02*
X337516256Y-258188328D01*
X338730541Y-257688328D02*
X339516256Y-257688328D01*
X339516256Y-257688328D02*
X338730541Y-258688328D01*
X338730541Y-258688328D02*
X339516256Y-258688328D01*
D10*
D11*
X301659112Y-255688328D02*
X301516255Y-255616900D01*
X301516255Y-255616900D02*
X301444826Y-255474042D01*
X301444826Y-255474042D02*
X301444826Y-254188328D01*
X302873398Y-255688328D02*
X302873398Y-254902614D01*
X302873398Y-254902614D02*
X302801969Y-254759757D01*
X302801969Y-254759757D02*
X302659112Y-254688328D01*
X302659112Y-254688328D02*
X302373398Y-254688328D01*
X302373398Y-254688328D02*
X302230540Y-254759757D01*
X302873398Y-255616900D02*
X302730540Y-255688328D01*
X302730540Y-255688328D02*
X302373398Y-255688328D01*
X302373398Y-255688328D02*
X302230540Y-255616900D01*
X302230540Y-255616900D02*
X302159112Y-255474042D01*
X302159112Y-255474042D02*
X302159112Y-255331185D01*
X302159112Y-255331185D02*
X302230540Y-255188328D01*
X302230540Y-255188328D02*
X302373398Y-255116900D01*
X302373398Y-255116900D02*
X302730540Y-255116900D01*
X302730540Y-255116900D02*
X302873398Y-255045471D01*
X303444826Y-254688328D02*
X303801969Y-255688328D01*
X304159112Y-254688328D02*
X303801969Y-255688328D01*
X303801969Y-255688328D02*
X303659112Y-256045471D01*
X303659112Y-256045471D02*
X303587683Y-256116900D01*
X303587683Y-256116900D02*
X303444826Y-256188328D01*
X304944826Y-255688328D02*
X304801969Y-255616900D01*
X304801969Y-255616900D02*
X304730540Y-255545471D01*
X304730540Y-255545471D02*
X304659112Y-255402614D01*
X304659112Y-255402614D02*
X304659112Y-254974042D01*
X304659112Y-254974042D02*
X304730540Y-254831185D01*
X304730540Y-254831185D02*
X304801969Y-254759757D01*
X304801969Y-254759757D02*
X304944826Y-254688328D01*
X304944826Y-254688328D02*
X305159112Y-254688328D01*
X305159112Y-254688328D02*
X305301969Y-254759757D01*
X305301969Y-254759757D02*
X305373398Y-254831185D01*
X305373398Y-254831185D02*
X305444826Y-254974042D01*
X305444826Y-254974042D02*
X305444826Y-255402614D01*
X305444826Y-255402614D02*
X305373398Y-255545471D01*
X305373398Y-255545471D02*
X305301969Y-255616900D01*
X305301969Y-255616900D02*
X305159112Y-255688328D01*
X305159112Y-255688328D02*
X304944826Y-255688328D01*
X306730541Y-254688328D02*
X306730541Y-255688328D01*
X306087683Y-254688328D02*
X306087683Y-255474042D01*
X306087683Y-255474042D02*
X306159112Y-255616900D01*
X306159112Y-255616900D02*
X306301969Y-255688328D01*
X306301969Y-255688328D02*
X306516255Y-255688328D01*
X306516255Y-255688328D02*
X306659112Y-255616900D01*
X306659112Y-255616900D02*
X306730541Y-255545471D01*
X307230541Y-254688328D02*
X307801969Y-254688328D01*
X307444826Y-254188328D02*
X307444826Y-255474042D01*
X307444826Y-255474042D02*
X307516255Y-255616900D01*
X307516255Y-255616900D02*
X307659112Y-255688328D01*
X307659112Y-255688328D02*
X307801969Y-255688328D01*
D10*
D11*
X319989000Y-278502200D02*
X319989000Y-281502200D01*
D10*
D11*
X383989000Y-278502200D02*
X383989000Y-285002200D01*
M02*
