M48
; DRILL file {KiCad 9.0.2} date 2025-11-09T22:55:29+0100
; FORMAT={-:-/ absolute / metric / decimal}
; #@! TF.CreationDate,2025-11-09T22:55:29+01:00
; #@! TF.GenerationSoftware,Kicad,Pcbnew,9.0.2
; #@! TF.FileFunction,Plated,1,4,PTH
FMAT,2
METRIC
; #@! TA.AperFunction,Plated,PTH,ViaDrill
T1C0.250
; #@! TA.AperFunction,Plated,PTH,ViaDrill
T2C0.300
; #@! TA.AperFunction,Plated,PTH,ViaDrill
T3C0.400
; #@! TA.AperFunction,Plated,PTH,ViaDrill
T4C0.500
; #@! TA.AperFunction,Plated,PTH,ViaDrill
T5C0.600
; #@! TA.AperFunction,Plated,PTH,ComponentDrill
T6C0.740
; #@! TA.AperFunction,Plated,PTH,ComponentDrill
T7C0.800
; #@! TA.AperFunction,Plated,PTH,ComponentDrill
T8C0.920
; #@! TA.AperFunction,Plated,PTH,ViaDrill
T9C1.000
; #@! TA.AperFunction,Plated,PTH,ComponentDrill
T10C1.000
; #@! TA.AperFunction,Plated,PTH,ComponentDrill
T11C1.200
; #@! TA.AperFunction,Plated,PTH,ComponentDrill
T12C1.600
; #@! TA.AperFunction,Plated,PTH,ComponentDrill
T13C1.700
; #@! TA.AperFunction,Plated,PTH,ComponentDrill
T14C1.710
; #@! TA.AperFunction,Plated,PTH,ComponentDrill
T15C1.850
; #@! TA.AperFunction,Plated,PTH,ComponentDrill
T16C4.300
%
G90
G05
T1
X129.956Y-95.025
X180.859Y-147.732
X181.662Y-158.649
X182.361Y-151.352
X183.213Y-154.839
X187.957Y-127.856
X187.957Y-128.856
X187.957Y-129.856
X188.957Y-127.856
X188.957Y-128.856
X188.957Y-129.856
X189.957Y-127.856
X189.957Y-128.856
X189.957Y-129.856
X190.957Y-127.856
X190.957Y-128.856
X190.957Y-129.856
X191.957Y-127.856
X191.957Y-128.856
X191.957Y-129.856
X191.971Y-145.278
X192.957Y-127.856
X192.957Y-128.856
X192.957Y-129.856
X193.957Y-127.856
X193.957Y-128.856
X193.957Y-129.856
X194.111Y-105.91
X194.111Y-139.398
X194.111Y-145.815
X194.751Y-140.747
X194.77Y-105.91
X194.77Y-145.815
X194.957Y-127.856
X194.957Y-128.856
X194.957Y-129.856
X195.43Y-105.91
X195.43Y-140.111
X195.43Y-145.815
X195.957Y-127.856
X195.957Y-128.856
X195.957Y-129.856
X196.957Y-127.856
X196.957Y-128.856
X196.957Y-129.856
X197.957Y-127.856
X197.957Y-128.856
X197.957Y-129.856
X198.957Y-127.856
X198.957Y-128.856
X198.957Y-129.856
X199.804Y-98.777
X200.558Y-145.429
X200.746Y-147.518
X201.697Y-148.684
X201.725Y-106.974
X201.779Y-106.065
X201.885Y-108.882
X211.733Y-141.372
X212.101Y-140.112
X212.994Y-140.111
X213.498Y-141.382
X213.887Y-140.111
X217.562Y-138.219
X236.07Y-117.569
X236.07Y-118.219
X236.07Y-118.869
X236.07Y-119.519
X236.07Y-120.169
X236.07Y-121.469
X236.996Y-131.512
X249.274Y-159.554
X250.166Y-158.661
X251.929Y-162.206
X252.374Y-161.761
X252.82Y-161.316
X255.143Y-100.451
X255.143Y-101.101
X255.143Y-101.751
X255.143Y-102.401
X255.143Y-103.051
X255.143Y-103.701
X255.143Y-104.351
X255.143Y-105.001
X255.143Y-105.651
X255.143Y-106.301
X255.143Y-115.619
X255.143Y-116.269
X255.143Y-116.919
X255.143Y-117.569
X255.143Y-118.219
X255.143Y-118.869
X255.143Y-119.519
X255.143Y-120.169
X255.143Y-120.819
X255.143Y-121.469
X255.143Y-129.581
X255.143Y-130.232
X255.143Y-130.881
X255.143Y-131.531
X255.143Y-132.181
X255.143Y-132.831
X255.143Y-133.481
X255.143Y-134.131
X255.143Y-134.781
X255.143Y-135.432
X265.111Y-100.451
X265.111Y-101.101
X265.111Y-101.751
X265.111Y-102.401
X265.111Y-103.051
X265.111Y-103.701
X265.111Y-104.351
X265.111Y-105.001
X265.111Y-105.651
X265.111Y-106.301
X265.111Y-115.619
X265.111Y-116.269
X265.111Y-116.919
X265.111Y-117.569
X265.111Y-118.219
X265.111Y-118.869
X265.111Y-119.519
X265.111Y-120.169
X265.111Y-120.819
X265.111Y-121.469
X265.111Y-129.581
X265.111Y-130.231
X265.111Y-130.881
X265.111Y-131.531
X265.111Y-132.181
X265.111Y-132.831
X265.111Y-133.481
X265.111Y-134.131
X265.111Y-134.781
X265.111Y-135.431
X281.626Y-188.901
X281.626Y-189.532
X281.626Y-190.163
X284.472Y-130.251
T2
X92.093Y-187.234
X97.588Y-187.232
X99.637Y-188.698
X99.639Y-185.664
X99.645Y-183.222
X99.645Y-184.036
X99.645Y-184.85
X100.583Y-188.698
X100.585Y-185.664
X100.591Y-183.222
X100.591Y-184.036
X100.591Y-184.85
X101.53Y-188.698
X101.532Y-185.664
X101.538Y-183.222
X101.538Y-184.036
X101.538Y-184.85
X102.477Y-188.698
X102.485Y-183.222
X102.485Y-184.036
X102.485Y-184.85
X102.485Y-185.664
X106.693Y-165.236
X106.693Y-166.196
X130.926Y-97.726
X146.235Y-176.249
X146.244Y-177.082
X146.266Y-141.592
X146.266Y-144.392
X146.266Y-147.192
X146.266Y-150.028
X146.266Y-177.912
X146.266Y-178.744
X156.564Y-131.996
X158.11Y-176.248
X160.9Y-205.204
X162.001Y-201.399
X162.003Y-205.206
X165.776Y-132.008
X166.738Y-103.081
X166.738Y-104.081
X166.738Y-105.081
X166.738Y-106.081
X166.738Y-107.081
X166.738Y-108.081
X166.738Y-111.081
X166.738Y-112.081
X166.738Y-113.081
X166.738Y-114.081
X166.738Y-115.081
X166.738Y-116.081
X166.738Y-117.081
X166.738Y-118.081
X166.738Y-119.081
X166.738Y-120.081
X166.738Y-121.081
X166.738Y-122.081
X166.738Y-143.074
X166.738Y-144.074
X166.738Y-145.074
X166.738Y-146.074
X166.738Y-147.074
X166.738Y-148.074
X166.738Y-149.074
X166.738Y-150.074
X166.738Y-151.074
X166.738Y-152.074
X166.738Y-153.074
X166.738Y-154.074
X166.738Y-155.074
X166.738Y-156.074
X166.738Y-157.074
X166.738Y-158.074
X166.738Y-159.074
X166.738Y-160.074
X166.738Y-161.074
X166.738Y-162.074
X167.738Y-103.081
X167.738Y-104.081
X167.738Y-105.081
X167.738Y-106.081
X167.738Y-107.081
X167.738Y-108.081
X167.738Y-111.081
X167.738Y-112.081
X167.738Y-113.081
X167.738Y-114.081
X167.738Y-115.081
X167.738Y-116.081
X167.738Y-117.081
X167.738Y-118.081
X167.738Y-119.081
X167.738Y-120.081
X167.738Y-121.081
X167.738Y-122.081
X167.738Y-144.074
X167.738Y-145.074
X167.738Y-146.074
X167.738Y-147.074
X167.738Y-148.074
X167.738Y-149.074
X167.738Y-150.074
X167.738Y-151.074
X167.738Y-152.074
X167.738Y-153.074
X167.738Y-154.074
X167.738Y-155.074
X167.738Y-156.074
X167.738Y-157.074
X167.738Y-158.074
X167.738Y-159.074
X167.738Y-160.074
X167.738Y-161.074
X167.738Y-162.074
X170.676Y-90.924
X171.372Y-205.76
X173.498Y-106.109
X173.498Y-110.949
X173.498Y-112.558
X175.302Y-195.328
X176.729Y-132.008
X176.95Y-193.194
X177.998Y-146.109
X178.003Y-205.209
X178.005Y-201.404
X178.094Y-106.109
X178.094Y-107.119
X178.177Y-116.379
X179.123Y-189.39
X179.627Y-151.352
X180.892Y-153.399
X181.155Y-132.008
X181.669Y-183.922
X181.678Y-186.581
X181.742Y-110.929
X181.819Y-115.11
X181.826Y-118.922
X182.328Y-159.819
X182.392Y-190.65
X182.392Y-193.194
X183.223Y-158.635
X183.347Y-110.943
X183.348Y-107.126
X183.427Y-115.11
X183.539Y-183.676
X183.906Y-177.082
X184.504Y-140.61
X185.968Y-162.407
X186.271Y-183.676
X186.591Y-177.098
X186.798Y-159.642
X186.799Y-162.399
X187.032Y-107.124
X187.032Y-110.297
X187.032Y-111.334
X187.091Y-142.403
X187.091Y-147.871
X187.113Y-116.285
X187.916Y-142.403
X187.916Y-150.733
X188.528Y-123.527
X189.941Y-149.353
X190.007Y-156.107
X190.178Y-123.527
X191.371Y-106.513
X193.39Y-148.079
X193.403Y-115.092
X193.505Y-149.82
X194.073Y-110.002
X195.097Y-109.99
X195.67Y-149.934
X196.638Y-149.934
X196.733Y-110.139
X198.388Y-157.377
X198.388Y-158.647
X199.546Y-154.837
X199.772Y-162.421
X201.338Y-156.979
X201.387Y-153.162
X201.387Y-154.366
X201.784Y-101.4
X201.934Y-117.176
X207.62Y-107.518
X207.697Y-114.443
X208.176Y-151.124
X208.176Y-147.313
X208.176Y-154.238
X208.176Y-158.037
X208.271Y-111.329
X208.271Y-118.241
X208.649Y-142.532
X209.739Y-147.313
X209.743Y-151.124
X209.744Y-158.037
X209.745Y-154.23
X209.834Y-107.518
X209.84Y-114.435
X209.84Y-118.247
X209.847Y-111.328
X213.509Y-152.674
X213.517Y-145.871
X213.604Y-112.879
X213.612Y-106.076
X215.101Y-159.663
X215.118Y-152.674
X216.312Y-111.741
X216.312Y-118.793
X219.38Y-107.106
X219.38Y-108.106
X219.38Y-109.106
X219.38Y-110.106
X219.38Y-111.106
X219.38Y-112.106
X219.38Y-113.106
X219.38Y-114.106
X219.38Y-115.106
X219.38Y-116.106
X219.38Y-120.106
X219.38Y-121.106
X219.38Y-122.106
X219.38Y-144.099
X219.38Y-145.099
X219.38Y-146.099
X219.38Y-147.099
X219.38Y-148.099
X219.38Y-149.099
X219.38Y-150.099
X219.38Y-151.099
X219.38Y-152.099
X219.38Y-153.099
X219.38Y-154.099
X219.38Y-155.099
X219.38Y-156.099
X219.38Y-157.099
X219.38Y-158.099
X219.38Y-159.099
X219.38Y-160.099
X219.38Y-161.099
X219.38Y-162.099
X220.38Y-108.106
X220.38Y-109.106
X220.38Y-110.106
X220.38Y-111.106
X220.38Y-112.106
X220.38Y-113.106
X220.38Y-114.106
X220.38Y-115.106
X220.38Y-119.106
X220.38Y-120.106
X220.38Y-121.106
X220.38Y-122.106
X220.38Y-144.099
X220.38Y-145.099
X220.38Y-146.099
X220.38Y-147.099
X220.38Y-148.099
X220.38Y-149.099
X220.38Y-150.099
X220.38Y-151.099
X220.38Y-152.099
X220.38Y-153.099
X220.38Y-154.099
X220.38Y-155.099
X220.38Y-156.099
X220.38Y-157.099
X220.38Y-158.099
X220.38Y-159.099
X220.38Y-160.099
X220.38Y-161.099
X220.38Y-162.099
X236.922Y-197.094
X236.922Y-197.094
X239.536Y-78.211
X240.382Y-78.211
X241.229Y-78.211
X242.076Y-78.211
X251.495Y-197.092
X251.495Y-197.092
X259.045Y-76.103
X259.05Y-75.356
X259.057Y-74.661
X259.296Y-120.819
X259.296Y-134.781
X259.319Y-105.651
X259.891Y-76.103
X259.896Y-75.356
X259.904Y-74.661
X260.738Y-76.103
X260.743Y-75.356
X260.75Y-74.661
X260.958Y-120.819
X260.958Y-134.781
X260.981Y-105.651
X261.585Y-76.103
X261.59Y-75.356
X261.597Y-74.661
X262.429Y-76.101
X262.434Y-75.354
X262.442Y-74.659
X263.276Y-76.101
X263.281Y-75.354
X263.288Y-74.659
X266.332Y-197.088
X266.332Y-197.088
X295.68Y-198.373
T3
X110.194Y-160.747
X146.266Y-123.557
X146.266Y-126.357
X146.266Y-129.157
X146.266Y-131.993
X146.266Y-134.793
X146.266Y-166.015
X146.266Y-172.363
X146.266Y-193.816
X146.266Y-200.161
X154.833Y-201.708
X154.833Y-204.659
X169.538Y-102.651
X171.09Y-117.81
X171.248Y-79.45
X171.248Y-80.713
X171.248Y-81.976
X171.248Y-83.238
X171.746Y-188.316
X171.759Y-182.263
X173.022Y-194.077
X173.022Y-199.677
X173.498Y-109.336
X180.366Y-79.515
X180.366Y-80.778
X180.366Y-82.041
X180.366Y-83.303
X180.856Y-197.53
X185.976Y-153.258
X185.98Y-146.355
X187.113Y-117.899
X189.566Y-79.515
X189.566Y-80.778
X189.566Y-82.041
X189.566Y-83.303
X190.029Y-158.647
X193.217Y-146.357
X193.416Y-162.403
X196.253Y-114.896
X198.666Y-79.515
X198.666Y-80.778
X198.666Y-82.041
X198.666Y-83.303
X199.621Y-117.495
X199.647Y-116.371
X207.766Y-79.515
X207.766Y-80.778
X207.766Y-82.041
X207.766Y-83.303
X216.966Y-79.515
X216.966Y-80.778
X216.966Y-82.041
X216.966Y-83.303
X227.996Y-193.889
X227.996Y-200.235
X234.685Y-189.91
X238.755Y-99.413
X238.755Y-100.413
X238.755Y-101.413
X238.755Y-102.413
X238.755Y-103.413
X238.755Y-104.413
X238.755Y-105.413
X238.755Y-106.413
X238.755Y-107.564
X238.755Y-108.564
X238.755Y-109.564
X238.755Y-110.564
X238.755Y-111.564
X238.755Y-112.564
X238.755Y-113.564
X238.755Y-114.564
X238.755Y-122.564
X238.755Y-123.564
X238.755Y-124.564
X238.755Y-125.564
X238.755Y-126.564
X238.755Y-127.564
X238.755Y-128.564
X238.755Y-133.281
X238.755Y-134.281
X238.755Y-135.281
X238.755Y-136.281
X238.755Y-137.281
X239.755Y-99.413
X239.755Y-100.413
X239.755Y-101.413
X239.755Y-102.413
X239.755Y-103.413
X239.755Y-104.413
X239.755Y-105.413
X239.755Y-106.413
X239.755Y-107.564
X239.755Y-108.564
X239.755Y-109.564
X239.755Y-110.564
X239.755Y-111.564
X239.755Y-112.564
X239.755Y-113.564
X239.755Y-114.564
X239.755Y-122.564
X239.755Y-123.564
X239.755Y-124.564
X239.755Y-125.564
X239.755Y-126.564
X239.755Y-127.564
X239.755Y-128.564
X239.755Y-133.281
X239.755Y-134.281
X239.755Y-135.281
X239.755Y-136.281
X239.755Y-137.281
X240.251Y-199.928
X240.755Y-99.413
X240.755Y-100.413
X240.755Y-101.413
X240.755Y-102.413
X240.755Y-103.413
X240.755Y-104.413
X240.755Y-105.413
X240.755Y-106.413
X240.755Y-107.564
X240.755Y-108.564
X240.755Y-109.564
X240.755Y-110.564
X240.755Y-111.564
X240.755Y-112.564
X240.755Y-113.564
X240.755Y-114.564
X240.755Y-122.564
X240.755Y-123.564
X240.755Y-124.564
X240.755Y-125.564
X240.755Y-126.564
X240.755Y-127.564
X240.755Y-128.564
X240.755Y-133.281
X240.755Y-134.281
X240.755Y-135.281
X240.755Y-136.281
X240.755Y-137.281
X241.755Y-99.413
X241.755Y-100.413
X241.755Y-101.413
X241.755Y-102.413
X241.755Y-103.413
X241.755Y-104.413
X241.755Y-105.413
X241.755Y-106.413
X241.755Y-107.564
X241.755Y-108.564
X241.755Y-109.564
X241.755Y-110.564
X241.755Y-111.564
X241.755Y-112.564
X241.755Y-113.564
X241.755Y-114.564
X241.755Y-122.564
X241.755Y-123.564
X241.755Y-124.564
X241.755Y-125.564
X241.755Y-126.564
X241.755Y-127.564
X241.755Y-128.564
X241.755Y-133.281
X241.755Y-134.281
X241.755Y-135.281
X241.755Y-136.281
X241.755Y-137.281
X242.755Y-99.413
X242.755Y-100.413
X242.755Y-101.413
X242.755Y-102.413
X242.755Y-103.413
X242.755Y-104.413
X242.755Y-105.413
X242.755Y-106.413
X242.755Y-107.564
X242.755Y-108.564
X242.755Y-109.564
X242.755Y-110.564
X242.755Y-111.564
X242.755Y-112.564
X242.755Y-113.564
X242.755Y-114.564
X242.755Y-122.564
X242.755Y-123.564
X242.755Y-124.564
X242.755Y-125.564
X242.755Y-126.564
X242.755Y-127.564
X242.755Y-128.564
X242.755Y-133.281
X242.755Y-134.281
X242.755Y-135.281
X242.755Y-136.281
X242.755Y-137.281
X243.65Y-194.571
X249.253Y-189.903
X254.891Y-199.914
X255.143Y-137.695
X257.189Y-98.895
X257.189Y-114.07
X257.189Y-128.033
X258.322Y-194.559
X259.128Y-139.999
X259.128Y-140.999
X259.294Y-130.259
X259.296Y-116.267
X259.321Y-101.102
X260.128Y-139.999
X260.128Y-140.999
X261.128Y-139.999
X261.128Y-140.999
X264.089Y-189.898
X265.111Y-137.696
X269.657Y-199.909
X273.382Y-194.563
X277.154Y-97.564
X277.154Y-98.564
X277.154Y-99.564
X277.154Y-107.564
X277.154Y-108.564
X277.154Y-109.564
X277.154Y-110.564
X277.154Y-111.564
X277.154Y-112.564
X277.154Y-113.564
X277.154Y-114.564
X277.154Y-122.564
X277.154Y-123.564
X277.154Y-124.564
X277.154Y-125.564
X277.154Y-126.564
X277.154Y-127.564
X277.154Y-128.564
X277.154Y-136.564
X277.154Y-137.564
X278.154Y-97.564
X278.154Y-98.564
X278.154Y-99.564
X278.154Y-107.564
X278.154Y-108.564
X278.154Y-109.564
X278.154Y-110.564
X278.154Y-111.564
X278.154Y-112.564
X278.154Y-113.564
X278.154Y-114.564
X278.154Y-122.564
X278.154Y-123.564
X278.154Y-124.564
X278.154Y-125.564
X278.154Y-126.564
X278.154Y-127.564
X278.154Y-128.564
X278.154Y-136.564
X278.154Y-137.564
X278.68Y-191.178
X279.154Y-97.564
X279.154Y-98.564
X279.154Y-99.564
X279.154Y-107.564
X279.154Y-108.564
X279.154Y-109.564
X279.154Y-110.564
X279.154Y-111.564
X279.154Y-112.564
X279.154Y-113.564
X279.154Y-114.564
X279.154Y-122.564
X279.154Y-123.564
X279.154Y-124.564
X279.154Y-125.564
X279.154Y-126.564
X279.154Y-127.564
X279.154Y-128.564
X279.154Y-136.564
X279.154Y-137.564
X280.154Y-97.564
X280.154Y-98.564
X280.154Y-99.564
X280.154Y-107.564
X280.154Y-108.564
X280.154Y-109.564
X280.154Y-110.564
X280.154Y-111.564
X280.154Y-112.564
X280.154Y-113.564
X280.154Y-114.564
X280.154Y-122.564
X280.154Y-123.564
X280.154Y-124.564
X280.154Y-125.564
X280.154Y-126.564
X280.154Y-127.564
X280.154Y-128.564
X280.154Y-136.564
X280.154Y-137.564
X281.154Y-97.564
X281.154Y-98.564
X281.154Y-99.564
X281.154Y-107.564
X281.154Y-108.564
X281.154Y-109.564
X281.154Y-110.564
X281.154Y-111.564
X281.154Y-112.564
X281.154Y-113.564
X281.154Y-114.564
X281.154Y-122.564
X281.154Y-123.564
X281.154Y-124.564
X281.154Y-125.564
X281.154Y-126.564
X281.154Y-127.564
X281.154Y-128.564
X281.154Y-136.564
X281.154Y-137.564
X290.309Y-192.549
X290.309Y-194.283
X290.309Y-201.587
X290.309Y-203.141
X293.247Y-191.167
X300.591Y-182.356
X302.557Y-182.356
X313.638Y-194.075
X313.638Y-195.303
X318.414Y-199.432
X335.188Y-199.439
T4
X178.494Y-137.077
X188.512Y-137.077
X191.862Y-137.053
X195.212Y-137.126
X200.832Y-134.055
T5
X151.144Y-197.069
X151.144Y-204.659
X218.101Y-87.062
X232.853Y-87.049
T6
X107.861Y-109.767
X107.861Y-112.307
X107.861Y-114.847
X119.239Y-109.767
X119.239Y-112.307
X119.239Y-114.847
X130.59Y-109.767
X130.59Y-112.307
X130.59Y-114.847
X141.967Y-109.767
X141.967Y-112.307
X141.967Y-114.847
X286.413Y-194.775
X286.413Y-197.315
X286.413Y-199.855
T7
X124.796Y-91.313
X124.796Y-96.313
X306.018Y-188.365
X306.018Y-203.605
X308.558Y-188.365
X308.558Y-203.605
X311.098Y-203.605
X311.098Y-188.365
X313.638Y-188.365
X313.638Y-203.605
X316.178Y-188.365
X316.178Y-203.605
X321.498Y-188.365
X321.498Y-203.605
X324.038Y-188.365
X324.038Y-203.605
X326.578Y-203.605
X326.578Y-188.365
X329.118Y-188.365
X329.118Y-203.605
X331.658Y-188.365
X331.658Y-203.605
T8
X97.899Y-195.459
X100.399Y-195.459
X102.399Y-195.459
X104.899Y-195.459
T9
X172.554Y-146.378
X172.589Y-158.727
T10
X106.607Y-125.857
X106.607Y-128.397
X106.607Y-130.937
X106.607Y-133.477
X106.607Y-136.017
X106.607Y-138.557
X106.607Y-141.097
X106.607Y-143.637
X106.607Y-146.177
X106.607Y-148.717
X109.147Y-125.857
X109.147Y-128.397
X109.147Y-130.937
X109.147Y-133.477
X109.147Y-136.017
X109.147Y-138.557
X109.147Y-141.097
X109.147Y-143.637
X109.147Y-146.177
X109.147Y-148.717
X116.197Y-125.857
X116.197Y-128.397
X116.197Y-130.937
X116.197Y-133.477
X116.197Y-136.017
X116.197Y-138.557
X116.197Y-141.097
X116.197Y-143.637
X116.197Y-146.177
X116.197Y-148.717
X118.737Y-125.857
X118.737Y-128.397
X118.737Y-130.937
X118.737Y-133.477
X118.737Y-136.017
X118.737Y-138.557
X118.737Y-141.097
X118.737Y-143.637
X118.737Y-146.177
X118.737Y-148.717
X239.536Y-71.94
X242.076Y-71.94
X253.151Y-71.94
X255.691Y-71.94
X265.131Y-71.953
X267.671Y-71.953
X270.211Y-71.953
X272.751Y-71.953
X275.291Y-71.953
X277.831Y-71.953
X285.351Y-155.069
X285.351Y-157.609
X287.891Y-155.069
X287.891Y-157.609
X290.431Y-155.069
X290.431Y-157.609
X292.971Y-155.069
X292.971Y-157.609
X295.351Y-140.069
X295.351Y-91.809
X295.511Y-155.069
X295.511Y-157.609
X297.891Y-140.069
X297.891Y-91.809
X298.051Y-155.069
X298.051Y-157.609
X300.431Y-140.069
X300.431Y-91.809
X300.591Y-155.069
X300.591Y-157.609
X302.971Y-140.069
X302.971Y-91.809
X303.131Y-155.069
X303.131Y-157.609
X305.511Y-140.069
X305.511Y-91.809
X305.671Y-155.069
X305.671Y-157.609
X308.051Y-140.069
X308.051Y-91.809
X308.211Y-155.069
X308.211Y-157.609
X310.591Y-140.069
X310.751Y-155.069
X310.751Y-157.609
X313.131Y-91.809
X313.131Y-140.069
X313.291Y-155.069
X313.291Y-157.609
X315.671Y-91.809
X315.831Y-155.069
X315.831Y-157.609
X317.191Y-140.069
X318.211Y-91.809
X318.371Y-155.069
X318.371Y-157.609
X319.731Y-140.069
X320.751Y-91.809
X320.911Y-155.069
X320.911Y-157.609
X322.271Y-140.069
X323.291Y-91.809
X323.451Y-155.069
X323.451Y-157.609
X324.811Y-140.069
X325.831Y-91.809
X325.991Y-155.069
X325.991Y-157.609
X327.351Y-140.069
X328.371Y-91.809
X328.531Y-155.069
X328.531Y-157.609
X329.891Y-140.069
X330.911Y-91.809
X331.071Y-155.069
X331.071Y-157.609
X332.431Y-140.069
X333.611Y-155.069
X333.611Y-157.609
X334.971Y-140.069
X337.511Y-140.069
X340.051Y-140.069
T11
X80.583Y-201.209
X85.583Y-201.209
X164.536Y-64.984
X169.536Y-64.984
X174.536Y-64.984
X179.536Y-64.984
X184.536Y-64.984
X189.536Y-64.984
X199.025Y-64.984
X204.025Y-64.984
X209.025Y-64.984
X214.025Y-64.984
X219.025Y-64.984
X224.025Y-64.984
T12
X82.733Y-75.196
X82.733Y-88.293
X82.733Y-101.389
X82.733Y-114.485
X82.733Y-127.582
X82.733Y-140.678
X82.733Y-153.774
X82.733Y-166.87
X109.442Y-169.686
X155.434Y-64.984
X280.151Y-198.251
T13
X184.824Y-190.635
X187.374Y-192.635
X187.374Y-198.135
X189.374Y-188.935
X189.374Y-194.435
X189.374Y-200.535
X193.424Y-190.635
X193.424Y-199.535
T14
X94.999Y-196.659
X107.799Y-196.659
T15
X117.567Y-162.902
X117.567Y-167.602
X117.567Y-172.302
X118.403Y-190.706
X118.403Y-195.406
X118.403Y-200.106
X122.397Y-162.902
X122.397Y-167.602
X122.397Y-172.302
X123.233Y-190.706
X123.233Y-195.406
X123.233Y-200.106
X201.462Y-190.776
X201.462Y-195.476
X201.462Y-200.176
X206.292Y-190.776
X206.292Y-195.476
X206.292Y-200.176
T16
X153.537Y-92.576
X153.537Y-172.576
X233.537Y-92.576
X233.537Y-172.576
M30
