M48
; DRILL file {KiCad 9.0.2} date 2025-11-09T23:00:11+0100
; FORMAT={-:-/ absolute / metric / decimal}
; #@! TF.CreationDate,2025-11-09T23:00:11+01:00
; #@! TF.GenerationSoftware,Kicad,Pcbnew,9.0.2
; #@! TF.FileFunction,Plated,1,2,PTH
FMAT,2
METRIC
; #@! TA.AperFunction,Plated,PTH,ViaDrill
T1C0.300
; #@! TA.AperFunction,Plated,PTH,ViaDrill
T2C0.400
; #@! TA.AperFunction,Plated,PTH,ViaDrill
T3C0.500
; #@! TA.AperFunction,Plated,PTH,ComponentDrill
T4C0.740
; #@! TA.AperFunction,Plated,PTH,ViaDrill
T5C0.900
; #@! TA.AperFunction,Plated,PTH,ComponentDrill
T6C1.000
; #@! TA.AperFunction,Plated,PTH,ComponentDrill
T7C1.200
; #@! TA.AperFunction,Plated,PTH,ComponentDrill
T8C1.600
; #@! TA.AperFunction,Plated,PTH,ComponentDrill
T9C3.200
%
G90
G05
T1
X67.557Y-54.107
X67.557Y-55.107
X67.557Y-56.107
X67.557Y-57.107
X67.557Y-58.107
X67.557Y-59.107
X67.557Y-60.107
X68.557Y-54.107
X68.557Y-55.107
X68.557Y-56.107
X68.557Y-57.107
X68.557Y-58.107
X68.557Y-59.107
X68.557Y-60.107
X68.557Y-86.107
X68.557Y-87.107
X68.557Y-88.107
X68.557Y-89.107
X68.557Y-90.107
X68.557Y-91.107
X68.557Y-92.107
X68.557Y-102.107
X68.557Y-103.107
X68.557Y-104.107
X68.647Y-74.138
X68.647Y-75.138
X68.647Y-76.138
X68.647Y-76.138
X68.647Y-76.138
X68.647Y-77.138
X69.557Y-41.107
X69.557Y-42.107
X69.557Y-54.107
X69.557Y-55.107
X69.557Y-56.107
X69.557Y-57.107
X69.557Y-58.107
X69.557Y-59.107
X69.557Y-60.107
X69.557Y-86.107
X69.557Y-87.107
X69.557Y-87.107
X69.557Y-88.107
X69.557Y-89.107
X69.557Y-90.107
X69.557Y-91.107
X69.557Y-92.107
X69.557Y-102.107
X69.557Y-103.107
X69.557Y-104.107
X69.647Y-74.138
X69.647Y-75.138
X69.647Y-76.138
X69.647Y-77.138
X70.557Y-41.107
X70.557Y-42.107
X70.557Y-42.107
X70.557Y-42.107
X70.557Y-54.107
X70.557Y-55.107
X70.557Y-56.107
X70.557Y-57.107
X70.557Y-58.107
X70.557Y-59.107
X70.557Y-60.107
X70.557Y-86.107
X70.557Y-87.107
X70.557Y-88.107
X70.557Y-89.107
X70.557Y-90.107
X70.557Y-91.107
X70.557Y-92.107
X70.557Y-102.107
X70.557Y-103.107
X70.557Y-104.107
X70.647Y-74.138
X70.647Y-75.138
X70.647Y-76.138
X70.647Y-77.138
X71.557Y-41.107
X71.557Y-42.107
X71.557Y-42.107
X71.557Y-102.107
X71.557Y-103.107
X71.557Y-104.107
X72.557Y-41.107
X72.557Y-42.107
X72.557Y-63.107
X72.557Y-64.107
X72.557Y-65.107
X72.557Y-66.107
X72.557Y-67.107
X72.557Y-102.107
X72.557Y-103.107
X72.557Y-104.107
X73.557Y-41.107
X73.557Y-42.107
X73.557Y-47.107
X73.557Y-63.107
X73.557Y-64.107
X73.557Y-65.107
X73.557Y-66.107
X73.557Y-67.107
X73.557Y-78.107
X73.557Y-79.107
X73.557Y-102.107
X73.557Y-103.107
X73.557Y-104.107
X74.557Y-41.107
X74.557Y-42.107
X74.557Y-42.107
X74.557Y-46.107
X74.557Y-47.107
X74.557Y-63.107
X74.557Y-64.107
X74.557Y-65.107
X74.557Y-66.107
X74.557Y-67.107
X74.557Y-78.107
X74.557Y-79.107
X74.557Y-102.107
X74.557Y-103.107
X74.84Y-83.78
X75.475Y-51.035
X75.557Y-41.107
X75.557Y-42.107
X75.557Y-46.107
X75.557Y-47.107
X75.557Y-63.107
X75.557Y-64.107
X75.557Y-65.107
X75.557Y-66.107
X75.557Y-67.107
X75.557Y-78.107
X75.557Y-79.107
X76.258Y-55.824
X76.444Y-87.834
X76.557Y-41.107
X76.557Y-42.107
X76.557Y-46.107
X76.557Y-47.107
X76.557Y-63.107
X76.557Y-64.107
X76.557Y-65.107
X76.557Y-66.107
X76.557Y-67.107
X76.557Y-78.107
X76.557Y-79.107
X77.557Y-41.107
X77.557Y-42.107
X77.557Y-46.107
X77.557Y-47.107
X77.557Y-63.107
X77.557Y-64.107
X77.557Y-65.107
X77.557Y-66.107
X77.557Y-67.107
X77.557Y-78.107
X77.557Y-79.107
X78.557Y-41.107
X78.557Y-42.107
X78.557Y-42.107
X78.557Y-63.107
X78.557Y-63.107
X78.557Y-64.107
X78.557Y-65.107
X78.557Y-66.107
X78.557Y-67.107
X78.557Y-78.107
X78.557Y-79.107
X79.557Y-41.107
X79.557Y-42.107
X79.557Y-63.107
X79.557Y-64.107
X79.557Y-65.107
X79.557Y-66.107
X79.557Y-67.107
X80.557Y-41.107
X80.557Y-42.107
X81.557Y-41.107
X81.557Y-41.107
X81.557Y-42.107
X82.557Y-41.107
X82.557Y-42.107
X82.557Y-44.107
X83.557Y-41.107
X83.557Y-42.107
X83.557Y-44.107
X84.557Y-41.107
X84.557Y-42.107
X84.557Y-44.107
X85.557Y-41.107
X85.557Y-42.107
X85.557Y-44.107
X85.557Y-74.107
X85.557Y-74.107
X85.557Y-75.107
X85.557Y-76.107
X85.557Y-77.107
X86.557Y-41.107
X86.557Y-42.107
X86.557Y-44.107
X86.557Y-74.107
X86.557Y-75.107
X86.557Y-76.107
X86.557Y-77.107
X86.557Y-78.107
X87.557Y-41.107
X87.557Y-42.107
X87.557Y-44.107
X87.557Y-45.107
X87.557Y-51.107
X87.557Y-52.107
X87.557Y-53.107
X87.557Y-53.107
X87.557Y-54.107
X87.557Y-55.107
X87.557Y-56.107
X87.557Y-74.107
X87.557Y-75.107
X87.557Y-76.107
X87.557Y-77.107
X87.557Y-78.107
X87.557Y-83.107
X87.557Y-84.107
X87.557Y-85.107
X87.557Y-86.107
X87.557Y-87.107
X87.557Y-88.107
X88.557Y-41.107
X88.557Y-42.107
X88.557Y-51.107
X88.557Y-52.107
X88.557Y-53.107
X88.557Y-54.107
X88.557Y-55.107
X88.557Y-56.107
X88.557Y-83.107
X88.557Y-84.107
X88.557Y-85.107
X88.557Y-86.107
X88.557Y-87.107
X88.557Y-88.107
X89.557Y-41.107
X89.557Y-42.107
X89.557Y-51.107
X89.557Y-52.107
X89.557Y-53.107
X89.557Y-54.107
X89.557Y-55.107
X89.557Y-56.107
X89.557Y-83.107
X89.557Y-84.107
X89.557Y-85.107
X89.557Y-86.107
X89.557Y-87.107
X89.557Y-88.107
X89.557Y-98.107
X89.557Y-99.107
X89.557Y-100.107
X89.557Y-101.107
X90.417Y-59.828
X90.417Y-60.768
X90.417Y-61.728
X90.557Y-51.107
X90.557Y-52.107
X90.557Y-53.107
X90.557Y-54.107
X90.557Y-55.107
X90.557Y-56.107
X90.557Y-83.107
X90.557Y-84.107
X90.557Y-85.107
X90.557Y-86.107
X90.557Y-87.107
X90.557Y-88.107
X90.557Y-98.107
X90.557Y-99.107
X90.557Y-100.107
X90.557Y-101.107
X91.557Y-45.107
X91.557Y-46.107
X91.557Y-47.107
X91.557Y-74.107
X91.557Y-75.107
X91.557Y-76.107
X91.557Y-77.107
X91.557Y-98.107
X91.557Y-99.107
X91.557Y-100.107
X91.557Y-101.107
X91.807Y-79.107
X92.557Y-74.107
X92.557Y-75.107
X92.557Y-76.107
X92.557Y-77.107
X92.557Y-98.107
X92.557Y-98.107
X92.557Y-99.107
X92.557Y-100.107
X92.557Y-101.107
X93.248Y-58.202
X93.557Y-74.107
X93.557Y-75.107
X93.557Y-76.107
X93.557Y-77.107
X93.557Y-78.107
X93.557Y-80.107
X93.557Y-81.107
X93.557Y-82.107
X93.557Y-83.107
X93.557Y-84.107
X93.557Y-85.107
X93.557Y-86.107
X93.557Y-87.107
X93.557Y-88.107
X93.557Y-98.107
X93.557Y-99.107
X93.557Y-100.107
X93.557Y-101.107
X94.557Y-45.107
X94.557Y-46.107
X94.557Y-47.107
X94.557Y-48.107
X94.557Y-49.107
X94.557Y-50.107
X94.557Y-51.107
X94.557Y-74.107
X94.557Y-75.107
X94.557Y-76.107
X94.557Y-77.107
X94.557Y-78.107
X94.557Y-80.107
X94.557Y-81.107
X94.557Y-82.107
X94.557Y-83.107
X94.557Y-84.107
X94.557Y-84.107
X94.557Y-85.107
X94.557Y-86.107
X94.557Y-87.107
X94.557Y-88.107
X95.557Y-45.107
X95.557Y-46.107
X95.557Y-47.107
X95.557Y-48.107
X95.557Y-49.107
X95.557Y-50.107
X95.557Y-51.107
X96.557Y-47.107
X96.557Y-48.107
X96.557Y-49.107
X96.557Y-49.107
X96.557Y-50.107
X96.557Y-51.107
X97.557Y-47.107
X97.557Y-48.107
X97.557Y-49.107
X97.557Y-50.107
X97.557Y-51.107
X97.557Y-55.107
X97.557Y-56.107
X97.557Y-57.107
X97.557Y-58.107
X98.557Y-55.107
X98.557Y-56.107
X98.557Y-57.107
X98.557Y-58.107
X98.807Y-79.107
X99.557Y-55.107
X99.557Y-56.107
X99.557Y-57.107
X99.557Y-57.107
X99.557Y-58.107
X99.557Y-101.107
X100.557Y-55.107
X100.557Y-55.107
X100.557Y-56.107
X100.557Y-57.107
X100.557Y-58.107
X100.557Y-101.107
X101.557Y-55.107
X101.557Y-56.107
X101.557Y-57.107
X101.557Y-58.107
X101.557Y-91.817
X101.557Y-92.825
X101.557Y-93.707
X101.557Y-97.107
X101.557Y-101.107
X101.557Y-101.107
X102.557Y-55.107
X102.557Y-97.107
X102.557Y-101.107
X103.557Y-97.107
X103.557Y-101.107
X103.557Y-101.107
X104.557Y-97.107
X104.557Y-101.107
X105.557Y-41.107
X105.557Y-42.107
X105.557Y-97.107
X105.557Y-101.107
X106.245Y-87.893
X106.247Y-55.897
X106.557Y-41.107
X106.557Y-42.107
X106.557Y-97.107
X106.557Y-97.107
X106.557Y-101.107
X107.535Y-50.046
X107.557Y-41.107
X107.557Y-41.107
X107.557Y-42.107
X107.557Y-97.107
X107.557Y-101.107
X108.557Y-41.107
X108.557Y-42.107
X108.557Y-97.107
X108.721Y-54.454
X109.557Y-41.107
X109.557Y-42.107
X109.557Y-97.107
X110.557Y-41.107
X110.557Y-42.107
X110.557Y-97.107
X110.557Y-98.107
X111.557Y-41.107
X111.557Y-42.107
X111.557Y-97.107
X111.557Y-98.107
X111.557Y-99.107
X112.557Y-41.107
X112.557Y-42.107
X112.557Y-83.107
X112.557Y-84.107
X112.594Y-87.893
X112.597Y-55.897
X113.557Y-41.107
X113.557Y-42.107
X113.557Y-83.107
X113.557Y-84.107
X114.557Y-30.107
X114.557Y-31.107
X114.557Y-32.107
X114.557Y-41.107
X114.557Y-42.107
X114.557Y-83.107
X114.557Y-84.107
X115.557Y-30.107
X115.557Y-31.107
X115.557Y-32.107
X115.557Y-41.107
X115.557Y-42.107
X115.557Y-83.107
X115.557Y-84.107
X116.557Y-30.107
X116.557Y-31.107
X116.557Y-32.107
X116.557Y-41.107
X116.557Y-42.107
X116.557Y-56.107
X116.557Y-57.107
X116.557Y-58.107
X116.557Y-83.107
X116.557Y-84.107
X116.557Y-107.107
X116.557Y-108.107
X116.557Y-109.107
X117.557Y-30.107
X117.557Y-31.107
X117.557Y-32.107
X117.557Y-41.107
X117.557Y-42.107
X117.557Y-56.107
X117.557Y-56.107
X117.557Y-57.107
X117.557Y-58.107
X117.557Y-76.107
X117.557Y-77.107
X117.557Y-78.107
X117.557Y-79.107
X117.557Y-79.107
X117.557Y-80.107
X117.557Y-81.107
X117.557Y-82.107
X117.557Y-83.107
X117.557Y-84.107
X117.557Y-107.107
X117.557Y-108.107
X117.557Y-109.107
X118.557Y-30.107
X118.557Y-31.107
X118.557Y-32.107
X118.557Y-32.107
X118.557Y-41.107
X118.557Y-42.107
X118.557Y-56.107
X118.557Y-57.107
X118.557Y-58.107
X118.557Y-76.107
X118.557Y-77.107
X118.557Y-78.107
X118.557Y-79.107
X118.557Y-80.107
X118.557Y-81.107
X118.557Y-82.107
X118.557Y-83.107
X118.557Y-84.107
X118.557Y-107.107
X118.557Y-108.107
X118.557Y-109.107
X119.557Y-76.107
X119.557Y-77.107
X119.557Y-78.107
X119.557Y-79.107
X119.557Y-80.107
X119.557Y-81.107
X119.557Y-82.107
X119.557Y-83.107
X119.557Y-84.107
X119.557Y-97.107
X119.557Y-98.107
X119.557Y-99.107
X119.557Y-100.107
X119.557Y-107.107
X119.557Y-108.107
X119.557Y-109.107
X119.795Y-32.058
X120.557Y-97.107
X120.557Y-98.107
X120.557Y-99.107
X120.557Y-100.107
X120.557Y-107.107
X120.557Y-108.107
X120.557Y-109.107
X120.595Y-32.106
X120.719Y-60.838
X120.719Y-91.889
X120.719Y-92.829
X120.719Y-93.789
X120.803Y-59.038
X121.395Y-32.123
X121.557Y-97.107
X121.557Y-98.107
X121.557Y-99.107
X121.557Y-100.107
X121.557Y-107.107
X121.557Y-108.107
X121.557Y-109.107
X122.195Y-32.111
X122.557Y-97.107
X122.557Y-98.107
X122.557Y-99.107
X122.557Y-100.107
X122.557Y-107.107
X122.557Y-108.107
X122.557Y-109.107
X122.998Y-32.135
X123.384Y-60.838
X123.557Y-110.107
X123.557Y-111.107
X123.557Y-112.107
X123.557Y-113.107
X123.557Y-134.107
X123.557Y-135.107
X123.557Y-136.107
X123.557Y-137.107
X124.557Y-41.107
X124.557Y-42.107
X124.557Y-43.107
X124.557Y-44.107
X124.557Y-45.107
X124.557Y-46.107
X124.557Y-51.107
X124.557Y-52.107
X124.557Y-53.107
X124.557Y-54.107
X124.557Y-55.107
X124.557Y-56.107
X124.557Y-110.107
X124.557Y-111.107
X124.557Y-112.107
X124.557Y-113.107
X124.557Y-113.107
X124.557Y-134.107
X124.557Y-135.107
X124.557Y-136.107
X124.557Y-137.107
X124.694Y-61.79
X124.986Y-27.983
X125.557Y-41.107
X125.557Y-42.107
X125.557Y-43.107
X125.557Y-44.107
X125.557Y-45.107
X125.557Y-46.107
X125.557Y-53.107
X125.557Y-54.107
X125.557Y-55.107
X125.557Y-56.107
X125.557Y-57.107
X125.557Y-110.107
X125.557Y-111.107
X125.557Y-112.107
X125.557Y-113.107
X125.557Y-134.107
X125.557Y-135.107
X125.557Y-136.107
X125.557Y-137.107
X126.557Y-41.107
X126.557Y-42.107
X126.557Y-43.107
X126.557Y-44.107
X126.557Y-54.107
X126.557Y-55.107
X126.557Y-56.107
X126.557Y-57.107
X126.557Y-110.107
X126.557Y-111.107
X126.557Y-112.107
X126.557Y-113.107
X126.557Y-134.107
X126.557Y-135.107
X126.557Y-136.107
X126.557Y-137.107
X127.557Y-41.107
X127.557Y-42.107
X127.557Y-43.107
X127.557Y-44.107
X127.557Y-102.107
X127.557Y-103.107
X127.557Y-104.107
X127.557Y-105.107
X127.557Y-110.107
X127.557Y-111.107
X127.557Y-112.107
X127.557Y-113.107
X127.557Y-134.107
X127.557Y-135.107
X127.557Y-136.107
X127.557Y-137.107
X128.557Y-41.107
X128.557Y-42.107
X128.557Y-43.107
X128.557Y-44.107
X128.557Y-50.107
X128.557Y-51.107
X128.557Y-102.107
X128.557Y-102.107
X128.557Y-103.107
X128.557Y-104.107
X128.557Y-105.107
X129.557Y-43.107
X129.557Y-44.107
X129.557Y-50.107
X129.557Y-51.107
X129.557Y-102.107
X129.557Y-103.107
X129.557Y-104.107
X129.557Y-105.107
X130.557Y-44.107
X130.557Y-49.107
X130.557Y-50.107
X130.557Y-51.107
X130.557Y-58.107
X130.557Y-59.107
X130.557Y-60.107
X130.557Y-61.107
X130.557Y-62.107
X130.557Y-90.107
X130.557Y-90.107
X130.557Y-91.107
X130.557Y-92.107
X130.557Y-93.107
X130.557Y-94.107
X130.557Y-94.107
X130.557Y-95.107
X130.557Y-102.107
X130.557Y-103.107
X130.557Y-104.107
X130.557Y-104.107
X130.557Y-105.107
X131.557Y-58.107
X131.557Y-59.107
X131.557Y-60.107
X131.557Y-61.107
X131.557Y-62.107
X131.557Y-90.107
X131.557Y-90.107
X131.557Y-91.107
X131.557Y-92.107
X131.557Y-93.107
X131.557Y-94.107
X131.557Y-95.107
X131.557Y-95.107
X132.557Y-58.107
X132.557Y-59.107
X132.557Y-60.107
X132.557Y-61.107
X132.557Y-62.107
X132.557Y-90.107
X132.557Y-91.107
X132.557Y-92.107
X132.557Y-93.107
X132.557Y-94.107
X132.557Y-95.107
X132.557Y-95.107
X132.557Y-107.107
X132.557Y-108.107
X132.557Y-109.107
X133.557Y-59.107
X133.557Y-60.107
X133.557Y-61.107
X133.557Y-62.107
X133.557Y-77.107
X133.557Y-78.107
X133.557Y-79.107
X133.557Y-80.107
X133.557Y-80.107
X133.557Y-81.107
X133.557Y-107.107
X133.557Y-108.107
X133.557Y-109.107
X134.557Y-44.107
X134.557Y-45.107
X134.557Y-77.107
X134.557Y-107.107
X134.557Y-108.107
X134.557Y-109.107
X134.557Y-109.107
X135.557Y-44.107
X135.557Y-45.107
X135.557Y-77.107
X135.557Y-107.107
X135.557Y-108.107
X135.557Y-109.107
X136.557Y-45.107
X136.557Y-46.107
X136.557Y-47.107
X136.557Y-48.107
X136.557Y-49.107
X136.557Y-50.107
X136.557Y-79.107
X136.557Y-80.107
X136.557Y-81.107
X136.557Y-82.107
X136.557Y-107.107
X136.557Y-108.107
X136.557Y-109.107
X137.557Y-42.107
X137.557Y-49.107
X137.557Y-50.107
X137.557Y-81.107
X137.557Y-81.107
X137.557Y-82.107
X137.557Y-82.107
X137.557Y-107.107
X137.557Y-108.107
X137.557Y-109.107
X138.018Y-91.205
X138.053Y-59.205
X138.557Y-42.107
X138.557Y-43.107
X138.557Y-49.107
X138.557Y-50.107
X138.557Y-74.107
X138.557Y-75.107
X138.557Y-76.107
X138.557Y-81.107
X138.557Y-82.107
X138.557Y-82.107
X138.557Y-107.107
X138.557Y-108.107
X138.557Y-109.107
X139.557Y-42.107
X139.557Y-43.107
X139.557Y-44.107
X139.557Y-49.107
X139.557Y-50.107
X139.557Y-74.107
X139.557Y-75.107
X139.557Y-76.107
X139.557Y-81.107
X139.557Y-82.107
X140.557Y-42.107
X140.557Y-43.107
X140.557Y-44.107
X140.557Y-44.107
X140.557Y-45.107
X140.557Y-74.107
X140.557Y-75.107
X140.557Y-76.107
X141.557Y-42.107
X141.557Y-43.107
X141.557Y-44.107
X141.557Y-45.107
X141.557Y-46.107
X141.557Y-74.107
X141.557Y-75.107
X141.557Y-76.107
X141.557Y-95.107
X141.557Y-96.107
X141.557Y-97.107
X142.557Y-42.107
X142.557Y-43.107
X142.557Y-44.107
X142.557Y-45.107
X142.557Y-45.107
X142.557Y-46.107
X142.557Y-47.107
X142.557Y-48.107
X142.557Y-49.107
X142.557Y-50.107
X142.557Y-51.107
X142.557Y-52.107
X142.557Y-79.107
X142.557Y-80.107
X142.557Y-81.107
X142.557Y-82.107
X142.557Y-95.107
X142.557Y-96.107
X142.557Y-97.107
X143.557Y-42.107
X143.557Y-43.107
X143.557Y-44.107
X143.557Y-45.107
X143.557Y-46.107
X143.557Y-47.107
X143.557Y-48.107
X143.557Y-48.107
X143.557Y-49.107
X143.557Y-50.107
X143.557Y-51.107
X143.557Y-52.107
X143.557Y-79.107
X143.557Y-80.107
X143.557Y-81.107
X143.557Y-82.107
X143.557Y-95.107
X143.557Y-96.107
X143.557Y-97.107
X144.557Y-42.107
X144.557Y-43.107
X144.557Y-44.107
X144.557Y-45.107
X144.557Y-46.107
X144.557Y-47.107
X144.557Y-48.107
X144.557Y-49.107
X144.557Y-49.107
X144.557Y-50.107
X144.557Y-51.107
X144.557Y-52.107
X144.557Y-79.107
X144.557Y-80.107
X144.557Y-81.107
X144.557Y-81.107
X144.557Y-82.107
X145.557Y-42.107
X145.557Y-43.107
X145.557Y-44.107
X145.557Y-45.107
X145.557Y-46.107
X145.557Y-47.107
X145.557Y-48.107
X145.557Y-49.107
X145.557Y-50.107
X145.557Y-79.107
X145.557Y-79.107
X145.557Y-80.107
X145.557Y-81.107
X145.557Y-82.107
X146.557Y-42.107
X146.557Y-43.107
X146.557Y-44.107
X146.557Y-45.107
X146.557Y-46.107
X146.557Y-47.107
X146.557Y-48.107
X146.557Y-49.107
X146.557Y-50.107
X146.557Y-79.107
X146.557Y-80.107
X146.557Y-81.107
X146.557Y-82.107
X146.557Y-95.107
X146.557Y-96.107
X146.557Y-97.107
X147.557Y-79.107
X147.557Y-80.107
X147.557Y-81.107
X147.557Y-82.107
X147.557Y-94.107
X147.557Y-95.107
X147.557Y-96.107
X147.557Y-97.107
X148.557Y-55.107
X148.557Y-56.107
X148.557Y-57.107
X148.557Y-58.107
X148.557Y-59.107
X148.557Y-107.107
X148.557Y-108.107
X148.557Y-109.107
X149.557Y-55.107
X149.557Y-56.107
X149.557Y-57.107
X149.557Y-58.107
X149.557Y-59.107
X149.557Y-107.107
X149.557Y-108.107
X149.557Y-109.107
X150.557Y-55.107
X150.557Y-56.107
X150.557Y-57.107
X150.557Y-58.107
X150.557Y-59.107
X150.557Y-59.107
X150.557Y-107.107
X150.557Y-108.107
X150.557Y-109.107
X151.557Y-52.107
X151.557Y-53.107
X151.557Y-54.107
X151.557Y-55.107
X151.557Y-56.107
X151.557Y-57.107
X151.557Y-58.107
X151.557Y-59.107
X151.557Y-107.107
X151.557Y-108.107
X151.557Y-109.107
X152.557Y-52.107
X152.557Y-53.107
X152.557Y-54.107
X152.557Y-55.107
X152.557Y-56.107
X152.557Y-57.107
X152.557Y-58.107
X152.557Y-59.107
X152.557Y-107.107
X152.557Y-108.107
X152.557Y-109.107
X153.557Y-107.107
X153.557Y-108.107
X153.557Y-109.107
X154.557Y-107.107
X154.557Y-108.107
X154.557Y-109.107
X155.557Y-41.107
X155.557Y-42.107
X155.557Y-43.107
X155.557Y-44.107
X155.557Y-51.107
X155.557Y-52.107
X155.557Y-53.107
X155.557Y-54.107
X155.557Y-55.107
X155.557Y-56.107
X155.557Y-57.107
X155.557Y-57.107
X155.557Y-57.107
X155.557Y-58.107
X155.557Y-59.107
X155.557Y-60.107
X155.557Y-61.107
X156.557Y-41.107
X156.557Y-42.107
X156.557Y-43.107
X156.557Y-44.107
X156.557Y-51.107
X156.557Y-52.107
X156.557Y-53.107
X156.557Y-54.107
X156.557Y-54.107
X156.557Y-55.107
X156.557Y-56.107
X156.557Y-57.107
X156.557Y-58.107
X156.557Y-58.107
X156.557Y-59.107
X156.557Y-60.107
X156.557Y-61.107
X156.557Y-78.107
X156.557Y-79.107
X157.557Y-41.107
X157.557Y-42.107
X157.557Y-43.107
X157.557Y-44.107
X157.557Y-51.107
X157.557Y-52.107
X157.557Y-53.107
X157.557Y-54.107
X157.557Y-54.107
X157.557Y-55.107
X157.557Y-56.107
X157.557Y-57.107
X157.557Y-57.107
X157.557Y-58.107
X157.557Y-59.107
X157.557Y-60.107
X157.557Y-61.107
X157.557Y-78.107
X157.557Y-79.107
X157.557Y-80.107
X157.557Y-80.107
X158.557Y-42.107
X158.557Y-43.107
X158.557Y-44.107
X158.557Y-51.107
X158.557Y-52.107
X158.557Y-53.107
X158.557Y-54.107
X158.557Y-55.107
X158.557Y-56.107
X158.557Y-57.107
X158.557Y-57.107
X158.557Y-58.107
X158.557Y-59.107
X158.557Y-60.107
X158.557Y-61.107
X158.557Y-78.107
X158.557Y-79.107
X158.557Y-80.107
X159.557Y-43.107
X159.557Y-44.107
X159.557Y-51.107
X159.557Y-52.107
X159.557Y-53.107
X159.557Y-54.107
X159.557Y-55.107
X159.557Y-56.107
X159.557Y-57.107
X159.557Y-58.107
X159.557Y-59.107
X159.557Y-60.107
X159.557Y-61.107
X159.557Y-78.107
X159.557Y-79.107
X159.557Y-80.107
X160.557Y-44.107
X160.557Y-58.107
X160.557Y-59.107
X160.557Y-60.107
X160.557Y-61.107
X160.557Y-78.107
X160.557Y-78.107
X160.557Y-79.107
X160.557Y-80.107
X161.557Y-58.107
X161.557Y-59.107
X161.557Y-60.107
X161.557Y-61.107
X161.557Y-78.107
X161.557Y-79.107
X161.557Y-80.107
X161.557Y-139.107
X161.557Y-140.107
X161.557Y-141.107
X162.557Y-58.107
X162.557Y-58.107
X162.557Y-59.107
X162.557Y-60.107
X162.557Y-61.107
X162.557Y-78.107
X162.557Y-79.107
X162.557Y-80.107
X162.557Y-139.107
X162.557Y-140.107
X162.557Y-141.107
X163.557Y-58.107
X163.557Y-58.107
X163.557Y-59.107
X163.557Y-60.107
X163.557Y-61.107
X163.557Y-78.107
X163.557Y-79.107
X163.557Y-80.107
X163.557Y-139.107
X163.557Y-140.107
X163.557Y-141.107
X164.557Y-78.107
X164.557Y-79.107
X164.557Y-80.107
X164.557Y-80.107
X164.557Y-80.107
X164.557Y-107.107
X164.557Y-108.107
X164.557Y-109.107
X165.557Y-78.107
X165.557Y-78.107
X165.557Y-79.107
X165.557Y-80.107
X165.557Y-107.107
X165.557Y-108.107
X165.557Y-109.107
X166.557Y-45.107
X166.557Y-46.107
X166.557Y-47.107
X166.557Y-48.107
X166.557Y-49.107
X166.557Y-50.107
X166.557Y-107.107
X166.557Y-108.107
X166.557Y-109.107
X167.557Y-49.107
X167.557Y-50.107
X167.557Y-107.107
X167.557Y-108.107
X167.557Y-109.107
X168.244Y-58.659
X168.557Y-41.107
X168.557Y-42.107
X168.557Y-43.107
X168.557Y-49.107
X168.557Y-50.107
X168.557Y-66.107
X168.557Y-107.107
X168.557Y-108.107
X168.557Y-109.107
X168.557Y-139.107
X168.557Y-140.107
X168.557Y-141.107
X169.557Y-41.107
X169.557Y-42.107
X169.557Y-43.107
X169.557Y-44.107
X169.557Y-48.107
X169.557Y-49.107
X169.557Y-50.107
X169.557Y-66.107
X169.557Y-107.107
X169.557Y-108.107
X169.557Y-109.107
X170.557Y-41.107
X170.557Y-42.107
X170.557Y-43.107
X170.557Y-43.107
X170.557Y-43.107
X170.557Y-44.107
X170.557Y-57.107
X170.557Y-66.107
X170.557Y-107.107
X170.557Y-108.107
X170.557Y-109.107
X171.557Y-41.107
X171.557Y-42.107
X171.557Y-43.107
X171.557Y-44.107
X171.557Y-45.107
X171.557Y-66.107
X172.557Y-41.107
X172.557Y-42.107
X172.557Y-43.107
X172.557Y-44.107
X172.557Y-45.107
X173.557Y-41.107
X173.557Y-42.107
X173.557Y-43.107
X173.557Y-44.107
X173.557Y-45.107
X173.557Y-139.107
X173.557Y-140.107
X173.557Y-141.107
X174.557Y-41.107
X174.557Y-42.107
X174.557Y-43.107
X174.557Y-44.107
X174.557Y-45.107
X174.594Y-58.659
X175.557Y-41.107
X175.557Y-42.107
X175.557Y-43.107
X175.557Y-44.107
X175.557Y-45.107
X176.557Y-41.107
X176.557Y-42.107
X176.557Y-43.107
X176.557Y-44.107
X176.557Y-45.107
X177.557Y-41.107
X177.557Y-42.107
X177.557Y-43.107
X177.557Y-44.107
X177.557Y-45.107
X178.557Y-52.107
X178.557Y-53.107
X178.557Y-54.107
X178.557Y-64.107
X178.557Y-65.107
X178.557Y-66.107
X178.557Y-67.107
X178.557Y-68.107
X178.557Y-139.107
X178.557Y-140.107
X178.557Y-141.107
X178.557Y-142.107
X179.557Y-52.107
X179.557Y-53.107
X179.557Y-54.107
X179.557Y-64.107
X179.557Y-65.107
X179.557Y-66.107
X179.557Y-67.107
X179.557Y-68.107
X179.557Y-139.107
X179.557Y-140.107
X179.557Y-141.107
X179.557Y-142.107
X180.557Y-50.107
X180.557Y-51.107
X180.557Y-52.107
X180.557Y-53.107
X180.557Y-54.107
X180.557Y-64.107
X180.557Y-64.107
X180.557Y-65.107
X180.557Y-66.107
X180.557Y-67.107
X180.557Y-68.107
X180.557Y-107.107
X180.557Y-108.107
X180.557Y-109.107
X180.557Y-139.107
X180.557Y-140.107
X180.557Y-141.107
X180.557Y-142.107
X181.557Y-50.107
X181.557Y-51.107
X181.557Y-52.107
X181.557Y-53.107
X181.557Y-54.107
X181.557Y-64.107
X181.557Y-65.107
X181.557Y-66.107
X181.557Y-67.107
X181.557Y-68.107
X181.557Y-107.107
X181.557Y-108.107
X181.557Y-109.107
X181.557Y-139.107
X181.557Y-140.107
X181.557Y-141.107
X181.557Y-142.107
X182.557Y-50.107
X182.557Y-51.107
X182.557Y-52.107
X182.557Y-53.107
X182.557Y-54.107
X182.557Y-64.107
X182.557Y-65.107
X182.557Y-66.107
X182.557Y-67.107
X182.557Y-68.107
X182.557Y-107.107
X182.557Y-108.107
X182.557Y-109.107
X183.557Y-50.107
X183.557Y-51.107
X183.557Y-52.107
X183.557Y-53.107
X183.557Y-53.107
X183.557Y-54.107
X183.557Y-64.107
X183.557Y-65.107
X183.557Y-66.107
X183.557Y-67.107
X183.557Y-68.107
X183.557Y-107.107
X183.557Y-108.107
X183.557Y-109.107
X183.557Y-109.107
X184.557Y-50.107
X184.557Y-51.107
X184.557Y-52.107
X184.557Y-53.107
X184.557Y-54.107
X184.557Y-64.107
X184.557Y-65.107
X184.557Y-66.107
X184.557Y-67.107
X184.557Y-68.107
X184.557Y-107.107
X184.557Y-108.107
X184.557Y-109.107
X185.557Y-50.107
X185.557Y-51.107
X185.557Y-52.107
X185.557Y-53.107
X185.557Y-54.107
X185.557Y-64.107
X185.557Y-65.107
X185.557Y-66.107
X185.557Y-67.107
X185.557Y-68.107
X185.557Y-74.107
X185.557Y-75.107
X185.557Y-107.107
X185.557Y-108.107
X185.557Y-109.107
X185.557Y-139.107
X185.557Y-140.107
X185.557Y-141.107
X185.557Y-142.107
X186.557Y-64.107
X186.557Y-65.107
X186.557Y-65.107
X186.557Y-66.107
X186.557Y-67.107
X186.557Y-68.107
X186.557Y-74.107
X186.557Y-75.107
X186.557Y-76.107
X186.557Y-76.107
X186.557Y-76.107
X186.557Y-107.107
X186.557Y-108.107
X186.557Y-109.107
X186.557Y-139.107
X186.557Y-140.107
X186.557Y-140.107
X186.557Y-141.107
X186.557Y-141.107
X186.557Y-142.107
X187.557Y-41.107
X187.557Y-42.107
X187.557Y-43.107
X187.557Y-43.107
X187.557Y-44.107
X187.557Y-45.107
X187.557Y-46.107
X187.557Y-50.107
X187.557Y-51.107
X187.557Y-52.107
X187.557Y-53.107
X187.557Y-54.107
X187.557Y-55.107
X187.557Y-64.107
X187.557Y-65.107
X187.557Y-66.107
X187.557Y-67.107
X187.557Y-68.107
X187.557Y-74.107
X187.557Y-75.107
X187.557Y-76.107
X187.557Y-77.107
X187.557Y-139.107
X187.557Y-140.107
X187.557Y-140.107
X187.557Y-141.107
X187.557Y-142.107
X188.557Y-42.107
X188.557Y-43.107
X188.557Y-44.107
X188.557Y-45.107
X188.557Y-46.107
X188.557Y-50.107
X188.557Y-51.107
X188.557Y-52.107
X188.557Y-53.107
X188.557Y-53.107
X188.557Y-54.107
X188.557Y-55.107
X188.557Y-64.107
X188.557Y-65.107
X188.557Y-66.107
X188.557Y-66.107
X188.557Y-67.107
X188.557Y-68.107
X188.557Y-74.107
X188.557Y-75.107
X188.557Y-76.107
X188.557Y-77.107
X188.557Y-78.107
X189.557Y-43.107
X189.557Y-44.107
X189.557Y-44.107
X189.557Y-45.107
X189.557Y-46.107
X189.557Y-50.107
X189.557Y-51.107
X189.557Y-52.107
X189.557Y-52.107
X189.557Y-53.107
X189.557Y-54.107
X189.557Y-55.107
X189.557Y-55.107
X189.557Y-64.107
X189.557Y-65.107
X189.557Y-66.107
X189.557Y-67.107
X189.557Y-68.107
X189.557Y-74.107
X189.557Y-75.107
X189.557Y-76.107
X189.557Y-77.107
X189.557Y-78.107
X190.557Y-44.107
X190.557Y-45.107
X190.557Y-46.107
X190.557Y-50.107
X190.557Y-51.107
X190.557Y-52.107
X190.557Y-53.107
X190.557Y-54.107
X190.557Y-55.107
X190.557Y-74.107
X190.557Y-75.107
X190.557Y-76.107
X190.557Y-77.107
X190.557Y-78.107
X191.557Y-74.107
X191.557Y-75.107
X191.557Y-76.107
X191.557Y-77.107
X191.557Y-78.107
X194.057Y-76.607
X194.057Y-77.607
X194.057Y-78.607
X194.557Y-64.107
X194.557Y-65.107
X194.557Y-66.107
X194.557Y-66.107
X194.557Y-67.107
X194.557Y-68.107
X194.557Y-68.107
X195.057Y-76.607
X195.057Y-77.607
X195.057Y-78.607
X195.557Y-64.107
X195.557Y-65.107
X195.557Y-66.107
X195.557Y-67.107
X195.557Y-68.107
X195.557Y-84.107
X195.557Y-85.107
X195.557Y-86.107
X195.557Y-87.107
X196.057Y-76.607
X196.057Y-77.607
X196.057Y-78.607
X196.557Y-31.107
X196.557Y-32.107
X196.557Y-33.107
X196.557Y-34.107
X196.557Y-35.107
X196.557Y-64.107
X196.557Y-65.107
X196.557Y-66.107
X196.557Y-67.107
X196.557Y-68.107
X196.557Y-84.107
X196.557Y-85.107
X196.557Y-86.107
X196.557Y-87.107
X197.057Y-76.607
X197.057Y-77.607
X197.057Y-78.607
X197.557Y-31.107
X197.557Y-32.107
X197.557Y-33.107
X197.557Y-34.107
X197.557Y-35.107
X197.557Y-64.107
X197.557Y-65.107
X197.557Y-66.107
X197.557Y-67.107
X197.557Y-68.107
X197.557Y-84.107
X197.557Y-85.107
X197.557Y-86.107
X197.557Y-87.107
X198.057Y-76.607
X198.057Y-77.607
X198.057Y-78.607
X198.557Y-31.107
X198.557Y-32.107
X198.557Y-33.107
X198.557Y-34.107
X198.557Y-35.107
X198.557Y-64.107
X198.557Y-65.107
X198.557Y-66.107
X198.557Y-67.107
X198.557Y-68.107
X198.557Y-84.107
X198.557Y-85.107
X198.557Y-86.107
X198.557Y-87.107
X198.557Y-144.107
X198.557Y-145.107
X198.557Y-146.107
X199.057Y-76.607
X199.057Y-77.607
X199.057Y-78.607
X199.557Y-31.107
X199.557Y-32.107
X199.557Y-33.107
X199.557Y-33.107
X199.557Y-34.107
X199.557Y-35.107
X199.557Y-52.107
X199.557Y-64.107
X199.557Y-65.107
X199.557Y-66.107
X199.557Y-67.107
X199.557Y-68.107
X199.557Y-84.107
X199.557Y-85.107
X199.557Y-86.107
X199.557Y-87.107
X199.557Y-144.107
X199.557Y-145.107
X199.557Y-145.107
X199.557Y-146.107
X200.057Y-76.607
X200.057Y-77.607
X200.057Y-78.607
X200.557Y-51.107
X200.557Y-52.107
X200.557Y-64.107
X200.557Y-65.107
X200.557Y-66.107
X200.557Y-67.107
X200.557Y-68.107
X200.557Y-84.107
X200.557Y-85.107
X200.557Y-86.107
X200.557Y-87.107
X200.557Y-87.107
X200.557Y-144.107
X200.557Y-145.107
X200.557Y-146.107
X201.057Y-76.607
X201.057Y-77.607
X201.057Y-78.607
X201.557Y-50.107
X201.557Y-51.107
X201.557Y-52.107
X201.557Y-52.107
X201.557Y-64.107
X201.557Y-64.107
X201.557Y-65.107
X201.557Y-65.107
X201.557Y-66.107
X201.557Y-67.107
X201.557Y-68.107
X201.557Y-144.107
X201.557Y-145.107
X201.557Y-146.107
X202.557Y-49.107
X202.557Y-50.107
X202.557Y-51.107
X202.557Y-52.107
X202.557Y-65.107
X202.557Y-66.107
X202.557Y-67.107
X202.557Y-68.107
X202.557Y-144.107
X202.557Y-145.107
X202.557Y-146.107
X203.557Y-48.107
X203.557Y-49.107
X203.557Y-50.107
X203.557Y-51.107
X203.557Y-52.107
X203.557Y-100.107
X203.557Y-101.107
X203.557Y-102.107
X203.557Y-103.107
X204.557Y-47.107
X204.557Y-48.107
X204.557Y-49.107
X204.557Y-50.107
X204.557Y-51.107
X204.557Y-52.107
X204.557Y-100.107
X204.557Y-101.107
X204.557Y-102.107
X204.557Y-103.107
X205.557Y-100.107
X205.557Y-101.107
X205.557Y-102.107
X205.557Y-103.107
X205.557Y-103.107
X206.557Y-46.107
X206.557Y-47.107
X206.557Y-48.107
X206.557Y-49.107
X206.557Y-50.107
X206.557Y-51.107
X206.557Y-100.107
X206.557Y-101.107
X206.557Y-102.107
X206.557Y-103.107
X207.523Y-85.661
X207.523Y-76.872
X207.547Y-65.694
X207.557Y-46.107
X207.557Y-47.107
X207.557Y-48.107
X207.557Y-49.107
X207.557Y-50.107
X207.557Y-51.107
X207.557Y-100.107
X207.557Y-101.107
X207.557Y-102.107
X207.557Y-103.107
X207.596Y-56.905
X208.557Y-46.107
X208.557Y-47.107
X208.557Y-48.107
X208.557Y-49.107
X208.557Y-50.107
X208.557Y-51.107
X208.557Y-65.107
X208.557Y-66.107
X208.557Y-100.107
X208.557Y-101.107
X208.557Y-102.107
X208.557Y-103.107
X209.557Y-65.107
X209.557Y-66.107
X209.557Y-100.107
X209.557Y-101.107
X209.557Y-101.107
X209.557Y-102.107
X209.557Y-103.107
X210.557Y-65.107
X210.557Y-65.107
X210.557Y-66.107
X210.557Y-100.107
X210.557Y-101.107
X210.557Y-102.107
X210.557Y-103.107
X211.557Y-101.107
X211.557Y-102.107
X211.557Y-103.107
X211.557Y-144.107
X211.557Y-145.107
X211.557Y-146.107
X211.557Y-146.107
X212.557Y-144.107
X212.557Y-145.107
X212.557Y-146.107
X213.557Y-144.107
X213.557Y-145.107
X213.557Y-146.107
X214.557Y-56.107
X214.557Y-144.107
X214.557Y-145.107
X214.557Y-146.107
X215.557Y-56.107
X215.557Y-56.107
X215.557Y-99.107
X215.557Y-100.107
X215.557Y-101.107
X215.557Y-102.107
X215.557Y-103.107
X215.557Y-144.107
X215.557Y-145.107
X215.557Y-146.107
X216.557Y-56.107
X216.557Y-74.107
X216.557Y-75.107
X216.557Y-99.107
X216.557Y-99.107
X216.557Y-100.107
X216.557Y-101.107
X216.557Y-102.107
X216.557Y-103.107
X216.557Y-144.107
X216.557Y-145.107
X216.557Y-146.107
X217.557Y-46.107
X217.557Y-47.107
X217.557Y-48.107
X217.557Y-49.107
X217.557Y-50.107
X217.557Y-51.107
X217.557Y-52.107
X217.557Y-53.107
X217.557Y-74.107
X217.557Y-75.107
X217.557Y-99.107
X217.557Y-100.107
X217.557Y-101.107
X217.557Y-102.107
X217.557Y-102.107
X217.557Y-103.107
X217.557Y-103.107
X217.557Y-145.107
X217.557Y-146.107
X217.76Y-85.661
X217.809Y-76.872
X217.833Y-56.905
X217.833Y-65.694
X218.557Y-46.107
X218.557Y-47.107
X218.557Y-48.107
X218.557Y-48.107
X218.557Y-49.107
X218.557Y-50.107
X218.557Y-51.107
X218.557Y-52.107
X218.557Y-53.107
X218.557Y-56.107
X218.557Y-74.107
X218.557Y-75.107
X218.557Y-99.107
X218.557Y-100.107
X218.557Y-101.107
X218.557Y-102.107
X218.557Y-103.107
X219.557Y-46.107
X219.557Y-47.107
X219.557Y-48.107
X219.557Y-49.107
X219.557Y-49.107
X219.557Y-50.107
X219.557Y-51.107
X219.557Y-52.107
X219.557Y-53.107
X219.557Y-56.107
X219.557Y-57.107
X219.557Y-74.107
X219.557Y-75.107
X219.557Y-75.107
X219.557Y-76.107
X219.557Y-77.107
X219.557Y-99.107
X219.557Y-100.107
X219.557Y-101.107
X219.557Y-102.107
X219.557Y-102.107
X219.557Y-103.107
X220.557Y-35.107
X220.557Y-36.107
X220.557Y-46.107
X220.557Y-47.107
X220.557Y-48.107
X220.557Y-49.107
X220.557Y-49.107
X220.557Y-50.107
X220.557Y-51.107
X220.557Y-52.107
X220.557Y-53.107
X220.557Y-74.107
X220.557Y-74.107
X220.557Y-75.107
X220.557Y-76.107
X220.557Y-77.107
X220.557Y-87.107
X220.557Y-88.107
X220.557Y-89.107
X220.557Y-90.107
X220.557Y-91.107
X220.557Y-99.107
X220.557Y-100.107
X220.557Y-100.107
X220.557Y-101.107
X220.557Y-102.107
X220.557Y-103.107
X221.557Y-34.107
X221.557Y-35.107
X221.557Y-36.107
X221.557Y-70.107
X221.557Y-74.107
X221.557Y-75.107
X221.557Y-76.107
X221.557Y-77.107
X221.557Y-77.107
X221.557Y-77.107
X221.557Y-87.107
X221.557Y-88.107
X221.557Y-89.107
X221.557Y-90.107
X221.557Y-91.107
X221.557Y-99.107
X221.557Y-100.107
X221.557Y-101.107
X221.557Y-102.107
X221.557Y-103.107
X222.557Y-36.107
X222.557Y-69.107
X222.557Y-74.107
X222.557Y-75.107
X222.557Y-75.107
X222.557Y-76.107
X222.557Y-77.107
X222.557Y-87.107
X222.557Y-88.107
X222.557Y-89.107
X222.557Y-90.107
X222.557Y-91.107
X222.557Y-99.107
X222.557Y-100.107
X222.557Y-101.107
X222.557Y-101.107
X222.557Y-102.107
X222.557Y-103.107
X223.557Y-46.107
X223.557Y-47.107
X223.557Y-48.107
X223.557Y-49.107
X223.557Y-50.107
X223.557Y-51.107
X223.557Y-52.107
X223.557Y-53.107
X223.557Y-68.107
X223.557Y-75.107
X223.557Y-76.107
X223.557Y-77.107
X223.557Y-87.107
X223.557Y-88.107
X223.557Y-89.107
X223.557Y-90.107
X223.557Y-91.107
X223.557Y-99.107
X223.557Y-99.107
X223.557Y-100.107
X223.557Y-101.107
X223.557Y-102.107
X223.557Y-102.107
X223.557Y-103.107
X224.557Y-46.107
X224.557Y-46.107
X224.557Y-47.107
X224.557Y-48.107
X224.557Y-49.107
X224.557Y-50.107
X224.557Y-51.107
X224.557Y-52.107
X224.557Y-53.107
X224.557Y-53.107
X224.557Y-56.107
X224.557Y-57.107
X224.557Y-58.107
X224.557Y-64.107
X224.557Y-65.107
X224.557Y-66.107
X224.557Y-67.107
X224.557Y-87.107
X224.557Y-88.107
X224.557Y-89.107
X224.557Y-90.107
X224.557Y-91.107
X224.557Y-99.107
X224.557Y-100.107
X224.557Y-101.107
X224.557Y-102.107
X224.557Y-103.107
X224.557Y-103.107
X225.557Y-30.107
X225.557Y-30.107
X225.557Y-31.107
X225.557Y-32.107
X225.557Y-33.107
X225.557Y-34.107
X225.557Y-46.107
X225.557Y-47.107
X225.557Y-48.107
X225.557Y-49.107
X225.557Y-50.107
X225.557Y-50.107
X225.557Y-51.107
X225.557Y-52.107
X225.557Y-53.107
X225.557Y-56.107
X225.557Y-57.107
X225.557Y-58.107
X225.557Y-64.107
X225.557Y-65.107
X225.557Y-66.107
X225.557Y-71.107
X225.557Y-72.107
X225.557Y-87.107
X225.557Y-88.107
X225.557Y-89.107
X225.557Y-90.107
X225.557Y-91.107
X225.557Y-99.107
X225.557Y-100.107
X225.557Y-101.107
X225.557Y-102.107
X225.557Y-103.107
X226.557Y-30.107
X226.557Y-31.107
X226.557Y-32.107
X226.557Y-33.107
X226.557Y-34.107
X226.557Y-46.107
X226.557Y-47.107
X226.557Y-48.107
X226.557Y-49.107
X226.557Y-50.107
X226.557Y-51.107
X226.557Y-52.107
X226.557Y-53.107
X226.557Y-56.107
X226.557Y-57.107
X226.557Y-58.107
X226.557Y-64.107
X226.557Y-64.107
X226.557Y-65.107
X226.557Y-65.107
X226.557Y-70.107
X226.557Y-71.107
X226.557Y-72.107
X226.557Y-73.107
T2
X64.082Y-138.607
X67.08Y-141.334
X76.157Y-154.107
X79.357Y-154.107
X79.557Y-49.857
X79.707Y-81.857
X91.457Y-43.207
X94.957Y-43.207
X107.357Y-46.707
X107.557Y-79.107
X144.557Y-92.707
X148.607Y-33.811
X148.607Y-36.606
X178.367Y-36.578
X181.054Y-36.57
X183.354Y-36.57
X192.277Y-128.107
X194.817Y-128.107
X198.735Y-36.57
X198.735Y-38.111
X198.735Y-39.499
X205.892Y-128.107
X207.523Y-75.385
X208.432Y-128.107
X217.833Y-67.181
X217.902Y-128.107
X220.438Y-128.007
X222.974Y-128.107
X225.502Y-128.115
X225.878Y-40.162
X228.046Y-128.107
X230.582Y-128.107
T3
X90.417Y-63.565
X120.807Y-63.627
X131.057Y-63.607
X136.619Y-98.506
X136.667Y-66.57
X166.844Y-66.57
T4
X203.23Y-111.025
X203.23Y-113.565
X203.23Y-116.105
X212.682Y-111.025
X212.682Y-113.565
X212.682Y-116.105
X222.17Y-111.025
X222.17Y-113.565
X222.17Y-116.105
T5
X73.557Y-144.107
X80.807Y-143.107
X83.807Y-148.357
X92.557Y-102.712
X94.557Y-143.107
X98.557Y-102.712
X99.807Y-140.357
X110.557Y-69.607
X123.269Y-102.712
X128.557Y-60.357
X128.557Y-65.857
X131.39Y-68.145
X158.885Y-76.029
X169.507Y-80.157
X171.077Y-123.627
X185.557Y-83.607
X227.059Y-113.957
T6
X69.613Y-130.681
X69.613Y-133.221
X69.613Y-135.761
X69.653Y-112.126
X69.653Y-114.666
X69.653Y-117.206
X72.153Y-130.681
X72.153Y-133.221
X72.153Y-135.761
X72.193Y-112.126
X72.193Y-114.666
X72.193Y-117.206
X81.365Y-112.111
X81.365Y-114.651
X81.365Y-117.191
X81.405Y-130.556
X81.405Y-133.096
X81.405Y-135.636
X83.905Y-112.111
X83.905Y-114.651
X83.905Y-117.191
X83.945Y-130.556
X83.945Y-133.096
X83.945Y-135.636
X93.158Y-112.126
X93.158Y-114.666
X93.158Y-117.206
X93.158Y-130.556
X93.158Y-133.096
X93.158Y-135.636
X95.698Y-112.126
X95.698Y-114.666
X95.698Y-117.206
X95.698Y-130.556
X95.698Y-133.096
X95.698Y-135.636
X104.91Y-112.126
X104.91Y-114.666
X104.91Y-117.206
X104.91Y-130.556
X104.91Y-133.096
X104.91Y-135.636
X107.45Y-112.126
X107.45Y-114.666
X107.45Y-117.206
X107.45Y-130.556
X107.45Y-133.096
X107.45Y-135.636
X192.277Y-140.843
X194.817Y-140.843
X205.892Y-140.843
X208.432Y-140.843
X217.882Y-140.843
X220.422Y-140.843
X222.962Y-140.843
X225.502Y-140.843
X228.042Y-140.843
X230.582Y-140.843
T7
X72.557Y-30.513
X77.557Y-30.513
X82.557Y-30.513
X87.557Y-30.513
X92.557Y-30.513
X97.557Y-30.513
X116.587Y-149.907
X121.587Y-149.907
X126.587Y-149.907
X131.587Y-149.907
X136.587Y-149.907
X141.587Y-149.907
X151.077Y-149.907
X156.077Y-149.907
X161.077Y-149.907
X166.077Y-149.907
X171.077Y-149.907
X176.077Y-149.907
X186.997Y-30.513
X191.997Y-30.513
X203.371Y-30.513
X208.371Y-30.513
X210.141Y-93.893
X213.371Y-30.513
X215.141Y-93.893
X218.371Y-30.513
X223.371Y-30.513
X228.371Y-30.513
T8
X69.057Y-64.107
X75.557Y-98.107
X80.557Y-46.107
X81.899Y-77.035
X104.057Y-67.907
X126.557Y-128.107
X128.557Y-47.107
X138.557Y-102.307
T9
X65.557Y-35.107
X65.557Y-152.107
X200.557Y-97.107
M30
