%TF.GenerationSoftware,KiCad,Pcbnew,9.0.2*%
%TF.CreationDate,2025-11-09T23:00:08+01:00*%
%TF.ProjectId,rev_power_A,7265765f-706f-4776-9572-5f412e6b6963,A.1.0*%
%TF.SameCoordinates,Original*%
%TF.FileFunction,Glue,Bot*%
%TF.FilePolarity,Positive*%
%FSLAX46Y46*%
G04 Gerber Fmt 4.6, Leading zero omitted, Abs format (unit mm)*
G04 Created by KiCad (PCBNEW 9.0.2) date 2025-11-09 23:00:08*
%MOMM*%
%LPD*%
G01*
G04 APERTURE LIST*
%ADD10C,0.100000*%
%ADD11C,0.150000*%
%ADD12C,0.300000*%
%ADD13C,0.400000*%
G04 APERTURE END LIST*
D10*
D11*
X177002200Y-166007200D02*
X285002200Y-166007200D01*
X285002200Y-198007200D01*
X177002200Y-198007200D01*
X177002200Y-166007200D01*
D10*
D11*
X10000000Y-10000000D02*
X287002200Y-10000000D01*
X287002200Y-200007200D01*
X10000000Y-200007200D01*
X10000000Y-10000000D01*
D10*
D11*
X12000000Y-12000000D02*
X285002200Y-12000000D01*
X285002200Y-198007200D01*
X12000000Y-198007200D01*
X12000000Y-12000000D01*
D10*
D11*
X60000000Y-12000000D02*
X60000000Y-10000000D01*
D10*
D11*
X110000000Y-12000000D02*
X110000000Y-10000000D01*
D10*
D11*
X160000000Y-12000000D02*
X160000000Y-10000000D01*
D10*
D11*
X210000000Y-12000000D02*
X210000000Y-10000000D01*
D10*
D11*
X260000000Y-12000000D02*
X260000000Y-10000000D01*
D10*
D11*
X36089160Y-11593604D02*
X35346303Y-11593604D01*
X35717731Y-11593604D02*
X35717731Y-10293604D01*
X35717731Y-10293604D02*
X35593922Y-10479319D01*
X35593922Y-10479319D02*
X35470112Y-10603128D01*
X35470112Y-10603128D02*
X35346303Y-10665033D01*
D10*
D11*
X85346303Y-10417414D02*
X85408207Y-10355509D01*
X85408207Y-10355509D02*
X85532017Y-10293604D01*
X85532017Y-10293604D02*
X85841541Y-10293604D01*
X85841541Y-10293604D02*
X85965350Y-10355509D01*
X85965350Y-10355509D02*
X86027255Y-10417414D01*
X86027255Y-10417414D02*
X86089160Y-10541223D01*
X86089160Y-10541223D02*
X86089160Y-10665033D01*
X86089160Y-10665033D02*
X86027255Y-10850747D01*
X86027255Y-10850747D02*
X85284398Y-11593604D01*
X85284398Y-11593604D02*
X86089160Y-11593604D01*
D10*
D11*
X135284398Y-10293604D02*
X136089160Y-10293604D01*
X136089160Y-10293604D02*
X135655826Y-10788842D01*
X135655826Y-10788842D02*
X135841541Y-10788842D01*
X135841541Y-10788842D02*
X135965350Y-10850747D01*
X135965350Y-10850747D02*
X136027255Y-10912652D01*
X136027255Y-10912652D02*
X136089160Y-11036461D01*
X136089160Y-11036461D02*
X136089160Y-11345985D01*
X136089160Y-11345985D02*
X136027255Y-11469795D01*
X136027255Y-11469795D02*
X135965350Y-11531700D01*
X135965350Y-11531700D02*
X135841541Y-11593604D01*
X135841541Y-11593604D02*
X135470112Y-11593604D01*
X135470112Y-11593604D02*
X135346303Y-11531700D01*
X135346303Y-11531700D02*
X135284398Y-11469795D01*
D10*
D11*
X185965350Y-10726938D02*
X185965350Y-11593604D01*
X185655826Y-10231700D02*
X185346303Y-11160271D01*
X185346303Y-11160271D02*
X186151064Y-11160271D01*
D10*
D11*
X236027255Y-10293604D02*
X235408207Y-10293604D01*
X235408207Y-10293604D02*
X235346303Y-10912652D01*
X235346303Y-10912652D02*
X235408207Y-10850747D01*
X235408207Y-10850747D02*
X235532017Y-10788842D01*
X235532017Y-10788842D02*
X235841541Y-10788842D01*
X235841541Y-10788842D02*
X235965350Y-10850747D01*
X235965350Y-10850747D02*
X236027255Y-10912652D01*
X236027255Y-10912652D02*
X236089160Y-11036461D01*
X236089160Y-11036461D02*
X236089160Y-11345985D01*
X236089160Y-11345985D02*
X236027255Y-11469795D01*
X236027255Y-11469795D02*
X235965350Y-11531700D01*
X235965350Y-11531700D02*
X235841541Y-11593604D01*
X235841541Y-11593604D02*
X235532017Y-11593604D01*
X235532017Y-11593604D02*
X235408207Y-11531700D01*
X235408207Y-11531700D02*
X235346303Y-11469795D01*
D10*
D11*
X285965350Y-10293604D02*
X285717731Y-10293604D01*
X285717731Y-10293604D02*
X285593922Y-10355509D01*
X285593922Y-10355509D02*
X285532017Y-10417414D01*
X285532017Y-10417414D02*
X285408207Y-10603128D01*
X285408207Y-10603128D02*
X285346303Y-10850747D01*
X285346303Y-10850747D02*
X285346303Y-11345985D01*
X285346303Y-11345985D02*
X285408207Y-11469795D01*
X285408207Y-11469795D02*
X285470112Y-11531700D01*
X285470112Y-11531700D02*
X285593922Y-11593604D01*
X285593922Y-11593604D02*
X285841541Y-11593604D01*
X285841541Y-11593604D02*
X285965350Y-11531700D01*
X285965350Y-11531700D02*
X286027255Y-11469795D01*
X286027255Y-11469795D02*
X286089160Y-11345985D01*
X286089160Y-11345985D02*
X286089160Y-11036461D01*
X286089160Y-11036461D02*
X286027255Y-10912652D01*
X286027255Y-10912652D02*
X285965350Y-10850747D01*
X285965350Y-10850747D02*
X285841541Y-10788842D01*
X285841541Y-10788842D02*
X285593922Y-10788842D01*
X285593922Y-10788842D02*
X285470112Y-10850747D01*
X285470112Y-10850747D02*
X285408207Y-10912652D01*
X285408207Y-10912652D02*
X285346303Y-11036461D01*
D10*
D11*
X60000000Y-198007200D02*
X60000000Y-200007200D01*
D10*
D11*
X110000000Y-198007200D02*
X110000000Y-200007200D01*
D10*
D11*
X160000000Y-198007200D02*
X160000000Y-200007200D01*
D10*
D11*
X210000000Y-198007200D02*
X210000000Y-200007200D01*
D10*
D11*
X260000000Y-198007200D02*
X260000000Y-200007200D01*
D10*
D11*
X36089160Y-199600804D02*
X35346303Y-199600804D01*
X35717731Y-199600804D02*
X35717731Y-198300804D01*
X35717731Y-198300804D02*
X35593922Y-198486519D01*
X35593922Y-198486519D02*
X35470112Y-198610328D01*
X35470112Y-198610328D02*
X35346303Y-198672233D01*
D10*
D11*
X85346303Y-198424614D02*
X85408207Y-198362709D01*
X85408207Y-198362709D02*
X85532017Y-198300804D01*
X85532017Y-198300804D02*
X85841541Y-198300804D01*
X85841541Y-198300804D02*
X85965350Y-198362709D01*
X85965350Y-198362709D02*
X86027255Y-198424614D01*
X86027255Y-198424614D02*
X86089160Y-198548423D01*
X86089160Y-198548423D02*
X86089160Y-198672233D01*
X86089160Y-198672233D02*
X86027255Y-198857947D01*
X86027255Y-198857947D02*
X85284398Y-199600804D01*
X85284398Y-199600804D02*
X86089160Y-199600804D01*
D10*
D11*
X135284398Y-198300804D02*
X136089160Y-198300804D01*
X136089160Y-198300804D02*
X135655826Y-198796042D01*
X135655826Y-198796042D02*
X135841541Y-198796042D01*
X135841541Y-198796042D02*
X135965350Y-198857947D01*
X135965350Y-198857947D02*
X136027255Y-198919852D01*
X136027255Y-198919852D02*
X136089160Y-199043661D01*
X136089160Y-199043661D02*
X136089160Y-199353185D01*
X136089160Y-199353185D02*
X136027255Y-199476995D01*
X136027255Y-199476995D02*
X135965350Y-199538900D01*
X135965350Y-199538900D02*
X135841541Y-199600804D01*
X135841541Y-199600804D02*
X135470112Y-199600804D01*
X135470112Y-199600804D02*
X135346303Y-199538900D01*
X135346303Y-199538900D02*
X135284398Y-199476995D01*
D10*
D11*
X185965350Y-198734138D02*
X185965350Y-199600804D01*
X185655826Y-198238900D02*
X185346303Y-199167471D01*
X185346303Y-199167471D02*
X186151064Y-199167471D01*
D10*
D11*
X236027255Y-198300804D02*
X235408207Y-198300804D01*
X235408207Y-198300804D02*
X235346303Y-198919852D01*
X235346303Y-198919852D02*
X235408207Y-198857947D01*
X235408207Y-198857947D02*
X235532017Y-198796042D01*
X235532017Y-198796042D02*
X235841541Y-198796042D01*
X235841541Y-198796042D02*
X235965350Y-198857947D01*
X235965350Y-198857947D02*
X236027255Y-198919852D01*
X236027255Y-198919852D02*
X236089160Y-199043661D01*
X236089160Y-199043661D02*
X236089160Y-199353185D01*
X236089160Y-199353185D02*
X236027255Y-199476995D01*
X236027255Y-199476995D02*
X235965350Y-199538900D01*
X235965350Y-199538900D02*
X235841541Y-199600804D01*
X235841541Y-199600804D02*
X235532017Y-199600804D01*
X235532017Y-199600804D02*
X235408207Y-199538900D01*
X235408207Y-199538900D02*
X235346303Y-199476995D01*
D10*
D11*
X285965350Y-198300804D02*
X285717731Y-198300804D01*
X285717731Y-198300804D02*
X285593922Y-198362709D01*
X285593922Y-198362709D02*
X285532017Y-198424614D01*
X285532017Y-198424614D02*
X285408207Y-198610328D01*
X285408207Y-198610328D02*
X285346303Y-198857947D01*
X285346303Y-198857947D02*
X285346303Y-199353185D01*
X285346303Y-199353185D02*
X285408207Y-199476995D01*
X285408207Y-199476995D02*
X285470112Y-199538900D01*
X285470112Y-199538900D02*
X285593922Y-199600804D01*
X285593922Y-199600804D02*
X285841541Y-199600804D01*
X285841541Y-199600804D02*
X285965350Y-199538900D01*
X285965350Y-199538900D02*
X286027255Y-199476995D01*
X286027255Y-199476995D02*
X286089160Y-199353185D01*
X286089160Y-199353185D02*
X286089160Y-199043661D01*
X286089160Y-199043661D02*
X286027255Y-198919852D01*
X286027255Y-198919852D02*
X285965350Y-198857947D01*
X285965350Y-198857947D02*
X285841541Y-198796042D01*
X285841541Y-198796042D02*
X285593922Y-198796042D01*
X285593922Y-198796042D02*
X285470112Y-198857947D01*
X285470112Y-198857947D02*
X285408207Y-198919852D01*
X285408207Y-198919852D02*
X285346303Y-199043661D01*
D10*
D11*
X10000000Y-60000000D02*
X12000000Y-60000000D01*
D10*
D11*
X10000000Y-110000000D02*
X12000000Y-110000000D01*
D10*
D11*
X10000000Y-160000000D02*
X12000000Y-160000000D01*
D10*
D11*
X10690476Y-35222176D02*
X11309523Y-35222176D01*
X10566666Y-35593604D02*
X10999999Y-34293604D01*
X10999999Y-34293604D02*
X11433333Y-35593604D01*
D10*
D11*
X11092857Y-84912652D02*
X11278571Y-84974557D01*
X11278571Y-84974557D02*
X11340476Y-85036461D01*
X11340476Y-85036461D02*
X11402380Y-85160271D01*
X11402380Y-85160271D02*
X11402380Y-85345985D01*
X11402380Y-85345985D02*
X11340476Y-85469795D01*
X11340476Y-85469795D02*
X11278571Y-85531700D01*
X11278571Y-85531700D02*
X11154761Y-85593604D01*
X11154761Y-85593604D02*
X10659523Y-85593604D01*
X10659523Y-85593604D02*
X10659523Y-84293604D01*
X10659523Y-84293604D02*
X11092857Y-84293604D01*
X11092857Y-84293604D02*
X11216666Y-84355509D01*
X11216666Y-84355509D02*
X11278571Y-84417414D01*
X11278571Y-84417414D02*
X11340476Y-84541223D01*
X11340476Y-84541223D02*
X11340476Y-84665033D01*
X11340476Y-84665033D02*
X11278571Y-84788842D01*
X11278571Y-84788842D02*
X11216666Y-84850747D01*
X11216666Y-84850747D02*
X11092857Y-84912652D01*
X11092857Y-84912652D02*
X10659523Y-84912652D01*
D10*
D11*
X11402380Y-135469795D02*
X11340476Y-135531700D01*
X11340476Y-135531700D02*
X11154761Y-135593604D01*
X11154761Y-135593604D02*
X11030952Y-135593604D01*
X11030952Y-135593604D02*
X10845238Y-135531700D01*
X10845238Y-135531700D02*
X10721428Y-135407890D01*
X10721428Y-135407890D02*
X10659523Y-135284080D01*
X10659523Y-135284080D02*
X10597619Y-135036461D01*
X10597619Y-135036461D02*
X10597619Y-134850747D01*
X10597619Y-134850747D02*
X10659523Y-134603128D01*
X10659523Y-134603128D02*
X10721428Y-134479319D01*
X10721428Y-134479319D02*
X10845238Y-134355509D01*
X10845238Y-134355509D02*
X11030952Y-134293604D01*
X11030952Y-134293604D02*
X11154761Y-134293604D01*
X11154761Y-134293604D02*
X11340476Y-134355509D01*
X11340476Y-134355509D02*
X11402380Y-134417414D01*
D10*
D11*
X10659523Y-185593604D02*
X10659523Y-184293604D01*
X10659523Y-184293604D02*
X10969047Y-184293604D01*
X10969047Y-184293604D02*
X11154761Y-184355509D01*
X11154761Y-184355509D02*
X11278571Y-184479319D01*
X11278571Y-184479319D02*
X11340476Y-184603128D01*
X11340476Y-184603128D02*
X11402380Y-184850747D01*
X11402380Y-184850747D02*
X11402380Y-185036461D01*
X11402380Y-185036461D02*
X11340476Y-185284080D01*
X11340476Y-185284080D02*
X11278571Y-185407890D01*
X11278571Y-185407890D02*
X11154761Y-185531700D01*
X11154761Y-185531700D02*
X10969047Y-185593604D01*
X10969047Y-185593604D02*
X10659523Y-185593604D01*
D10*
D11*
X287002200Y-60000000D02*
X285002200Y-60000000D01*
D10*
D11*
X287002200Y-110000000D02*
X285002200Y-110000000D01*
D10*
D11*
X287002200Y-160000000D02*
X285002200Y-160000000D01*
D10*
D11*
X285692676Y-35222176D02*
X286311723Y-35222176D01*
X285568866Y-35593604D02*
X286002199Y-34293604D01*
X286002199Y-34293604D02*
X286435533Y-35593604D01*
D10*
D11*
X286095057Y-84912652D02*
X286280771Y-84974557D01*
X286280771Y-84974557D02*
X286342676Y-85036461D01*
X286342676Y-85036461D02*
X286404580Y-85160271D01*
X286404580Y-85160271D02*
X286404580Y-85345985D01*
X286404580Y-85345985D02*
X286342676Y-85469795D01*
X286342676Y-85469795D02*
X286280771Y-85531700D01*
X286280771Y-85531700D02*
X286156961Y-85593604D01*
X286156961Y-85593604D02*
X285661723Y-85593604D01*
X285661723Y-85593604D02*
X285661723Y-84293604D01*
X285661723Y-84293604D02*
X286095057Y-84293604D01*
X286095057Y-84293604D02*
X286218866Y-84355509D01*
X286218866Y-84355509D02*
X286280771Y-84417414D01*
X286280771Y-84417414D02*
X286342676Y-84541223D01*
X286342676Y-84541223D02*
X286342676Y-84665033D01*
X286342676Y-84665033D02*
X286280771Y-84788842D01*
X286280771Y-84788842D02*
X286218866Y-84850747D01*
X286218866Y-84850747D02*
X286095057Y-84912652D01*
X286095057Y-84912652D02*
X285661723Y-84912652D01*
D10*
D11*
X286404580Y-135469795D02*
X286342676Y-135531700D01*
X286342676Y-135531700D02*
X286156961Y-135593604D01*
X286156961Y-135593604D02*
X286033152Y-135593604D01*
X286033152Y-135593604D02*
X285847438Y-135531700D01*
X285847438Y-135531700D02*
X285723628Y-135407890D01*
X285723628Y-135407890D02*
X285661723Y-135284080D01*
X285661723Y-135284080D02*
X285599819Y-135036461D01*
X285599819Y-135036461D02*
X285599819Y-134850747D01*
X285599819Y-134850747D02*
X285661723Y-134603128D01*
X285661723Y-134603128D02*
X285723628Y-134479319D01*
X285723628Y-134479319D02*
X285847438Y-134355509D01*
X285847438Y-134355509D02*
X286033152Y-134293604D01*
X286033152Y-134293604D02*
X286156961Y-134293604D01*
X286156961Y-134293604D02*
X286342676Y-134355509D01*
X286342676Y-134355509D02*
X286404580Y-134417414D01*
D10*
D11*
X285661723Y-185593604D02*
X285661723Y-184293604D01*
X285661723Y-184293604D02*
X285971247Y-184293604D01*
X285971247Y-184293604D02*
X286156961Y-184355509D01*
X286156961Y-184355509D02*
X286280771Y-184479319D01*
X286280771Y-184479319D02*
X286342676Y-184603128D01*
X286342676Y-184603128D02*
X286404580Y-184850747D01*
X286404580Y-184850747D02*
X286404580Y-185036461D01*
X286404580Y-185036461D02*
X286342676Y-185284080D01*
X286342676Y-185284080D02*
X286280771Y-185407890D01*
X286280771Y-185407890D02*
X286156961Y-185531700D01*
X286156961Y-185531700D02*
X285971247Y-185593604D01*
X285971247Y-185593604D02*
X285661723Y-185593604D01*
D10*
D11*
X200458026Y-193793328D02*
X200458026Y-192293328D01*
X200458026Y-192293328D02*
X200815169Y-192293328D01*
X200815169Y-192293328D02*
X201029455Y-192364757D01*
X201029455Y-192364757D02*
X201172312Y-192507614D01*
X201172312Y-192507614D02*
X201243741Y-192650471D01*
X201243741Y-192650471D02*
X201315169Y-192936185D01*
X201315169Y-192936185D02*
X201315169Y-193150471D01*
X201315169Y-193150471D02*
X201243741Y-193436185D01*
X201243741Y-193436185D02*
X201172312Y-193579042D01*
X201172312Y-193579042D02*
X201029455Y-193721900D01*
X201029455Y-193721900D02*
X200815169Y-193793328D01*
X200815169Y-193793328D02*
X200458026Y-193793328D01*
X202600884Y-193793328D02*
X202600884Y-193007614D01*
X202600884Y-193007614D02*
X202529455Y-192864757D01*
X202529455Y-192864757D02*
X202386598Y-192793328D01*
X202386598Y-192793328D02*
X202100884Y-192793328D01*
X202100884Y-192793328D02*
X201958026Y-192864757D01*
X202600884Y-193721900D02*
X202458026Y-193793328D01*
X202458026Y-193793328D02*
X202100884Y-193793328D01*
X202100884Y-193793328D02*
X201958026Y-193721900D01*
X201958026Y-193721900D02*
X201886598Y-193579042D01*
X201886598Y-193579042D02*
X201886598Y-193436185D01*
X201886598Y-193436185D02*
X201958026Y-193293328D01*
X201958026Y-193293328D02*
X202100884Y-193221900D01*
X202100884Y-193221900D02*
X202458026Y-193221900D01*
X202458026Y-193221900D02*
X202600884Y-193150471D01*
X203100884Y-192793328D02*
X203672312Y-192793328D01*
X203315169Y-192293328D02*
X203315169Y-193579042D01*
X203315169Y-193579042D02*
X203386598Y-193721900D01*
X203386598Y-193721900D02*
X203529455Y-193793328D01*
X203529455Y-193793328D02*
X203672312Y-193793328D01*
X204743741Y-193721900D02*
X204600884Y-193793328D01*
X204600884Y-193793328D02*
X204315170Y-193793328D01*
X204315170Y-193793328D02*
X204172312Y-193721900D01*
X204172312Y-193721900D02*
X204100884Y-193579042D01*
X204100884Y-193579042D02*
X204100884Y-193007614D01*
X204100884Y-193007614D02*
X204172312Y-192864757D01*
X204172312Y-192864757D02*
X204315170Y-192793328D01*
X204315170Y-192793328D02*
X204600884Y-192793328D01*
X204600884Y-192793328D02*
X204743741Y-192864757D01*
X204743741Y-192864757D02*
X204815170Y-193007614D01*
X204815170Y-193007614D02*
X204815170Y-193150471D01*
X204815170Y-193150471D02*
X204100884Y-193293328D01*
X205458026Y-193650471D02*
X205529455Y-193721900D01*
X205529455Y-193721900D02*
X205458026Y-193793328D01*
X205458026Y-193793328D02*
X205386598Y-193721900D01*
X205386598Y-193721900D02*
X205458026Y-193650471D01*
X205458026Y-193650471D02*
X205458026Y-193793328D01*
X205458026Y-192864757D02*
X205529455Y-192936185D01*
X205529455Y-192936185D02*
X205458026Y-193007614D01*
X205458026Y-193007614D02*
X205386598Y-192936185D01*
X205386598Y-192936185D02*
X205458026Y-192864757D01*
X205458026Y-192864757D02*
X205458026Y-193007614D01*
X207172312Y-192293328D02*
X208100884Y-192293328D01*
X208100884Y-192293328D02*
X207600884Y-192864757D01*
X207600884Y-192864757D02*
X207815169Y-192864757D01*
X207815169Y-192864757D02*
X207958027Y-192936185D01*
X207958027Y-192936185D02*
X208029455Y-193007614D01*
X208029455Y-193007614D02*
X208100884Y-193150471D01*
X208100884Y-193150471D02*
X208100884Y-193507614D01*
X208100884Y-193507614D02*
X208029455Y-193650471D01*
X208029455Y-193650471D02*
X207958027Y-193721900D01*
X207958027Y-193721900D02*
X207815169Y-193793328D01*
X207815169Y-193793328D02*
X207386598Y-193793328D01*
X207386598Y-193793328D02*
X207243741Y-193721900D01*
X207243741Y-193721900D02*
X207172312Y-193650471D01*
X209029455Y-192293328D02*
X209172312Y-192293328D01*
X209172312Y-192293328D02*
X209315169Y-192364757D01*
X209315169Y-192364757D02*
X209386598Y-192436185D01*
X209386598Y-192436185D02*
X209458026Y-192579042D01*
X209458026Y-192579042D02*
X209529455Y-192864757D01*
X209529455Y-192864757D02*
X209529455Y-193221900D01*
X209529455Y-193221900D02*
X209458026Y-193507614D01*
X209458026Y-193507614D02*
X209386598Y-193650471D01*
X209386598Y-193650471D02*
X209315169Y-193721900D01*
X209315169Y-193721900D02*
X209172312Y-193793328D01*
X209172312Y-193793328D02*
X209029455Y-193793328D01*
X209029455Y-193793328D02*
X208886598Y-193721900D01*
X208886598Y-193721900D02*
X208815169Y-193650471D01*
X208815169Y-193650471D02*
X208743740Y-193507614D01*
X208743740Y-193507614D02*
X208672312Y-193221900D01*
X208672312Y-193221900D02*
X208672312Y-192864757D01*
X208672312Y-192864757D02*
X208743740Y-192579042D01*
X208743740Y-192579042D02*
X208815169Y-192436185D01*
X208815169Y-192436185D02*
X208886598Y-192364757D01*
X208886598Y-192364757D02*
X209029455Y-192293328D01*
X211243740Y-192221900D02*
X209958026Y-194150471D01*
X212029455Y-192293328D02*
X212172312Y-192293328D01*
X212172312Y-192293328D02*
X212315169Y-192364757D01*
X212315169Y-192364757D02*
X212386598Y-192436185D01*
X212386598Y-192436185D02*
X212458026Y-192579042D01*
X212458026Y-192579042D02*
X212529455Y-192864757D01*
X212529455Y-192864757D02*
X212529455Y-193221900D01*
X212529455Y-193221900D02*
X212458026Y-193507614D01*
X212458026Y-193507614D02*
X212386598Y-193650471D01*
X212386598Y-193650471D02*
X212315169Y-193721900D01*
X212315169Y-193721900D02*
X212172312Y-193793328D01*
X212172312Y-193793328D02*
X212029455Y-193793328D01*
X212029455Y-193793328D02*
X211886598Y-193721900D01*
X211886598Y-193721900D02*
X211815169Y-193650471D01*
X211815169Y-193650471D02*
X211743740Y-193507614D01*
X211743740Y-193507614D02*
X211672312Y-193221900D01*
X211672312Y-193221900D02*
X211672312Y-192864757D01*
X211672312Y-192864757D02*
X211743740Y-192579042D01*
X211743740Y-192579042D02*
X211815169Y-192436185D01*
X211815169Y-192436185D02*
X211886598Y-192364757D01*
X211886598Y-192364757D02*
X212029455Y-192293328D01*
X213815169Y-192793328D02*
X213815169Y-193793328D01*
X213458026Y-192221900D02*
X213100883Y-193293328D01*
X213100883Y-193293328D02*
X214029454Y-193293328D01*
X215672311Y-192221900D02*
X214386597Y-194150471D01*
X216100883Y-192436185D02*
X216172311Y-192364757D01*
X216172311Y-192364757D02*
X216315169Y-192293328D01*
X216315169Y-192293328D02*
X216672311Y-192293328D01*
X216672311Y-192293328D02*
X216815169Y-192364757D01*
X216815169Y-192364757D02*
X216886597Y-192436185D01*
X216886597Y-192436185D02*
X216958026Y-192579042D01*
X216958026Y-192579042D02*
X216958026Y-192721900D01*
X216958026Y-192721900D02*
X216886597Y-192936185D01*
X216886597Y-192936185D02*
X216029454Y-193793328D01*
X216029454Y-193793328D02*
X216958026Y-193793328D01*
X217886597Y-192293328D02*
X218029454Y-192293328D01*
X218029454Y-192293328D02*
X218172311Y-192364757D01*
X218172311Y-192364757D02*
X218243740Y-192436185D01*
X218243740Y-192436185D02*
X218315168Y-192579042D01*
X218315168Y-192579042D02*
X218386597Y-192864757D01*
X218386597Y-192864757D02*
X218386597Y-193221900D01*
X218386597Y-193221900D02*
X218315168Y-193507614D01*
X218315168Y-193507614D02*
X218243740Y-193650471D01*
X218243740Y-193650471D02*
X218172311Y-193721900D01*
X218172311Y-193721900D02*
X218029454Y-193793328D01*
X218029454Y-193793328D02*
X217886597Y-193793328D01*
X217886597Y-193793328D02*
X217743740Y-193721900D01*
X217743740Y-193721900D02*
X217672311Y-193650471D01*
X217672311Y-193650471D02*
X217600882Y-193507614D01*
X217600882Y-193507614D02*
X217529454Y-193221900D01*
X217529454Y-193221900D02*
X217529454Y-192864757D01*
X217529454Y-192864757D02*
X217600882Y-192579042D01*
X217600882Y-192579042D02*
X217672311Y-192436185D01*
X217672311Y-192436185D02*
X217743740Y-192364757D01*
X217743740Y-192364757D02*
X217886597Y-192293328D01*
X218958025Y-192436185D02*
X219029453Y-192364757D01*
X219029453Y-192364757D02*
X219172311Y-192293328D01*
X219172311Y-192293328D02*
X219529453Y-192293328D01*
X219529453Y-192293328D02*
X219672311Y-192364757D01*
X219672311Y-192364757D02*
X219743739Y-192436185D01*
X219743739Y-192436185D02*
X219815168Y-192579042D01*
X219815168Y-192579042D02*
X219815168Y-192721900D01*
X219815168Y-192721900D02*
X219743739Y-192936185D01*
X219743739Y-192936185D02*
X218886596Y-193793328D01*
X218886596Y-193793328D02*
X219815168Y-193793328D01*
X221172310Y-192293328D02*
X220458024Y-192293328D01*
X220458024Y-192293328D02*
X220386596Y-193007614D01*
X220386596Y-193007614D02*
X220458024Y-192936185D01*
X220458024Y-192936185D02*
X220600882Y-192864757D01*
X220600882Y-192864757D02*
X220958024Y-192864757D01*
X220958024Y-192864757D02*
X221100882Y-192936185D01*
X221100882Y-192936185D02*
X221172310Y-193007614D01*
X221172310Y-193007614D02*
X221243739Y-193150471D01*
X221243739Y-193150471D02*
X221243739Y-193507614D01*
X221243739Y-193507614D02*
X221172310Y-193650471D01*
X221172310Y-193650471D02*
X221100882Y-193721900D01*
X221100882Y-193721900D02*
X220958024Y-193793328D01*
X220958024Y-193793328D02*
X220600882Y-193793328D01*
X220600882Y-193793328D02*
X220458024Y-193721900D01*
X220458024Y-193721900D02*
X220386596Y-193650471D01*
D10*
D11*
X177002200Y-194507200D02*
X285002200Y-194507200D01*
D10*
D11*
X178458026Y-196593328D02*
X178458026Y-195093328D01*
X179315169Y-196593328D02*
X178672312Y-195736185D01*
X179315169Y-195093328D02*
X178458026Y-195950471D01*
X179958026Y-196593328D02*
X179958026Y-195593328D01*
X179958026Y-195093328D02*
X179886598Y-195164757D01*
X179886598Y-195164757D02*
X179958026Y-195236185D01*
X179958026Y-195236185D02*
X180029455Y-195164757D01*
X180029455Y-195164757D02*
X179958026Y-195093328D01*
X179958026Y-195093328D02*
X179958026Y-195236185D01*
X181529455Y-196450471D02*
X181458027Y-196521900D01*
X181458027Y-196521900D02*
X181243741Y-196593328D01*
X181243741Y-196593328D02*
X181100884Y-196593328D01*
X181100884Y-196593328D02*
X180886598Y-196521900D01*
X180886598Y-196521900D02*
X180743741Y-196379042D01*
X180743741Y-196379042D02*
X180672312Y-196236185D01*
X180672312Y-196236185D02*
X180600884Y-195950471D01*
X180600884Y-195950471D02*
X180600884Y-195736185D01*
X180600884Y-195736185D02*
X180672312Y-195450471D01*
X180672312Y-195450471D02*
X180743741Y-195307614D01*
X180743741Y-195307614D02*
X180886598Y-195164757D01*
X180886598Y-195164757D02*
X181100884Y-195093328D01*
X181100884Y-195093328D02*
X181243741Y-195093328D01*
X181243741Y-195093328D02*
X181458027Y-195164757D01*
X181458027Y-195164757D02*
X181529455Y-195236185D01*
X182815170Y-196593328D02*
X182815170Y-195807614D01*
X182815170Y-195807614D02*
X182743741Y-195664757D01*
X182743741Y-195664757D02*
X182600884Y-195593328D01*
X182600884Y-195593328D02*
X182315170Y-195593328D01*
X182315170Y-195593328D02*
X182172312Y-195664757D01*
X182815170Y-196521900D02*
X182672312Y-196593328D01*
X182672312Y-196593328D02*
X182315170Y-196593328D01*
X182315170Y-196593328D02*
X182172312Y-196521900D01*
X182172312Y-196521900D02*
X182100884Y-196379042D01*
X182100884Y-196379042D02*
X182100884Y-196236185D01*
X182100884Y-196236185D02*
X182172312Y-196093328D01*
X182172312Y-196093328D02*
X182315170Y-196021900D01*
X182315170Y-196021900D02*
X182672312Y-196021900D01*
X182672312Y-196021900D02*
X182815170Y-195950471D01*
X184172313Y-196593328D02*
X184172313Y-195093328D01*
X184172313Y-196521900D02*
X184029455Y-196593328D01*
X184029455Y-196593328D02*
X183743741Y-196593328D01*
X183743741Y-196593328D02*
X183600884Y-196521900D01*
X183600884Y-196521900D02*
X183529455Y-196450471D01*
X183529455Y-196450471D02*
X183458027Y-196307614D01*
X183458027Y-196307614D02*
X183458027Y-195879042D01*
X183458027Y-195879042D02*
X183529455Y-195736185D01*
X183529455Y-195736185D02*
X183600884Y-195664757D01*
X183600884Y-195664757D02*
X183743741Y-195593328D01*
X183743741Y-195593328D02*
X184029455Y-195593328D01*
X184029455Y-195593328D02*
X184172313Y-195664757D01*
X186029455Y-195807614D02*
X186529455Y-195807614D01*
X186743741Y-196593328D02*
X186029455Y-196593328D01*
X186029455Y-196593328D02*
X186029455Y-195093328D01*
X186029455Y-195093328D02*
X186743741Y-195093328D01*
X187386598Y-196450471D02*
X187458027Y-196521900D01*
X187458027Y-196521900D02*
X187386598Y-196593328D01*
X187386598Y-196593328D02*
X187315170Y-196521900D01*
X187315170Y-196521900D02*
X187386598Y-196450471D01*
X187386598Y-196450471D02*
X187386598Y-196593328D01*
X188100884Y-196593328D02*
X188100884Y-195093328D01*
X188100884Y-195093328D02*
X188458027Y-195093328D01*
X188458027Y-195093328D02*
X188672313Y-195164757D01*
X188672313Y-195164757D02*
X188815170Y-195307614D01*
X188815170Y-195307614D02*
X188886599Y-195450471D01*
X188886599Y-195450471D02*
X188958027Y-195736185D01*
X188958027Y-195736185D02*
X188958027Y-195950471D01*
X188958027Y-195950471D02*
X188886599Y-196236185D01*
X188886599Y-196236185D02*
X188815170Y-196379042D01*
X188815170Y-196379042D02*
X188672313Y-196521900D01*
X188672313Y-196521900D02*
X188458027Y-196593328D01*
X188458027Y-196593328D02*
X188100884Y-196593328D01*
X189600884Y-196450471D02*
X189672313Y-196521900D01*
X189672313Y-196521900D02*
X189600884Y-196593328D01*
X189600884Y-196593328D02*
X189529456Y-196521900D01*
X189529456Y-196521900D02*
X189600884Y-196450471D01*
X189600884Y-196450471D02*
X189600884Y-196593328D01*
X190243742Y-196164757D02*
X190958028Y-196164757D01*
X190100885Y-196593328D02*
X190600885Y-195093328D01*
X190600885Y-195093328D02*
X191100885Y-196593328D01*
X191600884Y-196450471D02*
X191672313Y-196521900D01*
X191672313Y-196521900D02*
X191600884Y-196593328D01*
X191600884Y-196593328D02*
X191529456Y-196521900D01*
X191529456Y-196521900D02*
X191600884Y-196450471D01*
X191600884Y-196450471D02*
X191600884Y-196593328D01*
X193529456Y-196593328D02*
X193815170Y-196593328D01*
X193815170Y-196593328D02*
X193958027Y-196521900D01*
X193958027Y-196521900D02*
X194029456Y-196450471D01*
X194029456Y-196450471D02*
X194172313Y-196236185D01*
X194172313Y-196236185D02*
X194243742Y-195950471D01*
X194243742Y-195950471D02*
X194243742Y-195379042D01*
X194243742Y-195379042D02*
X194172313Y-195236185D01*
X194172313Y-195236185D02*
X194100885Y-195164757D01*
X194100885Y-195164757D02*
X193958027Y-195093328D01*
X193958027Y-195093328D02*
X193672313Y-195093328D01*
X193672313Y-195093328D02*
X193529456Y-195164757D01*
X193529456Y-195164757D02*
X193458027Y-195236185D01*
X193458027Y-195236185D02*
X193386599Y-195379042D01*
X193386599Y-195379042D02*
X193386599Y-195736185D01*
X193386599Y-195736185D02*
X193458027Y-195879042D01*
X193458027Y-195879042D02*
X193529456Y-195950471D01*
X193529456Y-195950471D02*
X193672313Y-196021900D01*
X193672313Y-196021900D02*
X193958027Y-196021900D01*
X193958027Y-196021900D02*
X194100885Y-195950471D01*
X194100885Y-195950471D02*
X194172313Y-195879042D01*
X194172313Y-195879042D02*
X194243742Y-195736185D01*
X194886598Y-196450471D02*
X194958027Y-196521900D01*
X194958027Y-196521900D02*
X194886598Y-196593328D01*
X194886598Y-196593328D02*
X194815170Y-196521900D01*
X194815170Y-196521900D02*
X194886598Y-196450471D01*
X194886598Y-196450471D02*
X194886598Y-196593328D01*
X195886599Y-195093328D02*
X196029456Y-195093328D01*
X196029456Y-195093328D02*
X196172313Y-195164757D01*
X196172313Y-195164757D02*
X196243742Y-195236185D01*
X196243742Y-195236185D02*
X196315170Y-195379042D01*
X196315170Y-195379042D02*
X196386599Y-195664757D01*
X196386599Y-195664757D02*
X196386599Y-196021900D01*
X196386599Y-196021900D02*
X196315170Y-196307614D01*
X196315170Y-196307614D02*
X196243742Y-196450471D01*
X196243742Y-196450471D02*
X196172313Y-196521900D01*
X196172313Y-196521900D02*
X196029456Y-196593328D01*
X196029456Y-196593328D02*
X195886599Y-196593328D01*
X195886599Y-196593328D02*
X195743742Y-196521900D01*
X195743742Y-196521900D02*
X195672313Y-196450471D01*
X195672313Y-196450471D02*
X195600884Y-196307614D01*
X195600884Y-196307614D02*
X195529456Y-196021900D01*
X195529456Y-196021900D02*
X195529456Y-195664757D01*
X195529456Y-195664757D02*
X195600884Y-195379042D01*
X195600884Y-195379042D02*
X195672313Y-195236185D01*
X195672313Y-195236185D02*
X195743742Y-195164757D01*
X195743742Y-195164757D02*
X195886599Y-195093328D01*
X197029455Y-196450471D02*
X197100884Y-196521900D01*
X197100884Y-196521900D02*
X197029455Y-196593328D01*
X197029455Y-196593328D02*
X196958027Y-196521900D01*
X196958027Y-196521900D02*
X197029455Y-196450471D01*
X197029455Y-196450471D02*
X197029455Y-196593328D01*
X197672313Y-195236185D02*
X197743741Y-195164757D01*
X197743741Y-195164757D02*
X197886599Y-195093328D01*
X197886599Y-195093328D02*
X198243741Y-195093328D01*
X198243741Y-195093328D02*
X198386599Y-195164757D01*
X198386599Y-195164757D02*
X198458027Y-195236185D01*
X198458027Y-195236185D02*
X198529456Y-195379042D01*
X198529456Y-195379042D02*
X198529456Y-195521900D01*
X198529456Y-195521900D02*
X198458027Y-195736185D01*
X198458027Y-195736185D02*
X197600884Y-196593328D01*
X197600884Y-196593328D02*
X198529456Y-196593328D01*
D10*
D11*
X177002200Y-191507200D02*
X285002200Y-191507200D01*
D10*
D12*
X264413853Y-193785528D02*
X263913853Y-193071242D01*
X263556710Y-193785528D02*
X263556710Y-192285528D01*
X263556710Y-192285528D02*
X264128139Y-192285528D01*
X264128139Y-192285528D02*
X264270996Y-192356957D01*
X264270996Y-192356957D02*
X264342425Y-192428385D01*
X264342425Y-192428385D02*
X264413853Y-192571242D01*
X264413853Y-192571242D02*
X264413853Y-192785528D01*
X264413853Y-192785528D02*
X264342425Y-192928385D01*
X264342425Y-192928385D02*
X264270996Y-192999814D01*
X264270996Y-192999814D02*
X264128139Y-193071242D01*
X264128139Y-193071242D02*
X263556710Y-193071242D01*
X265628139Y-193714100D02*
X265485282Y-193785528D01*
X265485282Y-193785528D02*
X265199568Y-193785528D01*
X265199568Y-193785528D02*
X265056710Y-193714100D01*
X265056710Y-193714100D02*
X264985282Y-193571242D01*
X264985282Y-193571242D02*
X264985282Y-192999814D01*
X264985282Y-192999814D02*
X265056710Y-192856957D01*
X265056710Y-192856957D02*
X265199568Y-192785528D01*
X265199568Y-192785528D02*
X265485282Y-192785528D01*
X265485282Y-192785528D02*
X265628139Y-192856957D01*
X265628139Y-192856957D02*
X265699568Y-192999814D01*
X265699568Y-192999814D02*
X265699568Y-193142671D01*
X265699568Y-193142671D02*
X264985282Y-193285528D01*
X266199567Y-192785528D02*
X266556710Y-193785528D01*
X266556710Y-193785528D02*
X266913853Y-192785528D01*
X267485281Y-193642671D02*
X267556710Y-193714100D01*
X267556710Y-193714100D02*
X267485281Y-193785528D01*
X267485281Y-193785528D02*
X267413853Y-193714100D01*
X267413853Y-193714100D02*
X267485281Y-193642671D01*
X267485281Y-193642671D02*
X267485281Y-193785528D01*
X267485281Y-192856957D02*
X267556710Y-192928385D01*
X267556710Y-192928385D02*
X267485281Y-192999814D01*
X267485281Y-192999814D02*
X267413853Y-192928385D01*
X267413853Y-192928385D02*
X267485281Y-192856957D01*
X267485281Y-192856957D02*
X267485281Y-192999814D01*
X269270996Y-193356957D02*
X269985282Y-193356957D01*
X269128139Y-193785528D02*
X269628139Y-192285528D01*
X269628139Y-192285528D02*
X270128139Y-193785528D01*
X270628138Y-193642671D02*
X270699567Y-193714100D01*
X270699567Y-193714100D02*
X270628138Y-193785528D01*
X270628138Y-193785528D02*
X270556710Y-193714100D01*
X270556710Y-193714100D02*
X270628138Y-193642671D01*
X270628138Y-193642671D02*
X270628138Y-193785528D01*
X272128139Y-193785528D02*
X271270996Y-193785528D01*
X271699567Y-193785528D02*
X271699567Y-192285528D01*
X271699567Y-192285528D02*
X271556710Y-192499814D01*
X271556710Y-192499814D02*
X271413853Y-192642671D01*
X271413853Y-192642671D02*
X271270996Y-192714100D01*
X272770995Y-193642671D02*
X272842424Y-193714100D01*
X272842424Y-193714100D02*
X272770995Y-193785528D01*
X272770995Y-193785528D02*
X272699567Y-193714100D01*
X272699567Y-193714100D02*
X272770995Y-193642671D01*
X272770995Y-193642671D02*
X272770995Y-193785528D01*
X273770996Y-192285528D02*
X273913853Y-192285528D01*
X273913853Y-192285528D02*
X274056710Y-192356957D01*
X274056710Y-192356957D02*
X274128139Y-192428385D01*
X274128139Y-192428385D02*
X274199567Y-192571242D01*
X274199567Y-192571242D02*
X274270996Y-192856957D01*
X274270996Y-192856957D02*
X274270996Y-193214100D01*
X274270996Y-193214100D02*
X274199567Y-193499814D01*
X274199567Y-193499814D02*
X274128139Y-193642671D01*
X274128139Y-193642671D02*
X274056710Y-193714100D01*
X274056710Y-193714100D02*
X273913853Y-193785528D01*
X273913853Y-193785528D02*
X273770996Y-193785528D01*
X273770996Y-193785528D02*
X273628139Y-193714100D01*
X273628139Y-193714100D02*
X273556710Y-193642671D01*
X273556710Y-193642671D02*
X273485281Y-193499814D01*
X273485281Y-193499814D02*
X273413853Y-193214100D01*
X273413853Y-193214100D02*
X273413853Y-192856957D01*
X273413853Y-192856957D02*
X273485281Y-192571242D01*
X273485281Y-192571242D02*
X273556710Y-192428385D01*
X273556710Y-192428385D02*
X273628139Y-192356957D01*
X273628139Y-192356957D02*
X273770996Y-192285528D01*
D10*
D11*
X178386598Y-193721900D02*
X178600884Y-193793328D01*
X178600884Y-193793328D02*
X178958026Y-193793328D01*
X178958026Y-193793328D02*
X179100884Y-193721900D01*
X179100884Y-193721900D02*
X179172312Y-193650471D01*
X179172312Y-193650471D02*
X179243741Y-193507614D01*
X179243741Y-193507614D02*
X179243741Y-193364757D01*
X179243741Y-193364757D02*
X179172312Y-193221900D01*
X179172312Y-193221900D02*
X179100884Y-193150471D01*
X179100884Y-193150471D02*
X178958026Y-193079042D01*
X178958026Y-193079042D02*
X178672312Y-193007614D01*
X178672312Y-193007614D02*
X178529455Y-192936185D01*
X178529455Y-192936185D02*
X178458026Y-192864757D01*
X178458026Y-192864757D02*
X178386598Y-192721900D01*
X178386598Y-192721900D02*
X178386598Y-192579042D01*
X178386598Y-192579042D02*
X178458026Y-192436185D01*
X178458026Y-192436185D02*
X178529455Y-192364757D01*
X178529455Y-192364757D02*
X178672312Y-192293328D01*
X178672312Y-192293328D02*
X179029455Y-192293328D01*
X179029455Y-192293328D02*
X179243741Y-192364757D01*
X179886597Y-193793328D02*
X179886597Y-192793328D01*
X179886597Y-192293328D02*
X179815169Y-192364757D01*
X179815169Y-192364757D02*
X179886597Y-192436185D01*
X179886597Y-192436185D02*
X179958026Y-192364757D01*
X179958026Y-192364757D02*
X179886597Y-192293328D01*
X179886597Y-192293328D02*
X179886597Y-192436185D01*
X180458026Y-192793328D02*
X181243741Y-192793328D01*
X181243741Y-192793328D02*
X180458026Y-193793328D01*
X180458026Y-193793328D02*
X181243741Y-193793328D01*
X182386598Y-193721900D02*
X182243741Y-193793328D01*
X182243741Y-193793328D02*
X181958027Y-193793328D01*
X181958027Y-193793328D02*
X181815169Y-193721900D01*
X181815169Y-193721900D02*
X181743741Y-193579042D01*
X181743741Y-193579042D02*
X181743741Y-193007614D01*
X181743741Y-193007614D02*
X181815169Y-192864757D01*
X181815169Y-192864757D02*
X181958027Y-192793328D01*
X181958027Y-192793328D02*
X182243741Y-192793328D01*
X182243741Y-192793328D02*
X182386598Y-192864757D01*
X182386598Y-192864757D02*
X182458027Y-193007614D01*
X182458027Y-193007614D02*
X182458027Y-193150471D01*
X182458027Y-193150471D02*
X181743741Y-193293328D01*
X183100883Y-193650471D02*
X183172312Y-193721900D01*
X183172312Y-193721900D02*
X183100883Y-193793328D01*
X183100883Y-193793328D02*
X183029455Y-193721900D01*
X183029455Y-193721900D02*
X183100883Y-193650471D01*
X183100883Y-193650471D02*
X183100883Y-193793328D01*
X183100883Y-192864757D02*
X183172312Y-192936185D01*
X183172312Y-192936185D02*
X183100883Y-193007614D01*
X183100883Y-193007614D02*
X183029455Y-192936185D01*
X183029455Y-192936185D02*
X183100883Y-192864757D01*
X183100883Y-192864757D02*
X183100883Y-193007614D01*
X184886598Y-193364757D02*
X185600884Y-193364757D01*
X184743741Y-193793328D02*
X185243741Y-192293328D01*
X185243741Y-192293328D02*
X185743741Y-193793328D01*
X186886598Y-192793328D02*
X186886598Y-193793328D01*
X186529455Y-192221900D02*
X186172312Y-193293328D01*
X186172312Y-193293328D02*
X187100883Y-193293328D01*
D10*
D11*
X263458026Y-196593328D02*
X263458026Y-195093328D01*
X264815170Y-196593328D02*
X264815170Y-195093328D01*
X264815170Y-196521900D02*
X264672312Y-196593328D01*
X264672312Y-196593328D02*
X264386598Y-196593328D01*
X264386598Y-196593328D02*
X264243741Y-196521900D01*
X264243741Y-196521900D02*
X264172312Y-196450471D01*
X264172312Y-196450471D02*
X264100884Y-196307614D01*
X264100884Y-196307614D02*
X264100884Y-195879042D01*
X264100884Y-195879042D02*
X264172312Y-195736185D01*
X264172312Y-195736185D02*
X264243741Y-195664757D01*
X264243741Y-195664757D02*
X264386598Y-195593328D01*
X264386598Y-195593328D02*
X264672312Y-195593328D01*
X264672312Y-195593328D02*
X264815170Y-195664757D01*
X265529455Y-196450471D02*
X265600884Y-196521900D01*
X265600884Y-196521900D02*
X265529455Y-196593328D01*
X265529455Y-196593328D02*
X265458027Y-196521900D01*
X265458027Y-196521900D02*
X265529455Y-196450471D01*
X265529455Y-196450471D02*
X265529455Y-196593328D01*
X265529455Y-195664757D02*
X265600884Y-195736185D01*
X265600884Y-195736185D02*
X265529455Y-195807614D01*
X265529455Y-195807614D02*
X265458027Y-195736185D01*
X265458027Y-195736185D02*
X265529455Y-195664757D01*
X265529455Y-195664757D02*
X265529455Y-195807614D01*
X268029456Y-195593328D02*
X268029456Y-196593328D01*
X267672313Y-195021900D02*
X267315170Y-196093328D01*
X267315170Y-196093328D02*
X268243741Y-196093328D01*
X269886598Y-195021900D02*
X268600884Y-196950471D01*
X271172313Y-196593328D02*
X270315170Y-196593328D01*
X270743741Y-196593328D02*
X270743741Y-195093328D01*
X270743741Y-195093328D02*
X270600884Y-195307614D01*
X270600884Y-195307614D02*
X270458027Y-195450471D01*
X270458027Y-195450471D02*
X270315170Y-195521900D01*
X272529455Y-195093328D02*
X271815169Y-195093328D01*
X271815169Y-195093328D02*
X271743741Y-195807614D01*
X271743741Y-195807614D02*
X271815169Y-195736185D01*
X271815169Y-195736185D02*
X271958027Y-195664757D01*
X271958027Y-195664757D02*
X272315169Y-195664757D01*
X272315169Y-195664757D02*
X272458027Y-195736185D01*
X272458027Y-195736185D02*
X272529455Y-195807614D01*
X272529455Y-195807614D02*
X272600884Y-195950471D01*
X272600884Y-195950471D02*
X272600884Y-196307614D01*
X272600884Y-196307614D02*
X272529455Y-196450471D01*
X272529455Y-196450471D02*
X272458027Y-196521900D01*
X272458027Y-196521900D02*
X272315169Y-196593328D01*
X272315169Y-196593328D02*
X271958027Y-196593328D01*
X271958027Y-196593328D02*
X271815169Y-196521900D01*
X271815169Y-196521900D02*
X271743741Y-196450471D01*
D10*
D11*
X177002200Y-187507200D02*
X285002200Y-187507200D01*
D10*
D13*
X178693928Y-188211638D02*
X179836785Y-188211638D01*
X179015357Y-190211638D02*
X179265357Y-188211638D01*
X180253452Y-190211638D02*
X180420119Y-188878304D01*
X180503452Y-188211638D02*
X180396309Y-188306876D01*
X180396309Y-188306876D02*
X180479643Y-188402114D01*
X180479643Y-188402114D02*
X180586786Y-188306876D01*
X180586786Y-188306876D02*
X180503452Y-188211638D01*
X180503452Y-188211638D02*
X180479643Y-188402114D01*
X181086786Y-188878304D02*
X181848690Y-188878304D01*
X181455833Y-188211638D02*
X181241548Y-189925923D01*
X181241548Y-189925923D02*
X181312976Y-190116400D01*
X181312976Y-190116400D02*
X181491548Y-190211638D01*
X181491548Y-190211638D02*
X181682024Y-190211638D01*
X182634405Y-190211638D02*
X182455833Y-190116400D01*
X182455833Y-190116400D02*
X182384405Y-189925923D01*
X182384405Y-189925923D02*
X182598690Y-188211638D01*
X184170119Y-190116400D02*
X183967738Y-190211638D01*
X183967738Y-190211638D02*
X183586785Y-190211638D01*
X183586785Y-190211638D02*
X183408214Y-190116400D01*
X183408214Y-190116400D02*
X183336785Y-189925923D01*
X183336785Y-189925923D02*
X183432024Y-189164019D01*
X183432024Y-189164019D02*
X183551071Y-188973542D01*
X183551071Y-188973542D02*
X183753452Y-188878304D01*
X183753452Y-188878304D02*
X184134404Y-188878304D01*
X184134404Y-188878304D02*
X184312976Y-188973542D01*
X184312976Y-188973542D02*
X184384404Y-189164019D01*
X184384404Y-189164019D02*
X184360595Y-189354495D01*
X184360595Y-189354495D02*
X183384404Y-189544971D01*
X185134405Y-190021161D02*
X185217738Y-190116400D01*
X185217738Y-190116400D02*
X185110595Y-190211638D01*
X185110595Y-190211638D02*
X185027262Y-190116400D01*
X185027262Y-190116400D02*
X185134405Y-190021161D01*
X185134405Y-190021161D02*
X185110595Y-190211638D01*
X185265357Y-188973542D02*
X185348690Y-189068780D01*
X185348690Y-189068780D02*
X185241548Y-189164019D01*
X185241548Y-189164019D02*
X185158214Y-189068780D01*
X185158214Y-189068780D02*
X185265357Y-188973542D01*
X185265357Y-188973542D02*
X185241548Y-189164019D01*
X187586786Y-190211638D02*
X187836786Y-188211638D01*
X188705834Y-188878304D02*
X188539167Y-190211638D01*
X188682024Y-189068780D02*
X188789167Y-188973542D01*
X188789167Y-188973542D02*
X188991548Y-188878304D01*
X188991548Y-188878304D02*
X189277262Y-188878304D01*
X189277262Y-188878304D02*
X189455834Y-188973542D01*
X189455834Y-188973542D02*
X189527262Y-189164019D01*
X189527262Y-189164019D02*
X189396310Y-190211638D01*
X190265358Y-190116400D02*
X190443929Y-190211638D01*
X190443929Y-190211638D02*
X190824882Y-190211638D01*
X190824882Y-190211638D02*
X191027263Y-190116400D01*
X191027263Y-190116400D02*
X191146310Y-189925923D01*
X191146310Y-189925923D02*
X191158215Y-189830685D01*
X191158215Y-189830685D02*
X191086786Y-189640209D01*
X191086786Y-189640209D02*
X190908215Y-189544971D01*
X190908215Y-189544971D02*
X190622501Y-189544971D01*
X190622501Y-189544971D02*
X190443929Y-189449733D01*
X190443929Y-189449733D02*
X190372501Y-189259257D01*
X190372501Y-189259257D02*
X190384406Y-189164019D01*
X190384406Y-189164019D02*
X190503453Y-188973542D01*
X190503453Y-188973542D02*
X190705834Y-188878304D01*
X190705834Y-188878304D02*
X190991548Y-188878304D01*
X190991548Y-188878304D02*
X191170120Y-188973542D01*
X191848692Y-188878304D02*
X192610596Y-188878304D01*
X192217739Y-188211638D02*
X192003454Y-189925923D01*
X192003454Y-189925923D02*
X192074882Y-190116400D01*
X192074882Y-190116400D02*
X192253454Y-190211638D01*
X192253454Y-190211638D02*
X192443930Y-190211638D01*
X193110596Y-190211638D02*
X193277263Y-188878304D01*
X193229644Y-189259257D02*
X193348691Y-189068780D01*
X193348691Y-189068780D02*
X193455834Y-188973542D01*
X193455834Y-188973542D02*
X193658215Y-188878304D01*
X193658215Y-188878304D02*
X193848691Y-188878304D01*
X195372501Y-188878304D02*
X195205834Y-190211638D01*
X194515358Y-188878304D02*
X194384406Y-189925923D01*
X194384406Y-189925923D02*
X194455834Y-190116400D01*
X194455834Y-190116400D02*
X194634406Y-190211638D01*
X194634406Y-190211638D02*
X194920120Y-190211638D01*
X194920120Y-190211638D02*
X195122501Y-190116400D01*
X195122501Y-190116400D02*
X195229644Y-190021161D01*
X196158215Y-190211638D02*
X196324882Y-188878304D01*
X196301072Y-189068780D02*
X196408215Y-188973542D01*
X196408215Y-188973542D02*
X196610596Y-188878304D01*
X196610596Y-188878304D02*
X196896310Y-188878304D01*
X196896310Y-188878304D02*
X197074882Y-188973542D01*
X197074882Y-188973542D02*
X197146310Y-189164019D01*
X197146310Y-189164019D02*
X197015358Y-190211638D01*
X197146310Y-189164019D02*
X197265358Y-188973542D01*
X197265358Y-188973542D02*
X197467739Y-188878304D01*
X197467739Y-188878304D02*
X197753453Y-188878304D01*
X197753453Y-188878304D02*
X197932025Y-188973542D01*
X197932025Y-188973542D02*
X198003453Y-189164019D01*
X198003453Y-189164019D02*
X197872501Y-190211638D01*
X199598692Y-190116400D02*
X199396311Y-190211638D01*
X199396311Y-190211638D02*
X199015358Y-190211638D01*
X199015358Y-190211638D02*
X198836787Y-190116400D01*
X198836787Y-190116400D02*
X198765358Y-189925923D01*
X198765358Y-189925923D02*
X198860597Y-189164019D01*
X198860597Y-189164019D02*
X198979644Y-188973542D01*
X198979644Y-188973542D02*
X199182025Y-188878304D01*
X199182025Y-188878304D02*
X199562977Y-188878304D01*
X199562977Y-188878304D02*
X199741549Y-188973542D01*
X199741549Y-188973542D02*
X199812977Y-189164019D01*
X199812977Y-189164019D02*
X199789168Y-189354495D01*
X199789168Y-189354495D02*
X198812977Y-189544971D01*
X200705835Y-188878304D02*
X200539168Y-190211638D01*
X200682025Y-189068780D02*
X200789168Y-188973542D01*
X200789168Y-188973542D02*
X200991549Y-188878304D01*
X200991549Y-188878304D02*
X201277263Y-188878304D01*
X201277263Y-188878304D02*
X201455835Y-188973542D01*
X201455835Y-188973542D02*
X201527263Y-189164019D01*
X201527263Y-189164019D02*
X201396311Y-190211638D01*
X202229645Y-188878304D02*
X202991549Y-188878304D01*
X202598692Y-188211638D02*
X202384407Y-189925923D01*
X202384407Y-189925923D02*
X202455835Y-190116400D01*
X202455835Y-190116400D02*
X202634407Y-190211638D01*
X202634407Y-190211638D02*
X202824883Y-190211638D01*
X203777264Y-190211638D02*
X203598692Y-190116400D01*
X203598692Y-190116400D02*
X203515359Y-190021161D01*
X203515359Y-190021161D02*
X203443930Y-189830685D01*
X203443930Y-189830685D02*
X203515359Y-189259257D01*
X203515359Y-189259257D02*
X203634406Y-189068780D01*
X203634406Y-189068780D02*
X203741549Y-188973542D01*
X203741549Y-188973542D02*
X203943930Y-188878304D01*
X203943930Y-188878304D02*
X204229644Y-188878304D01*
X204229644Y-188878304D02*
X204408216Y-188973542D01*
X204408216Y-188973542D02*
X204491549Y-189068780D01*
X204491549Y-189068780D02*
X204562978Y-189259257D01*
X204562978Y-189259257D02*
X204491549Y-189830685D01*
X204491549Y-189830685D02*
X204372502Y-190021161D01*
X204372502Y-190021161D02*
X204265359Y-190116400D01*
X204265359Y-190116400D02*
X204062978Y-190211638D01*
X204062978Y-190211638D02*
X203777264Y-190211638D01*
X207682026Y-190211638D02*
X207932026Y-188211638D01*
X207693931Y-190116400D02*
X207491550Y-190211638D01*
X207491550Y-190211638D02*
X207110598Y-190211638D01*
X207110598Y-190211638D02*
X206932026Y-190116400D01*
X206932026Y-190116400D02*
X206848693Y-190021161D01*
X206848693Y-190021161D02*
X206777264Y-189830685D01*
X206777264Y-189830685D02*
X206848693Y-189259257D01*
X206848693Y-189259257D02*
X206967740Y-189068780D01*
X206967740Y-189068780D02*
X207074883Y-188973542D01*
X207074883Y-188973542D02*
X207277264Y-188878304D01*
X207277264Y-188878304D02*
X207658217Y-188878304D01*
X207658217Y-188878304D02*
X207836788Y-188973542D01*
X209408217Y-190116400D02*
X209205836Y-190211638D01*
X209205836Y-190211638D02*
X208824883Y-190211638D01*
X208824883Y-190211638D02*
X208646312Y-190116400D01*
X208646312Y-190116400D02*
X208574883Y-189925923D01*
X208574883Y-189925923D02*
X208670122Y-189164019D01*
X208670122Y-189164019D02*
X208789169Y-188973542D01*
X208789169Y-188973542D02*
X208991550Y-188878304D01*
X208991550Y-188878304D02*
X209372502Y-188878304D01*
X209372502Y-188878304D02*
X209551074Y-188973542D01*
X209551074Y-188973542D02*
X209622502Y-189164019D01*
X209622502Y-189164019D02*
X209598693Y-189354495D01*
X209598693Y-189354495D02*
X208622502Y-189544971D01*
X211872503Y-190211638D02*
X212122503Y-188211638D01*
X212122503Y-188211638D02*
X212610598Y-189640209D01*
X212610598Y-189640209D02*
X213455837Y-188211638D01*
X213455837Y-188211638D02*
X213205837Y-190211638D01*
X214932027Y-190116400D02*
X214729646Y-190211638D01*
X214729646Y-190211638D02*
X214348693Y-190211638D01*
X214348693Y-190211638D02*
X214170122Y-190116400D01*
X214170122Y-190116400D02*
X214098693Y-189925923D01*
X214098693Y-189925923D02*
X214193932Y-189164019D01*
X214193932Y-189164019D02*
X214312979Y-188973542D01*
X214312979Y-188973542D02*
X214515360Y-188878304D01*
X214515360Y-188878304D02*
X214896312Y-188878304D01*
X214896312Y-188878304D02*
X215074884Y-188973542D01*
X215074884Y-188973542D02*
X215146312Y-189164019D01*
X215146312Y-189164019D02*
X215122503Y-189354495D01*
X215122503Y-189354495D02*
X214146312Y-189544971D01*
X216729646Y-190211638D02*
X216979646Y-188211638D01*
X216741551Y-190116400D02*
X216539170Y-190211638D01*
X216539170Y-190211638D02*
X216158218Y-190211638D01*
X216158218Y-190211638D02*
X215979646Y-190116400D01*
X215979646Y-190116400D02*
X215896313Y-190021161D01*
X215896313Y-190021161D02*
X215824884Y-189830685D01*
X215824884Y-189830685D02*
X215896313Y-189259257D01*
X215896313Y-189259257D02*
X216015360Y-189068780D01*
X216015360Y-189068780D02*
X216122503Y-188973542D01*
X216122503Y-188973542D02*
X216324884Y-188878304D01*
X216324884Y-188878304D02*
X216705837Y-188878304D01*
X216705837Y-188878304D02*
X216884408Y-188973542D01*
X217682027Y-190211638D02*
X217848694Y-188878304D01*
X217932027Y-188211638D02*
X217824884Y-188306876D01*
X217824884Y-188306876D02*
X217908218Y-188402114D01*
X217908218Y-188402114D02*
X218015361Y-188306876D01*
X218015361Y-188306876D02*
X217932027Y-188211638D01*
X217932027Y-188211638D02*
X217908218Y-188402114D01*
X219503456Y-190116400D02*
X219301075Y-190211638D01*
X219301075Y-190211638D02*
X218920123Y-190211638D01*
X218920123Y-190211638D02*
X218741551Y-190116400D01*
X218741551Y-190116400D02*
X218658218Y-190021161D01*
X218658218Y-190021161D02*
X218586789Y-189830685D01*
X218586789Y-189830685D02*
X218658218Y-189259257D01*
X218658218Y-189259257D02*
X218777265Y-189068780D01*
X218777265Y-189068780D02*
X218884408Y-188973542D01*
X218884408Y-188973542D02*
X219086789Y-188878304D01*
X219086789Y-188878304D02*
X219467742Y-188878304D01*
X219467742Y-188878304D02*
X219646313Y-188973542D01*
X220348694Y-190211638D02*
X220515361Y-188878304D01*
X220598694Y-188211638D02*
X220491551Y-188306876D01*
X220491551Y-188306876D02*
X220574885Y-188402114D01*
X220574885Y-188402114D02*
X220682028Y-188306876D01*
X220682028Y-188306876D02*
X220598694Y-188211638D01*
X220598694Y-188211638D02*
X220574885Y-188402114D01*
X221586790Y-190211638D02*
X221408218Y-190116400D01*
X221408218Y-190116400D02*
X221324885Y-190021161D01*
X221324885Y-190021161D02*
X221253456Y-189830685D01*
X221253456Y-189830685D02*
X221324885Y-189259257D01*
X221324885Y-189259257D02*
X221443932Y-189068780D01*
X221443932Y-189068780D02*
X221551075Y-188973542D01*
X221551075Y-188973542D02*
X221753456Y-188878304D01*
X221753456Y-188878304D02*
X222039170Y-188878304D01*
X222039170Y-188878304D02*
X222217742Y-188973542D01*
X222217742Y-188973542D02*
X222301075Y-189068780D01*
X222301075Y-189068780D02*
X222372504Y-189259257D01*
X222372504Y-189259257D02*
X222301075Y-189830685D01*
X222301075Y-189830685D02*
X222182028Y-190021161D01*
X222182028Y-190021161D02*
X222074885Y-190116400D01*
X222074885Y-190116400D02*
X221872504Y-190211638D01*
X221872504Y-190211638D02*
X221586790Y-190211638D01*
X222229647Y-188116400D02*
X221908218Y-188402114D01*
X223277266Y-188878304D02*
X223110599Y-190211638D01*
X223253456Y-189068780D02*
X223360599Y-188973542D01*
X223360599Y-188973542D02*
X223562980Y-188878304D01*
X223562980Y-188878304D02*
X223848694Y-188878304D01*
X223848694Y-188878304D02*
X224027266Y-188973542D01*
X224027266Y-188973542D02*
X224098694Y-189164019D01*
X224098694Y-189164019D02*
X223967742Y-190211638D01*
X227301076Y-190211638D02*
X227551076Y-188211638D01*
X227312981Y-190116400D02*
X227110600Y-190211638D01*
X227110600Y-190211638D02*
X226729648Y-190211638D01*
X226729648Y-190211638D02*
X226551076Y-190116400D01*
X226551076Y-190116400D02*
X226467743Y-190021161D01*
X226467743Y-190021161D02*
X226396314Y-189830685D01*
X226396314Y-189830685D02*
X226467743Y-189259257D01*
X226467743Y-189259257D02*
X226586790Y-189068780D01*
X226586790Y-189068780D02*
X226693933Y-188973542D01*
X226693933Y-188973542D02*
X226896314Y-188878304D01*
X226896314Y-188878304D02*
X227277267Y-188878304D01*
X227277267Y-188878304D02*
X227455838Y-188973542D01*
X229027267Y-190116400D02*
X228824886Y-190211638D01*
X228824886Y-190211638D02*
X228443933Y-190211638D01*
X228443933Y-190211638D02*
X228265362Y-190116400D01*
X228265362Y-190116400D02*
X228193933Y-189925923D01*
X228193933Y-189925923D02*
X228289172Y-189164019D01*
X228289172Y-189164019D02*
X228408219Y-188973542D01*
X228408219Y-188973542D02*
X228610600Y-188878304D01*
X228610600Y-188878304D02*
X228991552Y-188878304D01*
X228991552Y-188878304D02*
X229170124Y-188973542D01*
X229170124Y-188973542D02*
X229241552Y-189164019D01*
X229241552Y-189164019D02*
X229217743Y-189354495D01*
X229217743Y-189354495D02*
X228241552Y-189544971D01*
X232658220Y-190021161D02*
X232551077Y-190116400D01*
X232551077Y-190116400D02*
X232253458Y-190211638D01*
X232253458Y-190211638D02*
X232062982Y-190211638D01*
X232062982Y-190211638D02*
X231789172Y-190116400D01*
X231789172Y-190116400D02*
X231622506Y-189925923D01*
X231622506Y-189925923D02*
X231551077Y-189735447D01*
X231551077Y-189735447D02*
X231503458Y-189354495D01*
X231503458Y-189354495D02*
X231539172Y-189068780D01*
X231539172Y-189068780D02*
X231682029Y-188687828D01*
X231682029Y-188687828D02*
X231801077Y-188497352D01*
X231801077Y-188497352D02*
X232015363Y-188306876D01*
X232015363Y-188306876D02*
X232312982Y-188211638D01*
X232312982Y-188211638D02*
X232503458Y-188211638D01*
X232503458Y-188211638D02*
X232777268Y-188306876D01*
X232777268Y-188306876D02*
X232860601Y-188402114D01*
X233777268Y-190211638D02*
X233598696Y-190116400D01*
X233598696Y-190116400D02*
X233515363Y-190021161D01*
X233515363Y-190021161D02*
X233443934Y-189830685D01*
X233443934Y-189830685D02*
X233515363Y-189259257D01*
X233515363Y-189259257D02*
X233634410Y-189068780D01*
X233634410Y-189068780D02*
X233741553Y-188973542D01*
X233741553Y-188973542D02*
X233943934Y-188878304D01*
X233943934Y-188878304D02*
X234229648Y-188878304D01*
X234229648Y-188878304D02*
X234408220Y-188973542D01*
X234408220Y-188973542D02*
X234491553Y-189068780D01*
X234491553Y-189068780D02*
X234562982Y-189259257D01*
X234562982Y-189259257D02*
X234491553Y-189830685D01*
X234491553Y-189830685D02*
X234372506Y-190021161D01*
X234372506Y-190021161D02*
X234265363Y-190116400D01*
X234265363Y-190116400D02*
X234062982Y-190211638D01*
X234062982Y-190211638D02*
X233777268Y-190211638D01*
X235467744Y-188878304D02*
X235301077Y-190211638D01*
X235443934Y-189068780D02*
X235551077Y-188973542D01*
X235551077Y-188973542D02*
X235753458Y-188878304D01*
X235753458Y-188878304D02*
X236039172Y-188878304D01*
X236039172Y-188878304D02*
X236217744Y-188973542D01*
X236217744Y-188973542D02*
X236289172Y-189164019D01*
X236289172Y-189164019D02*
X236158220Y-190211638D01*
X237027268Y-190116400D02*
X237205839Y-190211638D01*
X237205839Y-190211638D02*
X237586792Y-190211638D01*
X237586792Y-190211638D02*
X237789173Y-190116400D01*
X237789173Y-190116400D02*
X237908220Y-189925923D01*
X237908220Y-189925923D02*
X237920125Y-189830685D01*
X237920125Y-189830685D02*
X237848696Y-189640209D01*
X237848696Y-189640209D02*
X237670125Y-189544971D01*
X237670125Y-189544971D02*
X237384411Y-189544971D01*
X237384411Y-189544971D02*
X237205839Y-189449733D01*
X237205839Y-189449733D02*
X237134411Y-189259257D01*
X237134411Y-189259257D02*
X237146316Y-189164019D01*
X237146316Y-189164019D02*
X237265363Y-188973542D01*
X237265363Y-188973542D02*
X237467744Y-188878304D01*
X237467744Y-188878304D02*
X237753458Y-188878304D01*
X237753458Y-188878304D02*
X237932030Y-188973542D01*
X239753459Y-188878304D02*
X239586792Y-190211638D01*
X238896316Y-188878304D02*
X238765364Y-189925923D01*
X238765364Y-189925923D02*
X238836792Y-190116400D01*
X238836792Y-190116400D02*
X239015364Y-190211638D01*
X239015364Y-190211638D02*
X239301078Y-190211638D01*
X239301078Y-190211638D02*
X239503459Y-190116400D01*
X239503459Y-190116400D02*
X239610602Y-190021161D01*
X240539173Y-190211638D02*
X240705840Y-188878304D01*
X240682030Y-189068780D02*
X240789173Y-188973542D01*
X240789173Y-188973542D02*
X240991554Y-188878304D01*
X240991554Y-188878304D02*
X241277268Y-188878304D01*
X241277268Y-188878304D02*
X241455840Y-188973542D01*
X241455840Y-188973542D02*
X241527268Y-189164019D01*
X241527268Y-189164019D02*
X241396316Y-190211638D01*
X241527268Y-189164019D02*
X241646316Y-188973542D01*
X241646316Y-188973542D02*
X241848697Y-188878304D01*
X241848697Y-188878304D02*
X242134411Y-188878304D01*
X242134411Y-188878304D02*
X242312983Y-188973542D01*
X242312983Y-188973542D02*
X242384411Y-189164019D01*
X242384411Y-189164019D02*
X242253459Y-190211638D01*
X243491555Y-190211638D02*
X243312983Y-190116400D01*
X243312983Y-190116400D02*
X243229650Y-190021161D01*
X243229650Y-190021161D02*
X243158221Y-189830685D01*
X243158221Y-189830685D02*
X243229650Y-189259257D01*
X243229650Y-189259257D02*
X243348697Y-189068780D01*
X243348697Y-189068780D02*
X243455840Y-188973542D01*
X243455840Y-188973542D02*
X243658221Y-188878304D01*
X243658221Y-188878304D02*
X243943935Y-188878304D01*
X243943935Y-188878304D02*
X244122507Y-188973542D01*
X244122507Y-188973542D02*
X244205840Y-189068780D01*
X244205840Y-189068780D02*
X244277269Y-189259257D01*
X244277269Y-189259257D02*
X244205840Y-189830685D01*
X244205840Y-189830685D02*
X244086793Y-190021161D01*
X244086793Y-190021161D02*
X243979650Y-190116400D01*
X243979650Y-190116400D02*
X243777269Y-190211638D01*
X243777269Y-190211638D02*
X243491555Y-190211638D01*
X245039174Y-190021161D02*
X245122507Y-190116400D01*
X245122507Y-190116400D02*
X245015364Y-190211638D01*
X245015364Y-190211638D02*
X244932031Y-190116400D01*
X244932031Y-190116400D02*
X245039174Y-190021161D01*
X245039174Y-190021161D02*
X245015364Y-190211638D01*
X245170126Y-188973542D02*
X245253459Y-189068780D01*
X245253459Y-189068780D02*
X245146317Y-189164019D01*
X245146317Y-189164019D02*
X245062983Y-189068780D01*
X245062983Y-189068780D02*
X245170126Y-188973542D01*
X245170126Y-188973542D02*
X245146317Y-189164019D01*
X247491555Y-190211638D02*
X247741555Y-188211638D01*
X247741555Y-188211638D02*
X248229650Y-189640209D01*
X248229650Y-189640209D02*
X249074889Y-188211638D01*
X249074889Y-188211638D02*
X248824889Y-190211638D01*
X250062984Y-190211638D02*
X249884412Y-190116400D01*
X249884412Y-190116400D02*
X249801079Y-190021161D01*
X249801079Y-190021161D02*
X249729650Y-189830685D01*
X249729650Y-189830685D02*
X249801079Y-189259257D01*
X249801079Y-189259257D02*
X249920126Y-189068780D01*
X249920126Y-189068780D02*
X250027269Y-188973542D01*
X250027269Y-188973542D02*
X250229650Y-188878304D01*
X250229650Y-188878304D02*
X250515364Y-188878304D01*
X250515364Y-188878304D02*
X250693936Y-188973542D01*
X250693936Y-188973542D02*
X250777269Y-189068780D01*
X250777269Y-189068780D02*
X250848698Y-189259257D01*
X250848698Y-189259257D02*
X250777269Y-189830685D01*
X250777269Y-189830685D02*
X250658222Y-190021161D01*
X250658222Y-190021161D02*
X250551079Y-190116400D01*
X250551079Y-190116400D02*
X250348698Y-190211638D01*
X250348698Y-190211638D02*
X250062984Y-190211638D01*
X250705841Y-188116400D02*
X250384412Y-188402114D01*
X252443936Y-190211638D02*
X252693936Y-188211638D01*
X252455841Y-190116400D02*
X252253460Y-190211638D01*
X252253460Y-190211638D02*
X251872508Y-190211638D01*
X251872508Y-190211638D02*
X251693936Y-190116400D01*
X251693936Y-190116400D02*
X251610603Y-190021161D01*
X251610603Y-190021161D02*
X251539174Y-189830685D01*
X251539174Y-189830685D02*
X251610603Y-189259257D01*
X251610603Y-189259257D02*
X251729650Y-189068780D01*
X251729650Y-189068780D02*
X251836793Y-188973542D01*
X251836793Y-188973542D02*
X252039174Y-188878304D01*
X252039174Y-188878304D02*
X252420127Y-188878304D01*
X252420127Y-188878304D02*
X252598698Y-188973542D01*
X254420127Y-188878304D02*
X254253460Y-190211638D01*
X253562984Y-188878304D02*
X253432032Y-189925923D01*
X253432032Y-189925923D02*
X253503460Y-190116400D01*
X253503460Y-190116400D02*
X253682032Y-190211638D01*
X253682032Y-190211638D02*
X253967746Y-190211638D01*
X253967746Y-190211638D02*
X254170127Y-190116400D01*
X254170127Y-190116400D02*
X254277270Y-190021161D01*
X255491556Y-190211638D02*
X255312984Y-190116400D01*
X255312984Y-190116400D02*
X255241556Y-189925923D01*
X255241556Y-189925923D02*
X255455841Y-188211638D01*
X256539175Y-190211638D02*
X256360603Y-190116400D01*
X256360603Y-190116400D02*
X256277270Y-190021161D01*
X256277270Y-190021161D02*
X256205841Y-189830685D01*
X256205841Y-189830685D02*
X256277270Y-189259257D01*
X256277270Y-189259257D02*
X256396317Y-189068780D01*
X256396317Y-189068780D02*
X256503460Y-188973542D01*
X256503460Y-188973542D02*
X256705841Y-188878304D01*
X256705841Y-188878304D02*
X256991555Y-188878304D01*
X256991555Y-188878304D02*
X257170127Y-188973542D01*
X257170127Y-188973542D02*
X257253460Y-189068780D01*
X257253460Y-189068780D02*
X257324889Y-189259257D01*
X257324889Y-189259257D02*
X257253460Y-189830685D01*
X257253460Y-189830685D02*
X257134413Y-190021161D01*
X257134413Y-190021161D02*
X257027270Y-190116400D01*
X257027270Y-190116400D02*
X256824889Y-190211638D01*
X256824889Y-190211638D02*
X256539175Y-190211638D01*
X260443937Y-190211638D02*
X260693937Y-188211638D01*
X260455842Y-190116400D02*
X260253461Y-190211638D01*
X260253461Y-190211638D02*
X259872509Y-190211638D01*
X259872509Y-190211638D02*
X259693937Y-190116400D01*
X259693937Y-190116400D02*
X259610604Y-190021161D01*
X259610604Y-190021161D02*
X259539175Y-189830685D01*
X259539175Y-189830685D02*
X259610604Y-189259257D01*
X259610604Y-189259257D02*
X259729651Y-189068780D01*
X259729651Y-189068780D02*
X259836794Y-188973542D01*
X259836794Y-188973542D02*
X260039175Y-188878304D01*
X260039175Y-188878304D02*
X260420128Y-188878304D01*
X260420128Y-188878304D02*
X260598699Y-188973542D01*
X262170128Y-190116400D02*
X261967747Y-190211638D01*
X261967747Y-190211638D02*
X261586794Y-190211638D01*
X261586794Y-190211638D02*
X261408223Y-190116400D01*
X261408223Y-190116400D02*
X261336794Y-189925923D01*
X261336794Y-189925923D02*
X261432033Y-189164019D01*
X261432033Y-189164019D02*
X261551080Y-188973542D01*
X261551080Y-188973542D02*
X261753461Y-188878304D01*
X261753461Y-188878304D02*
X262134413Y-188878304D01*
X262134413Y-188878304D02*
X262312985Y-188973542D01*
X262312985Y-188973542D02*
X262384413Y-189164019D01*
X262384413Y-189164019D02*
X262360604Y-189354495D01*
X262360604Y-189354495D02*
X261384413Y-189544971D01*
X264610605Y-189640209D02*
X265562986Y-189640209D01*
X264348700Y-190211638D02*
X265265367Y-188211638D01*
X265265367Y-188211638D02*
X265682033Y-190211638D01*
X266634415Y-190211638D02*
X266455843Y-190116400D01*
X266455843Y-190116400D02*
X266384415Y-189925923D01*
X266384415Y-189925923D02*
X266598700Y-188211638D01*
X267396319Y-190211638D02*
X267562986Y-188878304D01*
X267646319Y-188211638D02*
X267539176Y-188306876D01*
X267539176Y-188306876D02*
X267622510Y-188402114D01*
X267622510Y-188402114D02*
X267729653Y-188306876D01*
X267729653Y-188306876D02*
X267646319Y-188211638D01*
X267646319Y-188211638D02*
X267622510Y-188402114D01*
X268348700Y-190211638D02*
X268515367Y-188878304D01*
X268491557Y-189068780D02*
X268598700Y-188973542D01*
X268598700Y-188973542D02*
X268801081Y-188878304D01*
X268801081Y-188878304D02*
X269086795Y-188878304D01*
X269086795Y-188878304D02*
X269265367Y-188973542D01*
X269265367Y-188973542D02*
X269336795Y-189164019D01*
X269336795Y-189164019D02*
X269205843Y-190211638D01*
X269336795Y-189164019D02*
X269455843Y-188973542D01*
X269455843Y-188973542D02*
X269658224Y-188878304D01*
X269658224Y-188878304D02*
X269943938Y-188878304D01*
X269943938Y-188878304D02*
X270122510Y-188973542D01*
X270122510Y-188973542D02*
X270193938Y-189164019D01*
X270193938Y-189164019D02*
X270062986Y-190211638D01*
X271789177Y-190116400D02*
X271586796Y-190211638D01*
X271586796Y-190211638D02*
X271205843Y-190211638D01*
X271205843Y-190211638D02*
X271027272Y-190116400D01*
X271027272Y-190116400D02*
X270955843Y-189925923D01*
X270955843Y-189925923D02*
X271051082Y-189164019D01*
X271051082Y-189164019D02*
X271170129Y-188973542D01*
X271170129Y-188973542D02*
X271372510Y-188878304D01*
X271372510Y-188878304D02*
X271753462Y-188878304D01*
X271753462Y-188878304D02*
X271932034Y-188973542D01*
X271932034Y-188973542D02*
X272003462Y-189164019D01*
X272003462Y-189164019D02*
X271979653Y-189354495D01*
X271979653Y-189354495D02*
X271003462Y-189544971D01*
X272896320Y-188878304D02*
X272729653Y-190211638D01*
X272872510Y-189068780D02*
X272979653Y-188973542D01*
X272979653Y-188973542D02*
X273182034Y-188878304D01*
X273182034Y-188878304D02*
X273467748Y-188878304D01*
X273467748Y-188878304D02*
X273646320Y-188973542D01*
X273646320Y-188973542D02*
X273717748Y-189164019D01*
X273717748Y-189164019D02*
X273586796Y-190211638D01*
X274420130Y-188878304D02*
X275182034Y-188878304D01*
X274789177Y-188211638D02*
X274574892Y-189925923D01*
X274574892Y-189925923D02*
X274646320Y-190116400D01*
X274646320Y-190116400D02*
X274824892Y-190211638D01*
X274824892Y-190211638D02*
X275015368Y-190211638D01*
X276539177Y-190211638D02*
X276670129Y-189164019D01*
X276670129Y-189164019D02*
X276598701Y-188973542D01*
X276598701Y-188973542D02*
X276420129Y-188878304D01*
X276420129Y-188878304D02*
X276039177Y-188878304D01*
X276039177Y-188878304D02*
X275836796Y-188973542D01*
X276551082Y-190116400D02*
X276348701Y-190211638D01*
X276348701Y-190211638D02*
X275872510Y-190211638D01*
X275872510Y-190211638D02*
X275693939Y-190116400D01*
X275693939Y-190116400D02*
X275622510Y-189925923D01*
X275622510Y-189925923D02*
X275646320Y-189735447D01*
X275646320Y-189735447D02*
X275765368Y-189544971D01*
X275765368Y-189544971D02*
X275967749Y-189449733D01*
X275967749Y-189449733D02*
X276443939Y-189449733D01*
X276443939Y-189449733D02*
X276646320Y-189354495D01*
X278360606Y-190116400D02*
X278158225Y-190211638D01*
X278158225Y-190211638D02*
X277777273Y-190211638D01*
X277777273Y-190211638D02*
X277598701Y-190116400D01*
X277598701Y-190116400D02*
X277515368Y-190021161D01*
X277515368Y-190021161D02*
X277443939Y-189830685D01*
X277443939Y-189830685D02*
X277515368Y-189259257D01*
X277515368Y-189259257D02*
X277634415Y-189068780D01*
X277634415Y-189068780D02*
X277741558Y-188973542D01*
X277741558Y-188973542D02*
X277943939Y-188878304D01*
X277943939Y-188878304D02*
X278324892Y-188878304D01*
X278324892Y-188878304D02*
X278503463Y-188973542D01*
X279205844Y-190211638D02*
X279372511Y-188878304D01*
X279455844Y-188211638D02*
X279348701Y-188306876D01*
X279348701Y-188306876D02*
X279432035Y-188402114D01*
X279432035Y-188402114D02*
X279539178Y-188306876D01*
X279539178Y-188306876D02*
X279455844Y-188211638D01*
X279455844Y-188211638D02*
X279432035Y-188402114D01*
X280443940Y-190211638D02*
X280265368Y-190116400D01*
X280265368Y-190116400D02*
X280182035Y-190021161D01*
X280182035Y-190021161D02*
X280110606Y-189830685D01*
X280110606Y-189830685D02*
X280182035Y-189259257D01*
X280182035Y-189259257D02*
X280301082Y-189068780D01*
X280301082Y-189068780D02*
X280408225Y-188973542D01*
X280408225Y-188973542D02*
X280610606Y-188878304D01*
X280610606Y-188878304D02*
X280896320Y-188878304D01*
X280896320Y-188878304D02*
X281074892Y-188973542D01*
X281074892Y-188973542D02*
X281158225Y-189068780D01*
X281158225Y-189068780D02*
X281229654Y-189259257D01*
X281229654Y-189259257D02*
X281158225Y-189830685D01*
X281158225Y-189830685D02*
X281039178Y-190021161D01*
X281039178Y-190021161D02*
X280932035Y-190116400D01*
X280932035Y-190116400D02*
X280729654Y-190211638D01*
X280729654Y-190211638D02*
X280443940Y-190211638D01*
X281086797Y-188116400D02*
X280765368Y-188402114D01*
X282134416Y-188878304D02*
X281967749Y-190211638D01*
X282110606Y-189068780D02*
X282217749Y-188973542D01*
X282217749Y-188973542D02*
X282420130Y-188878304D01*
X282420130Y-188878304D02*
X282705844Y-188878304D01*
X282705844Y-188878304D02*
X282884416Y-188973542D01*
X282884416Y-188973542D02*
X282955844Y-189164019D01*
X282955844Y-189164019D02*
X282824892Y-190211638D01*
D10*
D11*
X178958026Y-185607614D02*
X178458026Y-185607614D01*
X178458026Y-186393328D02*
X178458026Y-184893328D01*
X178458026Y-184893328D02*
X179172312Y-184893328D01*
X179743740Y-186393328D02*
X179743740Y-185393328D01*
X179743740Y-184893328D02*
X179672312Y-184964757D01*
X179672312Y-184964757D02*
X179743740Y-185036185D01*
X179743740Y-185036185D02*
X179815169Y-184964757D01*
X179815169Y-184964757D02*
X179743740Y-184893328D01*
X179743740Y-184893328D02*
X179743740Y-185036185D01*
X180672312Y-186393328D02*
X180529455Y-186321900D01*
X180529455Y-186321900D02*
X180458026Y-186179042D01*
X180458026Y-186179042D02*
X180458026Y-184893328D01*
X181815169Y-186321900D02*
X181672312Y-186393328D01*
X181672312Y-186393328D02*
X181386598Y-186393328D01*
X181386598Y-186393328D02*
X181243740Y-186321900D01*
X181243740Y-186321900D02*
X181172312Y-186179042D01*
X181172312Y-186179042D02*
X181172312Y-185607614D01*
X181172312Y-185607614D02*
X181243740Y-185464757D01*
X181243740Y-185464757D02*
X181386598Y-185393328D01*
X181386598Y-185393328D02*
X181672312Y-185393328D01*
X181672312Y-185393328D02*
X181815169Y-185464757D01*
X181815169Y-185464757D02*
X181886598Y-185607614D01*
X181886598Y-185607614D02*
X181886598Y-185750471D01*
X181886598Y-185750471D02*
X181172312Y-185893328D01*
X182529454Y-186250471D02*
X182600883Y-186321900D01*
X182600883Y-186321900D02*
X182529454Y-186393328D01*
X182529454Y-186393328D02*
X182458026Y-186321900D01*
X182458026Y-186321900D02*
X182529454Y-186250471D01*
X182529454Y-186250471D02*
X182529454Y-186393328D01*
X182529454Y-185464757D02*
X182600883Y-185536185D01*
X182600883Y-185536185D02*
X182529454Y-185607614D01*
X182529454Y-185607614D02*
X182458026Y-185536185D01*
X182458026Y-185536185D02*
X182529454Y-185464757D01*
X182529454Y-185464757D02*
X182529454Y-185607614D01*
X184386597Y-186393328D02*
X184386597Y-185393328D01*
X184386597Y-185679042D02*
X184458026Y-185536185D01*
X184458026Y-185536185D02*
X184529455Y-185464757D01*
X184529455Y-185464757D02*
X184672312Y-185393328D01*
X184672312Y-185393328D02*
X184815169Y-185393328D01*
X185886597Y-186321900D02*
X185743740Y-186393328D01*
X185743740Y-186393328D02*
X185458026Y-186393328D01*
X185458026Y-186393328D02*
X185315168Y-186321900D01*
X185315168Y-186321900D02*
X185243740Y-186179042D01*
X185243740Y-186179042D02*
X185243740Y-185607614D01*
X185243740Y-185607614D02*
X185315168Y-185464757D01*
X185315168Y-185464757D02*
X185458026Y-185393328D01*
X185458026Y-185393328D02*
X185743740Y-185393328D01*
X185743740Y-185393328D02*
X185886597Y-185464757D01*
X185886597Y-185464757D02*
X185958026Y-185607614D01*
X185958026Y-185607614D02*
X185958026Y-185750471D01*
X185958026Y-185750471D02*
X185243740Y-185893328D01*
X186458025Y-185393328D02*
X186815168Y-186393328D01*
X186815168Y-186393328D02*
X187172311Y-185393328D01*
X187386597Y-186536185D02*
X188529454Y-186536185D01*
X188886596Y-185393328D02*
X188886596Y-186893328D01*
X188886596Y-185464757D02*
X189029454Y-185393328D01*
X189029454Y-185393328D02*
X189315168Y-185393328D01*
X189315168Y-185393328D02*
X189458025Y-185464757D01*
X189458025Y-185464757D02*
X189529454Y-185536185D01*
X189529454Y-185536185D02*
X189600882Y-185679042D01*
X189600882Y-185679042D02*
X189600882Y-186107614D01*
X189600882Y-186107614D02*
X189529454Y-186250471D01*
X189529454Y-186250471D02*
X189458025Y-186321900D01*
X189458025Y-186321900D02*
X189315168Y-186393328D01*
X189315168Y-186393328D02*
X189029454Y-186393328D01*
X189029454Y-186393328D02*
X188886596Y-186321900D01*
X190458025Y-186393328D02*
X190315168Y-186321900D01*
X190315168Y-186321900D02*
X190243739Y-186250471D01*
X190243739Y-186250471D02*
X190172311Y-186107614D01*
X190172311Y-186107614D02*
X190172311Y-185679042D01*
X190172311Y-185679042D02*
X190243739Y-185536185D01*
X190243739Y-185536185D02*
X190315168Y-185464757D01*
X190315168Y-185464757D02*
X190458025Y-185393328D01*
X190458025Y-185393328D02*
X190672311Y-185393328D01*
X190672311Y-185393328D02*
X190815168Y-185464757D01*
X190815168Y-185464757D02*
X190886597Y-185536185D01*
X190886597Y-185536185D02*
X190958025Y-185679042D01*
X190958025Y-185679042D02*
X190958025Y-186107614D01*
X190958025Y-186107614D02*
X190886597Y-186250471D01*
X190886597Y-186250471D02*
X190815168Y-186321900D01*
X190815168Y-186321900D02*
X190672311Y-186393328D01*
X190672311Y-186393328D02*
X190458025Y-186393328D01*
X191458025Y-185393328D02*
X191743740Y-186393328D01*
X191743740Y-186393328D02*
X192029454Y-185679042D01*
X192029454Y-185679042D02*
X192315168Y-186393328D01*
X192315168Y-186393328D02*
X192600882Y-185393328D01*
X193743740Y-186321900D02*
X193600883Y-186393328D01*
X193600883Y-186393328D02*
X193315169Y-186393328D01*
X193315169Y-186393328D02*
X193172311Y-186321900D01*
X193172311Y-186321900D02*
X193100883Y-186179042D01*
X193100883Y-186179042D02*
X193100883Y-185607614D01*
X193100883Y-185607614D02*
X193172311Y-185464757D01*
X193172311Y-185464757D02*
X193315169Y-185393328D01*
X193315169Y-185393328D02*
X193600883Y-185393328D01*
X193600883Y-185393328D02*
X193743740Y-185464757D01*
X193743740Y-185464757D02*
X193815169Y-185607614D01*
X193815169Y-185607614D02*
X193815169Y-185750471D01*
X193815169Y-185750471D02*
X193100883Y-185893328D01*
X194458025Y-186393328D02*
X194458025Y-185393328D01*
X194458025Y-185679042D02*
X194529454Y-185536185D01*
X194529454Y-185536185D02*
X194600883Y-185464757D01*
X194600883Y-185464757D02*
X194743740Y-185393328D01*
X194743740Y-185393328D02*
X194886597Y-185393328D01*
X195029454Y-186536185D02*
X196172311Y-186536185D01*
X196458025Y-185964757D02*
X197172311Y-185964757D01*
X196315168Y-186393328D02*
X196815168Y-184893328D01*
X196815168Y-184893328D02*
X197315168Y-186393328D01*
X197815167Y-186250471D02*
X197886596Y-186321900D01*
X197886596Y-186321900D02*
X197815167Y-186393328D01*
X197815167Y-186393328D02*
X197743739Y-186321900D01*
X197743739Y-186321900D02*
X197815167Y-186250471D01*
X197815167Y-186250471D02*
X197815167Y-186393328D01*
X198529453Y-186393328D02*
X198529453Y-184893328D01*
X198672311Y-185821900D02*
X199100882Y-186393328D01*
X199100882Y-185393328D02*
X198529453Y-185964757D01*
X199743739Y-186393328D02*
X199743739Y-185393328D01*
X199743739Y-184893328D02*
X199672311Y-184964757D01*
X199672311Y-184964757D02*
X199743739Y-185036185D01*
X199743739Y-185036185D02*
X199815168Y-184964757D01*
X199815168Y-184964757D02*
X199743739Y-184893328D01*
X199743739Y-184893328D02*
X199743739Y-185036185D01*
X201100883Y-186321900D02*
X200958025Y-186393328D01*
X200958025Y-186393328D02*
X200672311Y-186393328D01*
X200672311Y-186393328D02*
X200529454Y-186321900D01*
X200529454Y-186321900D02*
X200458025Y-186250471D01*
X200458025Y-186250471D02*
X200386597Y-186107614D01*
X200386597Y-186107614D02*
X200386597Y-185679042D01*
X200386597Y-185679042D02*
X200458025Y-185536185D01*
X200458025Y-185536185D02*
X200529454Y-185464757D01*
X200529454Y-185464757D02*
X200672311Y-185393328D01*
X200672311Y-185393328D02*
X200958025Y-185393328D01*
X200958025Y-185393328D02*
X201100883Y-185464757D01*
X202386597Y-186393328D02*
X202386597Y-185607614D01*
X202386597Y-185607614D02*
X202315168Y-185464757D01*
X202315168Y-185464757D02*
X202172311Y-185393328D01*
X202172311Y-185393328D02*
X201886597Y-185393328D01*
X201886597Y-185393328D02*
X201743739Y-185464757D01*
X202386597Y-186321900D02*
X202243739Y-186393328D01*
X202243739Y-186393328D02*
X201886597Y-186393328D01*
X201886597Y-186393328D02*
X201743739Y-186321900D01*
X201743739Y-186321900D02*
X201672311Y-186179042D01*
X201672311Y-186179042D02*
X201672311Y-186036185D01*
X201672311Y-186036185D02*
X201743739Y-185893328D01*
X201743739Y-185893328D02*
X201886597Y-185821900D01*
X201886597Y-185821900D02*
X202243739Y-185821900D01*
X202243739Y-185821900D02*
X202386597Y-185750471D01*
X203743740Y-186393328D02*
X203743740Y-184893328D01*
X203743740Y-186321900D02*
X203600882Y-186393328D01*
X203600882Y-186393328D02*
X203315168Y-186393328D01*
X203315168Y-186393328D02*
X203172311Y-186321900D01*
X203172311Y-186321900D02*
X203100882Y-186250471D01*
X203100882Y-186250471D02*
X203029454Y-186107614D01*
X203029454Y-186107614D02*
X203029454Y-185679042D01*
X203029454Y-185679042D02*
X203100882Y-185536185D01*
X203100882Y-185536185D02*
X203172311Y-185464757D01*
X203172311Y-185464757D02*
X203315168Y-185393328D01*
X203315168Y-185393328D02*
X203600882Y-185393328D01*
X203600882Y-185393328D02*
X203743740Y-185464757D01*
X204100883Y-186536185D02*
X205243740Y-186536185D01*
X205600882Y-185393328D02*
X205600882Y-186893328D01*
X205600882Y-185464757D02*
X205743740Y-185393328D01*
X205743740Y-185393328D02*
X206029454Y-185393328D01*
X206029454Y-185393328D02*
X206172311Y-185464757D01*
X206172311Y-185464757D02*
X206243740Y-185536185D01*
X206243740Y-185536185D02*
X206315168Y-185679042D01*
X206315168Y-185679042D02*
X206315168Y-186107614D01*
X206315168Y-186107614D02*
X206243740Y-186250471D01*
X206243740Y-186250471D02*
X206172311Y-186321900D01*
X206172311Y-186321900D02*
X206029454Y-186393328D01*
X206029454Y-186393328D02*
X205743740Y-186393328D01*
X205743740Y-186393328D02*
X205600882Y-186321900D01*
X207600883Y-186321900D02*
X207458025Y-186393328D01*
X207458025Y-186393328D02*
X207172311Y-186393328D01*
X207172311Y-186393328D02*
X207029454Y-186321900D01*
X207029454Y-186321900D02*
X206958025Y-186250471D01*
X206958025Y-186250471D02*
X206886597Y-186107614D01*
X206886597Y-186107614D02*
X206886597Y-185679042D01*
X206886597Y-185679042D02*
X206958025Y-185536185D01*
X206958025Y-185536185D02*
X207029454Y-185464757D01*
X207029454Y-185464757D02*
X207172311Y-185393328D01*
X207172311Y-185393328D02*
X207458025Y-185393328D01*
X207458025Y-185393328D02*
X207600883Y-185464757D01*
X208243739Y-186393328D02*
X208243739Y-184893328D01*
X208243739Y-185464757D02*
X208386597Y-185393328D01*
X208386597Y-185393328D02*
X208672311Y-185393328D01*
X208672311Y-185393328D02*
X208815168Y-185464757D01*
X208815168Y-185464757D02*
X208886597Y-185536185D01*
X208886597Y-185536185D02*
X208958025Y-185679042D01*
X208958025Y-185679042D02*
X208958025Y-186107614D01*
X208958025Y-186107614D02*
X208886597Y-186250471D01*
X208886597Y-186250471D02*
X208815168Y-186321900D01*
X208815168Y-186321900D02*
X208672311Y-186393328D01*
X208672311Y-186393328D02*
X208386597Y-186393328D01*
X208386597Y-186393328D02*
X208243739Y-186321900D01*
D10*
D11*
X177002200Y-181507200D02*
X285002200Y-181507200D01*
D10*
D11*
X178386598Y-183621900D02*
X178600884Y-183693328D01*
X178600884Y-183693328D02*
X178958026Y-183693328D01*
X178958026Y-183693328D02*
X179100884Y-183621900D01*
X179100884Y-183621900D02*
X179172312Y-183550471D01*
X179172312Y-183550471D02*
X179243741Y-183407614D01*
X179243741Y-183407614D02*
X179243741Y-183264757D01*
X179243741Y-183264757D02*
X179172312Y-183121900D01*
X179172312Y-183121900D02*
X179100884Y-183050471D01*
X179100884Y-183050471D02*
X178958026Y-182979042D01*
X178958026Y-182979042D02*
X178672312Y-182907614D01*
X178672312Y-182907614D02*
X178529455Y-182836185D01*
X178529455Y-182836185D02*
X178458026Y-182764757D01*
X178458026Y-182764757D02*
X178386598Y-182621900D01*
X178386598Y-182621900D02*
X178386598Y-182479042D01*
X178386598Y-182479042D02*
X178458026Y-182336185D01*
X178458026Y-182336185D02*
X178529455Y-182264757D01*
X178529455Y-182264757D02*
X178672312Y-182193328D01*
X178672312Y-182193328D02*
X179029455Y-182193328D01*
X179029455Y-182193328D02*
X179243741Y-182264757D01*
X179886597Y-183693328D02*
X179886597Y-182193328D01*
X180529455Y-183693328D02*
X180529455Y-182907614D01*
X180529455Y-182907614D02*
X180458026Y-182764757D01*
X180458026Y-182764757D02*
X180315169Y-182693328D01*
X180315169Y-182693328D02*
X180100883Y-182693328D01*
X180100883Y-182693328D02*
X179958026Y-182764757D01*
X179958026Y-182764757D02*
X179886597Y-182836185D01*
X181815169Y-183621900D02*
X181672312Y-183693328D01*
X181672312Y-183693328D02*
X181386598Y-183693328D01*
X181386598Y-183693328D02*
X181243740Y-183621900D01*
X181243740Y-183621900D02*
X181172312Y-183479042D01*
X181172312Y-183479042D02*
X181172312Y-182907614D01*
X181172312Y-182907614D02*
X181243740Y-182764757D01*
X181243740Y-182764757D02*
X181386598Y-182693328D01*
X181386598Y-182693328D02*
X181672312Y-182693328D01*
X181672312Y-182693328D02*
X181815169Y-182764757D01*
X181815169Y-182764757D02*
X181886598Y-182907614D01*
X181886598Y-182907614D02*
X181886598Y-183050471D01*
X181886598Y-183050471D02*
X181172312Y-183193328D01*
X183100883Y-183621900D02*
X182958026Y-183693328D01*
X182958026Y-183693328D02*
X182672312Y-183693328D01*
X182672312Y-183693328D02*
X182529454Y-183621900D01*
X182529454Y-183621900D02*
X182458026Y-183479042D01*
X182458026Y-183479042D02*
X182458026Y-182907614D01*
X182458026Y-182907614D02*
X182529454Y-182764757D01*
X182529454Y-182764757D02*
X182672312Y-182693328D01*
X182672312Y-182693328D02*
X182958026Y-182693328D01*
X182958026Y-182693328D02*
X183100883Y-182764757D01*
X183100883Y-182764757D02*
X183172312Y-182907614D01*
X183172312Y-182907614D02*
X183172312Y-183050471D01*
X183172312Y-183050471D02*
X182458026Y-183193328D01*
X183600883Y-182693328D02*
X184172311Y-182693328D01*
X183815168Y-182193328D02*
X183815168Y-183479042D01*
X183815168Y-183479042D02*
X183886597Y-183621900D01*
X183886597Y-183621900D02*
X184029454Y-183693328D01*
X184029454Y-183693328D02*
X184172311Y-183693328D01*
X184672311Y-183550471D02*
X184743740Y-183621900D01*
X184743740Y-183621900D02*
X184672311Y-183693328D01*
X184672311Y-183693328D02*
X184600883Y-183621900D01*
X184600883Y-183621900D02*
X184672311Y-183550471D01*
X184672311Y-183550471D02*
X184672311Y-183693328D01*
X184672311Y-182764757D02*
X184743740Y-182836185D01*
X184743740Y-182836185D02*
X184672311Y-182907614D01*
X184672311Y-182907614D02*
X184600883Y-182836185D01*
X184600883Y-182836185D02*
X184672311Y-182764757D01*
X184672311Y-182764757D02*
X184672311Y-182907614D01*
D10*
D12*
X178556710Y-179899814D02*
X179056710Y-179899814D01*
X179270996Y-180685528D02*
X178556710Y-180685528D01*
X178556710Y-180685528D02*
X178556710Y-179185528D01*
X178556710Y-179185528D02*
X179270996Y-179185528D01*
X179842425Y-180614100D02*
X179985282Y-180685528D01*
X179985282Y-180685528D02*
X180270996Y-180685528D01*
X180270996Y-180685528D02*
X180413853Y-180614100D01*
X180413853Y-180614100D02*
X180485282Y-180471242D01*
X180485282Y-180471242D02*
X180485282Y-180399814D01*
X180485282Y-180399814D02*
X180413853Y-180256957D01*
X180413853Y-180256957D02*
X180270996Y-180185528D01*
X180270996Y-180185528D02*
X180056711Y-180185528D01*
X180056711Y-180185528D02*
X179913853Y-180114100D01*
X179913853Y-180114100D02*
X179842425Y-179971242D01*
X179842425Y-179971242D02*
X179842425Y-179899814D01*
X179842425Y-179899814D02*
X179913853Y-179756957D01*
X179913853Y-179756957D02*
X180056711Y-179685528D01*
X180056711Y-179685528D02*
X180270996Y-179685528D01*
X180270996Y-179685528D02*
X180413853Y-179756957D01*
X181770997Y-180614100D02*
X181628139Y-180685528D01*
X181628139Y-180685528D02*
X181342425Y-180685528D01*
X181342425Y-180685528D02*
X181199568Y-180614100D01*
X181199568Y-180614100D02*
X181128139Y-180542671D01*
X181128139Y-180542671D02*
X181056711Y-180399814D01*
X181056711Y-180399814D02*
X181056711Y-179971242D01*
X181056711Y-179971242D02*
X181128139Y-179828385D01*
X181128139Y-179828385D02*
X181199568Y-179756957D01*
X181199568Y-179756957D02*
X181342425Y-179685528D01*
X181342425Y-179685528D02*
X181628139Y-179685528D01*
X181628139Y-179685528D02*
X181770997Y-179756957D01*
X183056711Y-179685528D02*
X183056711Y-180685528D01*
X182413853Y-179685528D02*
X182413853Y-180471242D01*
X182413853Y-180471242D02*
X182485282Y-180614100D01*
X182485282Y-180614100D02*
X182628139Y-180685528D01*
X182628139Y-180685528D02*
X182842425Y-180685528D01*
X182842425Y-180685528D02*
X182985282Y-180614100D01*
X182985282Y-180614100D02*
X183056711Y-180542671D01*
X184342425Y-180614100D02*
X184199568Y-180685528D01*
X184199568Y-180685528D02*
X183913854Y-180685528D01*
X183913854Y-180685528D02*
X183770996Y-180614100D01*
X183770996Y-180614100D02*
X183699568Y-180471242D01*
X183699568Y-180471242D02*
X183699568Y-179899814D01*
X183699568Y-179899814D02*
X183770996Y-179756957D01*
X183770996Y-179756957D02*
X183913854Y-179685528D01*
X183913854Y-179685528D02*
X184199568Y-179685528D01*
X184199568Y-179685528D02*
X184342425Y-179756957D01*
X184342425Y-179756957D02*
X184413854Y-179899814D01*
X184413854Y-179899814D02*
X184413854Y-180042671D01*
X184413854Y-180042671D02*
X183699568Y-180185528D01*
X185270996Y-180685528D02*
X185128139Y-180614100D01*
X185128139Y-180614100D02*
X185056710Y-180471242D01*
X185056710Y-180471242D02*
X185056710Y-179185528D01*
X186485282Y-180685528D02*
X186485282Y-179899814D01*
X186485282Y-179899814D02*
X186413853Y-179756957D01*
X186413853Y-179756957D02*
X186270996Y-179685528D01*
X186270996Y-179685528D02*
X185985282Y-179685528D01*
X185985282Y-179685528D02*
X185842424Y-179756957D01*
X186485282Y-180614100D02*
X186342424Y-180685528D01*
X186342424Y-180685528D02*
X185985282Y-180685528D01*
X185985282Y-180685528D02*
X185842424Y-180614100D01*
X185842424Y-180614100D02*
X185770996Y-180471242D01*
X185770996Y-180471242D02*
X185770996Y-180328385D01*
X185770996Y-180328385D02*
X185842424Y-180185528D01*
X185842424Y-180185528D02*
X185985282Y-180114100D01*
X185985282Y-180114100D02*
X186342424Y-180114100D01*
X186342424Y-180114100D02*
X186485282Y-180042671D01*
X188270996Y-180614100D02*
X188485282Y-180685528D01*
X188485282Y-180685528D02*
X188842424Y-180685528D01*
X188842424Y-180685528D02*
X188985282Y-180614100D01*
X188985282Y-180614100D02*
X189056710Y-180542671D01*
X189056710Y-180542671D02*
X189128139Y-180399814D01*
X189128139Y-180399814D02*
X189128139Y-180256957D01*
X189128139Y-180256957D02*
X189056710Y-180114100D01*
X189056710Y-180114100D02*
X188985282Y-180042671D01*
X188985282Y-180042671D02*
X188842424Y-179971242D01*
X188842424Y-179971242D02*
X188556710Y-179899814D01*
X188556710Y-179899814D02*
X188413853Y-179828385D01*
X188413853Y-179828385D02*
X188342424Y-179756957D01*
X188342424Y-179756957D02*
X188270996Y-179614100D01*
X188270996Y-179614100D02*
X188270996Y-179471242D01*
X188270996Y-179471242D02*
X188342424Y-179328385D01*
X188342424Y-179328385D02*
X188413853Y-179256957D01*
X188413853Y-179256957D02*
X188556710Y-179185528D01*
X188556710Y-179185528D02*
X188913853Y-179185528D01*
X188913853Y-179185528D02*
X189128139Y-179256957D01*
X190413853Y-179685528D02*
X190413853Y-180685528D01*
X189770995Y-179685528D02*
X189770995Y-180471242D01*
X189770995Y-180471242D02*
X189842424Y-180614100D01*
X189842424Y-180614100D02*
X189985281Y-180685528D01*
X189985281Y-180685528D02*
X190199567Y-180685528D01*
X190199567Y-180685528D02*
X190342424Y-180614100D01*
X190342424Y-180614100D02*
X190413853Y-180542671D01*
X191128138Y-179685528D02*
X191128138Y-181185528D01*
X191128138Y-179756957D02*
X191270996Y-179685528D01*
X191270996Y-179685528D02*
X191556710Y-179685528D01*
X191556710Y-179685528D02*
X191699567Y-179756957D01*
X191699567Y-179756957D02*
X191770996Y-179828385D01*
X191770996Y-179828385D02*
X191842424Y-179971242D01*
X191842424Y-179971242D02*
X191842424Y-180399814D01*
X191842424Y-180399814D02*
X191770996Y-180542671D01*
X191770996Y-180542671D02*
X191699567Y-180614100D01*
X191699567Y-180614100D02*
X191556710Y-180685528D01*
X191556710Y-180685528D02*
X191270996Y-180685528D01*
X191270996Y-180685528D02*
X191128138Y-180614100D01*
X193056710Y-180614100D02*
X192913853Y-180685528D01*
X192913853Y-180685528D02*
X192628139Y-180685528D01*
X192628139Y-180685528D02*
X192485281Y-180614100D01*
X192485281Y-180614100D02*
X192413853Y-180471242D01*
X192413853Y-180471242D02*
X192413853Y-179899814D01*
X192413853Y-179899814D02*
X192485281Y-179756957D01*
X192485281Y-179756957D02*
X192628139Y-179685528D01*
X192628139Y-179685528D02*
X192913853Y-179685528D01*
X192913853Y-179685528D02*
X193056710Y-179756957D01*
X193056710Y-179756957D02*
X193128139Y-179899814D01*
X193128139Y-179899814D02*
X193128139Y-180042671D01*
X193128139Y-180042671D02*
X192413853Y-180185528D01*
X193770995Y-180685528D02*
X193770995Y-179685528D01*
X193770995Y-179971242D02*
X193842424Y-179828385D01*
X193842424Y-179828385D02*
X193913853Y-179756957D01*
X193913853Y-179756957D02*
X194056710Y-179685528D01*
X194056710Y-179685528D02*
X194199567Y-179685528D01*
X194699566Y-180685528D02*
X194699566Y-179685528D01*
X194699566Y-179185528D02*
X194628138Y-179256957D01*
X194628138Y-179256957D02*
X194699566Y-179328385D01*
X194699566Y-179328385D02*
X194770995Y-179256957D01*
X194770995Y-179256957D02*
X194699566Y-179185528D01*
X194699566Y-179185528D02*
X194699566Y-179328385D01*
X195628138Y-180685528D02*
X195485281Y-180614100D01*
X195485281Y-180614100D02*
X195413852Y-180542671D01*
X195413852Y-180542671D02*
X195342424Y-180399814D01*
X195342424Y-180399814D02*
X195342424Y-179971242D01*
X195342424Y-179971242D02*
X195413852Y-179828385D01*
X195413852Y-179828385D02*
X195485281Y-179756957D01*
X195485281Y-179756957D02*
X195628138Y-179685528D01*
X195628138Y-179685528D02*
X195842424Y-179685528D01*
X195842424Y-179685528D02*
X195985281Y-179756957D01*
X195985281Y-179756957D02*
X196056710Y-179828385D01*
X196056710Y-179828385D02*
X196128138Y-179971242D01*
X196128138Y-179971242D02*
X196128138Y-180399814D01*
X196128138Y-180399814D02*
X196056710Y-180542671D01*
X196056710Y-180542671D02*
X195985281Y-180614100D01*
X195985281Y-180614100D02*
X195842424Y-180685528D01*
X195842424Y-180685528D02*
X195628138Y-180685528D01*
X196770995Y-180685528D02*
X196770995Y-179685528D01*
X196770995Y-179971242D02*
X196842424Y-179828385D01*
X196842424Y-179828385D02*
X196913853Y-179756957D01*
X196913853Y-179756957D02*
X197056710Y-179685528D01*
X197056710Y-179685528D02*
X197199567Y-179685528D01*
X199485281Y-180685528D02*
X199485281Y-179185528D01*
X199485281Y-180614100D02*
X199342423Y-180685528D01*
X199342423Y-180685528D02*
X199056709Y-180685528D01*
X199056709Y-180685528D02*
X198913852Y-180614100D01*
X198913852Y-180614100D02*
X198842423Y-180542671D01*
X198842423Y-180542671D02*
X198770995Y-180399814D01*
X198770995Y-180399814D02*
X198770995Y-179971242D01*
X198770995Y-179971242D02*
X198842423Y-179828385D01*
X198842423Y-179828385D02*
X198913852Y-179756957D01*
X198913852Y-179756957D02*
X199056709Y-179685528D01*
X199056709Y-179685528D02*
X199342423Y-179685528D01*
X199342423Y-179685528D02*
X199485281Y-179756957D01*
X200770995Y-180614100D02*
X200628138Y-180685528D01*
X200628138Y-180685528D02*
X200342424Y-180685528D01*
X200342424Y-180685528D02*
X200199566Y-180614100D01*
X200199566Y-180614100D02*
X200128138Y-180471242D01*
X200128138Y-180471242D02*
X200128138Y-179899814D01*
X200128138Y-179899814D02*
X200199566Y-179756957D01*
X200199566Y-179756957D02*
X200342424Y-179685528D01*
X200342424Y-179685528D02*
X200628138Y-179685528D01*
X200628138Y-179685528D02*
X200770995Y-179756957D01*
X200770995Y-179756957D02*
X200842424Y-179899814D01*
X200842424Y-179899814D02*
X200842424Y-180042671D01*
X200842424Y-180042671D02*
X200128138Y-180185528D01*
X202628137Y-180685528D02*
X202628137Y-179185528D01*
X203342423Y-179685528D02*
X203342423Y-180685528D01*
X203342423Y-179828385D02*
X203413852Y-179756957D01*
X203413852Y-179756957D02*
X203556709Y-179685528D01*
X203556709Y-179685528D02*
X203770995Y-179685528D01*
X203770995Y-179685528D02*
X203913852Y-179756957D01*
X203913852Y-179756957D02*
X203985281Y-179899814D01*
X203985281Y-179899814D02*
X203985281Y-180685528D01*
X205342424Y-179685528D02*
X205342424Y-180899814D01*
X205342424Y-180899814D02*
X205270995Y-181042671D01*
X205270995Y-181042671D02*
X205199566Y-181114100D01*
X205199566Y-181114100D02*
X205056709Y-181185528D01*
X205056709Y-181185528D02*
X204842424Y-181185528D01*
X204842424Y-181185528D02*
X204699566Y-181114100D01*
X205342424Y-180614100D02*
X205199566Y-180685528D01*
X205199566Y-180685528D02*
X204913852Y-180685528D01*
X204913852Y-180685528D02*
X204770995Y-180614100D01*
X204770995Y-180614100D02*
X204699566Y-180542671D01*
X204699566Y-180542671D02*
X204628138Y-180399814D01*
X204628138Y-180399814D02*
X204628138Y-179971242D01*
X204628138Y-179971242D02*
X204699566Y-179828385D01*
X204699566Y-179828385D02*
X204770995Y-179756957D01*
X204770995Y-179756957D02*
X204913852Y-179685528D01*
X204913852Y-179685528D02*
X205199566Y-179685528D01*
X205199566Y-179685528D02*
X205342424Y-179756957D01*
X206628138Y-180614100D02*
X206485281Y-180685528D01*
X206485281Y-180685528D02*
X206199567Y-180685528D01*
X206199567Y-180685528D02*
X206056709Y-180614100D01*
X206056709Y-180614100D02*
X205985281Y-180471242D01*
X205985281Y-180471242D02*
X205985281Y-179899814D01*
X205985281Y-179899814D02*
X206056709Y-179756957D01*
X206056709Y-179756957D02*
X206199567Y-179685528D01*
X206199567Y-179685528D02*
X206485281Y-179685528D01*
X206485281Y-179685528D02*
X206628138Y-179756957D01*
X206628138Y-179756957D02*
X206699567Y-179899814D01*
X206699567Y-179899814D02*
X206699567Y-180042671D01*
X206699567Y-180042671D02*
X205985281Y-180185528D01*
X207342423Y-179685528D02*
X207342423Y-180685528D01*
X207342423Y-179828385D02*
X207413852Y-179756957D01*
X207413852Y-179756957D02*
X207556709Y-179685528D01*
X207556709Y-179685528D02*
X207770995Y-179685528D01*
X207770995Y-179685528D02*
X207913852Y-179756957D01*
X207913852Y-179756957D02*
X207985281Y-179899814D01*
X207985281Y-179899814D02*
X207985281Y-180685528D01*
X208699566Y-180685528D02*
X208699566Y-179685528D01*
X208699566Y-179185528D02*
X208628138Y-179256957D01*
X208628138Y-179256957D02*
X208699566Y-179328385D01*
X208699566Y-179328385D02*
X208770995Y-179256957D01*
X208770995Y-179256957D02*
X208699566Y-179185528D01*
X208699566Y-179185528D02*
X208699566Y-179328385D01*
X209985281Y-180614100D02*
X209842424Y-180685528D01*
X209842424Y-180685528D02*
X209556710Y-180685528D01*
X209556710Y-180685528D02*
X209413852Y-180614100D01*
X209413852Y-180614100D02*
X209342424Y-180471242D01*
X209342424Y-180471242D02*
X209342424Y-179899814D01*
X209342424Y-179899814D02*
X209413852Y-179756957D01*
X209413852Y-179756957D02*
X209556710Y-179685528D01*
X209556710Y-179685528D02*
X209842424Y-179685528D01*
X209842424Y-179685528D02*
X209985281Y-179756957D01*
X209985281Y-179756957D02*
X210056710Y-179899814D01*
X210056710Y-179899814D02*
X210056710Y-180042671D01*
X210056710Y-180042671D02*
X209342424Y-180185528D01*
X210699566Y-180685528D02*
X210699566Y-179685528D01*
X210699566Y-179971242D02*
X210770995Y-179828385D01*
X210770995Y-179828385D02*
X210842424Y-179756957D01*
X210842424Y-179756957D02*
X210985281Y-179685528D01*
X210985281Y-179685528D02*
X211128138Y-179685528D01*
X211628137Y-180685528D02*
X211628137Y-179685528D01*
X211770995Y-179114100D02*
X211556709Y-179328385D01*
X212985281Y-180685528D02*
X212985281Y-179899814D01*
X212985281Y-179899814D02*
X212913852Y-179756957D01*
X212913852Y-179756957D02*
X212770995Y-179685528D01*
X212770995Y-179685528D02*
X212485281Y-179685528D01*
X212485281Y-179685528D02*
X212342423Y-179756957D01*
X212985281Y-180614100D02*
X212842423Y-180685528D01*
X212842423Y-180685528D02*
X212485281Y-180685528D01*
X212485281Y-180685528D02*
X212342423Y-180614100D01*
X212342423Y-180614100D02*
X212270995Y-180471242D01*
X212270995Y-180471242D02*
X212270995Y-180328385D01*
X212270995Y-180328385D02*
X212342423Y-180185528D01*
X212342423Y-180185528D02*
X212485281Y-180114100D01*
X212485281Y-180114100D02*
X212842423Y-180114100D01*
X212842423Y-180114100D02*
X212985281Y-180042671D01*
X215270995Y-181256957D02*
X215199566Y-181185528D01*
X215199566Y-181185528D02*
X215056709Y-180971242D01*
X215056709Y-180971242D02*
X214985281Y-180828385D01*
X214985281Y-180828385D02*
X214913852Y-180614100D01*
X214913852Y-180614100D02*
X214842423Y-180256957D01*
X214842423Y-180256957D02*
X214842423Y-179971242D01*
X214842423Y-179971242D02*
X214913852Y-179614100D01*
X214913852Y-179614100D02*
X214985281Y-179399814D01*
X214985281Y-179399814D02*
X215056709Y-179256957D01*
X215056709Y-179256957D02*
X215199566Y-179042671D01*
X215199566Y-179042671D02*
X215270995Y-178971242D01*
X215842423Y-179185528D02*
X215842423Y-180399814D01*
X215842423Y-180399814D02*
X215913852Y-180542671D01*
X215913852Y-180542671D02*
X215985281Y-180614100D01*
X215985281Y-180614100D02*
X216128138Y-180685528D01*
X216128138Y-180685528D02*
X216413852Y-180685528D01*
X216413852Y-180685528D02*
X216556709Y-180614100D01*
X216556709Y-180614100D02*
X216628138Y-180542671D01*
X216628138Y-180542671D02*
X216699566Y-180399814D01*
X216699566Y-180399814D02*
X216699566Y-179185528D01*
X217413852Y-179685528D02*
X217413852Y-180685528D01*
X217413852Y-179828385D02*
X217485281Y-179756957D01*
X217485281Y-179756957D02*
X217628138Y-179685528D01*
X217628138Y-179685528D02*
X217842424Y-179685528D01*
X217842424Y-179685528D02*
X217985281Y-179756957D01*
X217985281Y-179756957D02*
X218056710Y-179899814D01*
X218056710Y-179899814D02*
X218056710Y-180685528D01*
X218770995Y-180685528D02*
X218770995Y-179685528D01*
X218770995Y-179185528D02*
X218699567Y-179256957D01*
X218699567Y-179256957D02*
X218770995Y-179328385D01*
X218770995Y-179328385D02*
X218842424Y-179256957D01*
X218842424Y-179256957D02*
X218770995Y-179185528D01*
X218770995Y-179185528D02*
X218770995Y-179328385D01*
X219342424Y-179685528D02*
X219699567Y-180685528D01*
X219699567Y-180685528D02*
X220056710Y-179685528D01*
X221199567Y-180614100D02*
X221056710Y-180685528D01*
X221056710Y-180685528D02*
X220770996Y-180685528D01*
X220770996Y-180685528D02*
X220628138Y-180614100D01*
X220628138Y-180614100D02*
X220556710Y-180471242D01*
X220556710Y-180471242D02*
X220556710Y-179899814D01*
X220556710Y-179899814D02*
X220628138Y-179756957D01*
X220628138Y-179756957D02*
X220770996Y-179685528D01*
X220770996Y-179685528D02*
X221056710Y-179685528D01*
X221056710Y-179685528D02*
X221199567Y-179756957D01*
X221199567Y-179756957D02*
X221270996Y-179899814D01*
X221270996Y-179899814D02*
X221270996Y-180042671D01*
X221270996Y-180042671D02*
X220556710Y-180185528D01*
X221913852Y-180685528D02*
X221913852Y-179685528D01*
X221913852Y-179971242D02*
X221985281Y-179828385D01*
X221985281Y-179828385D02*
X222056710Y-179756957D01*
X222056710Y-179756957D02*
X222199567Y-179685528D01*
X222199567Y-179685528D02*
X222342424Y-179685528D01*
X222770995Y-180614100D02*
X222913852Y-180685528D01*
X222913852Y-180685528D02*
X223199566Y-180685528D01*
X223199566Y-180685528D02*
X223342423Y-180614100D01*
X223342423Y-180614100D02*
X223413852Y-180471242D01*
X223413852Y-180471242D02*
X223413852Y-180399814D01*
X223413852Y-180399814D02*
X223342423Y-180256957D01*
X223342423Y-180256957D02*
X223199566Y-180185528D01*
X223199566Y-180185528D02*
X222985281Y-180185528D01*
X222985281Y-180185528D02*
X222842423Y-180114100D01*
X222842423Y-180114100D02*
X222770995Y-179971242D01*
X222770995Y-179971242D02*
X222770995Y-179899814D01*
X222770995Y-179899814D02*
X222842423Y-179756957D01*
X222842423Y-179756957D02*
X222985281Y-179685528D01*
X222985281Y-179685528D02*
X223199566Y-179685528D01*
X223199566Y-179685528D02*
X223342423Y-179756957D01*
X224056709Y-180685528D02*
X224056709Y-179685528D01*
X224056709Y-179185528D02*
X223985281Y-179256957D01*
X223985281Y-179256957D02*
X224056709Y-179328385D01*
X224056709Y-179328385D02*
X224128138Y-179256957D01*
X224128138Y-179256957D02*
X224056709Y-179185528D01*
X224056709Y-179185528D02*
X224056709Y-179328385D01*
X225413853Y-180685528D02*
X225413853Y-179185528D01*
X225413853Y-180614100D02*
X225270995Y-180685528D01*
X225270995Y-180685528D02*
X224985281Y-180685528D01*
X224985281Y-180685528D02*
X224842424Y-180614100D01*
X224842424Y-180614100D02*
X224770995Y-180542671D01*
X224770995Y-180542671D02*
X224699567Y-180399814D01*
X224699567Y-180399814D02*
X224699567Y-179971242D01*
X224699567Y-179971242D02*
X224770995Y-179828385D01*
X224770995Y-179828385D02*
X224842424Y-179756957D01*
X224842424Y-179756957D02*
X224985281Y-179685528D01*
X224985281Y-179685528D02*
X225270995Y-179685528D01*
X225270995Y-179685528D02*
X225413853Y-179756957D01*
X226770996Y-180685528D02*
X226770996Y-179899814D01*
X226770996Y-179899814D02*
X226699567Y-179756957D01*
X226699567Y-179756957D02*
X226556710Y-179685528D01*
X226556710Y-179685528D02*
X226270996Y-179685528D01*
X226270996Y-179685528D02*
X226128138Y-179756957D01*
X226770996Y-180614100D02*
X226628138Y-180685528D01*
X226628138Y-180685528D02*
X226270996Y-180685528D01*
X226270996Y-180685528D02*
X226128138Y-180614100D01*
X226128138Y-180614100D02*
X226056710Y-180471242D01*
X226056710Y-180471242D02*
X226056710Y-180328385D01*
X226056710Y-180328385D02*
X226128138Y-180185528D01*
X226128138Y-180185528D02*
X226270996Y-180114100D01*
X226270996Y-180114100D02*
X226628138Y-180114100D01*
X226628138Y-180114100D02*
X226770996Y-180042671D01*
X228128139Y-180685528D02*
X228128139Y-179185528D01*
X228128139Y-180614100D02*
X227985281Y-180685528D01*
X227985281Y-180685528D02*
X227699567Y-180685528D01*
X227699567Y-180685528D02*
X227556710Y-180614100D01*
X227556710Y-180614100D02*
X227485281Y-180542671D01*
X227485281Y-180542671D02*
X227413853Y-180399814D01*
X227413853Y-180399814D02*
X227413853Y-179971242D01*
X227413853Y-179971242D02*
X227485281Y-179828385D01*
X227485281Y-179828385D02*
X227556710Y-179756957D01*
X227556710Y-179756957D02*
X227699567Y-179685528D01*
X227699567Y-179685528D02*
X227985281Y-179685528D01*
X227985281Y-179685528D02*
X228128139Y-179756957D01*
X230628139Y-180685528D02*
X230628139Y-179185528D01*
X230628139Y-180614100D02*
X230485281Y-180685528D01*
X230485281Y-180685528D02*
X230199567Y-180685528D01*
X230199567Y-180685528D02*
X230056710Y-180614100D01*
X230056710Y-180614100D02*
X229985281Y-180542671D01*
X229985281Y-180542671D02*
X229913853Y-180399814D01*
X229913853Y-180399814D02*
X229913853Y-179971242D01*
X229913853Y-179971242D02*
X229985281Y-179828385D01*
X229985281Y-179828385D02*
X230056710Y-179756957D01*
X230056710Y-179756957D02*
X230199567Y-179685528D01*
X230199567Y-179685528D02*
X230485281Y-179685528D01*
X230485281Y-179685528D02*
X230628139Y-179756957D01*
X231913853Y-180614100D02*
X231770996Y-180685528D01*
X231770996Y-180685528D02*
X231485282Y-180685528D01*
X231485282Y-180685528D02*
X231342424Y-180614100D01*
X231342424Y-180614100D02*
X231270996Y-180471242D01*
X231270996Y-180471242D02*
X231270996Y-179899814D01*
X231270996Y-179899814D02*
X231342424Y-179756957D01*
X231342424Y-179756957D02*
X231485282Y-179685528D01*
X231485282Y-179685528D02*
X231770996Y-179685528D01*
X231770996Y-179685528D02*
X231913853Y-179756957D01*
X231913853Y-179756957D02*
X231985282Y-179899814D01*
X231985282Y-179899814D02*
X231985282Y-180042671D01*
X231985282Y-180042671D02*
X231270996Y-180185528D01*
X234628138Y-180542671D02*
X234556710Y-180614100D01*
X234556710Y-180614100D02*
X234342424Y-180685528D01*
X234342424Y-180685528D02*
X234199567Y-180685528D01*
X234199567Y-180685528D02*
X233985281Y-180614100D01*
X233985281Y-180614100D02*
X233842424Y-180471242D01*
X233842424Y-180471242D02*
X233770995Y-180328385D01*
X233770995Y-180328385D02*
X233699567Y-180042671D01*
X233699567Y-180042671D02*
X233699567Y-179828385D01*
X233699567Y-179828385D02*
X233770995Y-179542671D01*
X233770995Y-179542671D02*
X233842424Y-179399814D01*
X233842424Y-179399814D02*
X233985281Y-179256957D01*
X233985281Y-179256957D02*
X234199567Y-179185528D01*
X234199567Y-179185528D02*
X234342424Y-179185528D01*
X234342424Y-179185528D02*
X234556710Y-179256957D01*
X234556710Y-179256957D02*
X234628138Y-179328385D01*
X235913853Y-180685528D02*
X235913853Y-179899814D01*
X235913853Y-179899814D02*
X235842424Y-179756957D01*
X235842424Y-179756957D02*
X235699567Y-179685528D01*
X235699567Y-179685528D02*
X235413853Y-179685528D01*
X235413853Y-179685528D02*
X235270995Y-179756957D01*
X235913853Y-180614100D02*
X235770995Y-180685528D01*
X235770995Y-180685528D02*
X235413853Y-180685528D01*
X235413853Y-180685528D02*
X235270995Y-180614100D01*
X235270995Y-180614100D02*
X235199567Y-180471242D01*
X235199567Y-180471242D02*
X235199567Y-180328385D01*
X235199567Y-180328385D02*
X235270995Y-180185528D01*
X235270995Y-180185528D02*
X235413853Y-180114100D01*
X235413853Y-180114100D02*
X235770995Y-180114100D01*
X235770995Y-180114100D02*
X235913853Y-180042671D01*
X235699567Y-179114100D02*
X235485281Y-179328385D01*
X237270996Y-180685528D02*
X237270996Y-179185528D01*
X237270996Y-180614100D02*
X237128138Y-180685528D01*
X237128138Y-180685528D02*
X236842424Y-180685528D01*
X236842424Y-180685528D02*
X236699567Y-180614100D01*
X236699567Y-180614100D02*
X236628138Y-180542671D01*
X236628138Y-180542671D02*
X236556710Y-180399814D01*
X236556710Y-180399814D02*
X236556710Y-179971242D01*
X236556710Y-179971242D02*
X236628138Y-179828385D01*
X236628138Y-179828385D02*
X236699567Y-179756957D01*
X236699567Y-179756957D02*
X236842424Y-179685528D01*
X236842424Y-179685528D02*
X237128138Y-179685528D01*
X237128138Y-179685528D02*
X237270996Y-179756957D01*
X237985281Y-180685528D02*
X237985281Y-179685528D01*
X237985281Y-179185528D02*
X237913853Y-179256957D01*
X237913853Y-179256957D02*
X237985281Y-179328385D01*
X237985281Y-179328385D02*
X238056710Y-179256957D01*
X238056710Y-179256957D02*
X237985281Y-179185528D01*
X237985281Y-179185528D02*
X237985281Y-179328385D01*
X238556710Y-179685528D02*
X239342425Y-179685528D01*
X239342425Y-179685528D02*
X238556710Y-180685528D01*
X238556710Y-180685528D02*
X239342425Y-180685528D01*
X239770996Y-181256957D02*
X239842425Y-181185528D01*
X239842425Y-181185528D02*
X239985282Y-180971242D01*
X239985282Y-180971242D02*
X240056711Y-180828385D01*
X240056711Y-180828385D02*
X240128139Y-180614100D01*
X240128139Y-180614100D02*
X240199568Y-180256957D01*
X240199568Y-180256957D02*
X240199568Y-179971242D01*
X240199568Y-179971242D02*
X240128139Y-179614100D01*
X240128139Y-179614100D02*
X240056711Y-179399814D01*
X240056711Y-179399814D02*
X239985282Y-179256957D01*
X239985282Y-179256957D02*
X239842425Y-179042671D01*
X239842425Y-179042671D02*
X239770996Y-178971242D01*
X242056710Y-180114100D02*
X243199568Y-180114100D01*
X245842425Y-179256957D02*
X245699568Y-179185528D01*
X245699568Y-179185528D02*
X245485282Y-179185528D01*
X245485282Y-179185528D02*
X245270996Y-179256957D01*
X245270996Y-179256957D02*
X245128139Y-179399814D01*
X245128139Y-179399814D02*
X245056710Y-179542671D01*
X245056710Y-179542671D02*
X244985282Y-179828385D01*
X244985282Y-179828385D02*
X244985282Y-180042671D01*
X244985282Y-180042671D02*
X245056710Y-180328385D01*
X245056710Y-180328385D02*
X245128139Y-180471242D01*
X245128139Y-180471242D02*
X245270996Y-180614100D01*
X245270996Y-180614100D02*
X245485282Y-180685528D01*
X245485282Y-180685528D02*
X245628139Y-180685528D01*
X245628139Y-180685528D02*
X245842425Y-180614100D01*
X245842425Y-180614100D02*
X245913853Y-180542671D01*
X245913853Y-180542671D02*
X245913853Y-180042671D01*
X245913853Y-180042671D02*
X245628139Y-180042671D01*
X246556710Y-180685528D02*
X246556710Y-179685528D01*
X246556710Y-179971242D02*
X246628139Y-179828385D01*
X246628139Y-179828385D02*
X246699568Y-179756957D01*
X246699568Y-179756957D02*
X246842425Y-179685528D01*
X246842425Y-179685528D02*
X246985282Y-179685528D01*
X248128139Y-180685528D02*
X248128139Y-179899814D01*
X248128139Y-179899814D02*
X248056710Y-179756957D01*
X248056710Y-179756957D02*
X247913853Y-179685528D01*
X247913853Y-179685528D02*
X247628139Y-179685528D01*
X247628139Y-179685528D02*
X247485281Y-179756957D01*
X248128139Y-180614100D02*
X247985281Y-180685528D01*
X247985281Y-180685528D02*
X247628139Y-180685528D01*
X247628139Y-180685528D02*
X247485281Y-180614100D01*
X247485281Y-180614100D02*
X247413853Y-180471242D01*
X247413853Y-180471242D02*
X247413853Y-180328385D01*
X247413853Y-180328385D02*
X247485281Y-180185528D01*
X247485281Y-180185528D02*
X247628139Y-180114100D01*
X247628139Y-180114100D02*
X247985281Y-180114100D01*
X247985281Y-180114100D02*
X248128139Y-180042671D01*
X248842424Y-179685528D02*
X248842424Y-181185528D01*
X248842424Y-179756957D02*
X248985282Y-179685528D01*
X248985282Y-179685528D02*
X249270996Y-179685528D01*
X249270996Y-179685528D02*
X249413853Y-179756957D01*
X249413853Y-179756957D02*
X249485282Y-179828385D01*
X249485282Y-179828385D02*
X249556710Y-179971242D01*
X249556710Y-179971242D02*
X249556710Y-180399814D01*
X249556710Y-180399814D02*
X249485282Y-180542671D01*
X249485282Y-180542671D02*
X249413853Y-180614100D01*
X249413853Y-180614100D02*
X249270996Y-180685528D01*
X249270996Y-180685528D02*
X248985282Y-180685528D01*
X248985282Y-180685528D02*
X248842424Y-180614100D01*
X250199567Y-180685528D02*
X250199567Y-179185528D01*
X250842425Y-180685528D02*
X250842425Y-179899814D01*
X250842425Y-179899814D02*
X250770996Y-179756957D01*
X250770996Y-179756957D02*
X250628139Y-179685528D01*
X250628139Y-179685528D02*
X250413853Y-179685528D01*
X250413853Y-179685528D02*
X250270996Y-179756957D01*
X250270996Y-179756957D02*
X250199567Y-179828385D01*
X251556710Y-180685528D02*
X251556710Y-179685528D01*
X251556710Y-179185528D02*
X251485282Y-179256957D01*
X251485282Y-179256957D02*
X251556710Y-179328385D01*
X251556710Y-179328385D02*
X251628139Y-179256957D01*
X251628139Y-179256957D02*
X251556710Y-179185528D01*
X251556710Y-179185528D02*
X251556710Y-179328385D01*
X252913854Y-180614100D02*
X252770996Y-180685528D01*
X252770996Y-180685528D02*
X252485282Y-180685528D01*
X252485282Y-180685528D02*
X252342425Y-180614100D01*
X252342425Y-180614100D02*
X252270996Y-180542671D01*
X252270996Y-180542671D02*
X252199568Y-180399814D01*
X252199568Y-180399814D02*
X252199568Y-179971242D01*
X252199568Y-179971242D02*
X252270996Y-179828385D01*
X252270996Y-179828385D02*
X252342425Y-179756957D01*
X252342425Y-179756957D02*
X252485282Y-179685528D01*
X252485282Y-179685528D02*
X252770996Y-179685528D01*
X252770996Y-179685528D02*
X252913854Y-179756957D01*
X254199568Y-180685528D02*
X254199568Y-179899814D01*
X254199568Y-179899814D02*
X254128139Y-179756957D01*
X254128139Y-179756957D02*
X253985282Y-179685528D01*
X253985282Y-179685528D02*
X253699568Y-179685528D01*
X253699568Y-179685528D02*
X253556710Y-179756957D01*
X254199568Y-180614100D02*
X254056710Y-180685528D01*
X254056710Y-180685528D02*
X253699568Y-180685528D01*
X253699568Y-180685528D02*
X253556710Y-180614100D01*
X253556710Y-180614100D02*
X253485282Y-180471242D01*
X253485282Y-180471242D02*
X253485282Y-180328385D01*
X253485282Y-180328385D02*
X253556710Y-180185528D01*
X253556710Y-180185528D02*
X253699568Y-180114100D01*
X253699568Y-180114100D02*
X254056710Y-180114100D01*
X254056710Y-180114100D02*
X254199568Y-180042671D01*
X255128139Y-180685528D02*
X254985282Y-180614100D01*
X254985282Y-180614100D02*
X254913853Y-180471242D01*
X254913853Y-180471242D02*
X254913853Y-179185528D01*
X256842424Y-180685528D02*
X256842424Y-179185528D01*
X256842424Y-179185528D02*
X257342424Y-180256957D01*
X257342424Y-180256957D02*
X257842424Y-179185528D01*
X257842424Y-179185528D02*
X257842424Y-180685528D01*
X259128139Y-180614100D02*
X258985282Y-180685528D01*
X258985282Y-180685528D02*
X258699568Y-180685528D01*
X258699568Y-180685528D02*
X258556710Y-180614100D01*
X258556710Y-180614100D02*
X258485282Y-180471242D01*
X258485282Y-180471242D02*
X258485282Y-179899814D01*
X258485282Y-179899814D02*
X258556710Y-179756957D01*
X258556710Y-179756957D02*
X258699568Y-179685528D01*
X258699568Y-179685528D02*
X258985282Y-179685528D01*
X258985282Y-179685528D02*
X259128139Y-179756957D01*
X259128139Y-179756957D02*
X259199568Y-179899814D01*
X259199568Y-179899814D02*
X259199568Y-180042671D01*
X259199568Y-180042671D02*
X258485282Y-180185528D01*
X259628139Y-179685528D02*
X260199567Y-179685528D01*
X259842424Y-179185528D02*
X259842424Y-180471242D01*
X259842424Y-180471242D02*
X259913853Y-180614100D01*
X259913853Y-180614100D02*
X260056710Y-180685528D01*
X260056710Y-180685528D02*
X260199567Y-180685528D01*
X260699567Y-180685528D02*
X260699567Y-179185528D01*
X261342425Y-180685528D02*
X261342425Y-179899814D01*
X261342425Y-179899814D02*
X261270996Y-179756957D01*
X261270996Y-179756957D02*
X261128139Y-179685528D01*
X261128139Y-179685528D02*
X260913853Y-179685528D01*
X260913853Y-179685528D02*
X260770996Y-179756957D01*
X260770996Y-179756957D02*
X260699567Y-179828385D01*
X262270996Y-180685528D02*
X262128139Y-180614100D01*
X262128139Y-180614100D02*
X262056710Y-180542671D01*
X262056710Y-180542671D02*
X261985282Y-180399814D01*
X261985282Y-180399814D02*
X261985282Y-179971242D01*
X261985282Y-179971242D02*
X262056710Y-179828385D01*
X262056710Y-179828385D02*
X262128139Y-179756957D01*
X262128139Y-179756957D02*
X262270996Y-179685528D01*
X262270996Y-179685528D02*
X262485282Y-179685528D01*
X262485282Y-179685528D02*
X262628139Y-179756957D01*
X262628139Y-179756957D02*
X262699568Y-179828385D01*
X262699568Y-179828385D02*
X262770996Y-179971242D01*
X262770996Y-179971242D02*
X262770996Y-180399814D01*
X262770996Y-180399814D02*
X262699568Y-180542671D01*
X262699568Y-180542671D02*
X262628139Y-180614100D01*
X262628139Y-180614100D02*
X262485282Y-180685528D01*
X262485282Y-180685528D02*
X262270996Y-180685528D01*
X264056711Y-180685528D02*
X264056711Y-179185528D01*
X264056711Y-180614100D02*
X263913853Y-180685528D01*
X263913853Y-180685528D02*
X263628139Y-180685528D01*
X263628139Y-180685528D02*
X263485282Y-180614100D01*
X263485282Y-180614100D02*
X263413853Y-180542671D01*
X263413853Y-180542671D02*
X263342425Y-180399814D01*
X263342425Y-180399814D02*
X263342425Y-179971242D01*
X263342425Y-179971242D02*
X263413853Y-179828385D01*
X263413853Y-179828385D02*
X263485282Y-179756957D01*
X263485282Y-179756957D02*
X263628139Y-179685528D01*
X263628139Y-179685528D02*
X263913853Y-179685528D01*
X263913853Y-179685528D02*
X264056711Y-179756957D01*
X264699568Y-180614100D02*
X264842425Y-180685528D01*
X264842425Y-180685528D02*
X265128139Y-180685528D01*
X265128139Y-180685528D02*
X265270996Y-180614100D01*
X265270996Y-180614100D02*
X265342425Y-180471242D01*
X265342425Y-180471242D02*
X265342425Y-180399814D01*
X265342425Y-180399814D02*
X265270996Y-180256957D01*
X265270996Y-180256957D02*
X265128139Y-180185528D01*
X265128139Y-180185528D02*
X264913854Y-180185528D01*
X264913854Y-180185528D02*
X264770996Y-180114100D01*
X264770996Y-180114100D02*
X264699568Y-179971242D01*
X264699568Y-179971242D02*
X264699568Y-179899814D01*
X264699568Y-179899814D02*
X264770996Y-179756957D01*
X264770996Y-179756957D02*
X264913854Y-179685528D01*
X264913854Y-179685528D02*
X265128139Y-179685528D01*
X265128139Y-179685528D02*
X265270996Y-179756957D01*
X266056711Y-180614100D02*
X266056711Y-180685528D01*
X266056711Y-180685528D02*
X265985282Y-180828385D01*
X265985282Y-180828385D02*
X265913854Y-180899814D01*
X268128140Y-179185528D02*
X268413854Y-179185528D01*
X268413854Y-179185528D02*
X268556711Y-179256957D01*
X268556711Y-179256957D02*
X268699568Y-179399814D01*
X268699568Y-179399814D02*
X268770997Y-179685528D01*
X268770997Y-179685528D02*
X268770997Y-180185528D01*
X268770997Y-180185528D02*
X268699568Y-180471242D01*
X268699568Y-180471242D02*
X268556711Y-180614100D01*
X268556711Y-180614100D02*
X268413854Y-180685528D01*
X268413854Y-180685528D02*
X268128140Y-180685528D01*
X268128140Y-180685528D02*
X267985283Y-180614100D01*
X267985283Y-180614100D02*
X267842425Y-180471242D01*
X267842425Y-180471242D02*
X267770997Y-180185528D01*
X267770997Y-180185528D02*
X267770997Y-179685528D01*
X267770997Y-179685528D02*
X267842425Y-179399814D01*
X267842425Y-179399814D02*
X267985283Y-179256957D01*
X267985283Y-179256957D02*
X268128140Y-179185528D01*
X269413854Y-179685528D02*
X269413854Y-181185528D01*
X269413854Y-179756957D02*
X269556712Y-179685528D01*
X269556712Y-179685528D02*
X269842426Y-179685528D01*
X269842426Y-179685528D02*
X269985283Y-179756957D01*
X269985283Y-179756957D02*
X270056712Y-179828385D01*
X270056712Y-179828385D02*
X270128140Y-179971242D01*
X270128140Y-179971242D02*
X270128140Y-180399814D01*
X270128140Y-180399814D02*
X270056712Y-180542671D01*
X270056712Y-180542671D02*
X269985283Y-180614100D01*
X269985283Y-180614100D02*
X269842426Y-180685528D01*
X269842426Y-180685528D02*
X269556712Y-180685528D01*
X269556712Y-180685528D02*
X269413854Y-180614100D01*
X270556712Y-179685528D02*
X271128140Y-179685528D01*
X270770997Y-179185528D02*
X270770997Y-180471242D01*
X270770997Y-180471242D02*
X270842426Y-180614100D01*
X270842426Y-180614100D02*
X270985283Y-180685528D01*
X270985283Y-180685528D02*
X271128140Y-180685528D01*
X271628140Y-180685528D02*
X271628140Y-179685528D01*
X271628140Y-179185528D02*
X271556712Y-179256957D01*
X271556712Y-179256957D02*
X271628140Y-179328385D01*
X271628140Y-179328385D02*
X271699569Y-179256957D01*
X271699569Y-179256957D02*
X271628140Y-179185528D01*
X271628140Y-179185528D02*
X271628140Y-179328385D01*
X272342426Y-180685528D02*
X272342426Y-179685528D01*
X272342426Y-179828385D02*
X272413855Y-179756957D01*
X272413855Y-179756957D02*
X272556712Y-179685528D01*
X272556712Y-179685528D02*
X272770998Y-179685528D01*
X272770998Y-179685528D02*
X272913855Y-179756957D01*
X272913855Y-179756957D02*
X272985284Y-179899814D01*
X272985284Y-179899814D02*
X272985284Y-180685528D01*
X272985284Y-179899814D02*
X273056712Y-179756957D01*
X273056712Y-179756957D02*
X273199569Y-179685528D01*
X273199569Y-179685528D02*
X273413855Y-179685528D01*
X273413855Y-179685528D02*
X273556712Y-179756957D01*
X273556712Y-179756957D02*
X273628141Y-179899814D01*
X273628141Y-179899814D02*
X273628141Y-180685528D01*
X274342426Y-180685528D02*
X274342426Y-179685528D01*
X274342426Y-179185528D02*
X274270998Y-179256957D01*
X274270998Y-179256957D02*
X274342426Y-179328385D01*
X274342426Y-179328385D02*
X274413855Y-179256957D01*
X274413855Y-179256957D02*
X274342426Y-179185528D01*
X274342426Y-179185528D02*
X274342426Y-179328385D01*
X274913855Y-179685528D02*
X275699570Y-179685528D01*
X275699570Y-179685528D02*
X274913855Y-180685528D01*
X274913855Y-180685528D02*
X275699570Y-180685528D01*
X276913856Y-180685528D02*
X276913856Y-179899814D01*
X276913856Y-179899814D02*
X276842427Y-179756957D01*
X276842427Y-179756957D02*
X276699570Y-179685528D01*
X276699570Y-179685528D02*
X276413856Y-179685528D01*
X276413856Y-179685528D02*
X276270998Y-179756957D01*
X276913856Y-180614100D02*
X276770998Y-180685528D01*
X276770998Y-180685528D02*
X276413856Y-180685528D01*
X276413856Y-180685528D02*
X276270998Y-180614100D01*
X276270998Y-180614100D02*
X276199570Y-180471242D01*
X276199570Y-180471242D02*
X276199570Y-180328385D01*
X276199570Y-180328385D02*
X276270998Y-180185528D01*
X276270998Y-180185528D02*
X276413856Y-180114100D01*
X276413856Y-180114100D02*
X276770998Y-180114100D01*
X276770998Y-180114100D02*
X276913856Y-180042671D01*
X277413856Y-179685528D02*
X277985284Y-179685528D01*
X277628141Y-179185528D02*
X277628141Y-180471242D01*
X277628141Y-180471242D02*
X277699570Y-180614100D01*
X277699570Y-180614100D02*
X277842427Y-180685528D01*
X277842427Y-180685528D02*
X277985284Y-180685528D01*
X278485284Y-180685528D02*
X278485284Y-179685528D01*
X278485284Y-179185528D02*
X278413856Y-179256957D01*
X278413856Y-179256957D02*
X278485284Y-179328385D01*
X278485284Y-179328385D02*
X278556713Y-179256957D01*
X278556713Y-179256957D02*
X278485284Y-179185528D01*
X278485284Y-179185528D02*
X278485284Y-179328385D01*
X279413856Y-180685528D02*
X279270999Y-180614100D01*
X279270999Y-180614100D02*
X279199570Y-180542671D01*
X279199570Y-180542671D02*
X279128142Y-180399814D01*
X279128142Y-180399814D02*
X279128142Y-179971242D01*
X279128142Y-179971242D02*
X279199570Y-179828385D01*
X279199570Y-179828385D02*
X279270999Y-179756957D01*
X279270999Y-179756957D02*
X279413856Y-179685528D01*
X279413856Y-179685528D02*
X279628142Y-179685528D01*
X279628142Y-179685528D02*
X279770999Y-179756957D01*
X279770999Y-179756957D02*
X279842428Y-179828385D01*
X279842428Y-179828385D02*
X279913856Y-179971242D01*
X279913856Y-179971242D02*
X279913856Y-180399814D01*
X279913856Y-180399814D02*
X279842428Y-180542671D01*
X279842428Y-180542671D02*
X279770999Y-180614100D01*
X279770999Y-180614100D02*
X279628142Y-180685528D01*
X279628142Y-180685528D02*
X279413856Y-180685528D01*
X280556713Y-179685528D02*
X280556713Y-180685528D01*
X280556713Y-179828385D02*
X280628142Y-179756957D01*
X280628142Y-179756957D02*
X280770999Y-179685528D01*
X280770999Y-179685528D02*
X280985285Y-179685528D01*
X280985285Y-179685528D02*
X281128142Y-179756957D01*
X281128142Y-179756957D02*
X281199571Y-179899814D01*
X281199571Y-179899814D02*
X281199571Y-180685528D01*
X283699571Y-180685528D02*
X283699571Y-179899814D01*
X283699571Y-179899814D02*
X283628142Y-179756957D01*
X283628142Y-179756957D02*
X283485285Y-179685528D01*
X283485285Y-179685528D02*
X283199571Y-179685528D01*
X283199571Y-179685528D02*
X283056713Y-179756957D01*
X283699571Y-180614100D02*
X283556713Y-180685528D01*
X283556713Y-180685528D02*
X283199571Y-180685528D01*
X283199571Y-180685528D02*
X283056713Y-180614100D01*
X283056713Y-180614100D02*
X282985285Y-180471242D01*
X282985285Y-180471242D02*
X282985285Y-180328385D01*
X282985285Y-180328385D02*
X283056713Y-180185528D01*
X283056713Y-180185528D02*
X283199571Y-180114100D01*
X283199571Y-180114100D02*
X283556713Y-180114100D01*
X283556713Y-180114100D02*
X283699571Y-180042671D01*
X284413856Y-179685528D02*
X284413856Y-180685528D01*
X284413856Y-179828385D02*
X284485285Y-179756957D01*
X284485285Y-179756957D02*
X284628142Y-179685528D01*
X284628142Y-179685528D02*
X284842428Y-179685528D01*
X284842428Y-179685528D02*
X284985285Y-179756957D01*
X284985285Y-179756957D02*
X285056714Y-179899814D01*
X285056714Y-179899814D02*
X285056714Y-180685528D01*
X286413857Y-180685528D02*
X286413857Y-179185528D01*
X286413857Y-180614100D02*
X286270999Y-180685528D01*
X286270999Y-180685528D02*
X285985285Y-180685528D01*
X285985285Y-180685528D02*
X285842428Y-180614100D01*
X285842428Y-180614100D02*
X285770999Y-180542671D01*
X285770999Y-180542671D02*
X285699571Y-180399814D01*
X285699571Y-180399814D02*
X285699571Y-179971242D01*
X285699571Y-179971242D02*
X285770999Y-179828385D01*
X285770999Y-179828385D02*
X285842428Y-179756957D01*
X285842428Y-179756957D02*
X285985285Y-179685528D01*
X285985285Y-179685528D02*
X286270999Y-179685528D01*
X286270999Y-179685528D02*
X286413857Y-179756957D01*
X288985285Y-180685528D02*
X288270999Y-180685528D01*
X288270999Y-180685528D02*
X288270999Y-179185528D01*
X290056714Y-180614100D02*
X289913857Y-180685528D01*
X289913857Y-180685528D02*
X289628143Y-180685528D01*
X289628143Y-180685528D02*
X289485285Y-180614100D01*
X289485285Y-180614100D02*
X289413857Y-180471242D01*
X289413857Y-180471242D02*
X289413857Y-179899814D01*
X289413857Y-179899814D02*
X289485285Y-179756957D01*
X289485285Y-179756957D02*
X289628143Y-179685528D01*
X289628143Y-179685528D02*
X289913857Y-179685528D01*
X289913857Y-179685528D02*
X290056714Y-179756957D01*
X290056714Y-179756957D02*
X290128143Y-179899814D01*
X290128143Y-179899814D02*
X290128143Y-180042671D01*
X290128143Y-180042671D02*
X289413857Y-180185528D01*
X291413857Y-180685528D02*
X291413857Y-179899814D01*
X291413857Y-179899814D02*
X291342428Y-179756957D01*
X291342428Y-179756957D02*
X291199571Y-179685528D01*
X291199571Y-179685528D02*
X290913857Y-179685528D01*
X290913857Y-179685528D02*
X290770999Y-179756957D01*
X291413857Y-180614100D02*
X291270999Y-180685528D01*
X291270999Y-180685528D02*
X290913857Y-180685528D01*
X290913857Y-180685528D02*
X290770999Y-180614100D01*
X290770999Y-180614100D02*
X290699571Y-180471242D01*
X290699571Y-180471242D02*
X290699571Y-180328385D01*
X290699571Y-180328385D02*
X290770999Y-180185528D01*
X290770999Y-180185528D02*
X290913857Y-180114100D01*
X290913857Y-180114100D02*
X291270999Y-180114100D01*
X291270999Y-180114100D02*
X291413857Y-180042671D01*
X292128142Y-180685528D02*
X292128142Y-179685528D01*
X292128142Y-179971242D02*
X292199571Y-179828385D01*
X292199571Y-179828385D02*
X292271000Y-179756957D01*
X292271000Y-179756957D02*
X292413857Y-179685528D01*
X292413857Y-179685528D02*
X292556714Y-179685528D01*
X293056713Y-179685528D02*
X293056713Y-180685528D01*
X293056713Y-179828385D02*
X293128142Y-179756957D01*
X293128142Y-179756957D02*
X293270999Y-179685528D01*
X293270999Y-179685528D02*
X293485285Y-179685528D01*
X293485285Y-179685528D02*
X293628142Y-179756957D01*
X293628142Y-179756957D02*
X293699571Y-179899814D01*
X293699571Y-179899814D02*
X293699571Y-180685528D01*
X294413856Y-180685528D02*
X294413856Y-179685528D01*
X294413856Y-179185528D02*
X294342428Y-179256957D01*
X294342428Y-179256957D02*
X294413856Y-179328385D01*
X294413856Y-179328385D02*
X294485285Y-179256957D01*
X294485285Y-179256957D02*
X294413856Y-179185528D01*
X294413856Y-179185528D02*
X294413856Y-179328385D01*
X295128142Y-179685528D02*
X295128142Y-180685528D01*
X295128142Y-179828385D02*
X295199571Y-179756957D01*
X295199571Y-179756957D02*
X295342428Y-179685528D01*
X295342428Y-179685528D02*
X295556714Y-179685528D01*
X295556714Y-179685528D02*
X295699571Y-179756957D01*
X295699571Y-179756957D02*
X295771000Y-179899814D01*
X295771000Y-179899814D02*
X295771000Y-180685528D01*
X297128143Y-179685528D02*
X297128143Y-180899814D01*
X297128143Y-180899814D02*
X297056714Y-181042671D01*
X297056714Y-181042671D02*
X296985285Y-181114100D01*
X296985285Y-181114100D02*
X296842428Y-181185528D01*
X296842428Y-181185528D02*
X296628143Y-181185528D01*
X296628143Y-181185528D02*
X296485285Y-181114100D01*
X297128143Y-180614100D02*
X296985285Y-180685528D01*
X296985285Y-180685528D02*
X296699571Y-180685528D01*
X296699571Y-180685528D02*
X296556714Y-180614100D01*
X296556714Y-180614100D02*
X296485285Y-180542671D01*
X296485285Y-180542671D02*
X296413857Y-180399814D01*
X296413857Y-180399814D02*
X296413857Y-179971242D01*
X296413857Y-179971242D02*
X296485285Y-179828385D01*
X296485285Y-179828385D02*
X296556714Y-179756957D01*
X296556714Y-179756957D02*
X296699571Y-179685528D01*
X296699571Y-179685528D02*
X296985285Y-179685528D01*
X296985285Y-179685528D02*
X297128143Y-179756957D01*
X299842428Y-180685528D02*
X299342428Y-179971242D01*
X298985285Y-180685528D02*
X298985285Y-179185528D01*
X298985285Y-179185528D02*
X299556714Y-179185528D01*
X299556714Y-179185528D02*
X299699571Y-179256957D01*
X299699571Y-179256957D02*
X299771000Y-179328385D01*
X299771000Y-179328385D02*
X299842428Y-179471242D01*
X299842428Y-179471242D02*
X299842428Y-179685528D01*
X299842428Y-179685528D02*
X299771000Y-179828385D01*
X299771000Y-179828385D02*
X299699571Y-179899814D01*
X299699571Y-179899814D02*
X299556714Y-179971242D01*
X299556714Y-179971242D02*
X298985285Y-179971242D01*
X301056714Y-180614100D02*
X300913857Y-180685528D01*
X300913857Y-180685528D02*
X300628143Y-180685528D01*
X300628143Y-180685528D02*
X300485285Y-180614100D01*
X300485285Y-180614100D02*
X300413857Y-180471242D01*
X300413857Y-180471242D02*
X300413857Y-179899814D01*
X300413857Y-179899814D02*
X300485285Y-179756957D01*
X300485285Y-179756957D02*
X300628143Y-179685528D01*
X300628143Y-179685528D02*
X300913857Y-179685528D01*
X300913857Y-179685528D02*
X301056714Y-179756957D01*
X301056714Y-179756957D02*
X301128143Y-179899814D01*
X301128143Y-179899814D02*
X301128143Y-180042671D01*
X301128143Y-180042671D02*
X300413857Y-180185528D01*
X301699571Y-180614100D02*
X301842428Y-180685528D01*
X301842428Y-180685528D02*
X302128142Y-180685528D01*
X302128142Y-180685528D02*
X302270999Y-180614100D01*
X302270999Y-180614100D02*
X302342428Y-180471242D01*
X302342428Y-180471242D02*
X302342428Y-180399814D01*
X302342428Y-180399814D02*
X302270999Y-180256957D01*
X302270999Y-180256957D02*
X302128142Y-180185528D01*
X302128142Y-180185528D02*
X301913857Y-180185528D01*
X301913857Y-180185528D02*
X301770999Y-180114100D01*
X301770999Y-180114100D02*
X301699571Y-179971242D01*
X301699571Y-179971242D02*
X301699571Y-179899814D01*
X301699571Y-179899814D02*
X301770999Y-179756957D01*
X301770999Y-179756957D02*
X301913857Y-179685528D01*
X301913857Y-179685528D02*
X302128142Y-179685528D01*
X302128142Y-179685528D02*
X302270999Y-179756957D01*
X303556714Y-180614100D02*
X303413857Y-180685528D01*
X303413857Y-180685528D02*
X303128143Y-180685528D01*
X303128143Y-180685528D02*
X302985285Y-180614100D01*
X302985285Y-180614100D02*
X302913857Y-180471242D01*
X302913857Y-180471242D02*
X302913857Y-179899814D01*
X302913857Y-179899814D02*
X302985285Y-179756957D01*
X302985285Y-179756957D02*
X303128143Y-179685528D01*
X303128143Y-179685528D02*
X303413857Y-179685528D01*
X303413857Y-179685528D02*
X303556714Y-179756957D01*
X303556714Y-179756957D02*
X303628143Y-179899814D01*
X303628143Y-179899814D02*
X303628143Y-180042671D01*
X303628143Y-180042671D02*
X302913857Y-180185528D01*
X304913857Y-180685528D02*
X304913857Y-179899814D01*
X304913857Y-179899814D02*
X304842428Y-179756957D01*
X304842428Y-179756957D02*
X304699571Y-179685528D01*
X304699571Y-179685528D02*
X304413857Y-179685528D01*
X304413857Y-179685528D02*
X304270999Y-179756957D01*
X304913857Y-180614100D02*
X304770999Y-180685528D01*
X304770999Y-180685528D02*
X304413857Y-180685528D01*
X304413857Y-180685528D02*
X304270999Y-180614100D01*
X304270999Y-180614100D02*
X304199571Y-180471242D01*
X304199571Y-180471242D02*
X304199571Y-180328385D01*
X304199571Y-180328385D02*
X304270999Y-180185528D01*
X304270999Y-180185528D02*
X304413857Y-180114100D01*
X304413857Y-180114100D02*
X304770999Y-180114100D01*
X304770999Y-180114100D02*
X304913857Y-180042671D01*
X305628142Y-180685528D02*
X305628142Y-179685528D01*
X305628142Y-179971242D02*
X305699571Y-179828385D01*
X305699571Y-179828385D02*
X305771000Y-179756957D01*
X305771000Y-179756957D02*
X305913857Y-179685528D01*
X305913857Y-179685528D02*
X306056714Y-179685528D01*
X307199571Y-180614100D02*
X307056713Y-180685528D01*
X307056713Y-180685528D02*
X306770999Y-180685528D01*
X306770999Y-180685528D02*
X306628142Y-180614100D01*
X306628142Y-180614100D02*
X306556713Y-180542671D01*
X306556713Y-180542671D02*
X306485285Y-180399814D01*
X306485285Y-180399814D02*
X306485285Y-179971242D01*
X306485285Y-179971242D02*
X306556713Y-179828385D01*
X306556713Y-179828385D02*
X306628142Y-179756957D01*
X306628142Y-179756957D02*
X306770999Y-179685528D01*
X306770999Y-179685528D02*
X307056713Y-179685528D01*
X307056713Y-179685528D02*
X307199571Y-179756957D01*
X307842427Y-180685528D02*
X307842427Y-179185528D01*
X308485285Y-180685528D02*
X308485285Y-179899814D01*
X308485285Y-179899814D02*
X308413856Y-179756957D01*
X308413856Y-179756957D02*
X308270999Y-179685528D01*
X308270999Y-179685528D02*
X308056713Y-179685528D01*
X308056713Y-179685528D02*
X307913856Y-179756957D01*
X307913856Y-179756957D02*
X307842427Y-179828385D01*
X311128142Y-179256957D02*
X310985285Y-179185528D01*
X310985285Y-179185528D02*
X310770999Y-179185528D01*
X310770999Y-179185528D02*
X310556713Y-179256957D01*
X310556713Y-179256957D02*
X310413856Y-179399814D01*
X310413856Y-179399814D02*
X310342427Y-179542671D01*
X310342427Y-179542671D02*
X310270999Y-179828385D01*
X310270999Y-179828385D02*
X310270999Y-180042671D01*
X310270999Y-180042671D02*
X310342427Y-180328385D01*
X310342427Y-180328385D02*
X310413856Y-180471242D01*
X310413856Y-180471242D02*
X310556713Y-180614100D01*
X310556713Y-180614100D02*
X310770999Y-180685528D01*
X310770999Y-180685528D02*
X310913856Y-180685528D01*
X310913856Y-180685528D02*
X311128142Y-180614100D01*
X311128142Y-180614100D02*
X311199570Y-180542671D01*
X311199570Y-180542671D02*
X311199570Y-180042671D01*
X311199570Y-180042671D02*
X310913856Y-180042671D01*
X311842427Y-180685528D02*
X311842427Y-179685528D01*
X311842427Y-179971242D02*
X311913856Y-179828385D01*
X311913856Y-179828385D02*
X311985285Y-179756957D01*
X311985285Y-179756957D02*
X312128142Y-179685528D01*
X312128142Y-179685528D02*
X312270999Y-179685528D01*
X312985284Y-180685528D02*
X312842427Y-180614100D01*
X312842427Y-180614100D02*
X312770998Y-180542671D01*
X312770998Y-180542671D02*
X312699570Y-180399814D01*
X312699570Y-180399814D02*
X312699570Y-179971242D01*
X312699570Y-179971242D02*
X312770998Y-179828385D01*
X312770998Y-179828385D02*
X312842427Y-179756957D01*
X312842427Y-179756957D02*
X312985284Y-179685528D01*
X312985284Y-179685528D02*
X313199570Y-179685528D01*
X313199570Y-179685528D02*
X313342427Y-179756957D01*
X313342427Y-179756957D02*
X313413856Y-179828385D01*
X313413856Y-179828385D02*
X313485284Y-179971242D01*
X313485284Y-179971242D02*
X313485284Y-180399814D01*
X313485284Y-180399814D02*
X313413856Y-180542671D01*
X313413856Y-180542671D02*
X313342427Y-180614100D01*
X313342427Y-180614100D02*
X313199570Y-180685528D01*
X313199570Y-180685528D02*
X312985284Y-180685528D01*
X314770999Y-179685528D02*
X314770999Y-180685528D01*
X314128141Y-179685528D02*
X314128141Y-180471242D01*
X314128141Y-180471242D02*
X314199570Y-180614100D01*
X314199570Y-180614100D02*
X314342427Y-180685528D01*
X314342427Y-180685528D02*
X314556713Y-180685528D01*
X314556713Y-180685528D02*
X314699570Y-180614100D01*
X314699570Y-180614100D02*
X314770999Y-180542671D01*
X315485284Y-179685528D02*
X315485284Y-181185528D01*
X315485284Y-179756957D02*
X315628142Y-179685528D01*
X315628142Y-179685528D02*
X315913856Y-179685528D01*
X315913856Y-179685528D02*
X316056713Y-179756957D01*
X316056713Y-179756957D02*
X316128142Y-179828385D01*
X316128142Y-179828385D02*
X316199570Y-179971242D01*
X316199570Y-179971242D02*
X316199570Y-180399814D01*
X316199570Y-180399814D02*
X316128142Y-180542671D01*
X316128142Y-180542671D02*
X316056713Y-180614100D01*
X316056713Y-180614100D02*
X315913856Y-180685528D01*
X315913856Y-180685528D02*
X315628142Y-180685528D01*
X315628142Y-180685528D02*
X315485284Y-180614100D01*
X318413856Y-181256957D02*
X318342427Y-181185528D01*
X318342427Y-181185528D02*
X318199570Y-180971242D01*
X318199570Y-180971242D02*
X318128142Y-180828385D01*
X318128142Y-180828385D02*
X318056713Y-180614100D01*
X318056713Y-180614100D02*
X317985284Y-180256957D01*
X317985284Y-180256957D02*
X317985284Y-179971242D01*
X317985284Y-179971242D02*
X318056713Y-179614100D01*
X318056713Y-179614100D02*
X318128142Y-179399814D01*
X318128142Y-179399814D02*
X318199570Y-179256957D01*
X318199570Y-179256957D02*
X318342427Y-179042671D01*
X318342427Y-179042671D02*
X318413856Y-178971242D01*
X319770999Y-179256957D02*
X319628142Y-179185528D01*
X319628142Y-179185528D02*
X319413856Y-179185528D01*
X319413856Y-179185528D02*
X319199570Y-179256957D01*
X319199570Y-179256957D02*
X319056713Y-179399814D01*
X319056713Y-179399814D02*
X318985284Y-179542671D01*
X318985284Y-179542671D02*
X318913856Y-179828385D01*
X318913856Y-179828385D02*
X318913856Y-180042671D01*
X318913856Y-180042671D02*
X318985284Y-180328385D01*
X318985284Y-180328385D02*
X319056713Y-180471242D01*
X319056713Y-180471242D02*
X319199570Y-180614100D01*
X319199570Y-180614100D02*
X319413856Y-180685528D01*
X319413856Y-180685528D02*
X319556713Y-180685528D01*
X319556713Y-180685528D02*
X319770999Y-180614100D01*
X319770999Y-180614100D02*
X319842427Y-180542671D01*
X319842427Y-180542671D02*
X319842427Y-180042671D01*
X319842427Y-180042671D02*
X319556713Y-180042671D01*
X320770999Y-179185528D02*
X321056713Y-179185528D01*
X321056713Y-179185528D02*
X321199570Y-179256957D01*
X321199570Y-179256957D02*
X321342427Y-179399814D01*
X321342427Y-179399814D02*
X321413856Y-179685528D01*
X321413856Y-179685528D02*
X321413856Y-180185528D01*
X321413856Y-180185528D02*
X321342427Y-180471242D01*
X321342427Y-180471242D02*
X321199570Y-180614100D01*
X321199570Y-180614100D02*
X321056713Y-180685528D01*
X321056713Y-180685528D02*
X320770999Y-180685528D01*
X320770999Y-180685528D02*
X320628142Y-180614100D01*
X320628142Y-180614100D02*
X320485284Y-180471242D01*
X320485284Y-180471242D02*
X320413856Y-180185528D01*
X320413856Y-180185528D02*
X320413856Y-179685528D01*
X320413856Y-179685528D02*
X320485284Y-179399814D01*
X320485284Y-179399814D02*
X320628142Y-179256957D01*
X320628142Y-179256957D02*
X320770999Y-179185528D01*
X321985285Y-180256957D02*
X322699571Y-180256957D01*
X321842428Y-180685528D02*
X322342428Y-179185528D01*
X322342428Y-179185528D02*
X322842428Y-180685528D01*
X324056713Y-180685528D02*
X323342427Y-180685528D01*
X323342427Y-180685528D02*
X323342427Y-179185528D01*
X324413856Y-181256957D02*
X324485285Y-181185528D01*
X324485285Y-181185528D02*
X324628142Y-180971242D01*
X324628142Y-180971242D02*
X324699571Y-180828385D01*
X324699571Y-180828385D02*
X324770999Y-180614100D01*
X324770999Y-180614100D02*
X324842428Y-180256957D01*
X324842428Y-180256957D02*
X324842428Y-179971242D01*
X324842428Y-179971242D02*
X324770999Y-179614100D01*
X324770999Y-179614100D02*
X324699571Y-179399814D01*
X324699571Y-179399814D02*
X324628142Y-179256957D01*
X324628142Y-179256957D02*
X324485285Y-179042671D01*
X324485285Y-179042671D02*
X324413856Y-178971242D01*
D10*
D11*
X178386598Y-177621900D02*
X178600884Y-177693328D01*
X178600884Y-177693328D02*
X178958026Y-177693328D01*
X178958026Y-177693328D02*
X179100884Y-177621900D01*
X179100884Y-177621900D02*
X179172312Y-177550471D01*
X179172312Y-177550471D02*
X179243741Y-177407614D01*
X179243741Y-177407614D02*
X179243741Y-177264757D01*
X179243741Y-177264757D02*
X179172312Y-177121900D01*
X179172312Y-177121900D02*
X179100884Y-177050471D01*
X179100884Y-177050471D02*
X178958026Y-176979042D01*
X178958026Y-176979042D02*
X178672312Y-176907614D01*
X178672312Y-176907614D02*
X178529455Y-176836185D01*
X178529455Y-176836185D02*
X178458026Y-176764757D01*
X178458026Y-176764757D02*
X178386598Y-176621900D01*
X178386598Y-176621900D02*
X178386598Y-176479042D01*
X178386598Y-176479042D02*
X178458026Y-176336185D01*
X178458026Y-176336185D02*
X178529455Y-176264757D01*
X178529455Y-176264757D02*
X178672312Y-176193328D01*
X178672312Y-176193328D02*
X179029455Y-176193328D01*
X179029455Y-176193328D02*
X179243741Y-176264757D01*
X180458026Y-177621900D02*
X180315169Y-177693328D01*
X180315169Y-177693328D02*
X180029455Y-177693328D01*
X180029455Y-177693328D02*
X179886597Y-177621900D01*
X179886597Y-177621900D02*
X179815169Y-177479042D01*
X179815169Y-177479042D02*
X179815169Y-176907614D01*
X179815169Y-176907614D02*
X179886597Y-176764757D01*
X179886597Y-176764757D02*
X180029455Y-176693328D01*
X180029455Y-176693328D02*
X180315169Y-176693328D01*
X180315169Y-176693328D02*
X180458026Y-176764757D01*
X180458026Y-176764757D02*
X180529455Y-176907614D01*
X180529455Y-176907614D02*
X180529455Y-177050471D01*
X180529455Y-177050471D02*
X179815169Y-177193328D01*
X181172311Y-177693328D02*
X181172311Y-176193328D01*
X181172311Y-176764757D02*
X181315169Y-176693328D01*
X181315169Y-176693328D02*
X181600883Y-176693328D01*
X181600883Y-176693328D02*
X181743740Y-176764757D01*
X181743740Y-176764757D02*
X181815169Y-176836185D01*
X181815169Y-176836185D02*
X181886597Y-176979042D01*
X181886597Y-176979042D02*
X181886597Y-177407614D01*
X181886597Y-177407614D02*
X181815169Y-177550471D01*
X181815169Y-177550471D02*
X181743740Y-177621900D01*
X181743740Y-177621900D02*
X181600883Y-177693328D01*
X181600883Y-177693328D02*
X181315169Y-177693328D01*
X181315169Y-177693328D02*
X181172311Y-177621900D01*
X183172312Y-177693328D02*
X183172312Y-176907614D01*
X183172312Y-176907614D02*
X183100883Y-176764757D01*
X183100883Y-176764757D02*
X182958026Y-176693328D01*
X182958026Y-176693328D02*
X182672312Y-176693328D01*
X182672312Y-176693328D02*
X182529454Y-176764757D01*
X183172312Y-177621900D02*
X183029454Y-177693328D01*
X183029454Y-177693328D02*
X182672312Y-177693328D01*
X182672312Y-177693328D02*
X182529454Y-177621900D01*
X182529454Y-177621900D02*
X182458026Y-177479042D01*
X182458026Y-177479042D02*
X182458026Y-177336185D01*
X182458026Y-177336185D02*
X182529454Y-177193328D01*
X182529454Y-177193328D02*
X182672312Y-177121900D01*
X182672312Y-177121900D02*
X183029454Y-177121900D01*
X183029454Y-177121900D02*
X183172312Y-177050471D01*
X183815169Y-177621900D02*
X183958026Y-177693328D01*
X183958026Y-177693328D02*
X184243740Y-177693328D01*
X184243740Y-177693328D02*
X184386597Y-177621900D01*
X184386597Y-177621900D02*
X184458026Y-177479042D01*
X184458026Y-177479042D02*
X184458026Y-177407614D01*
X184458026Y-177407614D02*
X184386597Y-177264757D01*
X184386597Y-177264757D02*
X184243740Y-177193328D01*
X184243740Y-177193328D02*
X184029455Y-177193328D01*
X184029455Y-177193328D02*
X183886597Y-177121900D01*
X183886597Y-177121900D02*
X183815169Y-176979042D01*
X183815169Y-176979042D02*
X183815169Y-176907614D01*
X183815169Y-176907614D02*
X183886597Y-176764757D01*
X183886597Y-176764757D02*
X184029455Y-176693328D01*
X184029455Y-176693328D02*
X184243740Y-176693328D01*
X184243740Y-176693328D02*
X184386597Y-176764757D01*
X184886598Y-176693328D02*
X185458026Y-176693328D01*
X185100883Y-176193328D02*
X185100883Y-177479042D01*
X185100883Y-177479042D02*
X185172312Y-177621900D01*
X185172312Y-177621900D02*
X185315169Y-177693328D01*
X185315169Y-177693328D02*
X185458026Y-177693328D01*
X185958026Y-177693328D02*
X185958026Y-176693328D01*
X185958026Y-176193328D02*
X185886598Y-176264757D01*
X185886598Y-176264757D02*
X185958026Y-176336185D01*
X185958026Y-176336185D02*
X186029455Y-176264757D01*
X186029455Y-176264757D02*
X185958026Y-176193328D01*
X185958026Y-176193328D02*
X185958026Y-176336185D01*
X187315170Y-177693328D02*
X187315170Y-176907614D01*
X187315170Y-176907614D02*
X187243741Y-176764757D01*
X187243741Y-176764757D02*
X187100884Y-176693328D01*
X187100884Y-176693328D02*
X186815170Y-176693328D01*
X186815170Y-176693328D02*
X186672312Y-176764757D01*
X187315170Y-177621900D02*
X187172312Y-177693328D01*
X187172312Y-177693328D02*
X186815170Y-177693328D01*
X186815170Y-177693328D02*
X186672312Y-177621900D01*
X186672312Y-177621900D02*
X186600884Y-177479042D01*
X186600884Y-177479042D02*
X186600884Y-177336185D01*
X186600884Y-177336185D02*
X186672312Y-177193328D01*
X186672312Y-177193328D02*
X186815170Y-177121900D01*
X186815170Y-177121900D02*
X187172312Y-177121900D01*
X187172312Y-177121900D02*
X187315170Y-177050471D01*
X187100884Y-176121900D02*
X186886598Y-176336185D01*
X188029455Y-176693328D02*
X188029455Y-177693328D01*
X188029455Y-176836185D02*
X188100884Y-176764757D01*
X188100884Y-176764757D02*
X188243741Y-176693328D01*
X188243741Y-176693328D02*
X188458027Y-176693328D01*
X188458027Y-176693328D02*
X188600884Y-176764757D01*
X188600884Y-176764757D02*
X188672313Y-176907614D01*
X188672313Y-176907614D02*
X188672313Y-177693328D01*
X190958027Y-176193328D02*
X190958027Y-177264757D01*
X190958027Y-177264757D02*
X190886598Y-177479042D01*
X190886598Y-177479042D02*
X190743741Y-177621900D01*
X190743741Y-177621900D02*
X190529455Y-177693328D01*
X190529455Y-177693328D02*
X190386598Y-177693328D01*
X192243741Y-177621900D02*
X192100884Y-177693328D01*
X192100884Y-177693328D02*
X191815170Y-177693328D01*
X191815170Y-177693328D02*
X191672312Y-177621900D01*
X191672312Y-177621900D02*
X191600884Y-177479042D01*
X191600884Y-177479042D02*
X191600884Y-176907614D01*
X191600884Y-176907614D02*
X191672312Y-176764757D01*
X191672312Y-176764757D02*
X191815170Y-176693328D01*
X191815170Y-176693328D02*
X192100884Y-176693328D01*
X192100884Y-176693328D02*
X192243741Y-176764757D01*
X192243741Y-176764757D02*
X192315170Y-176907614D01*
X192315170Y-176907614D02*
X192315170Y-177050471D01*
X192315170Y-177050471D02*
X191600884Y-177193328D01*
X192886598Y-177621900D02*
X193029455Y-177693328D01*
X193029455Y-177693328D02*
X193315169Y-177693328D01*
X193315169Y-177693328D02*
X193458026Y-177621900D01*
X193458026Y-177621900D02*
X193529455Y-177479042D01*
X193529455Y-177479042D02*
X193529455Y-177407614D01*
X193529455Y-177407614D02*
X193458026Y-177264757D01*
X193458026Y-177264757D02*
X193315169Y-177193328D01*
X193315169Y-177193328D02*
X193100884Y-177193328D01*
X193100884Y-177193328D02*
X192958026Y-177121900D01*
X192958026Y-177121900D02*
X192886598Y-176979042D01*
X192886598Y-176979042D02*
X192886598Y-176907614D01*
X192886598Y-176907614D02*
X192958026Y-176764757D01*
X192958026Y-176764757D02*
X193100884Y-176693328D01*
X193100884Y-176693328D02*
X193315169Y-176693328D01*
X193315169Y-176693328D02*
X193458026Y-176764757D01*
X194815170Y-176693328D02*
X194815170Y-177693328D01*
X194172312Y-176693328D02*
X194172312Y-177479042D01*
X194172312Y-177479042D02*
X194243741Y-177621900D01*
X194243741Y-177621900D02*
X194386598Y-177693328D01*
X194386598Y-177693328D02*
X194600884Y-177693328D01*
X194600884Y-177693328D02*
X194743741Y-177621900D01*
X194743741Y-177621900D02*
X194815170Y-177550471D01*
X194672312Y-176121900D02*
X194458027Y-176336185D01*
X195458027Y-177621900D02*
X195600884Y-177693328D01*
X195600884Y-177693328D02*
X195886598Y-177693328D01*
X195886598Y-177693328D02*
X196029455Y-177621900D01*
X196029455Y-177621900D02*
X196100884Y-177479042D01*
X196100884Y-177479042D02*
X196100884Y-177407614D01*
X196100884Y-177407614D02*
X196029455Y-177264757D01*
X196029455Y-177264757D02*
X195886598Y-177193328D01*
X195886598Y-177193328D02*
X195672313Y-177193328D01*
X195672313Y-177193328D02*
X195529455Y-177121900D01*
X195529455Y-177121900D02*
X195458027Y-176979042D01*
X195458027Y-176979042D02*
X195458027Y-176907614D01*
X195458027Y-176907614D02*
X195529455Y-176764757D01*
X195529455Y-176764757D02*
X195672313Y-176693328D01*
X195672313Y-176693328D02*
X195886598Y-176693328D01*
X195886598Y-176693328D02*
X196029455Y-176764757D01*
X198315170Y-176193328D02*
X198315170Y-177264757D01*
X198315170Y-177264757D02*
X198243741Y-177479042D01*
X198243741Y-177479042D02*
X198100884Y-177621900D01*
X198100884Y-177621900D02*
X197886598Y-177693328D01*
X197886598Y-177693328D02*
X197743741Y-177693328D01*
X199029455Y-177693328D02*
X199029455Y-176693328D01*
X199029455Y-176193328D02*
X198958027Y-176264757D01*
X198958027Y-176264757D02*
X199029455Y-176336185D01*
X199029455Y-176336185D02*
X199100884Y-176264757D01*
X199100884Y-176264757D02*
X199029455Y-176193328D01*
X199029455Y-176193328D02*
X199029455Y-176336185D01*
X199743741Y-177693328D02*
X199743741Y-176693328D01*
X199743741Y-176836185D02*
X199815170Y-176764757D01*
X199815170Y-176764757D02*
X199958027Y-176693328D01*
X199958027Y-176693328D02*
X200172313Y-176693328D01*
X200172313Y-176693328D02*
X200315170Y-176764757D01*
X200315170Y-176764757D02*
X200386599Y-176907614D01*
X200386599Y-176907614D02*
X200386599Y-177693328D01*
X200386599Y-176907614D02*
X200458027Y-176764757D01*
X200458027Y-176764757D02*
X200600884Y-176693328D01*
X200600884Y-176693328D02*
X200815170Y-176693328D01*
X200815170Y-176693328D02*
X200958027Y-176764757D01*
X200958027Y-176764757D02*
X201029456Y-176907614D01*
X201029456Y-176907614D02*
X201029456Y-177693328D01*
X202315170Y-177621900D02*
X202172313Y-177693328D01*
X202172313Y-177693328D02*
X201886599Y-177693328D01*
X201886599Y-177693328D02*
X201743741Y-177621900D01*
X201743741Y-177621900D02*
X201672313Y-177479042D01*
X201672313Y-177479042D02*
X201672313Y-176907614D01*
X201672313Y-176907614D02*
X201743741Y-176764757D01*
X201743741Y-176764757D02*
X201886599Y-176693328D01*
X201886599Y-176693328D02*
X202172313Y-176693328D01*
X202172313Y-176693328D02*
X202315170Y-176764757D01*
X202315170Y-176764757D02*
X202386599Y-176907614D01*
X202386599Y-176907614D02*
X202386599Y-177050471D01*
X202386599Y-177050471D02*
X201672313Y-177193328D01*
X202172313Y-176121900D02*
X201958027Y-176336185D01*
X203029455Y-176693328D02*
X203029455Y-177693328D01*
X203029455Y-176836185D02*
X203100884Y-176764757D01*
X203100884Y-176764757D02*
X203243741Y-176693328D01*
X203243741Y-176693328D02*
X203458027Y-176693328D01*
X203458027Y-176693328D02*
X203600884Y-176764757D01*
X203600884Y-176764757D02*
X203672313Y-176907614D01*
X203672313Y-176907614D02*
X203672313Y-177693328D01*
X204958027Y-177621900D02*
X204815170Y-177693328D01*
X204815170Y-177693328D02*
X204529456Y-177693328D01*
X204529456Y-177693328D02*
X204386598Y-177621900D01*
X204386598Y-177621900D02*
X204315170Y-177479042D01*
X204315170Y-177479042D02*
X204315170Y-176907614D01*
X204315170Y-176907614D02*
X204386598Y-176764757D01*
X204386598Y-176764757D02*
X204529456Y-176693328D01*
X204529456Y-176693328D02*
X204815170Y-176693328D01*
X204815170Y-176693328D02*
X204958027Y-176764757D01*
X204958027Y-176764757D02*
X205029456Y-176907614D01*
X205029456Y-176907614D02*
X205029456Y-177050471D01*
X205029456Y-177050471D02*
X204315170Y-177193328D01*
X205529455Y-176693328D02*
X206315170Y-176693328D01*
X206315170Y-176693328D02*
X205529455Y-177693328D01*
X205529455Y-177693328D02*
X206315170Y-177693328D01*
X207815170Y-176193328D02*
X208315170Y-177693328D01*
X208315170Y-177693328D02*
X208815170Y-176193328D01*
X209958027Y-177693328D02*
X209958027Y-176907614D01*
X209958027Y-176907614D02*
X209886598Y-176764757D01*
X209886598Y-176764757D02*
X209743741Y-176693328D01*
X209743741Y-176693328D02*
X209458027Y-176693328D01*
X209458027Y-176693328D02*
X209315169Y-176764757D01*
X209958027Y-177621900D02*
X209815169Y-177693328D01*
X209815169Y-177693328D02*
X209458027Y-177693328D01*
X209458027Y-177693328D02*
X209315169Y-177621900D01*
X209315169Y-177621900D02*
X209243741Y-177479042D01*
X209243741Y-177479042D02*
X209243741Y-177336185D01*
X209243741Y-177336185D02*
X209315169Y-177193328D01*
X209315169Y-177193328D02*
X209458027Y-177121900D01*
X209458027Y-177121900D02*
X209815169Y-177121900D01*
X209815169Y-177121900D02*
X209958027Y-177050471D01*
X209743741Y-176121900D02*
X209529455Y-176336185D01*
X210529455Y-176693328D02*
X211315170Y-176693328D01*
X211315170Y-176693328D02*
X210529455Y-177693328D01*
X210529455Y-177693328D02*
X211315170Y-177693328D01*
X212529456Y-176693328D02*
X212529456Y-178193328D01*
X212529456Y-177621900D02*
X212386598Y-177693328D01*
X212386598Y-177693328D02*
X212100884Y-177693328D01*
X212100884Y-177693328D02*
X211958027Y-177621900D01*
X211958027Y-177621900D02*
X211886598Y-177550471D01*
X211886598Y-177550471D02*
X211815170Y-177407614D01*
X211815170Y-177407614D02*
X211815170Y-176979042D01*
X211815170Y-176979042D02*
X211886598Y-176836185D01*
X211886598Y-176836185D02*
X211958027Y-176764757D01*
X211958027Y-176764757D02*
X212100884Y-176693328D01*
X212100884Y-176693328D02*
X212386598Y-176693328D01*
X212386598Y-176693328D02*
X212529456Y-176764757D01*
X213886599Y-176693328D02*
X213886599Y-177693328D01*
X213243741Y-176693328D02*
X213243741Y-177479042D01*
X213243741Y-177479042D02*
X213315170Y-177621900D01*
X213315170Y-177621900D02*
X213458027Y-177693328D01*
X213458027Y-177693328D02*
X213672313Y-177693328D01*
X213672313Y-177693328D02*
X213815170Y-177621900D01*
X213815170Y-177621900D02*
X213886599Y-177550471D01*
X215172313Y-177621900D02*
X215029456Y-177693328D01*
X215029456Y-177693328D02*
X214743742Y-177693328D01*
X214743742Y-177693328D02*
X214600884Y-177621900D01*
X214600884Y-177621900D02*
X214529456Y-177479042D01*
X214529456Y-177479042D02*
X214529456Y-176907614D01*
X214529456Y-176907614D02*
X214600884Y-176764757D01*
X214600884Y-176764757D02*
X214743742Y-176693328D01*
X214743742Y-176693328D02*
X215029456Y-176693328D01*
X215029456Y-176693328D02*
X215172313Y-176764757D01*
X215172313Y-176764757D02*
X215243742Y-176907614D01*
X215243742Y-176907614D02*
X215243742Y-177050471D01*
X215243742Y-177050471D02*
X214529456Y-177193328D01*
X215743741Y-176693328D02*
X216529456Y-176693328D01*
X216529456Y-176693328D02*
X215743741Y-177693328D01*
X215743741Y-177693328D02*
X216529456Y-177693328D01*
D10*
D11*
X178458026Y-174693328D02*
X178458026Y-173193328D01*
X178458026Y-173193328D02*
X179029455Y-173193328D01*
X179029455Y-173193328D02*
X179172312Y-173264757D01*
X179172312Y-173264757D02*
X179243741Y-173336185D01*
X179243741Y-173336185D02*
X179315169Y-173479042D01*
X179315169Y-173479042D02*
X179315169Y-173693328D01*
X179315169Y-173693328D02*
X179243741Y-173836185D01*
X179243741Y-173836185D02*
X179172312Y-173907614D01*
X179172312Y-173907614D02*
X179029455Y-173979042D01*
X179029455Y-173979042D02*
X178458026Y-173979042D01*
X180600884Y-174693328D02*
X180600884Y-173907614D01*
X180600884Y-173907614D02*
X180529455Y-173764757D01*
X180529455Y-173764757D02*
X180386598Y-173693328D01*
X180386598Y-173693328D02*
X180100884Y-173693328D01*
X180100884Y-173693328D02*
X179958026Y-173764757D01*
X180600884Y-174621900D02*
X180458026Y-174693328D01*
X180458026Y-174693328D02*
X180100884Y-174693328D01*
X180100884Y-174693328D02*
X179958026Y-174621900D01*
X179958026Y-174621900D02*
X179886598Y-174479042D01*
X179886598Y-174479042D02*
X179886598Y-174336185D01*
X179886598Y-174336185D02*
X179958026Y-174193328D01*
X179958026Y-174193328D02*
X180100884Y-174121900D01*
X180100884Y-174121900D02*
X180458026Y-174121900D01*
X180458026Y-174121900D02*
X180600884Y-174050471D01*
X181100884Y-173693328D02*
X181672312Y-173693328D01*
X181315169Y-173193328D02*
X181315169Y-174479042D01*
X181315169Y-174479042D02*
X181386598Y-174621900D01*
X181386598Y-174621900D02*
X181529455Y-174693328D01*
X181529455Y-174693328D02*
X181672312Y-174693328D01*
X182172312Y-174693328D02*
X182172312Y-173693328D01*
X182172312Y-173979042D02*
X182243741Y-173836185D01*
X182243741Y-173836185D02*
X182315170Y-173764757D01*
X182315170Y-173764757D02*
X182458027Y-173693328D01*
X182458027Y-173693328D02*
X182600884Y-173693328D01*
X183100883Y-174693328D02*
X183100883Y-173693328D01*
X183100883Y-173193328D02*
X183029455Y-173264757D01*
X183029455Y-173264757D02*
X183100883Y-173336185D01*
X183100883Y-173336185D02*
X183172312Y-173264757D01*
X183172312Y-173264757D02*
X183100883Y-173193328D01*
X183100883Y-173193328D02*
X183100883Y-173336185D01*
X184458027Y-174621900D02*
X184315169Y-174693328D01*
X184315169Y-174693328D02*
X184029455Y-174693328D01*
X184029455Y-174693328D02*
X183886598Y-174621900D01*
X183886598Y-174621900D02*
X183815169Y-174550471D01*
X183815169Y-174550471D02*
X183743741Y-174407614D01*
X183743741Y-174407614D02*
X183743741Y-173979042D01*
X183743741Y-173979042D02*
X183815169Y-173836185D01*
X183815169Y-173836185D02*
X183886598Y-173764757D01*
X183886598Y-173764757D02*
X184029455Y-173693328D01*
X184029455Y-173693328D02*
X184315169Y-173693328D01*
X184315169Y-173693328D02*
X184458027Y-173764757D01*
X185100883Y-174693328D02*
X185100883Y-173693328D01*
X185100883Y-173193328D02*
X185029455Y-173264757D01*
X185029455Y-173264757D02*
X185100883Y-173336185D01*
X185100883Y-173336185D02*
X185172312Y-173264757D01*
X185172312Y-173264757D02*
X185100883Y-173193328D01*
X185100883Y-173193328D02*
X185100883Y-173336185D01*
X186458027Y-174693328D02*
X186458027Y-173907614D01*
X186458027Y-173907614D02*
X186386598Y-173764757D01*
X186386598Y-173764757D02*
X186243741Y-173693328D01*
X186243741Y-173693328D02*
X185958027Y-173693328D01*
X185958027Y-173693328D02*
X185815169Y-173764757D01*
X186458027Y-174621900D02*
X186315169Y-174693328D01*
X186315169Y-174693328D02*
X185958027Y-174693328D01*
X185958027Y-174693328D02*
X185815169Y-174621900D01*
X185815169Y-174621900D02*
X185743741Y-174479042D01*
X185743741Y-174479042D02*
X185743741Y-174336185D01*
X185743741Y-174336185D02*
X185815169Y-174193328D01*
X185815169Y-174193328D02*
X185958027Y-174121900D01*
X185958027Y-174121900D02*
X186315169Y-174121900D01*
X186315169Y-174121900D02*
X186458027Y-174050471D01*
X189172312Y-174693328D02*
X188672312Y-173979042D01*
X188315169Y-174693328D02*
X188315169Y-173193328D01*
X188315169Y-173193328D02*
X188886598Y-173193328D01*
X188886598Y-173193328D02*
X189029455Y-173264757D01*
X189029455Y-173264757D02*
X189100884Y-173336185D01*
X189100884Y-173336185D02*
X189172312Y-173479042D01*
X189172312Y-173479042D02*
X189172312Y-173693328D01*
X189172312Y-173693328D02*
X189100884Y-173836185D01*
X189100884Y-173836185D02*
X189029455Y-173907614D01*
X189029455Y-173907614D02*
X188886598Y-173979042D01*
X188886598Y-173979042D02*
X188315169Y-173979042D01*
X190458027Y-173693328D02*
X190458027Y-174693328D01*
X189815169Y-173693328D02*
X189815169Y-174479042D01*
X189815169Y-174479042D02*
X189886598Y-174621900D01*
X189886598Y-174621900D02*
X190029455Y-174693328D01*
X190029455Y-174693328D02*
X190243741Y-174693328D01*
X190243741Y-174693328D02*
X190386598Y-174621900D01*
X190386598Y-174621900D02*
X190458027Y-174550471D01*
X191172312Y-174693328D02*
X191172312Y-173693328D01*
X191172312Y-173193328D02*
X191100884Y-173264757D01*
X191100884Y-173264757D02*
X191172312Y-173336185D01*
X191172312Y-173336185D02*
X191243741Y-173264757D01*
X191243741Y-173264757D02*
X191172312Y-173193328D01*
X191172312Y-173193328D02*
X191172312Y-173336185D01*
X191743741Y-173693328D02*
X192529456Y-173693328D01*
X192529456Y-173693328D02*
X191743741Y-174693328D01*
X191743741Y-174693328D02*
X192529456Y-174693328D01*
X194100884Y-173693328D02*
X194458027Y-174693328D01*
X194815170Y-173693328D02*
X194458027Y-174693328D01*
X194458027Y-174693328D02*
X194315170Y-175050471D01*
X194315170Y-175050471D02*
X194243741Y-175121900D01*
X194243741Y-175121900D02*
X194100884Y-175193328D01*
X196458027Y-174264757D02*
X197172313Y-174264757D01*
X196315170Y-174693328D02*
X196815170Y-173193328D01*
X196815170Y-173193328D02*
X197315170Y-174693328D01*
X197815169Y-174693328D02*
X197815169Y-173693328D01*
X197815169Y-173979042D02*
X197886598Y-173836185D01*
X197886598Y-173836185D02*
X197958027Y-173764757D01*
X197958027Y-173764757D02*
X198100884Y-173693328D01*
X198100884Y-173693328D02*
X198243741Y-173693328D01*
X198529455Y-173693328D02*
X199100883Y-173693328D01*
X198743740Y-173193328D02*
X198743740Y-174479042D01*
X198743740Y-174479042D02*
X198815169Y-174621900D01*
X198815169Y-174621900D02*
X198958026Y-174693328D01*
X198958026Y-174693328D02*
X199100883Y-174693328D01*
X200243741Y-173693328D02*
X200243741Y-174693328D01*
X199600883Y-173693328D02*
X199600883Y-174479042D01*
X199600883Y-174479042D02*
X199672312Y-174621900D01*
X199672312Y-174621900D02*
X199815169Y-174693328D01*
X199815169Y-174693328D02*
X200029455Y-174693328D01*
X200029455Y-174693328D02*
X200172312Y-174621900D01*
X200172312Y-174621900D02*
X200243741Y-174550471D01*
X200958026Y-174693328D02*
X200958026Y-173693328D01*
X200958026Y-173979042D02*
X201029455Y-173836185D01*
X201029455Y-173836185D02*
X201100884Y-173764757D01*
X201100884Y-173764757D02*
X201243741Y-173693328D01*
X201243741Y-173693328D02*
X201386598Y-173693328D01*
X202100883Y-174693328D02*
X201958026Y-174621900D01*
X201958026Y-174621900D02*
X201886597Y-174550471D01*
X201886597Y-174550471D02*
X201815169Y-174407614D01*
X201815169Y-174407614D02*
X201815169Y-173979042D01*
X201815169Y-173979042D02*
X201886597Y-173836185D01*
X201886597Y-173836185D02*
X201958026Y-173764757D01*
X201958026Y-173764757D02*
X202100883Y-173693328D01*
X202100883Y-173693328D02*
X202315169Y-173693328D01*
X202315169Y-173693328D02*
X202458026Y-173764757D01*
X202458026Y-173764757D02*
X202529455Y-173836185D01*
X202529455Y-173836185D02*
X202600883Y-173979042D01*
X202600883Y-173979042D02*
X202600883Y-174407614D01*
X202600883Y-174407614D02*
X202529455Y-174550471D01*
X202529455Y-174550471D02*
X202458026Y-174621900D01*
X202458026Y-174621900D02*
X202315169Y-174693328D01*
X202315169Y-174693328D02*
X202100883Y-174693328D01*
X204386597Y-174693328D02*
X204386597Y-173193328D01*
X204386597Y-173193328D02*
X204886597Y-174264757D01*
X204886597Y-174264757D02*
X205386597Y-173193328D01*
X205386597Y-173193328D02*
X205386597Y-174693328D01*
X206315169Y-174693328D02*
X206172312Y-174621900D01*
X206172312Y-174621900D02*
X206100883Y-174550471D01*
X206100883Y-174550471D02*
X206029455Y-174407614D01*
X206029455Y-174407614D02*
X206029455Y-173979042D01*
X206029455Y-173979042D02*
X206100883Y-173836185D01*
X206100883Y-173836185D02*
X206172312Y-173764757D01*
X206172312Y-173764757D02*
X206315169Y-173693328D01*
X206315169Y-173693328D02*
X206529455Y-173693328D01*
X206529455Y-173693328D02*
X206672312Y-173764757D01*
X206672312Y-173764757D02*
X206743741Y-173836185D01*
X206743741Y-173836185D02*
X206815169Y-173979042D01*
X206815169Y-173979042D02*
X206815169Y-174407614D01*
X206815169Y-174407614D02*
X206743741Y-174550471D01*
X206743741Y-174550471D02*
X206672312Y-174621900D01*
X206672312Y-174621900D02*
X206529455Y-174693328D01*
X206529455Y-174693328D02*
X206315169Y-174693328D01*
X207458026Y-174693328D02*
X207458026Y-173693328D01*
X207458026Y-173979042D02*
X207529455Y-173836185D01*
X207529455Y-173836185D02*
X207600884Y-173764757D01*
X207600884Y-173764757D02*
X207743741Y-173693328D01*
X207743741Y-173693328D02*
X207886598Y-173693328D01*
X209029455Y-173693328D02*
X209029455Y-174907614D01*
X209029455Y-174907614D02*
X208958026Y-175050471D01*
X208958026Y-175050471D02*
X208886597Y-175121900D01*
X208886597Y-175121900D02*
X208743740Y-175193328D01*
X208743740Y-175193328D02*
X208529455Y-175193328D01*
X208529455Y-175193328D02*
X208386597Y-175121900D01*
X209029455Y-174621900D02*
X208886597Y-174693328D01*
X208886597Y-174693328D02*
X208600883Y-174693328D01*
X208600883Y-174693328D02*
X208458026Y-174621900D01*
X208458026Y-174621900D02*
X208386597Y-174550471D01*
X208386597Y-174550471D02*
X208315169Y-174407614D01*
X208315169Y-174407614D02*
X208315169Y-173979042D01*
X208315169Y-173979042D02*
X208386597Y-173836185D01*
X208386597Y-173836185D02*
X208458026Y-173764757D01*
X208458026Y-173764757D02*
X208600883Y-173693328D01*
X208600883Y-173693328D02*
X208886597Y-173693328D01*
X208886597Y-173693328D02*
X209029455Y-173764757D01*
X210386598Y-174693328D02*
X210386598Y-173907614D01*
X210386598Y-173907614D02*
X210315169Y-173764757D01*
X210315169Y-173764757D02*
X210172312Y-173693328D01*
X210172312Y-173693328D02*
X209886598Y-173693328D01*
X209886598Y-173693328D02*
X209743740Y-173764757D01*
X210386598Y-174621900D02*
X210243740Y-174693328D01*
X210243740Y-174693328D02*
X209886598Y-174693328D01*
X209886598Y-174693328D02*
X209743740Y-174621900D01*
X209743740Y-174621900D02*
X209672312Y-174479042D01*
X209672312Y-174479042D02*
X209672312Y-174336185D01*
X209672312Y-174336185D02*
X209743740Y-174193328D01*
X209743740Y-174193328D02*
X209886598Y-174121900D01*
X209886598Y-174121900D02*
X210243740Y-174121900D01*
X210243740Y-174121900D02*
X210386598Y-174050471D01*
X211743741Y-174693328D02*
X211743741Y-173193328D01*
X211743741Y-174621900D02*
X211600883Y-174693328D01*
X211600883Y-174693328D02*
X211315169Y-174693328D01*
X211315169Y-174693328D02*
X211172312Y-174621900D01*
X211172312Y-174621900D02*
X211100883Y-174550471D01*
X211100883Y-174550471D02*
X211029455Y-174407614D01*
X211029455Y-174407614D02*
X211029455Y-173979042D01*
X211029455Y-173979042D02*
X211100883Y-173836185D01*
X211100883Y-173836185D02*
X211172312Y-173764757D01*
X211172312Y-173764757D02*
X211315169Y-173693328D01*
X211315169Y-173693328D02*
X211600883Y-173693328D01*
X211600883Y-173693328D02*
X211743741Y-173764757D01*
X212672312Y-174693328D02*
X212529455Y-174621900D01*
X212529455Y-174621900D02*
X212458026Y-174550471D01*
X212458026Y-174550471D02*
X212386598Y-174407614D01*
X212386598Y-174407614D02*
X212386598Y-173979042D01*
X212386598Y-173979042D02*
X212458026Y-173836185D01*
X212458026Y-173836185D02*
X212529455Y-173764757D01*
X212529455Y-173764757D02*
X212672312Y-173693328D01*
X212672312Y-173693328D02*
X212886598Y-173693328D01*
X212886598Y-173693328D02*
X213029455Y-173764757D01*
X213029455Y-173764757D02*
X213100884Y-173836185D01*
X213100884Y-173836185D02*
X213172312Y-173979042D01*
X213172312Y-173979042D02*
X213172312Y-174407614D01*
X213172312Y-174407614D02*
X213100884Y-174550471D01*
X213100884Y-174550471D02*
X213029455Y-174621900D01*
X213029455Y-174621900D02*
X212886598Y-174693328D01*
X212886598Y-174693328D02*
X212672312Y-174693328D01*
D10*
D11*
X178386598Y-171621900D02*
X178600884Y-171693328D01*
X178600884Y-171693328D02*
X178958026Y-171693328D01*
X178958026Y-171693328D02*
X179100884Y-171621900D01*
X179100884Y-171621900D02*
X179172312Y-171550471D01*
X179172312Y-171550471D02*
X179243741Y-171407614D01*
X179243741Y-171407614D02*
X179243741Y-171264757D01*
X179243741Y-171264757D02*
X179172312Y-171121900D01*
X179172312Y-171121900D02*
X179100884Y-171050471D01*
X179100884Y-171050471D02*
X178958026Y-170979042D01*
X178958026Y-170979042D02*
X178672312Y-170907614D01*
X178672312Y-170907614D02*
X178529455Y-170836185D01*
X178529455Y-170836185D02*
X178458026Y-170764757D01*
X178458026Y-170764757D02*
X178386598Y-170621900D01*
X178386598Y-170621900D02*
X178386598Y-170479042D01*
X178386598Y-170479042D02*
X178458026Y-170336185D01*
X178458026Y-170336185D02*
X178529455Y-170264757D01*
X178529455Y-170264757D02*
X178672312Y-170193328D01*
X178672312Y-170193328D02*
X179029455Y-170193328D01*
X179029455Y-170193328D02*
X179243741Y-170264757D01*
X180458026Y-171621900D02*
X180315169Y-171693328D01*
X180315169Y-171693328D02*
X180029455Y-171693328D01*
X180029455Y-171693328D02*
X179886597Y-171621900D01*
X179886597Y-171621900D02*
X179815169Y-171479042D01*
X179815169Y-171479042D02*
X179815169Y-170907614D01*
X179815169Y-170907614D02*
X179886597Y-170764757D01*
X179886597Y-170764757D02*
X180029455Y-170693328D01*
X180029455Y-170693328D02*
X180315169Y-170693328D01*
X180315169Y-170693328D02*
X180458026Y-170764757D01*
X180458026Y-170764757D02*
X180529455Y-170907614D01*
X180529455Y-170907614D02*
X180529455Y-171050471D01*
X180529455Y-171050471D02*
X179815169Y-171193328D01*
X181172311Y-171693328D02*
X181172311Y-170193328D01*
X181172311Y-170764757D02*
X181315169Y-170693328D01*
X181315169Y-170693328D02*
X181600883Y-170693328D01*
X181600883Y-170693328D02*
X181743740Y-170764757D01*
X181743740Y-170764757D02*
X181815169Y-170836185D01*
X181815169Y-170836185D02*
X181886597Y-170979042D01*
X181886597Y-170979042D02*
X181886597Y-171407614D01*
X181886597Y-171407614D02*
X181815169Y-171550471D01*
X181815169Y-171550471D02*
X181743740Y-171621900D01*
X181743740Y-171621900D02*
X181600883Y-171693328D01*
X181600883Y-171693328D02*
X181315169Y-171693328D01*
X181315169Y-171693328D02*
X181172311Y-171621900D01*
X183172312Y-171693328D02*
X183172312Y-170907614D01*
X183172312Y-170907614D02*
X183100883Y-170764757D01*
X183100883Y-170764757D02*
X182958026Y-170693328D01*
X182958026Y-170693328D02*
X182672312Y-170693328D01*
X182672312Y-170693328D02*
X182529454Y-170764757D01*
X183172312Y-171621900D02*
X183029454Y-171693328D01*
X183029454Y-171693328D02*
X182672312Y-171693328D01*
X182672312Y-171693328D02*
X182529454Y-171621900D01*
X182529454Y-171621900D02*
X182458026Y-171479042D01*
X182458026Y-171479042D02*
X182458026Y-171336185D01*
X182458026Y-171336185D02*
X182529454Y-171193328D01*
X182529454Y-171193328D02*
X182672312Y-171121900D01*
X182672312Y-171121900D02*
X183029454Y-171121900D01*
X183029454Y-171121900D02*
X183172312Y-171050471D01*
X183815169Y-171621900D02*
X183958026Y-171693328D01*
X183958026Y-171693328D02*
X184243740Y-171693328D01*
X184243740Y-171693328D02*
X184386597Y-171621900D01*
X184386597Y-171621900D02*
X184458026Y-171479042D01*
X184458026Y-171479042D02*
X184458026Y-171407614D01*
X184458026Y-171407614D02*
X184386597Y-171264757D01*
X184386597Y-171264757D02*
X184243740Y-171193328D01*
X184243740Y-171193328D02*
X184029455Y-171193328D01*
X184029455Y-171193328D02*
X183886597Y-171121900D01*
X183886597Y-171121900D02*
X183815169Y-170979042D01*
X183815169Y-170979042D02*
X183815169Y-170907614D01*
X183815169Y-170907614D02*
X183886597Y-170764757D01*
X183886597Y-170764757D02*
X184029455Y-170693328D01*
X184029455Y-170693328D02*
X184243740Y-170693328D01*
X184243740Y-170693328D02*
X184386597Y-170764757D01*
X184886598Y-170693328D02*
X185458026Y-170693328D01*
X185100883Y-170193328D02*
X185100883Y-171479042D01*
X185100883Y-171479042D02*
X185172312Y-171621900D01*
X185172312Y-171621900D02*
X185315169Y-171693328D01*
X185315169Y-171693328D02*
X185458026Y-171693328D01*
X185958026Y-171693328D02*
X185958026Y-170693328D01*
X185958026Y-170193328D02*
X185886598Y-170264757D01*
X185886598Y-170264757D02*
X185958026Y-170336185D01*
X185958026Y-170336185D02*
X186029455Y-170264757D01*
X186029455Y-170264757D02*
X185958026Y-170193328D01*
X185958026Y-170193328D02*
X185958026Y-170336185D01*
X187315170Y-171693328D02*
X187315170Y-170907614D01*
X187315170Y-170907614D02*
X187243741Y-170764757D01*
X187243741Y-170764757D02*
X187100884Y-170693328D01*
X187100884Y-170693328D02*
X186815170Y-170693328D01*
X186815170Y-170693328D02*
X186672312Y-170764757D01*
X187315170Y-171621900D02*
X187172312Y-171693328D01*
X187172312Y-171693328D02*
X186815170Y-171693328D01*
X186815170Y-171693328D02*
X186672312Y-171621900D01*
X186672312Y-171621900D02*
X186600884Y-171479042D01*
X186600884Y-171479042D02*
X186600884Y-171336185D01*
X186600884Y-171336185D02*
X186672312Y-171193328D01*
X186672312Y-171193328D02*
X186815170Y-171121900D01*
X186815170Y-171121900D02*
X187172312Y-171121900D01*
X187172312Y-171121900D02*
X187315170Y-171050471D01*
X187100884Y-170121900D02*
X186886598Y-170336185D01*
X188029455Y-170693328D02*
X188029455Y-171693328D01*
X188029455Y-170836185D02*
X188100884Y-170764757D01*
X188100884Y-170764757D02*
X188243741Y-170693328D01*
X188243741Y-170693328D02*
X188458027Y-170693328D01*
X188458027Y-170693328D02*
X188600884Y-170764757D01*
X188600884Y-170764757D02*
X188672313Y-170907614D01*
X188672313Y-170907614D02*
X188672313Y-171693328D01*
X190958027Y-170193328D02*
X190958027Y-171264757D01*
X190958027Y-171264757D02*
X190886598Y-171479042D01*
X190886598Y-171479042D02*
X190743741Y-171621900D01*
X190743741Y-171621900D02*
X190529455Y-171693328D01*
X190529455Y-171693328D02*
X190386598Y-171693328D01*
X192243741Y-171621900D02*
X192100884Y-171693328D01*
X192100884Y-171693328D02*
X191815170Y-171693328D01*
X191815170Y-171693328D02*
X191672312Y-171621900D01*
X191672312Y-171621900D02*
X191600884Y-171479042D01*
X191600884Y-171479042D02*
X191600884Y-170907614D01*
X191600884Y-170907614D02*
X191672312Y-170764757D01*
X191672312Y-170764757D02*
X191815170Y-170693328D01*
X191815170Y-170693328D02*
X192100884Y-170693328D01*
X192100884Y-170693328D02*
X192243741Y-170764757D01*
X192243741Y-170764757D02*
X192315170Y-170907614D01*
X192315170Y-170907614D02*
X192315170Y-171050471D01*
X192315170Y-171050471D02*
X191600884Y-171193328D01*
X192886598Y-171621900D02*
X193029455Y-171693328D01*
X193029455Y-171693328D02*
X193315169Y-171693328D01*
X193315169Y-171693328D02*
X193458026Y-171621900D01*
X193458026Y-171621900D02*
X193529455Y-171479042D01*
X193529455Y-171479042D02*
X193529455Y-171407614D01*
X193529455Y-171407614D02*
X193458026Y-171264757D01*
X193458026Y-171264757D02*
X193315169Y-171193328D01*
X193315169Y-171193328D02*
X193100884Y-171193328D01*
X193100884Y-171193328D02*
X192958026Y-171121900D01*
X192958026Y-171121900D02*
X192886598Y-170979042D01*
X192886598Y-170979042D02*
X192886598Y-170907614D01*
X192886598Y-170907614D02*
X192958026Y-170764757D01*
X192958026Y-170764757D02*
X193100884Y-170693328D01*
X193100884Y-170693328D02*
X193315169Y-170693328D01*
X193315169Y-170693328D02*
X193458026Y-170764757D01*
X194815170Y-170693328D02*
X194815170Y-171693328D01*
X194172312Y-170693328D02*
X194172312Y-171479042D01*
X194172312Y-171479042D02*
X194243741Y-171621900D01*
X194243741Y-171621900D02*
X194386598Y-171693328D01*
X194386598Y-171693328D02*
X194600884Y-171693328D01*
X194600884Y-171693328D02*
X194743741Y-171621900D01*
X194743741Y-171621900D02*
X194815170Y-171550471D01*
X194672312Y-170121900D02*
X194458027Y-170336185D01*
X195458027Y-171621900D02*
X195600884Y-171693328D01*
X195600884Y-171693328D02*
X195886598Y-171693328D01*
X195886598Y-171693328D02*
X196029455Y-171621900D01*
X196029455Y-171621900D02*
X196100884Y-171479042D01*
X196100884Y-171479042D02*
X196100884Y-171407614D01*
X196100884Y-171407614D02*
X196029455Y-171264757D01*
X196029455Y-171264757D02*
X195886598Y-171193328D01*
X195886598Y-171193328D02*
X195672313Y-171193328D01*
X195672313Y-171193328D02*
X195529455Y-171121900D01*
X195529455Y-171121900D02*
X195458027Y-170979042D01*
X195458027Y-170979042D02*
X195458027Y-170907614D01*
X195458027Y-170907614D02*
X195529455Y-170764757D01*
X195529455Y-170764757D02*
X195672313Y-170693328D01*
X195672313Y-170693328D02*
X195886598Y-170693328D01*
X195886598Y-170693328D02*
X196029455Y-170764757D01*
X198315170Y-170193328D02*
X198315170Y-171264757D01*
X198315170Y-171264757D02*
X198243741Y-171479042D01*
X198243741Y-171479042D02*
X198100884Y-171621900D01*
X198100884Y-171621900D02*
X197886598Y-171693328D01*
X197886598Y-171693328D02*
X197743741Y-171693328D01*
X199029455Y-171693328D02*
X199029455Y-170693328D01*
X199029455Y-170193328D02*
X198958027Y-170264757D01*
X198958027Y-170264757D02*
X199029455Y-170336185D01*
X199029455Y-170336185D02*
X199100884Y-170264757D01*
X199100884Y-170264757D02*
X199029455Y-170193328D01*
X199029455Y-170193328D02*
X199029455Y-170336185D01*
X199743741Y-171693328D02*
X199743741Y-170693328D01*
X199743741Y-170836185D02*
X199815170Y-170764757D01*
X199815170Y-170764757D02*
X199958027Y-170693328D01*
X199958027Y-170693328D02*
X200172313Y-170693328D01*
X200172313Y-170693328D02*
X200315170Y-170764757D01*
X200315170Y-170764757D02*
X200386599Y-170907614D01*
X200386599Y-170907614D02*
X200386599Y-171693328D01*
X200386599Y-170907614D02*
X200458027Y-170764757D01*
X200458027Y-170764757D02*
X200600884Y-170693328D01*
X200600884Y-170693328D02*
X200815170Y-170693328D01*
X200815170Y-170693328D02*
X200958027Y-170764757D01*
X200958027Y-170764757D02*
X201029456Y-170907614D01*
X201029456Y-170907614D02*
X201029456Y-171693328D01*
X202315170Y-171621900D02*
X202172313Y-171693328D01*
X202172313Y-171693328D02*
X201886599Y-171693328D01*
X201886599Y-171693328D02*
X201743741Y-171621900D01*
X201743741Y-171621900D02*
X201672313Y-171479042D01*
X201672313Y-171479042D02*
X201672313Y-170907614D01*
X201672313Y-170907614D02*
X201743741Y-170764757D01*
X201743741Y-170764757D02*
X201886599Y-170693328D01*
X201886599Y-170693328D02*
X202172313Y-170693328D01*
X202172313Y-170693328D02*
X202315170Y-170764757D01*
X202315170Y-170764757D02*
X202386599Y-170907614D01*
X202386599Y-170907614D02*
X202386599Y-171050471D01*
X202386599Y-171050471D02*
X201672313Y-171193328D01*
X202172313Y-170121900D02*
X201958027Y-170336185D01*
X203029455Y-170693328D02*
X203029455Y-171693328D01*
X203029455Y-170836185D02*
X203100884Y-170764757D01*
X203100884Y-170764757D02*
X203243741Y-170693328D01*
X203243741Y-170693328D02*
X203458027Y-170693328D01*
X203458027Y-170693328D02*
X203600884Y-170764757D01*
X203600884Y-170764757D02*
X203672313Y-170907614D01*
X203672313Y-170907614D02*
X203672313Y-171693328D01*
X204958027Y-171621900D02*
X204815170Y-171693328D01*
X204815170Y-171693328D02*
X204529456Y-171693328D01*
X204529456Y-171693328D02*
X204386598Y-171621900D01*
X204386598Y-171621900D02*
X204315170Y-171479042D01*
X204315170Y-171479042D02*
X204315170Y-170907614D01*
X204315170Y-170907614D02*
X204386598Y-170764757D01*
X204386598Y-170764757D02*
X204529456Y-170693328D01*
X204529456Y-170693328D02*
X204815170Y-170693328D01*
X204815170Y-170693328D02*
X204958027Y-170764757D01*
X204958027Y-170764757D02*
X205029456Y-170907614D01*
X205029456Y-170907614D02*
X205029456Y-171050471D01*
X205029456Y-171050471D02*
X204315170Y-171193328D01*
X205529455Y-170693328D02*
X206315170Y-170693328D01*
X206315170Y-170693328D02*
X205529455Y-171693328D01*
X205529455Y-171693328D02*
X206315170Y-171693328D01*
X207815170Y-170193328D02*
X208315170Y-171693328D01*
X208315170Y-171693328D02*
X208815170Y-170193328D01*
X209958027Y-171693328D02*
X209958027Y-170907614D01*
X209958027Y-170907614D02*
X209886598Y-170764757D01*
X209886598Y-170764757D02*
X209743741Y-170693328D01*
X209743741Y-170693328D02*
X209458027Y-170693328D01*
X209458027Y-170693328D02*
X209315169Y-170764757D01*
X209958027Y-171621900D02*
X209815169Y-171693328D01*
X209815169Y-171693328D02*
X209458027Y-171693328D01*
X209458027Y-171693328D02*
X209315169Y-171621900D01*
X209315169Y-171621900D02*
X209243741Y-171479042D01*
X209243741Y-171479042D02*
X209243741Y-171336185D01*
X209243741Y-171336185D02*
X209315169Y-171193328D01*
X209315169Y-171193328D02*
X209458027Y-171121900D01*
X209458027Y-171121900D02*
X209815169Y-171121900D01*
X209815169Y-171121900D02*
X209958027Y-171050471D01*
X209743741Y-170121900D02*
X209529455Y-170336185D01*
X210529455Y-170693328D02*
X211315170Y-170693328D01*
X211315170Y-170693328D02*
X210529455Y-171693328D01*
X210529455Y-171693328D02*
X211315170Y-171693328D01*
X212529456Y-170693328D02*
X212529456Y-172193328D01*
X212529456Y-171621900D02*
X212386598Y-171693328D01*
X212386598Y-171693328D02*
X212100884Y-171693328D01*
X212100884Y-171693328D02*
X211958027Y-171621900D01*
X211958027Y-171621900D02*
X211886598Y-171550471D01*
X211886598Y-171550471D02*
X211815170Y-171407614D01*
X211815170Y-171407614D02*
X211815170Y-170979042D01*
X211815170Y-170979042D02*
X211886598Y-170836185D01*
X211886598Y-170836185D02*
X211958027Y-170764757D01*
X211958027Y-170764757D02*
X212100884Y-170693328D01*
X212100884Y-170693328D02*
X212386598Y-170693328D01*
X212386598Y-170693328D02*
X212529456Y-170764757D01*
X213886599Y-170693328D02*
X213886599Y-171693328D01*
X213243741Y-170693328D02*
X213243741Y-171479042D01*
X213243741Y-171479042D02*
X213315170Y-171621900D01*
X213315170Y-171621900D02*
X213458027Y-171693328D01*
X213458027Y-171693328D02*
X213672313Y-171693328D01*
X213672313Y-171693328D02*
X213815170Y-171621900D01*
X213815170Y-171621900D02*
X213886599Y-171550471D01*
X215172313Y-171621900D02*
X215029456Y-171693328D01*
X215029456Y-171693328D02*
X214743742Y-171693328D01*
X214743742Y-171693328D02*
X214600884Y-171621900D01*
X214600884Y-171621900D02*
X214529456Y-171479042D01*
X214529456Y-171479042D02*
X214529456Y-170907614D01*
X214529456Y-170907614D02*
X214600884Y-170764757D01*
X214600884Y-170764757D02*
X214743742Y-170693328D01*
X214743742Y-170693328D02*
X215029456Y-170693328D01*
X215029456Y-170693328D02*
X215172313Y-170764757D01*
X215172313Y-170764757D02*
X215243742Y-170907614D01*
X215243742Y-170907614D02*
X215243742Y-171050471D01*
X215243742Y-171050471D02*
X214529456Y-171193328D01*
X215743741Y-170693328D02*
X216529456Y-170693328D01*
X216529456Y-170693328D02*
X215743741Y-171693328D01*
X215743741Y-171693328D02*
X216529456Y-171693328D01*
D10*
D11*
X178672312Y-168693328D02*
X178529455Y-168621900D01*
X178529455Y-168621900D02*
X178458026Y-168479042D01*
X178458026Y-168479042D02*
X178458026Y-167193328D01*
X179886598Y-168693328D02*
X179886598Y-167907614D01*
X179886598Y-167907614D02*
X179815169Y-167764757D01*
X179815169Y-167764757D02*
X179672312Y-167693328D01*
X179672312Y-167693328D02*
X179386598Y-167693328D01*
X179386598Y-167693328D02*
X179243740Y-167764757D01*
X179886598Y-168621900D02*
X179743740Y-168693328D01*
X179743740Y-168693328D02*
X179386598Y-168693328D01*
X179386598Y-168693328D02*
X179243740Y-168621900D01*
X179243740Y-168621900D02*
X179172312Y-168479042D01*
X179172312Y-168479042D02*
X179172312Y-168336185D01*
X179172312Y-168336185D02*
X179243740Y-168193328D01*
X179243740Y-168193328D02*
X179386598Y-168121900D01*
X179386598Y-168121900D02*
X179743740Y-168121900D01*
X179743740Y-168121900D02*
X179886598Y-168050471D01*
X180458026Y-167693328D02*
X180815169Y-168693328D01*
X181172312Y-167693328D02*
X180815169Y-168693328D01*
X180815169Y-168693328D02*
X180672312Y-169050471D01*
X180672312Y-169050471D02*
X180600883Y-169121900D01*
X180600883Y-169121900D02*
X180458026Y-169193328D01*
X181958026Y-168693328D02*
X181815169Y-168621900D01*
X181815169Y-168621900D02*
X181743740Y-168550471D01*
X181743740Y-168550471D02*
X181672312Y-168407614D01*
X181672312Y-168407614D02*
X181672312Y-167979042D01*
X181672312Y-167979042D02*
X181743740Y-167836185D01*
X181743740Y-167836185D02*
X181815169Y-167764757D01*
X181815169Y-167764757D02*
X181958026Y-167693328D01*
X181958026Y-167693328D02*
X182172312Y-167693328D01*
X182172312Y-167693328D02*
X182315169Y-167764757D01*
X182315169Y-167764757D02*
X182386598Y-167836185D01*
X182386598Y-167836185D02*
X182458026Y-167979042D01*
X182458026Y-167979042D02*
X182458026Y-168407614D01*
X182458026Y-168407614D02*
X182386598Y-168550471D01*
X182386598Y-168550471D02*
X182315169Y-168621900D01*
X182315169Y-168621900D02*
X182172312Y-168693328D01*
X182172312Y-168693328D02*
X181958026Y-168693328D01*
X183743741Y-167693328D02*
X183743741Y-168693328D01*
X183100883Y-167693328D02*
X183100883Y-168479042D01*
X183100883Y-168479042D02*
X183172312Y-168621900D01*
X183172312Y-168621900D02*
X183315169Y-168693328D01*
X183315169Y-168693328D02*
X183529455Y-168693328D01*
X183529455Y-168693328D02*
X183672312Y-168621900D01*
X183672312Y-168621900D02*
X183743741Y-168550471D01*
X184243741Y-167693328D02*
X184815169Y-167693328D01*
X184458026Y-167193328D02*
X184458026Y-168479042D01*
X184458026Y-168479042D02*
X184529455Y-168621900D01*
X184529455Y-168621900D02*
X184672312Y-168693328D01*
X184672312Y-168693328D02*
X184815169Y-168693328D01*
D10*
D11*
X197002200Y-191507200D02*
X197002200Y-194507200D01*
D10*
D11*
X261002200Y-191507200D02*
X261002200Y-198007200D01*
M02*
